<?xml version="1.0" encoding="UTF-8" standalone="no"?>
<!-- Generator: Adobe Illustrator 20.0.0, SVG Export Plug-In . SVG Version: 6.00 Build 0)  -->

<svg
   xmlns:osb="http://www.openswatchbook.org/uri/2009/osb"
   xmlns:dc="http://purl.org/dc/elements/1.1/"
   xmlns:cc="http://creativecommons.org/ns#"
   xmlns:rdf="http://www.w3.org/1999/02/22-rdf-syntax-ns#"
   xmlns:svg="http://www.w3.org/2000/svg"
   xmlns="http://www.w3.org/2000/svg"
   xmlns:xlink="http://www.w3.org/1999/xlink"
   xmlns:sodipodi="http://sodipodi.sourceforge.net/DTD/sodipodi-0.dtd"
   xmlns:inkscape="http://www.inkscape.org/namespaces/inkscape"
   version="1.1"
   id="Layer_1"
   x="0px"
   y="0px"
   viewBox="0 0 41.599997 34.4"
   xml:space="preserve"
   inkscape:version="0.91 r13725"
   sodipodi:docname="logo.svg"
   width="41.599998"
   height="34.400002"><metadata
     id="metadata17"><rdf:RDF><cc:Work
         rdf:about=""><dc:format>image/svg+xml</dc:format><dc:type
           rdf:resource="http://purl.org/dc/dcmitype/StillImage" /><dc:title></dc:title></cc:Work></rdf:RDF></metadata><defs
     id="defs15"><linearGradient
       id="linearGradient4161"
       osb:paint="solid"><stop
         style="stop-color:#ffffff;stop-opacity:1;"
         offset="0"
         id="stop4163" /></linearGradient><linearGradient
       inkscape:collect="always"
       xlink:href="#linearGradient4161"
       id="linearGradient4165"
       x1="271.5"
       y1="371.2"
       x2="311.1"
       y2="371.2"
       gradientUnits="userSpaceOnUse" /></defs><sodipodi:namedview
     pagecolor="#ffffff"
     bordercolor="#666666"
     borderopacity="1"
     objecttolerance="10"
     gridtolerance="10"
     guidetolerance="10"
     inkscape:pageopacity="0"
     inkscape:pageshadow="2"
     inkscape:window-width="1920"
     inkscape:window-height="1017"
     id="namedview13"
     showgrid="false"
     fit-margin-top="1"
     fit-margin-left="1"
     fit-margin-right="1"
     fit-margin-bottom="1"
     inkscape:zoom="9.4197745"
     inkscape:cx="37.934533"
     inkscape:cy="0.36884071"
     inkscape:window-x="-8"
     inkscape:window-y="-8"
     inkscape:window-maximized="1"
     inkscape:current-layer="Layer_1" /><style
     type="text/css"
     id="style3">
	.st0{fill:#1D1D1B;}
</style><g
     id="g5"
     transform="translate(-270.5,-354)"
     style="fill-opacity:1;fill:url(#linearGradient4165)"><path
       class="st0"
       d="m 291.3,355.1 c 2.7,0 5.2,0.5 7.6,1.5 2.4,1 4.5,2.4 6.3,4.2 1.8,1.8 3.2,3.8 4.3,6.2 1.1,2.4 1.6,4.9 1.6,7.5 l 0,-19.5 -19.8,0 z"
       id="path7"
       inkscape:connector-curvature="0"
       style="fill-opacity:1;fill:url(#linearGradient4165)" /><path
       class="st0"
       d="m 271.5,374.5 c 0,-2.6 0.5,-5.1 1.6,-7.5 1,-2.4 2.5,-4.4 4.3,-6.2 1.8,-1.8 3.9,-3.2 6.3,-4.2 2.4,-1 5,-1.5 7.7,-1.5 l -19.8,0 0,19.4 z"
       id="path9"
       inkscape:connector-curvature="0"
       style="fill-opacity:1;fill:url(#linearGradient4165)" /><path
       class="st0"
       d="m 300.3,365.6 c -1.1,-1.1 -2.5,-2.1 -4,-2.8 -1.6,-0.7 -3.2,-1 -4.9,-1 -1.8,0 -3.4,0.3 -5,1 -1.6,0.7 -2.9,1.6 -4.1,2.8 -1.2,1.2 -2.1,2.5 -2.8,4.1 -0.7,1.5 -1,3.2 -1,4.9 0,1.7 0.3,3.4 1,4.9 0.7,1.6 1.6,2.9 2.8,4.1 1.2,1.2 2.5,2.1 4.1,2.8 1.5,0.7 3.2,1 4.9,1 1.7,0 3.3,-0.3 4.9,-1 1.6,-0.7 2.9,-1.6 4,-2.8 1.1,-1.2 2.1,-2.5 2.8,-4.1 0.7,-1.5 1,-3.2 1,-4.9 0,-1.7 -0.3,-3.3 -1,-4.9 -0.7,-1.6 -1.6,-3 -2.7,-4.1 z"
       id="path11"
       inkscape:connector-curvature="0"
       style="fill-opacity:1;fill:url(#linearGradient4165)" /></g></svg>