<?xml version="1.0" encoding="UTF-8" standalone="no"?>
<!-- Generator: Adobe Illustrator 20.0.0, SVG Export Plug-In . SVG Version: 6.00 Build 0)  -->

<svg
   xmlns:dc="http://purl.org/dc/elements/1.1/"
   xmlns:cc="http://creativecommons.org/ns#"
   xmlns:rdf="http://www.w3.org/1999/02/22-rdf-syntax-ns#"
   xmlns:svg="http://www.w3.org/2000/svg"
   xmlns="http://www.w3.org/2000/svg"
   xmlns:sodipodi="http://sodipodi.sourceforge.net/DTD/sodipodi-0.dtd"
   xmlns:inkscape="http://www.inkscape.org/namespaces/inkscape"
   version="1.1"
   id="Слой_1"
   x="0px"
   y="0px"
   viewBox="0 0 54 65.099998"
   xml:space="preserve"
   inkscape:version="0.91 r13725"
   sodipodi:docname="Path [преобразованный].svg"
   width="54"
   height="65.099998"><metadata
     id="metadata15"><rdf:RDF><cc:Work
         rdf:about=""><dc:format>image/svg+xml</dc:format><dc:type
           rdf:resource="http://purl.org/dc/dcmitype/StillImage" /><dc:title></dc:title></cc:Work></rdf:RDF></metadata><defs
     id="defs13" /><sodipodi:namedview
     pagecolor="#ffffff"
     bordercolor="#666666"
     borderopacity="1"
     objecttolerance="10"
     gridtolerance="10"
     guidetolerance="10"
     inkscape:pageopacity="0"
     inkscape:pageshadow="2"
     inkscape:window-width="640"
     inkscape:window-height="480"
     id="namedview11"
     showgrid="false"
     fit-margin-top="1"
     fit-margin-bottom="1"
     fit-margin-right="1"
     fit-margin-left="1"
     inkscape:zoom="3.6875"
     inkscape:cx="26.5"
     inkscape:cy="33"
     inkscape:window-x="0"
     inkscape:window-y="0"
     inkscape:window-maximized="0"
     inkscape:current-layer="Слой_1" /><style
     type="text/css"
     id="style3">
	.st0{fill-rule:evenodd;clip-rule:evenodd;fill:none;}
	.st1{fill:none;}
</style><path
     id="path9"
     d="m 25.5,34.1 c 0,0 0,0 0,0 -0.5,0 -0.9,0 -1.1,-0.3 l -3.8,-4.3 c -0.5,-0.6 -0.5,-1.5 0.1,-2.1 0.6,-0.5 1.6,-0.5 2.1,0.2 l 2.8,3.2 6.6,-6.6 c 0.6,-0.6 1.5,-0.6 2.1,0 0.6,0.6 0.6,1.5 0,2.1 l -7.8,7.6 c -0.2,0.2 -0.6,0.2 -1,0.2 z m 23,-21 -46,0 C 1.7,13.1 1,12.4 1,11.5 1,10.7 1.7,10 2.5,10 l 46,0 c 0.8,0 1.5,0.7 1.5,1.5 0,0.9 -0.6,1.6 -1.5,1.6 z m 2.5,51 c -0.3,0 -0.6,-0.1 -0.8,-0.3 L 26.5,47.5 2.9,63.8 C 2.4,64.1 2,64.2 1.5,63.9 1.1,63.6 1,63.1 1,62.6 L 1,6.7 C 1,3.6 3.2,1 6.4,1 l 40,0 C 49.7,1 53,3.7 53,6.7 l 0,55.8 c 0,0.6 -0.5,1.1 -1,1.3 -0.3,0.2 -0.7,0.3 -1,0.3 z M 26.5,44.2 c 0.3,0 0.8,0.1 1.1,0.3 L 50,59.7 50,6.7 C 50,5.3 48,4 46.4,4 L 6.4,4 C 4.8,4 4,5.3 4,6.7 l 0,53 21.9,-15.2 c 0.3,-0.2 0.3,-0.3 0.6,-0.3 z"
     inkscape:connector-curvature="0" /></svg>