<?xml version="1.0" encoding="UTF-8" standalone="no"?>
<!-- Generator: Adobe Illustrator 20.0.0, SVG Export Plug-In . SVG Version: 6.00 Build 0)  -->

<svg
   xmlns:dc="http://purl.org/dc/elements/1.1/"
   xmlns:cc="http://creativecommons.org/ns#"
   xmlns:rdf="http://www.w3.org/1999/02/22-rdf-syntax-ns#"
   xmlns:svg="http://www.w3.org/2000/svg"
   xmlns="http://www.w3.org/2000/svg"
   xmlns:sodipodi="http://sodipodi.sourceforge.net/DTD/sodipodi-0.dtd"
   xmlns:inkscape="http://www.inkscape.org/namespaces/inkscape"
   version="1.1"
   id="Слой_1"
   x="0px"
   y="0px"
   viewBox="0 0 65 53"
   xml:space="preserve"
   inkscape:version="0.91 r13725"
   sodipodi:docname="icon-tech1.svg"
   width="65"
   height="53"><metadata
     id="metadata19"><rdf:RDF><cc:Work
         rdf:about=""><dc:format>image/svg+xml</dc:format><dc:type
           rdf:resource="http://purl.org/dc/dcmitype/StillImage" /><dc:title></dc:title></cc:Work></rdf:RDF></metadata><defs
     id="defs17" /><sodipodi:namedview
     pagecolor="#ffffff"
     bordercolor="#666666"
     borderopacity="1"
     objecttolerance="10"
     gridtolerance="10"
     guidetolerance="10"
     inkscape:pageopacity="0"
     inkscape:pageshadow="2"
     inkscape:window-width="1920"
     inkscape:window-height="1017"
     id="namedview15"
     showgrid="false"
     fit-margin-bottom="1"
     fit-margin-top="1"
     fit-margin-left="1"
     fit-margin-right="1"
     inkscape:zoom="7.2615385"
     inkscape:cx="59.7979"
     inkscape:cy="9.9192893"
     inkscape:window-x="-8"
     inkscape:window-y="-8"
     inkscape:window-maximized="1"
     inkscape:current-layer="Слой_1" /><style
     type="text/css"
     id="style3">
	.st0{fill:none;}
	.st1{fill-rule:evenodd;clip-rule:evenodd;fill:none;}
</style><path
     id="path13"
     d="m 23.6,32.7 c -0.4,0 -0.8,-0.1 -1.1,-0.4 -0.6,-0.6 -0.6,-1.5 0,-2.1 l 17.9,-18 c 0.6,-0.6 1.5,-0.6 2.1,0 0.6,0.6 0.6,1.5 0,2.1 l -17.9,18 c -0.2,0.2 -0.6,0.4 -1,0.4 z m 12.8,-1.4 c -0.4,0 -0.8,-0.1 -1.1,-0.4 -0.6,-0.6 -0.6,-1.5 0,-2.1 l 8.3,-8.3 c 0.6,-0.6 1.5,-0.6 2.1,0 0.6,0.6 0.6,1.5 0,2.1 l -8.3,8.3 c -0.2,0.2 -0.6,0.4 -1,0.4 z M 53.2,46 13.1,46 C 7.2,46 2.5,41.3 2.5,35.5 2.5,34.7 3.2,34 4,34 l 58.4,0 c 0.8,0 1.5,0.7 1.5,1.5 C 63.8,41.3 59.1,46 53.2,46 Z M 5.6,37 c 0.7,3.4 3.8,6 7.5,6 l 40.1,0 c 3.7,0 6.8,-2.6 7.5,-6 L 5.6,37 Z m 58.3,-0.5 c 0,5.3 -4.3,9.5 -9.5,9.5 l -43,0 C 6.2,46 1.9,41.7 1.9,36.5 l 0,-26 C 1.9,5.2 6.2,1 11.4,1 l 43,0 c 5.2,0 9.5,4.3 9.5,9.5 l 0,26 z m -3,-26 C 60.9,6.9 58,4 54.4,4 l -43,0 C 7.8,4 4.9,6.9 4.9,10.5 l 0,26 c 0,3.6 2.9,6.5 6.5,6.5 l 43,0 c 3.6,0 6.5,-2.9 6.5,-6.5 l 0,-26 z M 62.5,52 2.5,52 C 1.7,52 1,51.3 1,50.5 1,49.7 1.7,49 2.5,49 l 60,0 c 0.8,0 1.5,0.7 1.5,1.5 0,0.8 -0.7,1.5 -1.5,1.5 z"
     inkscape:connector-curvature="0" /></svg>