<?xml version="1.0" encoding="UTF-8" standalone="no"?>
<!-- Generator: Adobe Illustrator 20.0.0, SVG Export Plug-In . SVG Version: 6.00 Build 0)  -->

<svg
   xmlns:dc="http://purl.org/dc/elements/1.1/"
   xmlns:cc="http://creativecommons.org/ns#"
   xmlns:rdf="http://www.w3.org/1999/02/22-rdf-syntax-ns#"
   xmlns:svg="http://www.w3.org/2000/svg"
   xmlns="http://www.w3.org/2000/svg"
   xmlns:sodipodi="http://sodipodi.sourceforge.net/DTD/sodipodi-0.dtd"
   xmlns:inkscape="http://www.inkscape.org/namespaces/inkscape"
   version="1.1"
   id="artwork"
   x="0px"
   y="0px"
   viewBox="0 0 100.62258 117.9"
   xml:space="preserve"
   inkscape:version="0.91 r13725"
   sodipodi:docname="brand-8.svg"
   width="100.62258"
   height="117.9"><metadata
     id="metadata135"><rdf:RDF><cc:Work
         rdf:about=""><dc:format>image/svg+xml</dc:format><dc:type
           rdf:resource="http://purl.org/dc/dcmitype/StillImage" /><dc:title></dc:title></cc:Work></rdf:RDF></metadata><defs
     id="defs133" /><sodipodi:namedview
     pagecolor="#ffffff"
     bordercolor="#666666"
     borderopacity="1"
     objecttolerance="10"
     gridtolerance="10"
     guidetolerance="10"
     inkscape:pageopacity="0"
     inkscape:pageshadow="2"
     inkscape:window-width="640"
     inkscape:window-height="480"
     id="namedview131"
     showgrid="false"
     fit-margin-bottom="1"
     fit-margin-top="1"
     fit-margin-left="1"
     fit-margin-right="1"
     inkscape:zoom="0.40972222"
     inkscape:cx="55.311293"
     inkscape:cy="54.999998"
     inkscape:window-x="0"
     inkscape:window-y="0"
     inkscape:window-maximized="0"
     inkscape:current-layer="artwork" /><style
     type="text/css"
     id="style3">
	.st0{fill:#DFDFC6;}
	.st1{fill:#E1BD3F;}
	.st2{fill:#1E1817;}
</style><g
     id="g5"
     transform="translate(-232.68871,-225.1)"><g
       id="g7"><g
         id="g9"><path
           class="st0"
           d="m 268.1,233.1 c -1.1,0.1 -1.8,-1 -1.9,-2.6 -0.1,-1.7 0.9,-3.9 2.7,-4 0.7,0 1.2,0.3 1.2,1 0,1 -1,1.8 -1.8,1.9 -0.2,0 -0.4,-0.1 -0.4,-0.4 0,-0.1 0,-0.3 0.1,-0.3 0.1,0 0.1,0.1 0.3,0.1 0.5,0 1.1,-0.6 1.1,-1.1 0,-0.2 -0.2,-0.5 -0.6,-0.5 -1.1,0.1 -2,1.8 -1.9,3.3 0.1,1.3 0.6,2 1.1,2 0.9,-0.1 1.3,-1.3 1.3,-2 0,-0.1 0,-0.2 0,-0.3 0,-0.2 0.1,-0.2 0.3,-0.2 0.2,0 0.5,0.1 0.5,0.3 0,0.5 0,0.9 0,1.3 0,0.4 0.1,0.8 0.1,1.4 0.2,0 0.3,-0.1 0.5,-0.1 0.4,0 0.2,0.7 -0.1,0.7 -0.1,0 -0.2,0 -0.4,0 0,1 -0.1,2.1 -1.2,2.2 -0.6,0 -1,-0.4 -1,-1 -0.1,-0.9 0.7,-1.4 1.5,-1.7 0,0 0,-0.1 0,-0.1 0,-0.4 -0.1,-0.7 -0.1,-0.9 -0.3,0.7 -0.8,1 -1.3,1 z m 1.4,0.7 c -0.6,0.2 -0.9,0.6 -0.9,1 0,0.3 0.2,0.4 0.3,0.4 0.5,-0.1 0.6,-0.7 0.6,-1.4 z"
           id="path11"
           inkscape:connector-curvature="0"
           style="fill:#dfdfc6" /><path
           class="st0"
           d="m 271.8,231.8 c 0,-0.6 0.1,-1.2 0.4,-1.9 -0.2,0 -0.5,0 -0.7,0 0,0 -0.1,0 -0.1,0 0,0.3 0,1.1 -0.1,1.6 -0.1,0.4 -0.6,0.1 -0.5,-0.2 0.1,-0.4 0.1,-1.1 0.1,-1.5 -0.2,-0.1 -0.4,-0.3 -0.4,-0.5 0,-0.2 0.2,-0.4 0.4,-0.4 0.2,0 0.5,0.1 0.6,0.4 0.3,0 0.4,0 0.5,0 0.2,0 0.3,0 0.5,0 0.1,0 0.5,0.3 0.5,0.5 0,0.1 -0.4,1.2 -0.3,2 0,0.2 0.1,0.5 0.4,0.5 0.4,0 0.5,-0.6 0.6,-1 0,-0.2 0.1,-0.3 0.2,-0.3 0.1,0 0.3,0.2 0.3,0.3 0,0 0,0 0,0.1 -0.1,0.6 -0.5,1.4 -1.2,1.4 -0.6,0 -1.1,-0.2 -1.2,-1 z"
           id="path13"
           inkscape:connector-curvature="0"
           style="fill:#dfdfc6" /><path
           class="st0"
           d="m 274.3,231.6 c 0.1,0.3 0.4,0.5 0.8,0.5 0.7,0 1,-0.6 1.1,-1.1 0.1,-0.4 0.6,-0.2 0.5,0.1 0,0.5 -0.4,1.6 -1.7,1.6 -0.8,0 -1.6,-0.6 -1.6,-1.7 0,-1.1 0.6,-2 1.3,-2 0.5,0 0.8,0.3 0.8,0.9 0,0.6 -0.4,1.4 -1.2,1.7 z m -0.2,-0.5 c 0.4,-0.2 0.7,-0.7 0.7,-1.2 0,-0.2 -0.1,-0.3 -0.2,-0.3 -0.4,0 -0.5,1 -0.5,1.3 0,0.1 0,0.2 0,0.2 z"
           id="path15"
           inkscape:connector-curvature="0"
           style="fill:#dfdfc6" /><path
           class="st0"
           d="m 279.3,231.1 c 0,-0.2 0.1,-0.3 0.2,-0.3 0.1,0 0.3,0.2 0.3,0.4 0,0 0,0 0,0.1 -0.1,0.6 -0.5,1.4 -1.3,1.4 -0.3,0 -0.6,-0.1 -0.7,-0.3 -0.2,0.2 -0.4,0.4 -0.8,0.4 -0.7,0 -1.1,-0.5 -1.1,-1.3 0,-1.5 1,-2.4 2.1,-2.4 0.2,0 0.4,0.1 0.4,0.4 0,0.1 0,0.2 -0.1,0.2 -0.1,0 -0.2,0 -0.3,0 -0.7,0 -1.5,0.6 -1.4,1.9 0,0.5 0.2,0.7 0.5,0.7 0.2,0 0.4,-0.2 0.5,-0.5 0,-0.4 0,-0.9 0,-1.3 0,-0.2 0,-0.2 0,-0.3 0,-0.1 0.1,-0.2 0.2,-0.2 0.3,0 0.5,0.2 0.5,0.4 0,0.5 0,1 0,1.4 0,0.2 0.1,0.4 0.3,0.4 0.4,-0.2 0.6,-0.7 0.7,-1.1 z"
           id="path17"
           inkscape:connector-curvature="0"
           style="fill:#dfdfc6" /><path
           class="st0"
           d="m 279.3,228.3 c 0,-0.5 0,-1 0,-1.5 0,-0.3 -0.1,-0.3 -0.1,-0.3 0,-0.1 0.2,-0.1 0.3,-0.1 0.3,0 0.5,0.2 0.5,0.4 0,0.5 0,1 0,1.5 0.5,0 1.2,0 1.8,-0.1 0.3,-0.3 0.2,0.6 -0.1,0.6 -0.7,0 -1.3,0 -1.7,0 0,0.9 0,1.8 0,2.8 0,0.3 0.1,0.4 0.3,0.4 0.4,0 0.5,-0.6 0.6,-1 0,-0.2 0.1,-0.3 0.2,-0.3 0.1,0 0.3,0.2 0.3,0.4 0,0 0,0 0,0.1 -0.1,0.6 -0.5,1.4 -1.3,1.4 -0.5,0 -0.8,-0.3 -0.8,-1 0,-0.9 0,-1.9 0,-2.8 -0.4,0 -0.6,0 -0.6,0 -0.3,0 -0.5,-0.6 -0.2,-0.6 0,0.1 0.3,0.1 0.8,0.1 z"
           id="path19"
           inkscape:connector-curvature="0"
           style="fill:#dfdfc6" /><path
           class="st0"
           d="m 284.6,232.7 c -1.1,0 -1.7,-1.1 -1.7,-2.7 0,-1.7 1.1,-3.9 3,-3.9 0.7,0 1.1,0.4 1.1,1.1 0,1 -1.1,1.7 -1.9,1.7 -0.2,0 -0.4,-0.1 -0.4,-0.4 0,-0.1 0,-0.3 0.1,-0.3 0.1,0 0.1,0.1 0.3,0.1 0.5,0 1.1,-0.5 1.1,-1.1 0,-0.2 -0.1,-0.5 -0.5,-0.5 -1.1,0 -2.1,1.7 -2.1,3.2 0,1.3 0.4,2 1,2.1 0.9,0 1.4,-1.2 1.4,-1.9 0,-0.1 0,-0.2 0,-0.3 0,-0.2 0.1,-0.2 0.3,-0.2 0.2,0 0.5,0.1 0.5,0.3 -0.1,0.5 -0.1,0.9 -0.1,1.3 0,0.4 0,0.8 0,1.4 0.2,0 0.3,0 0.5,0 0.4,0 0.2,0.7 -0.1,0.7 -0.1,0 -0.2,0 -0.4,0 -0.1,1 -0.3,2.1 -1.3,2.1 -0.6,0 -1,-0.5 -1,-1 0,-0.9 0.8,-1.4 1.6,-1.6 0,0 0,-0.1 0,-0.1 0,-0.4 0,-0.7 0,-0.9 -0.4,0.6 -0.9,0.9 -1.4,0.9 z m 1.3,0.7 c -0.6,0.2 -0.9,0.5 -0.9,0.9 0,0.3 0.1,0.4 0.3,0.4 0.4,0.1 0.6,-0.6 0.6,-1.3 z"
           id="path21"
           inkscape:connector-curvature="0"
           style="fill:#dfdfc6" /><path
           class="st0"
           d="m 291.2,231.3 c -0.1,0.5 -0.5,0.8 -1.1,0.8 -0.2,0 -0.3,0 -0.4,-0.1 -0.2,0.4 -0.6,0.6 -1.1,0.6 -0.9,0 -1.3,-0.8 -1.3,-1.7 0,-1.3 0.8,-2.1 1,-2 0.2,0 0.4,0.5 0.2,0.6 -0.1,0.2 -0.4,0.5 -0.4,1.4 0,0.7 0.3,1.1 0.6,1.1 0.2,0 0.4,-0.1 0.5,-0.3 -0.4,-0.4 -0.6,-0.9 -0.6,-1.6 0,-0.6 0.3,-1 0.8,-1 0.4,0 0.7,0.6 0.7,1.5 0,0.3 -0.1,0.6 -0.2,0.9 0.1,0 0.1,0 0.2,0 0.4,0 0.6,-0.3 0.7,-0.6 0,-0.1 0.6,-0.1 0.4,0.4 z m -1.8,-0.1 c 0,-0.1 0,-0.3 0,-0.4 0,-0.6 0,-1 -0.2,-1 -0.1,0 -0.2,0.1 -0.2,0.4 0,0.3 0.2,0.7 0.4,1 z"
           id="path23"
           inkscape:connector-curvature="0"
           style="fill:#dfdfc6" /><path
           class="st0"
           d="m 294.5,231.4 c -0.1,0.5 -0.5,0.8 -1.1,0.8 -0.2,0 -0.3,0 -0.4,-0.1 -0.2,0.4 -0.6,0.6 -1.1,0.6 -0.9,0 -1.3,-0.8 -1.2,-1.7 0,-1.3 0.8,-2 1,-2 0.2,0 0.4,0.5 0.2,0.6 -0.2,0.2 -0.4,0.5 -0.5,1.4 0,0.7 0.3,1.1 0.6,1.1 0.2,0 0.4,-0.1 0.5,-0.3 -0.4,-0.4 -0.6,-0.9 -0.6,-1.6 0,-0.6 0.3,-1 0.8,-1 0.4,0 0.7,0.7 0.7,1.5 0,0.3 -0.1,0.6 -0.2,0.9 0.1,0 0.1,0 0.2,0 0.4,0 0.6,-0.3 0.7,-0.6 -0.1,-0.1 0.5,-0.1 0.4,0.4 z m -1.9,-0.1 c 0,-0.1 0,-0.3 0,-0.4 0,-0.6 0,-1 -0.2,-1 -0.1,0 -0.2,0.1 -0.2,0.4 0.1,0.3 0.2,0.7 0.4,1 z"
           id="path25"
           inkscape:connector-curvature="0"
           style="fill:#dfdfc6" /><path
           class="st0"
           d="m 293.8,231.4 c 0.1,-1.3 0.9,-2.1 1.9,-2.2 0,-0.7 0.1,-1.3 0.1,-2 0,-0.3 -0.1,-0.3 -0.1,-0.3 0,-0.1 0.2,-0.1 0.3,-0.1 0.3,0 0.5,0.2 0.5,0.4 -0.1,1.6 -0.2,3.1 -0.3,4.7 0,0.2 0.1,0.4 0.3,0.4 0.4,0 0.5,-0.5 0.6,-0.9 0,-0.2 0.1,-0.3 0.2,-0.3 0.1,0 0.3,0.2 0.3,0.4 0,0 0,0 0,0.1 -0.2,0.6 -0.6,1.3 -1.3,1.3 -0.3,0 -0.5,-0.2 -0.7,-0.4 -0.2,0.2 -0.5,0.3 -0.8,0.3 -0.6,0 -1,-0.5 -1,-1.4 z m 1.8,0.6 c 0,-0.7 0.1,-1.4 0.1,-2.2 -0.6,0.1 -1.1,0.5 -1.2,1.6 0,0.6 0.2,0.9 0.6,0.9 0.2,0 0.4,-0.1 0.5,-0.3 z"
           id="path27"
           inkscape:connector-curvature="0"
           style="fill:#dfdfc6" /><path
           class="st0"
           d="m 297.2,231.4 c 0.1,-0.4 0.3,-0.9 0.5,-1.3 -0.1,-0.1 -0.1,-0.3 -0.1,-0.4 0,-0.3 0.6,-0.7 0.8,-0.6 0.2,0 0.3,0.2 0.3,0.4 0,0.3 -0.2,0.5 -0.3,0.6 0.4,0.8 0.9,1.1 0.8,1.9 0,0.1 0,0.2 -0.1,0.3 0.4,-0.1 0.7,-0.3 0.8,-0.6 0.1,-0.2 0.1,-0.2 0.2,-0.2 0.2,0 0.3,0.2 0.3,0.4 0,0.2 -0.2,0.5 -0.5,0.6 -0.3,0.2 -0.7,0.3 -1.2,0.3 -0.2,0.2 -0.5,0.3 -0.9,0.3 -0.4,0 -0.8,-0.2 -1,-0.4 -0.4,-0.4 -0.1,-0.9 0,-0.9 0.2,0 1,0.6 1.4,0.6 0.1,-0.1 0.2,-0.3 0.2,-0.5 0,-0.5 -0.3,-0.9 -0.6,-1.3 -0.2,0.3 -0.3,0.6 -0.4,1 0.2,0.3 -0.3,0.1 -0.2,-0.2 z"
           id="path29"
           inkscape:connector-curvature="0"
           style="fill:#dfdfc6" /></g><g
         id="g31"><path
           class="st0"
           d="m 260.6,231.8 c -4.1,0.4 -8.2,0.8 -12.2,1.4 -0.3,0 -0.6,-0.2 -0.7,-0.5 0,-0.3 0.2,-0.6 0.5,-0.6 4.1,-0.6 8.2,-1 12.3,-1.4 0.3,0 0.6,0.2 0.6,0.5 0.1,0.3 -0.2,0.6 -0.5,0.6 z"
           id="path33"
           inkscape:connector-curvature="0"
           style="fill:#dfdfc6" /></g><g
         id="g35"><path
           class="st0"
           d="m 317.6,233.2 c -4.1,-0.6 -8.1,-1 -12.2,-1.4 -0.3,0 -0.6,-0.3 -0.5,-0.6 0,-0.3 0.3,-0.5 0.6,-0.5 4.1,0.4 8.2,0.8 12.3,1.4 0.3,0 0.5,0.3 0.5,0.6 -0.1,0.4 -0.4,0.6 -0.7,0.5 z"
           id="path37"
           inkscape:connector-curvature="0"
           style="fill:#dfdfc6" /></g></g><g
       id="g39"><path
         class="st1"
         d="m 269.7,341.5 c 0,-0.2 0.2,-0.5 0.3,-0.5 0,0 0.1,0 0.1,0.1 0,0 0.2,0.2 0.5,0.2 0.4,0 0.6,-0.2 0.6,-0.6 0,-1 -2.1,-1.1 -2.1,-2.9 0,-1.2 1.3,-2.4 2.4,-2.4 0.7,0 1.1,0.4 1.1,1.1 0,1 -1.1,1.9 -1.7,1.9 -0.3,0 -0.5,-0.3 -0.5,-0.5 0,-0.1 0.1,-0.1 0.2,-0.1 0.5,0 1.3,-0.7 1.3,-1.3 0,-0.3 -0.1,-0.5 -0.5,-0.5 -0.6,0 -1.7,0.8 -1.7,1.7 0,1.4 2.1,1.4 2.1,2.8 0,0.7 -0.6,1.3 -1.3,1.3 -0.6,0.1 -0.8,-0.3 -0.8,-0.3 z"
         id="path41"
         inkscape:connector-curvature="0"
         style="fill:#e1bd3f" /><path
         class="st1"
         d="m 273,336.8 c 0,-0.3 0.2,-0.5 0.5,-0.5 0.3,0 0.5,0.2 0.5,0.5 0,0.3 -0.2,0.5 -0.5,0.5 -0.3,0.1 -0.5,-0.2 -0.5,-0.5 z m 0.7,4 c 0,0.1 0,0.4 0.2,0.4 0.3,0 0.5,-0.6 0.6,-0.9 0.1,-0.5 0.6,-0.1 0.5,0.2 -0.2,0.6 -0.5,1.4 -1.3,1.4 -0.5,0 -0.7,-0.4 -0.7,-0.8 l 0,-2.3 c 0,-0.2 0,-0.2 0,-0.3 0,-0.1 0.1,-0.1 0.2,-0.1 0.3,0 0.5,0.2 0.5,0.4 l 0,2 z"
         id="path43"
         inkscape:connector-curvature="0"
         style="fill:#e1bd3f" /><path
         class="st1"
         d="m 274.5,338.7 c 0,-0.2 0,-0.2 0,-0.3 0,-0.1 0.1,-0.1 0.2,-0.1 0.3,0 0.5,0.2 0.5,0.4 l 0,0.4 c 0.2,-0.5 0.6,-0.9 1,-0.9 0.6,0 0.7,0.5 0.7,0.9 l 0,1.8 c 0,0.1 0,0.4 0.2,0.4 0.4,0 0.5,-0.6 0.6,-0.9 0,-0.2 0.1,-0.3 0.2,-0.3 0.1,0 0.3,0.2 0.3,0.4 0,0 0,0 0,0.1 -0.1,0.6 -0.5,1.4 -1.3,1.4 -0.5,0 -0.7,-0.4 -0.7,-0.8 l 0,-1.8 c 0,-0.3 0,-0.5 -0.2,-0.5 -0.3,0 -0.8,0.8 -0.9,1.4 l 0,1.3 c 0,0.2 0,0.4 -0.2,0.4 -0.2,0 -0.4,-0.1 -0.4,-0.4 l 0,-2.9 z"
         id="path45"
         inkscape:connector-curvature="0"
         style="fill:#e1bd3f" /><path
         class="st1"
         d="m 277.6,340.2 c 0,-1 0.6,-2 1.4,-2 0.6,0 0.8,0.6 0.8,0.9 0,0.3 -0.6,0.5 -0.6,0.2 0,-0.1 -0.1,-0.5 -0.4,-0.5 -0.3,0 -0.6,0.6 -0.6,1.4 0,0.7 0.4,1.1 0.9,1.1 0.7,0 1,-0.6 1.1,-1.1 0.1,-0.4 0.6,-0.2 0.5,0.1 -0.1,0.5 -0.4,1.6 -1.7,1.6 -0.7,-0.1 -1.4,-0.6 -1.4,-1.7 z"
         id="path47"
         inkscape:connector-curvature="0"
         style="fill:#e1bd3f" /><path
         class="st1"
         d="m 281,340.7 c 0.1,0.3 0.4,0.5 0.8,0.5 0.7,0 1,-0.6 1.1,-1.1 0.1,-0.4 0.6,-0.2 0.5,0.1 -0.1,0.5 -0.4,1.6 -1.7,1.6 -0.8,0 -1.5,-0.6 -1.5,-1.7 0,-1.1 0.7,-1.9 1.3,-1.9 0.5,0 0.8,0.4 0.8,0.9 0,0.6 -0.5,1.4 -1.3,1.6 z m -0.1,-0.5 c 0.4,-0.2 0.7,-0.7 0.7,-1.2 0,-0.2 -0.1,-0.3 -0.2,-0.3 -0.4,0 -0.6,1 -0.5,1.3 0,0.1 0,0.2 0,0.2 z"
         id="path49"
         inkscape:connector-curvature="0"
         style="fill:#e1bd3f" /><path
         class="st1"
         d="m 285.6,336.7 c -0.3,0.5 -0.5,0.6 -0.6,0.6 -0.2,0 -0.4,-0.2 -0.4,-0.4 0,-0.1 0,-0.1 0.1,-0.1 0.2,-0.1 1,-1.2 1,-1.2 0.1,-0.1 0.2,-0.1 0.3,-0.1 0.2,0 0.3,0.2 0.3,0.3 l 0,5.7 c 0,0.1 -0.1,0.2 -0.2,0.2 -0.2,0 -0.4,-0.1 -0.4,-0.3 l 0,-4.7 z"
         id="path51"
         inkscape:connector-curvature="0"
         style="fill:#e1bd3f" /><path
         class="st1"
         d="m 289.2,339.6 c -0.3,0.4 -0.6,0.4 -0.8,0.4 -0.9,0 -1.3,-1 -1.3,-2.1 0,-2.3 1.1,-2.4 1.4,-2.4 1.5,0 1.5,2.3 1.5,3.1 0,0.8 0,3.3 -1.5,3.3 -0.6,0 -1.1,-0.6 -1.1,-1 0,-0.1 0.3,-0.3 0.5,-0.3 0.1,0 0.1,0 0.1,0.1 0,0.3 0.2,0.6 0.5,0.6 0.3,-0.1 0.6,-0.5 0.7,-1.7 z m 0,-1.4 c -0.1,-1.6 -0.4,-2.1 -0.8,-2.1 -0.3,0 -0.7,0.4 -0.7,1.8 0,0.8 0.2,1.5 0.7,1.5 0.4,-0.1 0.7,-0.4 0.8,-1.2 z"
         id="path53"
         inkscape:connector-curvature="0"
         style="fill:#e1bd3f" /><path
         class="st1"
         d="m 290.9,335.7 c 0,-0.1 0.1,-0.1 0,0 0.3,-0.1 0.8,-0.1 1,-0.1 0.5,0 0.8,0 0.8,0 0.1,0 0.1,-0.1 0.2,-0.1 0.1,0 0.1,0.1 0.1,0.2 0,0.3 -0.1,0.5 -0.3,0.5 l -1.1,0 -0.1,1.1 c 0.1,-0.1 0.3,-0.2 0.5,-0.2 0.5,0 1.3,0.4 1.3,2.2 0,1.8 -0.7,2.5 -1.4,2.5 -1,0 -1.3,-1.2 -1.3,-1.6 0,-0.3 0.1,-0.4 0.3,-0.4 0.2,0 0.4,0.1 0.4,0.2 0,0.1 0,0.1 0,0.2 0,0.2 0.1,1 0.6,1 0.5,0 0.7,-0.6 0.7,-1.8 0,-1 -0.2,-1.5 -0.7,-1.5 -0.4,0 -0.5,0.3 -0.7,0.3 -0.1,0 -0.5,-0.1 -0.4,-0.3 l 0.1,-2.2 z"
         id="path55"
         inkscape:connector-curvature="0"
         style="fill:#e1bd3f" /><path
         class="st1"
         d="m 296.3,339.9 0,1.6 c 0,0.1 -0.1,0.2 -0.2,0.2 -0.2,0 -0.4,-0.1 -0.4,-0.3 l 0,-1.6 -0.3,0 c -0.4,0 -1,0 -1.3,0 -0.2,0 -0.4,-0.2 -0.4,-0.4 0,-0.1 0.1,-0.2 0.1,-0.2 0.5,-1.2 0.5,-2.6 0.5,-3.1 0,-0.1 0,-0.3 0,-0.3 0,-0.1 0.1,-0.1 0.2,-0.1 0.2,0 0.5,0.1 0.5,0.5 0,0.7 -0.1,2.1 -0.5,3 0.3,0 0.7,0 1,0 l 0.2,0 0,-3.4 c 0,-0.3 -0.1,-0.3 -0.1,-0.3 0,-0.1 0.2,-0.1 0.3,-0.1 0.3,0 0.5,0.2 0.5,0.4 l 0,3.4 0.2,0 c 0.1,0 0.1,-0.1 0.2,-0.1 0.1,0 0.1,0.1 0.1,0.3 0,0.3 -0.1,0.5 -0.3,0.5 l -0.3,0 z"
         id="path57"
         inkscape:connector-curvature="0"
         style="fill:#e1bd3f" /></g><g
       id="g59"><g
         id="g61"><path
           class="st0"
           d="m 233.8,257.6 c 1.1,7 2.4,15.4 3.8,24.3 2,12.3 4,25.1 5.5,35.6 0.4,2.6 1.7,5 3.8,6.8 2.1,1.8 4.6,2.9 7.2,2.9 l 57.8,0 c 2.6,0 5.1,-1 7.2,-2.9 2.1,-1.8 3.4,-4.3 3.8,-6.8 1.5,-10.4 3.5,-23.2 5.5,-35.5 1.4,-8.9 2.7,-17.3 3.8,-24.4 0.8,-5.1 -2.8,-10.5 -8,-12 l 0,0 0,0 C 310.8,241.9 296.9,240 283,240 l 0,0 c -13.9,0 -27.8,1.9 -41.2,5.6 l 0,0 0,0 c -5.2,1.5 -8.8,6.8 -8,12 z m 8.9,-8.5 0,0 0.2,0 c 13.1,-3.6 26.6,-5.5 40.1,-5.5 13.6,0 27.1,1.8 40.1,5.4 l 0.1,0 0.1,0 c 3.4,1 5.8,4.6 5.3,7.9 -1.1,7 -2.4,15.4 -3.8,24.3 -2,12.4 -4,25.1 -5.5,35.6 -0.3,1.7 -1.2,3.4 -2.6,4.7 -1.4,1.3 -3.1,2 -4.8,2 l -57.8,0 c -1.7,0 -3.4,-0.7 -4.8,-2 -1.4,-1.3 -2.3,-2.9 -2.6,-4.7 -1.5,-10.5 -3.6,-23.2 -5.5,-35.6 -1.4,-8.9 -2.7,-17.3 -3.8,-24.3 -0.5,-3.2 1.9,-6.8 5.3,-7.8 z"
           id="path63"
           inkscape:connector-curvature="0"
           style="fill:#dfdfc6" /><path
           class="st0"
           d="m 322.5,295.9 c -0.1,0.1 -0.1,0.3 0,0.4 0,-0.2 0.1,-0.4 0.1,-0.6 l -0.1,0.2 z m -75.9,21 c 0.3,1.7 1.2,3.4 2.6,4.7 1.4,1.3 3.1,2 4.8,2 l 58,0 c 1.7,0 3.4,-0.7 4.8,-2 1.4,-1.3 2.3,-2.9 2.6,-4.7 0.7,-4.9 1.5,-10.2 2.4,-15.8 l -1.2,-3.2 c -0.1,-0.2 0,-0.5 0.3,-0.6 l 0,0 c 0.2,-0.1 0.4,-0.4 0.3,-0.6 l -2.2,-5.2 c -0.1,-0.2 -0.3,-0.2 -0.4,0 l -2.2,5.2 c -0.1,0.2 0,0.5 0.3,0.6 l 0,0 c 0.2,0.1 0.4,0.4 0.3,0.6 l -2,5.5 c -0.1,0.2 0,0.5 0.3,0.6 l 0.2,0.1 c 0.2,0.1 0.4,0.4 0.3,0.6 l -1.1,2.9 -0.8,-2 c -0.1,-0.2 0,-0.5 0.2,-0.6 l 0,0 c 0.2,-0.1 0.3,-0.4 0.2,-0.6 l -1.9,-4.6 c -0.1,-0.2 -0.2,-0.2 -0.3,0 l -1.6,4 -1.1,-2.9 c -0.1,-0.2 0,-0.5 0.3,-0.6 l 0,0 c 0.2,-0.1 0.4,-0.4 0.3,-0.6 l -2.2,-5.2 c -0.1,-0.2 -0.3,-0.2 -0.4,0 l -2.2,5.2 c -0.1,0.2 0,0.5 0.3,0.6 l 0,0 c 0.2,0.1 0.4,0.4 0.3,0.6 l -1,2.8 -1.2,-3.2 c -0.1,-0.2 0,-0.4 0.2,-0.5 l 0,0 c 0.2,-0.1 0.3,-0.3 0.2,-0.5 l -1.8,-4.3 c -0.1,-0.2 -0.2,-0.2 -0.3,0 l -1.8,4.3 c -0.1,0.2 0,0.4 0.2,0.5 l 0,0 c 0.2,0.1 0.3,0.3 0.2,0.5 l -1.5,4 -0.6,-1.5 c -0.1,-0.3 0,-0.6 0.3,-0.7 l 0.1,0 c 0.3,-0.1 0.4,-0.4 0.3,-0.7 l -2.3,-5.7 c -0.1,-0.3 -0.3,-0.3 -0.4,0 l -2.3,5.7 c -0.1,0.3 0,0.6 0.3,0.7 l 0,0 c 0.3,0.1 0.4,0.4 0.3,0.7 l -0.5,1.5 -1.4,-3.8 c -0.1,-0.3 0,-0.6 0.3,-0.7 l 0.1,0 c 0.3,-0.1 0.4,-0.5 0.3,-0.7 l -2.5,-6 c -0.1,-0.3 -0.3,-0.3 -0.4,0 l -2.5,6 c -0.1,0.3 0,0.6 0.3,0.7 l 0.1,0 c 0.3,0.1 0.4,0.5 0.3,0.7 l -0.9,2.5 -1.6,-3.9 c -0.1,-0.3 -0.3,-0.3 -0.4,0 l -1.7,4.2 -0.9,-2.2 c -0.1,-0.1 -0.1,-0.1 -0.2,0 l -1.1,2.6 -0.9,-2.5 c -0.1,-0.2 0,-0.5 0.3,-0.6 l 0,0 c 0.2,-0.1 0.3,-0.4 0.3,-0.6 l -2.1,-5.2 c -0.1,-0.2 -0.3,-0.2 -0.4,0 l -2.1,5.2 c -0.1,0.2 0,0.5 0.3,0.6 l 0,0 c 0.2,0.1 0.4,0.4 0.3,0.6 l -1.4,3.7 -1.1,-2.8 c -0.1,-0.3 0,-0.6 0.3,-0.7 l 0.1,0 c 0.3,-0.1 0.4,-0.4 0.3,-0.7 l -2.4,-5.7 c -0.1,-0.3 -0.3,-0.3 -0.4,0 l -2.4,5.7 c -0.1,0.3 0,0.6 0.3,0.7 l 0.1,0 c 0.3,0.1 0.4,0.4 0.3,0.7 l -0.6,1.6 -1.5,-4 c -0.1,-0.2 0,-0.5 0.3,-0.6 l 0,0 c 0.2,-0.1 0.3,-0.4 0.2,-0.6 l -2.1,-5.1 c -0.1,-0.2 -0.3,-0.2 -0.3,0 l -2.1,5.1 c -0.1,0.2 0,0.5 0.2,0.6 l 0,0 c 0.2,0.1 0.3,0.4 0.3,0.6 l -1.2,3.3 -0.5,-1.3 c -0.1,-0.3 0,-0.6 0.3,-0.7 l 0.1,0 c 0.3,-0.1 0.4,-0.5 0.3,-0.7 l -2.5,-6 c -0.1,-0.3 -0.3,-0.3 -0.4,0 l -2.5,6 c -0.1,0.3 0,0.6 0.3,0.7 l 0.1,0 c 0.3,0.1 0.4,0.5 0.3,0.7 l -1.4,3.8 -0.6,-1.6 c -0.1,-0.2 0,-0.5 0.2,-0.6 l 0.2,-0.1 c 0.2,-0.1 0.3,-0.3 0.2,-0.6 l -1.8,-4.8 c -0.1,-0.2 0,-0.5 0.2,-0.6 l 0,0 c 0.2,-0.1 0.3,-0.4 0.2,-0.6 l -1.9,-4.6 c -0.1,-0.2 -0.2,-0.2 -0.3,0 l -1.9,4.6 c -0.1,0.2 0,0.5 0.2,0.6 l 0,0 c 0.2,0.1 0.3,0.4 0.2,0.6 l -0.6,1.7 -1.5,-4.1 c -0.1,-0.3 0,-0.6 0.3,-0.7 l 0,0 c 0.3,-0.1 0.4,-0.4 0.3,-0.7 l -2.3,-5.5 c -0.1,-0.3 -0.3,-0.3 -0.4,0 l -2.2,5.2 -1.3,-3.1 c -0.1,-0.2 -0.3,-0.2 -0.4,0 l -2,4.8 c -0.1,0.2 2.1,14.7 3.1,21.3 z"
           id="path65"
           inkscape:connector-curvature="0"
           style="fill:#dfdfc6" /></g><g
         id="g67"><path
           class="st2"
           d="m 251.8,311.6 c 0,-0.3 -0.1,-0.3 -0.1,-0.4 0,-0.1 0.2,-0.2 0.3,-0.2 0.4,0 0.8,0.3 0.8,0.6 l 0,4.5 c 0.9,-0.1 2.7,-1.2 2.7,-3.5 0,-1 -0.6,-2.4 -2.2,-2.4 -2.2,0 -3,1.5 -3,3.1 0,1.2 0.5,1.6 0.5,1.7 0.1,0 0.2,0.1 0.2,0.2 0,0.2 -0.4,1.2 -0.8,0.9 -0.2,-0.2 -1,-1 -1,-2.7 0,-2.6 1.6,-4.3 4,-4.3 2,0 3.2,1.4 3.2,3.4 0,2.4 -1.8,4.2 -3.8,4.5 l 0,1.8 c 0,0.2 -0.2,0.3 -0.4,0.3 -0.3,0 -0.7,-0.2 -0.7,-0.4 l 0,-7.1 z"
           id="path69"
           inkscape:connector-curvature="0"
           style="fill:#1e1817" /><path
           class="st2"
           d="m 258.8,317.6 c 0,-0.9 0.2,-1.9 0.7,-3.1 l -1,0 -0.1,0 c 0,0.5 -0.1,1.7 -0.3,2.5 -0.2,0.6 -0.9,0.1 -0.8,-0.4 0.1,-0.6 0.2,-1.7 0.2,-2.4 -0.3,-0.2 -0.6,-0.5 -0.6,-0.9 0,-0.4 0.3,-0.6 0.7,-0.6 0.3,0 0.7,0.2 0.8,0.7 0.4,0.1 0.6,0.1 0.7,0.1 l 0.7,0 c 0.2,0 0.7,0.5 0.6,0.8 0,0.2 -0.6,1.8 -0.6,3.2 0,0.4 0.2,0.7 0.5,0.7 0.6,0 0.8,-0.9 1,-1.5 0.1,-0.3 0.2,-0.4 0.3,-0.4 0.2,0 0.5,0.3 0.5,0.6 0,0 0,0.1 0,0.1 -0.2,0.9 -0.8,2.2 -1.9,2.2 -0.6,0 -1.4,-0.3 -1.4,-1.6 z"
           id="path71"
           inkscape:connector-curvature="0"
           style="fill:#1e1817" /><path
           class="st2"
           d="m 262.5,317.5 c 0.2,0.5 0.5,0.9 1.2,0.9 1,0 1.5,-0.9 1.6,-1.7 0.1,-0.6 0.9,-0.3 0.8,0.1 -0.1,0.8 -0.6,2.5 -2.6,2.5 -1.2,0 -2.4,-1 -2.4,-2.7 0,-1.8 1,-3.1 2,-3.1 0.8,0 1.2,0.6 1.2,1.4 0.2,0.9 -0.5,2.2 -1.8,2.6 z m -0.2,-0.8 c 0.7,-0.3 1.1,-1 1.1,-1.9 0,-0.3 -0.1,-0.5 -0.3,-0.5 -0.7,0 -0.9,1.5 -0.8,2.1 0,0.1 0,0.2 0,0.3 z"
           id="path73"
           inkscape:connector-curvature="0"
           style="fill:#1e1817" /><path
           class="st2"
           d="m 271.5,319.2 c -0.7,0 -1.1,-0.6 -1.1,-1.3 l 0,-2.8 c 0,-0.4 0,-0.8 -0.3,-0.8 -0.4,0 -1.1,1.2 -1.2,2.3 l 0,2 c 0,0.3 0,0.6 -0.4,0.6 -0.3,0 -0.6,-0.1 -0.6,-0.6 l 0,-3.5 c 0,-0.4 0,-0.8 -0.3,-0.8 -0.4,0 -1.1,1.2 -1.2,2.3 l 0,2 c 0,0.3 0,0.6 -0.4,0.6 -0.3,0 -0.6,-0.1 -0.6,-0.6 l 0,-4.4 c 0,-0.3 -0.1,-0.3 -0.1,-0.4 0,-0.1 0.2,-0.2 0.3,-0.2 0.4,0 0.7,0.3 0.7,0.6 l 0,0.6 c 0.3,-0.7 0.8,-1.3 1.4,-1.3 0.8,0 1,0.7 1.1,1.3 0.3,-0.7 0.8,-1.3 1.4,-1.3 0.9,0 1.1,0.8 1.1,1.4 l 0,2.9 c 0,0.1 0,0.6 0.3,0.6 0.5,0 0.8,-0.9 0.9,-1.5 0.1,-0.3 0.2,-0.4 0.3,-0.4 0.2,0 0.5,0.3 0.5,0.6 0,0 0,0 0,0.1 -0.2,0.8 -0.7,2 -1.8,2 z"
           id="path75"
           inkscape:connector-curvature="0"
           style="fill:#1e1817" /><path
           class="st2"
           d="m 272.6,311.4 c 0,-0.5 0.4,-0.8 0.8,-0.8 0.5,0 0.8,0.4 0.8,0.8 0,0.5 -0.3,0.8 -0.8,0.8 -0.5,0 -0.8,-0.4 -0.8,-0.8 z m 1.1,6.3 c 0,0.1 0,0.6 0.3,0.6 0.5,0 0.8,-0.9 0.9,-1.5 0.2,-0.8 0.9,-0.2 0.8,0.2 -0.2,0.9 -0.8,2.2 -1.9,2.2 -0.7,0 -1.1,-0.6 -1.1,-1.3 l 0,-3.7 c 0,-0.3 -0.1,-0.3 -0.1,-0.4 0,-0.1 0.2,-0.2 0.3,-0.2 0.4,0 0.7,0.3 0.7,0.6 l 0,3.5 z"
           id="path77"
           inkscape:connector-curvature="0"
           style="fill:#1e1817" /><path
           class="st2"
           d="m 277.6,318.2 c -0.3,0.6 -0.8,1 -1.3,1 -0.9,0 -1.4,-0.8 -1.4,-2 0,-1.5 0.5,-3.1 0.5,-3.1 0.1,-0.2 0,-0.5 0.7,-0.5 0.7,0 0.3,0.6 0.2,0.8 -0.2,1 -0.4,1.6 -0.4,2.8 0,0.7 0.2,1.1 0.6,1.1 0.5,0 0.9,-0.9 1.1,-1.9 l 0,-2.2 c 0,-0.4 -0.1,-0.4 -0.1,-0.5 0,-0.1 0.2,-0.2 0.4,-0.2 0.4,0 0.7,0.3 0.7,0.6 l 0,3.5 c 0,0.1 0,0.6 0.3,0.6 0.5,0 0.8,-0.9 0.9,-1.5 0.1,-0.3 0.2,-0.4 0.3,-0.4 0.2,0 0.5,0.3 0.5,0.6 0,0 0,0 0,0.1 -0.2,0.9 -0.8,2.2 -1.9,2.2 -0.6,0 -1,-0.4 -1.1,-1 z"
           id="path79"
           inkscape:connector-curvature="0"
           style="fill:#1e1817" /><path
           class="st2"
           d="m 285.9,319.2 c -0.7,0 -1.1,-0.6 -1.1,-1.3 l 0,-2.8 c 0,-0.4 0,-0.8 -0.3,-0.8 -0.4,0 -1.1,1.2 -1.2,2.3 l 0,2 c 0,0.3 0,0.6 -0.4,0.6 -0.3,0 -0.6,-0.1 -0.6,-0.6 l 0,-3.5 c 0,-0.4 0,-0.8 -0.3,-0.8 -0.4,0 -1.1,1.2 -1.2,2.3 l 0,2 c 0,0.3 0,0.6 -0.4,0.6 -0.3,0 -0.6,-0.1 -0.6,-0.6 l 0,-4.4 c 0,-0.3 -0.1,-0.3 -0.1,-0.4 0,-0.1 0.2,-0.2 0.3,-0.2 0.4,0 0.7,0.3 0.7,0.6 l 0,0.6 c 0.3,-0.7 0.8,-1.3 1.4,-1.3 0.8,0 1,0.7 1.1,1.3 0.3,-0.7 0.8,-1.3 1.4,-1.3 0.9,0 1.1,0.8 1.1,1.4 l 0,2.9 c 0,0.1 0,0.6 0.3,0.6 0.5,0 0.8,-0.9 0.9,-1.5 0.1,-0.3 0.2,-0.4 0.3,-0.4 0.2,0 0.5,0.3 0.5,0.6 0,0 0,0 0,0.1 -0.1,0.8 -0.6,2 -1.8,2 z"
           id="path81"
           inkscape:connector-curvature="0"
           style="fill:#1e1817" /><path
           class="st2"
           d="m 292.7,319.4 c -1.7,0 -2.6,-1.7 -2.6,-4.3 0,-2.7 1.7,-6.1 4.4,-6.1 1,0 1.7,0.6 1.7,1.7 0,1.5 -1.6,2.8 -2.8,2.8 -0.3,0 -0.6,-0.2 -0.6,-0.7 0,-0.2 0.1,-0.5 0.1,-0.5 0.1,0 0.1,0.1 0.5,0.1 0.7,0 1.7,-0.8 1.7,-1.7 0,-0.3 -0.2,-0.8 -0.8,-0.8 -1.7,0 -3.1,2.7 -3.1,5.1 0,2 0.7,3.2 1.5,3.2 1.4,0 2.1,-1.9 2.1,-3 0,-0.1 0,-0.4 0,-0.5 0,-0.3 0.2,-0.3 0.4,-0.3 0.2,0 0.7,0.2 0.7,0.5 -0.1,0.7 -0.1,1.4 -0.1,2.1 0,0.6 0,1.3 0,2.2 0.3,0 0.5,-0.1 0.7,-0.1 0.6,0 0.3,1.1 -0.2,1.1 -0.2,0 -0.4,0 -0.6,0 -0.1,1.5 -0.4,3.4 -2,3.4 -0.9,0 -1.5,-0.7 -1.5,-1.6 0,-1.4 1.2,-2.2 2.5,-2.5 l 0,-0.1 c 0,-0.6 0,-1 0,-1.4 -0.5,0.9 -1.2,1.4 -2,1.4 z m 2,1.2 c -0.9,0.3 -1.4,0.8 -1.4,1.5 0,0.4 0.2,0.6 0.5,0.6 0.6,0 0.9,-1 0.9,-2.1 z"
           id="path83"
           inkscape:connector-curvature="0"
           style="fill:#1e1817" /><path
           class="st2"
           d="m 302.6,317 c -0.2,0.7 -0.7,1.4 -1.6,1.4 -0.2,0 -0.5,0 -0.7,-0.1 -0.3,0.6 -0.8,1 -1.6,1 -1.4,0 -2,-1.2 -2,-2.6 0,-2 1.1,-3.3 1.4,-3.3 0.3,0 0.6,0.7 0.3,1 -0.2,0.3 -0.6,0.8 -0.6,2.2 0,1.2 0.4,1.7 1,1.7 0.4,0 0.6,-0.2 0.8,-0.5 -0.6,-0.6 -1,-1.5 -1,-2.5 0,-0.9 0.4,-1.6 1.1,-1.6 0.6,0 1.1,1 1.1,2.3 0,0.5 -0.1,1 -0.2,1.5 0.1,0 0.2,0 0.3,0 0.6,0 0.9,-0.5 1,-1 0,-0.3 0.9,-0.3 0.7,0.5 z m -2.8,-0.1 c 0,-0.2 0,-0.4 0,-0.6 0,-0.9 0,-1.6 -0.3,-1.6 -0.1,0 -0.2,0.2 -0.2,0.6 0,0.6 0.2,1.2 0.5,1.6 z"
           id="path85"
           inkscape:connector-curvature="0"
           style="fill:#1e1817" /><path
           class="st2"
           d="m 307.5,317 c -0.2,0.7 -0.7,1.4 -1.6,1.4 -0.2,0 -0.5,0 -0.7,-0.1 -0.3,0.6 -0.8,1 -1.6,1 -1.4,0 -2,-1.2 -2,-2.6 0,-2 1.1,-3.3 1.4,-3.3 0.3,0 0.6,0.7 0.3,1 -0.2,0.3 -0.6,0.8 -0.6,2.2 0,1.2 0.4,1.7 1,1.7 0.4,0 0.6,-0.2 0.8,-0.5 -0.6,-0.6 -1,-1.5 -1,-2.5 0,-0.9 0.4,-1.6 1.1,-1.6 0.6,0 1.1,1 1.1,2.3 0,0.5 -0.1,1 -0.2,1.5 0.1,0 0.2,0 0.3,0 0.6,0 0.9,-0.5 1,-1 0,-0.3 0.9,-0.3 0.7,0.5 z m -2.8,-0.1 c 0,-0.2 0,-0.4 0,-0.6 0,-0.9 0,-1.6 -0.3,-1.6 -0.1,0 -0.2,0.2 -0.2,0.6 0,0.6 0.2,1.2 0.5,1.6 z"
           id="path87"
           inkscape:connector-curvature="0"
           style="fill:#1e1817" /><path
           class="st2"
           d="m 306.5,317 c 0,-2.1 1.2,-3.3 2.7,-3.5 l 0,-3.1 c 0,-0.4 -0.1,-0.4 -0.1,-0.5 0,-0.1 0.2,-0.2 0.4,-0.2 0.4,0 0.7,0.3 0.7,0.6 l 0,7.4 c 0,0.3 0.1,0.6 0.5,0.6 0.5,0 0.8,-0.9 0.9,-1.5 0.1,-0.3 0.2,-0.4 0.3,-0.4 0.2,0 0.5,0.3 0.5,0.6 0,0 0,0 0,0.1 -0.2,0.9 -0.8,2.2 -1.9,2.2 -0.5,0 -0.8,-0.2 -1,-0.5 -0.3,0.3 -0.7,0.5 -1.2,0.5 -1.1,-0.1 -1.8,-0.9 -1.8,-2.3 z m 2.8,0.8 0,-3.4 c -0.9,0.2 -1.7,0.8 -1.7,2.5 0,1 0.4,1.4 0.9,1.4 0.3,0 0.6,-0.2 0.8,-0.5 z"
           id="path89"
           inkscape:connector-curvature="0"
           style="fill:#1e1817" /><path
           class="st2"
           d="m 311.7,316.7 c 0.1,-0.6 0.4,-1.4 0.7,-2.1 -0.1,-0.2 -0.2,-0.4 -0.2,-0.6 0,-0.5 0.8,-1.1 1.1,-1.1 0.3,0 0.5,0.2 0.5,0.6 0,0.4 -0.3,0.9 -0.3,0.9 0.6,1.1 1.4,1.6 1.4,3 0,0.2 0,0.3 -0.1,0.5 0.6,-0.1 1,-0.6 1.1,-1 0.1,-0.3 0.2,-0.4 0.3,-0.4 0.2,0 0.5,0.4 0.5,0.6 0,0.3 -0.3,0.8 -0.6,1.1 -0.4,0.3 -1,0.6 -1.8,0.7 -0.3,0.3 -0.8,0.5 -1.3,0.5 -0.6,0 -1.2,-0.3 -1.5,-0.6 -0.7,-0.6 -0.3,-1.4 0,-1.4 0.3,0 1.5,0.8 2.2,0.8 0.1,-0.2 0.3,-0.5 0.3,-0.8 0,-0.9 -0.5,-1.5 -1,-1.9 -0.2,0.5 -0.3,1 -0.5,1.7 -0.2,0.3 -0.9,-0.1 -0.8,-0.5 z"
           id="path91"
           inkscape:connector-curvature="0"
           style="fill:#1e1817" /></g></g><g
       id="g93"><path
         class="st1"
         d="m 257.5,261.4 c 0.7,-2.5 2.4,-3.7 4,-3.7 2.3,0 4.5,1.8 5.3,4.7 0.3,1.2 0.3,2.7 -0.1,4.2 -1.2,4.3 -4.5,6 -7.7,6 -0.6,0 -1.2,-0.1 -1.8,-0.2 l -0.4,1.5 c -1,3.2 0.9,5.3 3,5.3 3,0 5.1,-2.1 6.6,-4.7 l 0.1,-0.2 c 0.5,0.1 1.1,0.6 1.4,1.1 -1.7,3 -3.9,5.8 -8.4,5.8 -4.3,0 -6.7,-4.2 -5.6,-8 l 0.5,-1.6 c -2.8,-1.3 -4.8,-3.7 -5.5,-6.2 -0.6,-2.1 -0.2,-4.3 1.6,-5.9 l 1.5,1.8 c -1,1.1 -1.3,2.5 -0.9,4 0.5,1.8 1.9,3.5 3.9,4.5 l 2.5,-8.4 z m 1,9.2 c 4.7,0 6.8,-5.3 6,-8.2 -0.3,-1.1 -1,-1.9 -2.2,-1.9 -0.8,0 -1.7,0.7 -2.1,2.3 l -2.3,7.8 0.6,0 z"
         id="path95"
         inkscape:connector-curvature="0"
         style="fill:#e1bd3f" /><path
         class="st1"
         d="m 280.9,274.4 c 0.5,0.2 1.1,0.7 1.4,1.1 -1.7,3 -3.9,5.8 -6.4,5.8 -1.6,0 -2.7,-0.8 -3.2,-2.1 -1.1,1.2 -2.4,2.1 -3.7,2.1 -2.5,0 -3.9,-2.1 -3.3,-4.5 l 2.2,-7.6 c 0.7,-2.3 2.6,-3.6 4.2,-3.6 2,0 3.8,1.8 4,3.2 l 1.7,0 -2.5,8.9 c -0.4,1.2 0.1,1.7 0.8,1.7 1.3,0 2.9,-2.1 4.4,-4.7 l 0.4,-0.3 z m -12.2,3.3 c -0.4,1.2 0.1,1.7 0.8,1.7 1.3,0 2.7,-1.4 3.7,-4.4 l 1.2,-4.3 c 0.7,-2.8 -2.7,-3.6 -3.6,-0.7 l -2.1,7.7 z"
         id="path97"
         inkscape:connector-curvature="0"
         style="fill:#e1bd3f" /><path
         class="st1"
         d="m 302.9,274.4 c 0.5,0.2 1.1,0.7 1.4,1.1 -1.7,3 -3.9,5.8 -6.4,5.8 -2.5,0 -3.9,-2.1 -3.3,-4.5 l 2.1,-7.1 c 0.8,-2.6 -2.1,-3.3 -5.6,5.1 l -1.8,6.2 -3.1,0 3.3,-11.3 c 0.7,-2.6 -2.1,-3.2 -5.6,4.9 l -1.8,6.3 -3.1,0 4.4,-15.1 3,0 -0.9,3.3 c 1.3,-2.5 2.7,-3.6 4.3,-3.6 1.6,0 3.3,1.6 2.8,3.8 1.3,-2.7 2.8,-3.8 4.4,-3.8 1.7,0 3.4,1.7 2.7,4.1 l -2.3,7.9 c -0.4,1.2 0.1,1.7 0.8,1.7 1.3,0 2.9,-2.1 4.4,-4.7 l 0.3,-0.1 z"
         id="path99"
         inkscape:connector-curvature="0"
         style="fill:#e1bd3f" /><path
         class="st1"
         d="m 299.1,287.7 6.3,-21.7 3,0 -0.3,1.1 c 2.3,-2.9 7.4,-1.2 5.9,3.8 l -1.8,5.9 c -0.2,0.7 -0.3,1.5 -0.6,2.4 1.7,-0.7 3.2,-2.4 4.4,-4.4 l 0.1,-0.2 c 0.5,0.1 1.1,0.6 1.4,1.1 -1.7,3 -3.9,5.7 -8.3,5.8 l -0.2,0 c -2.8,0 -4,-2.5 -4,-2.5 l 1.5,-0.8 c 0.9,1.2 1.9,0.9 2.2,0 l 2.4,-8.2 c 0.4,-1.4 -2.2,-3.2 -4.3,1.6 l -4.7,16.3 -3,0 z"
         id="path101"
         inkscape:connector-curvature="0"
         style="fill:#e1bd3f" /></g><g
       id="g103"><path
         class="st0"
         d="m 274.4,258.1 -0.8,4.2 c 0,0.1 0,0.1 -0.1,0.1 l -0.6,0 c -0.1,0 -0.1,0 -0.1,-0.1 l -0.8,-4.2 c 0,-0.1 0,-0.1 0.1,-0.1 l 0.8,0 c 0.1,0 0.1,0 0.1,0.1 l 0.3,2.7 0,0 0.3,-2.7 c 0,-0.1 0,-0.1 0.1,-0.1 l 0.8,0 c -0.1,0 -0.1,0.1 -0.1,0.1 z"
         id="path105"
         inkscape:connector-curvature="0"
         style="fill:#dfdfc6" /><path
         class="st0"
         d="m 276.2,262.3 c 0,0.1 0,0.1 -0.1,0.1 l -0.6,0 c -0.1,0 -0.1,0 -0.1,-0.1 l 0,-4.2 c 0,-0.1 0,-0.1 0.1,-0.1 l 0.6,0 c 0.1,0 0.1,0 0.1,0.1 l 0,4.2 z"
         id="path107"
         inkscape:connector-curvature="0"
         style="fill:#dfdfc6" /><path
         class="st0"
         d="m 279.6,258.1 0,4.2 c 0,0.1 0,0.1 -0.1,0.1 l -0.5,0 c 0,0 -0.1,0 -0.1,0 0,0 0,0 -0.1,-0.1 l -0.7,-1.9 0,1.9 c 0,0.1 0,0.1 -0.1,0.1 l -0.6,0 c -0.1,0 -0.1,0 -0.1,-0.1 l 0,-4.2 c 0,-0.1 0,-0.1 0.1,-0.1 l 0.5,0 c 0,0 0.1,0 0.1,0 0,0 0,0 0.1,0.1 l 0.7,2.1 0,-2.1 c 0,-0.1 0,-0.1 0.1,-0.1 l 0.6,0 c 0,0 0.1,0.1 0.1,0.1 z"
         id="path109"
         inkscape:connector-curvature="0"
         style="fill:#dfdfc6" /><path
         class="st0"
         d="m 282.6,258.1 0,0.6 c 0,0.1 0,0.1 -0.1,0.1 l -0.5,0 0,3.4 c 0,0.1 0,0.1 -0.1,0.1 l -0.6,0 c 0,0 0,0 -0.1,0 0,0 0,0 0,-0.1 l 0,-3.4 -0.5,0 c -0.1,0 -0.1,0 -0.1,-0.1 l 0,-0.6 c 0,-0.1 0,-0.1 0.1,-0.1 l 1.8,0 c 0.1,0 0.1,0.1 0.1,0.1 z"
         id="path111"
         inkscape:connector-curvature="0"
         style="fill:#dfdfc6" /><path
         class="st0"
         d="m 285.5,262.3 c 0,0.1 0,0.1 -0.1,0.1 l -0.6,0 c -0.1,0 -0.1,0 -0.1,-0.1 l -0.1,-0.7 -0.4,0 -0.1,0.7 c 0,0.1 0,0.1 -0.1,0.1 l -0.6,0 c -0.1,0 -0.1,0 -0.1,-0.1 l 0.5,-4.2 c 0,-0.1 0,-0.1 0.1,-0.1 l 0.9,0 c 0.1,0 0.1,0 0.1,0.1 l 0.6,4.2 z m -1,-1.5 -0.1,-1.6 -0.1,0 -0.1,1.6 0.3,0 z"
         id="path113"
         inkscape:connector-curvature="0"
         style="fill:#dfdfc6" /><path
         class="st0"
         d="m 287.9,258.1 c 0.1,0 0.2,0.1 0.3,0.2 0.1,0.1 0.1,0.2 0.2,0.3 0,0.1 0.1,0.2 0.1,0.4 l 0,0.2 c 0,0.1 0,0.1 -0.1,0.1 l -0.6,0.2 c -0.1,0 -0.1,0 -0.1,-0.1 l 0,-0.4 c 0,0 0,-0.1 0,-0.1 0,0 -0.1,-0.1 -0.1,-0.1 l -0.1,0 c 0,0 -0.1,0 -0.1,0.1 0,0 0,0.1 0,0.1 l 0,2.6 c 0,0 0,0.1 0,0.1 0,0 0.1,0.1 0.1,0.1 l 0.1,0 c 0,0 0.1,0 0.1,-0.1 0,0 0,-0.1 0,-0.1 l 0,-0.8 -0.2,0 0,-0.8 0.9,0 c 0.1,0 0.1,0 0.1,0.1 l 0,1.5 c 0,0.1 0,0.2 -0.1,0.4 0,0.1 -0.1,0.2 -0.2,0.3 -0.1,0.1 -0.2,0.1 -0.3,0.2 -0.1,0.1 -0.2,0.1 -0.3,0.1 l -0.3,0 c -0.1,0 -0.2,0 -0.3,-0.1 -0.1,-0.1 -0.2,-0.1 -0.3,-0.2 -0.1,-0.1 -0.1,-0.2 -0.2,-0.3 0,-0.1 -0.1,-0.2 -0.1,-0.4 l 0,-2.6 c 0,-0.1 0,-0.2 0.1,-0.4 0,-0.1 0.1,-0.2 0.2,-0.3 0.1,-0.1 0.2,-0.1 0.3,-0.2 0.1,0 0.2,-0.1 0.3,-0.1 l 0.3,0 c 0.1,0 0.2,0 0.3,0.1 z"
         id="path115"
         inkscape:connector-curvature="0"
         style="fill:#dfdfc6" /><path
         class="st0"
         d="m 291.3,261.7 0,0.6 c 0,0.1 0,0.1 -0.1,0.1 l -1.5,0 c -0.1,0 -0.1,0 -0.1,-0.1 l 0,-4.2 c 0,-0.1 0,-0.1 0.1,-0.1 l 1.5,0 c 0.1,0 0.1,0 0.1,0.1 l 0,0.6 c 0,0.1 0,0.1 -0.1,0.1 l -0.8,0 0,0.8 0.7,0 c 0.1,0 0.1,0 0.1,0.1 l 0,0.6 c 0,0.1 0,0.1 -0.1,0.1 l -0.7,0 0,1 0.8,0 c 0,0.2 0.1,0.2 0.1,0.3 z"
         id="path117"
         inkscape:connector-curvature="0"
         style="fill:#dfdfc6" /><path
         class="st0"
         d="m 296.7,258.1 c 0.1,0 0.2,0.1 0.3,0.2 0.1,0.1 0.1,0.2 0.2,0.3 0,0.1 0.1,0.2 0.1,0.4 l 0,0.3 c 0,0.1 0,0.1 -0.1,0.1 l -0.6,0.2 c -0.1,0 -0.1,0 -0.1,-0.1 l 0,-0.5 c 0,0 0,-0.1 0,-0.1 0,0 -0.1,-0.1 -0.1,-0.1 l -0.1,0 c 0,0 -0.1,0 -0.1,0.1 0,0 0,0.1 0,0.1 l 0,0.4 c 0,0.1 0,0.1 0,0.1 0,0 0,0.1 0.1,0.1 l 0.9,0.7 c 0.1,0.1 0.1,0.1 0.1,0.2 0,0.1 0,0.1 0,0.2 l 0,0.7 c 0,0.1 0,0.2 -0.1,0.4 0,0.1 -0.1,0.2 -0.2,0.3 -0.1,0.1 -0.2,0.1 -0.3,0.2 -0.1,0.1 -0.2,0.1 -0.3,0.1 l -0.3,0 c -0.1,0 -0.2,0 -0.3,-0.1 -0.1,-0.1 -0.2,-0.1 -0.3,-0.2 -0.1,-0.1 -0.1,-0.2 -0.2,-0.3 0,-0.1 -0.1,-0.2 -0.1,-0.4 l 0,-0.4 c 0,-0.1 0,-0.1 0.1,-0.1 l 0.6,-0.2 c 0.1,0 0.1,0 0.1,0.1 l 0,0.6 c 0,0 0,0.1 0,0.1 0,0 0.1,0.1 0.1,0.1 l 0.1,0 c 0,0 0.1,0 0.1,-0.1 0,0 0,-0.1 0,-0.1 l 0,-0.5 c 0,-0.1 0,-0.1 0,-0.2 0,0 0,-0.1 -0.1,-0.1 l -0.9,-0.7 c -0.1,-0.1 -0.1,-0.1 -0.2,-0.2 -0.1,-0.1 0,-0.2 0,-0.3 l 0,-0.7 c 0,-0.1 0,-0.2 0.1,-0.4 0,-0.1 0.1,-0.2 0.2,-0.3 0.1,-0.1 0.2,-0.1 0.3,-0.2 0.1,0 0.2,-0.1 0.3,-0.1 l 0.3,0 c 0.2,0.3 0.3,0.3 0.4,0.4 z"
         id="path119"
         inkscape:connector-curvature="0"
         style="fill:#dfdfc6" /><path
         class="st0"
         d="m 300.3,258.1 0,3.4 c 0,0.1 0,0.2 -0.1,0.4 0,0.1 -0.1,0.2 -0.2,0.3 -0.1,0.1 -0.2,0.1 -0.3,0.2 -0.1,0.1 -0.2,0.1 -0.3,0.1 l -0.3,0 c -0.1,0 -0.2,0 -0.3,-0.1 -0.1,-0.1 -0.2,-0.1 -0.3,-0.2 -0.1,-0.1 -0.1,-0.2 -0.2,-0.3 0,-0.1 -0.1,-0.2 -0.1,-0.4 l 0,-3.4 c 0,-0.1 0,-0.1 0.1,-0.1 l 0.6,0 c 0.1,0 0.1,0 0.1,0.1 l 0,3.4 c 0,0 0,0.1 0,0.1 0,0 0.1,0.1 0.1,0.1 l 0.1,0 c 0,0 0.1,0 0.1,-0.1 0,0 0,-0.1 0,-0.1 l 0,-3.4 c 0,-0.1 0,-0.1 0.1,-0.1 l 0.6,0 c 0.3,0 0.3,0.1 0.3,0.1 z"
         id="path121"
         inkscape:connector-curvature="0"
         style="fill:#dfdfc6" /><path
         class="st0"
         d="m 304.2,258.1 0,4.2 c 0,0.1 0,0.1 -0.1,0.1 l -0.7,0 c -0.1,0 -0.1,0 -0.1,-0.1 l 0,-1.9 -0.5,1.7 c 0,0 0,0 0,0 0,0 0,0 0,0 l -0.5,-1.7 0,1.9 c 0,0.1 0,0.1 -0.1,0.1 l -0.7,0 c -0.1,0 -0.1,0 -0.1,-0.1 l 0,-4.2 c 0,-0.1 0,-0.1 0.1,-0.1 l 0.6,0 c 0,0 0.1,0 0.1,0 0,0 0,0 0,0.1 l 0.6,2.2 0.6,-2.2 c 0,0 0,0 0,-0.1 0,0 0,0 0.1,0 l 0.6,0 c 0,0 0.1,0.1 0.1,0.1 z"
         id="path123"
         inkscape:connector-curvature="0"
         style="fill:#dfdfc6" /><path
         class="st0"
         d="m 308.1,258.1 0,4.2 c 0,0.1 0,0.1 -0.1,0.1 l -0.7,0 c -0.1,0 -0.1,0 -0.1,-0.1 l 0,-1.9 -0.5,1.7 c 0,0 0,0 0,0 0,0 0,0 0,0 l -0.5,-1.7 0,1.9 c 0,0.1 0,0.1 -0.1,0.1 l -0.7,0 c -0.1,0 -0.1,0 -0.1,-0.1 l 0,-4.2 c 0,-0.1 0,-0.1 0.1,-0.1 l 0.6,0 c 0,0 0.1,0 0.1,0 0,0 0,0 0,0.1 l 0.6,2.2 0.6,-2.2 c 0,0 0,0 0,-0.1 0,0 0,0 0.1,0 l 0.6,0 c 0,0 0.1,0.1 0.1,0.1 z"
         id="path125"
         inkscape:connector-curvature="0"
         style="fill:#dfdfc6" /><path
         class="st0"
         d="m 311,261.7 0,0.6 c 0,0.1 0,0.1 -0.1,0.1 l -1.5,0 c -0.1,0 -0.1,0 -0.1,-0.1 l 0,-4.2 c 0,-0.1 0,-0.1 0.1,-0.1 l 1.5,0 c 0.1,0 0.1,0 0.1,0.1 l 0,0.6 c 0,0.1 0,0.1 -0.1,0.1 l -0.8,0 0,0.8 0.7,0 c 0.1,0 0.1,0 0.1,0.1 l 0,0.6 c 0,0.1 0,0.1 -0.1,0.1 l -0.7,0 0,1 0.8,0 c 0,0.2 0.1,0.2 0.1,0.3 z"
         id="path127"
         inkscape:connector-curvature="0"
         style="fill:#dfdfc6" /><path
         class="st0"
         d="m 312.9,262.3 c 0,0.1 0,0.1 -0.1,0.1 l -0.6,0 c -0.1,0 -0.1,0 -0.1,-0.1 l 0,-4.2 c 0,-0.1 0,-0.1 0.1,-0.1 l 1.1,0 c 0.1,0 0.2,0 0.3,0.1 0.1,0 0.2,0.1 0.3,0.2 0.1,0.1 0.1,0.2 0.2,0.3 0,0.1 0.1,0.2 0.1,0.4 l 0,0.9 c 0,0.2 -0.1,0.3 -0.2,0.5 -0.1,0.1 -0.2,0.3 -0.4,0.3 l 0.7,1.6 c 0,0.1 0,0.1 -0.1,0.1 l -0.6,0 c 0,0 -0.1,0 -0.1,0 0,0 0,0 -0.1,-0.1 l -0.5,-1.3 0,1.3 z m 0,-2.3 0.2,0 c 0,0 0.1,0 0.1,-0.1 0,0 0,-0.1 0,-0.1 l 0,-0.8 c 0,0 0,-0.1 0,-0.1 0,0 -0.1,-0.1 -0.1,-0.1 l -0.2,0 0,1.2 z"
         id="path129"
         inkscape:connector-curvature="0"
         style="fill:#dfdfc6" /></g></g></svg>