<?xml version="1.0" encoding="UTF-8" standalone="no"?>
<!-- Generator: Adobe Illustrator 20.0.0, SVG Export Plug-In . SVG Version: 6.00 Build 0)  -->

<svg
   xmlns:dc="http://purl.org/dc/elements/1.1/"
   xmlns:cc="http://creativecommons.org/ns#"
   xmlns:rdf="http://www.w3.org/1999/02/22-rdf-syntax-ns#"
   xmlns:svg="http://www.w3.org/2000/svg"
   xmlns="http://www.w3.org/2000/svg"
   xmlns:sodipodi="http://sodipodi.sourceforge.net/DTD/sodipodi-0.dtd"
   xmlns:inkscape="http://www.inkscape.org/namespaces/inkscape"
   version="1.1"
   id="artwork"
   x="0px"
   y="0px"
   viewBox="0 0 160 99.999997"
   xml:space="preserve"
   inkscape:version="0.91 r13725"
   sodipodi:docname="brand-2.svg"
   width="160"
   height="100"><metadata
     id="metadata107"><rdf:RDF><cc:Work
         rdf:about=""><dc:format>image/svg+xml</dc:format><dc:type
           rdf:resource="http://purl.org/dc/dcmitype/StillImage" /><dc:title></dc:title></cc:Work></rdf:RDF></metadata><defs
     id="defs105" /><sodipodi:namedview
     pagecolor="#ffffff"
     bordercolor="#666666"
     borderopacity="1"
     objecttolerance="10"
     gridtolerance="10"
     guidetolerance="10"
     inkscape:pageopacity="0"
     inkscape:pageshadow="2"
     inkscape:window-width="1920"
     inkscape:window-height="1017"
     id="namedview103"
     showgrid="false"
     fit-margin-top="1"
     fit-margin-bottom="1"
     fit-margin-right="1"
     fit-margin-left="1"
     inkscape:zoom="4.6354778"
     inkscape:cx="7.5295254"
     inkscape:cy="65.340757"
     inkscape:window-x="-8"
     inkscape:window-y="-8"
     inkscape:window-maximized="1"
     inkscape:current-layer="artwork" /><style
     type="text/css"
     id="style3">
	.st0{fill:#F0883C;}
	.st1{fill:#DFDFC6;}
</style><g
     id="g5"
     transform="matrix(0.70575346,0,0,0.70575346,-119.51695,-168.04253)"
     style="fill:#000000;fill-opacity:1"><g
       id="g7"
       style="fill:#000000;fill-opacity:1"><path
         class="st0"
         d="m 282.5,376.3 0,0 c -0.4,0 -0.7,0 -0.9,-0.1 l -0.3,0 -1,-0.4 c -0.1,-0.1 -14.8,-5.3 -28.6,-16.8 -18.2,-15.3 -26.8,-34.1 -25.5,-56 0.4,-7.2 1.2,-14.5 2.2,-21.7 l 0.1,-0.6 7.1,-6.9 5.9,5.7 5.9,-5.7 5.9,5.7 5.9,-5.7 5.9,5.7 5.9,-5.7 5.9,5.7 5.9,-5.7 5.9,5.7 5.9,-5.7 5.9,5.7 6,-5.7 5.8,5.7 5.9,-5.7 5.9,5.7 5.9,-5.7 6.9,6.7 0.1,0.6 c 1.1,7.3 1.8,14.7 2.2,22 1.3,21.8 -7.2,40.6 -25.3,55.8 -13.6,11.5 -28.2,16.8 -28.8,17 l -1.3,0.5 c -0.6,-0.2 -0.9,-0.1 -1.3,-0.1 l 0,0 z m -0.1,-3.7 c 0,0 0.1,0 0.1,0 l 0.9,-0.3 c 0.6,-0.2 14.5,-5.3 27.6,-16.4 17.1,-14.4 25.2,-32.2 24,-52.8 -0.4,-7 -1.1,-14 -2.1,-21 l -3.4,-3.4 -5.9,5.7 -5.9,-5.7 -5.9,5.7 -5.9,-5.7 -6,5.7 -5.8,-5.7 -5.9,5.7 -5.9,-5.7 -5.9,5.7 -5.9,-5.7 -5.9,5.7 -5.9,-5.7 -5.9,5.7 -5.9,-5.7 -5.9,5.7 -5.9,-5.7 -3.7,3.6 c -1,6.9 -1.7,13.9 -2.1,20.8 -1.2,20.7 6.9,38.5 24.2,53 13.3,11.2 27.3,16.1 27.4,16.2 l 1.5,0.3 z"
         id="path9"
         inkscape:connector-curvature="0"
         style="fill:#000000;fill-opacity:1" /></g><g
       id="g11"
       style="fill:#000000;fill-opacity:1"><path
         class="st1"
         d="m 276.9,246.5 c 0,0.1 0,0.1 -0.1,0.1 -0.2,0.1 -0.4,0.1 -0.6,0.2 -0.1,0 -0.1,0 -0.1,-0.1 -0.5,-1.2 -0.9,-2.4 -1.4,-3.6 0,-0.1 0,-0.1 0.1,-0.1 0.2,-0.1 0.5,-0.2 0.7,-0.2 0.1,0 0.1,0 0.1,0.1 0.4,1.1 0.9,2.4 1.3,3.6 z"
         id="path13"
         inkscape:connector-curvature="0"
         style="fill:#000000;fill-opacity:1" /><path
         class="st1"
         d="m 279.6,241.9 c 0.2,1.3 0.4,2.5 0.6,3.8 0,0.1 0,0.1 -0.1,0.1 -0.1,0 -0.3,0 -0.4,0.1 0,0 -0.1,0 -0.1,0 0,0 0,0 -0.1,-0.1 -0.3,-0.5 -0.7,-1.1 -1.1,-1.6 0.1,0.6 0.3,1.1 0.4,1.7 0,0.1 0,0.1 -0.1,0.1 -0.2,0 -0.4,0.1 -0.6,0.1 -0.1,0 -0.1,0 -0.1,-0.1 -0.3,-1.2 -0.7,-2.5 -1,-3.7 0,-0.1 0,-0.1 0.1,-0.1 0.2,0 0.3,-0.1 0.5,-0.1 0,0 0.1,0 0.1,0 0,0 0.1,0 0.1,0 0.4,0.6 0.8,1.2 1.2,1.8 -0.1,-0.6 -0.3,-1.3 -0.4,-1.9 0,-0.1 0,-0.1 0.1,-0.1 0.2,0 0.5,-0.1 0.7,-0.1 0.2,0 0.2,0 0.2,0.1 z"
         id="path15"
         inkscape:connector-curvature="0"
         style="fill:#000000;fill-opacity:1" /><path
         class="st1"
         d="m 285.1,241.6 c 0,0.2 0,0.4 0,0.6 0,0.1 0,0.1 -0.1,0.1 -0.2,0 -0.4,0 -0.5,0 0,1.1 -0.1,2.1 -0.1,3.2 0,0.1 0,0.1 -0.1,0.1 -0.2,0 -0.4,0 -0.6,0 0,0 0,0 -0.1,0 0,0 0,0 0,-0.1 0,-1.1 0,-2.1 0,-3.2 -0.2,0 -0.4,0 -0.5,0 -0.1,0 -0.1,0 -0.1,-0.1 0,-0.2 0,-0.4 0,-0.6 0,-0.1 0,-0.1 0.1,-0.1 0.7,0 1.4,0 2.1,0 -0.2,0 -0.1,0.1 -0.1,0.1 z"
         id="path17"
         inkscape:connector-curvature="0"
         style="fill:#000000;fill-opacity:1" /><path
         class="st1"
         d="m 288.7,242.1 c -0.3,1.3 -0.6,2.5 -0.8,3.8 0,0.1 -0.1,0.1 -0.1,0.1 -0.2,0 -0.4,-0.1 -0.6,-0.1 -0.1,0 -0.1,0 -0.1,-0.1 0.1,-0.5 0.2,-1 0.3,-1.5 -0.2,0 -0.3,-0.1 -0.5,-0.1 -0.1,0.5 -0.2,1 -0.2,1.5 0,0.1 0,0.1 -0.1,0.1 -0.2,0 -0.4,-0.1 -0.6,-0.1 -0.1,0 -0.1,0 -0.1,-0.1 0.2,-1.3 0.3,-2.6 0.5,-3.8 0,-0.1 0,-0.1 0.1,-0.1 0.2,0 0.5,0.1 0.7,0.1 0.1,0 0.1,0 0.1,0.1 -0.1,0.5 -0.2,1 -0.2,1.5 0.2,0 0.3,0.1 0.5,0.1 0.1,-0.5 0.2,-1 0.3,-1.5 0,-0.1 0.1,-0.1 0.1,-0.1 0.2,0 0.5,0.1 0.7,0.1 0,0 0,0.1 0,0.1 z"
         id="path19"
         inkscape:connector-curvature="0"
         style="fill:#000000;fill-opacity:1" /><path
         class="st1"
         d="m 290.9,246.2 c -0.1,0.2 -0.1,0.4 -0.2,0.6 0,0.1 -0.1,0.1 -0.1,0.1 -0.5,-0.2 -0.9,-0.3 -1.4,-0.5 -0.1,0 -0.1,-0.1 -0.1,-0.1 0.4,-1.2 0.7,-2.5 1.1,-3.7 0,-0.1 0.1,-0.1 0.1,-0.1 0.6,0.2 1.1,0.3 1.7,0.6 0.1,0 0.1,0.1 0.1,0.1 -0.1,0.2 -0.1,0.4 -0.2,0.6 0,0.1 -0.1,0.1 -0.1,0.1 -0.3,-0.1 -0.6,-0.2 -0.8,-0.3 -0.1,0.2 -0.2,0.5 -0.2,0.7 0.2,0.1 0.5,0.2 0.7,0.2 0.1,0 0.1,0.1 0.1,0.1 -0.1,0.2 -0.1,0.4 -0.2,0.6 0,0.1 -0.1,0.1 -0.1,0.1 -0.2,-0.1 -0.5,-0.2 -0.7,-0.2 -0.1,0.3 -0.2,0.6 -0.3,0.9 0.3,0.1 0.5,0.2 0.8,0.3 -0.2,-0.2 -0.2,-0.2 -0.2,-0.1 z"
         id="path21"
         inkscape:connector-curvature="0"
         style="fill:#000000;fill-opacity:1" /></g><g
       id="g23"
       style="fill:#000000;fill-opacity:1"><path
         class="st1"
         d="m 252.1,322 c 0,0.2 -0.1,0.4 -0.3,0.4 l -2.3,0 c -0.2,0 -0.3,-0.1 -0.4,-0.4 l -0.2,-2.6 -1.6,0 -0.2,2.6 c 0,0.2 -0.2,0.4 -0.4,0.4 l -2.3,0 c -0.2,0 -0.3,-0.1 -0.3,-0.4 l 1.9,-15 c 0,-0.2 0.2,-0.4 0.4,-0.4 l 3.4,0 c 0.2,0 0.4,0.1 0.4,0.4 l 1.9,15 z m -3.4,-5.5 -0.5,-5.8 -0.2,0 -0.5,5.8 1.2,0 z"
         id="path25"
         inkscape:connector-curvature="0"
         style="fill:#000000;fill-opacity:1" /><path
         class="st1"
         d="m 261,307 0,12.3 c 0,0.5 -0.1,0.9 -0.3,1.3 -0.2,0.4 -0.4,0.8 -0.7,1.1 -0.3,0.3 -0.6,0.5 -1,0.7 -0.4,0.2 -0.8,0.3 -1.2,0.3 l -1,0 c -0.4,0 -0.9,-0.1 -1.2,-0.3 -0.4,-0.2 -0.7,-0.4 -1,-0.7 -0.3,-0.3 -0.5,-0.6 -0.7,-1.1 -0.2,-0.4 -0.3,-0.8 -0.3,-1.3 l 0,-12.3 c 0,-0.2 0.1,-0.4 0.4,-0.4 l 2.3,0 c 0.2,0 0.4,0.1 0.4,0.4 l 0,12.1 c 0,0.2 0.1,0.3 0.2,0.4 0.1,0.1 0.3,0.2 0.4,0.2 l 0.2,0 c 0.2,0 0.3,-0.1 0.4,-0.2 0.1,-0.1 0.2,-0.3 0.2,-0.4 l 0,-12.1 c 0,-0.2 0.1,-0.4 0.4,-0.4 l 2.3,0 c 0,0.1 0.2,0.2 0.2,0.4 z"
         id="path27"
         inkscape:connector-curvature="0"
         style="fill:#000000;fill-opacity:1" /><path
         class="st1"
         d="m 269.5,307 0,2.3 c 0,0.2 -0.1,0.4 -0.4,0.4 l -1.8,0 0,12.3 c 0,0.2 -0.1,0.4 -0.4,0.4 l -2.3,0 c -0.1,0 -0.2,0 -0.2,-0.1 -0.1,-0.1 -0.1,-0.2 -0.1,-0.3 l 0,-12.3 -1.8,0 c -0.2,0 -0.4,-0.1 -0.4,-0.4 l 0,-2.3 c 0,-0.2 0.1,-0.4 0.4,-0.4 l 6.6,0 c 0.3,0.1 0.4,0.2 0.4,0.4 z"
         id="path29"
         inkscape:connector-curvature="0"
         style="fill:#000000;fill-opacity:1" /><path
         class="st1"
         d="m 278.6,307 0,15 c 0,0.2 -0.1,0.4 -0.4,0.4 l -2.3,0 c -0.2,0 -0.4,-0.1 -0.4,-0.4 l 0,-5.9 -1.7,0 0,5.9 c 0,0.2 -0.1,0.4 -0.4,0.4 l -2.3,0 c -0.2,0 -0.4,-0.1 -0.4,-0.4 l 0,-15 c 0,-0.2 0.1,-0.4 0.4,-0.4 l 2.3,0 c 0.2,0 0.4,0.1 0.4,0.4 l 0,6 1.7,0 0,-6 c 0,-0.2 0.1,-0.4 0.4,-0.4 l 2.3,0 c 0.2,0.1 0.4,0.2 0.4,0.4 z"
         id="path31"
         inkscape:connector-curvature="0"
         style="fill:#000000;fill-opacity:1" /><path
         class="st1"
         d="m 287.1,319.7 0,2.3 c 0,0.2 -0.1,0.4 -0.4,0.4 l -5.5,0 c -0.2,0 -0.4,-0.1 -0.4,-0.4 l 0,-15 c 0,-0.2 0.1,-0.4 0.4,-0.4 l 5.5,0 c 0.2,0 0.4,0.1 0.4,0.4 l 0,2.3 c 0,0.2 -0.1,0.4 -0.4,0.4 l -2.9,0 0,3 2.5,0 c 0.2,0 0.4,0.1 0.4,0.4 l 0,2.3 c 0,0.2 -0.1,0.4 -0.4,0.4 l -2.5,0 0,3.5 2.9,0 c 0.3,0 0.4,0.2 0.4,0.4 z"
         id="path33"
         inkscape:connector-curvature="0"
         style="fill:#000000;fill-opacity:1" /><path
         class="st1"
         d="m 297.3,307 0,15 c 0,0.2 -0.1,0.4 -0.4,0.4 l -1.6,0 c -0.1,0 -0.2,0 -0.3,-0.1 -0.1,-0.1 -0.2,-0.1 -0.2,-0.2 l -2.7,-6.9 0,6.8 c 0,0.2 -0.1,0.4 -0.4,0.4 l -2.3,0 c -0.2,0 -0.4,-0.1 -0.4,-0.4 l 0,-15 c 0,-0.2 0.1,-0.4 0.4,-0.4 l 1.7,0 c 0.1,0 0.2,0 0.3,0.1 0.1,0.1 0.2,0.1 0.2,0.2 l 2.6,7.6 0,-7.5 c 0,-0.2 0.1,-0.4 0.4,-0.4 l 2.3,0 c 0.3,0.1 0.4,0.2 0.4,0.4 z"
         id="path35"
         inkscape:connector-curvature="0"
         style="fill:#000000;fill-opacity:1" /><path
         class="st1"
         d="m 306.3,307 0,2.3 c 0,0.2 -0.1,0.4 -0.4,0.4 l -1.8,0 0,12.3 c 0,0.2 -0.1,0.4 -0.4,0.4 l -2.3,0 c -0.1,0 -0.2,0 -0.2,-0.1 -0.1,-0.1 -0.1,-0.2 -0.1,-0.3 l 0,-12.3 -1.8,0 c -0.2,0 -0.4,-0.1 -0.4,-0.4 l 0,-2.3 c 0,-0.2 0.1,-0.4 0.4,-0.4 l 6.6,0 c 0.3,0.1 0.4,0.2 0.4,0.4 z"
         id="path37"
         inkscape:connector-curvature="0"
         style="fill:#000000;fill-opacity:1" /><path
         class="st1"
         d="m 311.1,322 c 0,0.2 -0.1,0.4 -0.4,0.4 l -2.3,0 c -0.2,0 -0.4,-0.1 -0.4,-0.4 l 0,-15 c 0,-0.2 0.1,-0.4 0.4,-0.4 l 2.3,0 c 0.2,0 0.4,0.1 0.4,0.4 l 0,15 z"
         id="path39"
         inkscape:connector-curvature="0"
         style="fill:#000000;fill-opacity:1" /><path
         class="st1"
         d="m 318.6,306.7 c 0.4,0.2 0.7,0.4 1,0.7 0.3,0.3 0.5,0.6 0.7,1 0.2,0.4 0.3,0.8 0.3,1.3 l 0,1.6 c 0,0.2 -0.1,0.4 -0.3,0.5 l -2.3,0.4 c -0.2,0.1 -0.3,0 -0.3,-0.3 l 0,-2 c 0,-0.2 -0.1,-0.3 -0.2,-0.4 -0.1,-0.1 -0.3,-0.2 -0.4,-0.2 l -0.2,0 c -0.2,0 -0.3,0.1 -0.4,0.2 -0.1,0.1 -0.2,0.3 -0.2,0.4 l 0,9.2 c 0,0.2 0.1,0.3 0.2,0.4 0.1,0.1 0.3,0.2 0.4,0.2 l 0.2,0 c 0.2,0 0.3,-0.1 0.4,-0.2 0.1,-0.1 0.2,-0.3 0.2,-0.4 l 0,-3.1 c 0,-0.2 0.1,-0.3 0.3,-0.3 l 2.3,0.3 c 0.2,0.1 0.3,0.2 0.3,0.5 l 0,2.8 c 0,0.5 -0.1,0.9 -0.3,1.3 -0.2,0.4 -0.4,0.8 -0.7,1.1 -0.3,0.3 -0.6,0.5 -1,0.7 -0.4,0.2 -0.8,0.3 -1.2,0.3 l -1,0 c -0.4,0 -0.9,-0.1 -1.2,-0.3 -0.4,-0.2 -0.7,-0.4 -1,-0.7 -0.3,-0.3 -0.5,-0.6 -0.7,-1.1 -0.2,-0.4 -0.3,-0.8 -0.3,-1.3 l 0,-9.5 c 0,-0.5 0.1,-0.9 0.3,-1.3 0.2,-0.4 0.4,-0.8 0.7,-1 0.3,-0.3 0.6,-0.5 1,-0.7 0.4,-0.2 0.8,-0.3 1.2,-0.3 l 1,0 c 0.4,0 0.8,0.1 1.2,0.2 z"
         id="path41"
         inkscape:connector-curvature="0"
         style="fill:#000000;fill-opacity:1" /></g><g
       id="g43"
       style="fill:#000000;fill-opacity:1"><path
         class="st1"
         d="m 263,328.7 c 0.3,0 0.6,0.1 0.8,0.2 0.3,0.1 0.5,0.3 0.7,0.5 0.2,0.2 0.3,0.4 0.4,0.7 0.1,0.3 0.2,0.5 0.2,0.8 l 0,2.2 c 0,0.3 -0.1,0.6 -0.2,0.8 -0.1,0.3 -0.3,0.5 -0.4,0.7 -0.2,0.2 -0.4,0.3 -0.7,0.5 -0.3,0.1 -0.5,0.2 -0.8,0.2 l -0.8,0 0,3.4 c 0,0.2 -0.1,0.2 -0.2,0.2 l -1.5,0 c -0.2,0 -0.2,-0.1 -0.2,-0.2 l 0,-9.7 c 0,-0.2 0.1,-0.2 0.2,-0.2 l 2.5,0 z m 0.2,2.2 c 0,-0.1 0,-0.2 -0.1,-0.3 -0.1,-0.1 -0.2,-0.1 -0.3,-0.1 l -0.5,0 0,2.9 0.5,0 c 0.1,0 0.2,0 0.3,-0.1 0.1,-0.1 0.1,-0.2 0.1,-0.3 l 0,-2.1 z"
         id="path45"
         inkscape:connector-curvature="0"
         style="fill:#000000;fill-opacity:1" /><path
         class="st1"
         d="m 268.9,338.6 c 0,0.2 -0.1,0.2 -0.2,0.2 l -1.5,0 c -0.1,0 -0.2,-0.1 -0.2,-0.2 l 0,-9.6 c 0,-0.2 0.1,-0.2 0.2,-0.2 l 2.5,0 c 0.3,0 0.6,0.1 0.8,0.2 0.3,0.1 0.5,0.3 0.7,0.5 0.2,0.2 0.3,0.4 0.4,0.7 0.1,0.3 0.2,0.5 0.2,0.8 l 0,2.1 c 0,0.4 -0.1,0.8 -0.4,1.1 -0.2,0.3 -0.5,0.6 -0.9,0.8 l 1.6,3.8 c 0,0.2 0,0.2 -0.2,0.2 l -1.5,0 c -0.1,0 -0.1,0 -0.2,-0.1 -0.1,0 -0.1,-0.1 -0.1,-0.2 l -1.2,-3.1 0,3 z m 0,-5.4 0.5,0 c 0.1,0 0.2,0 0.3,-0.1 0.1,-0.1 0.1,-0.2 0.1,-0.3 l 0,-1.9 c 0,-0.1 0,-0.2 -0.1,-0.3 -0.1,-0.1 -0.2,-0.1 -0.3,-0.1 l -0.5,0 0,2.7 z"
         id="path47"
         inkscape:connector-curvature="0"
         style="fill:#000000;fill-opacity:1" /><path
         class="st1"
         d="m 278.5,336.8 c 0,0.3 -0.1,0.6 -0.2,0.8 -0.1,0.3 -0.3,0.5 -0.4,0.7 -0.2,0.2 -0.4,0.3 -0.7,0.5 -0.3,0.1 -0.5,0.2 -0.8,0.2 l -0.6,0 c -0.3,0 -0.6,-0.1 -0.8,-0.2 -0.3,-0.1 -0.5,-0.3 -0.7,-0.5 -0.2,-0.2 -0.3,-0.4 -0.4,-0.7 -0.1,-0.3 -0.2,-0.5 -0.2,-0.8 l 0,-6.1 c 0,-0.3 0.1,-0.6 0.2,-0.8 0.1,-0.3 0.3,-0.5 0.4,-0.7 0.2,-0.2 0.4,-0.3 0.7,-0.5 0.3,-0.1 0.5,-0.2 0.8,-0.2 l 0.6,0 c 0.3,0 0.6,0.1 0.8,0.2 0.3,0.1 0.5,0.3 0.7,0.5 0.2,0.2 0.3,0.4 0.4,0.7 0.1,0.3 0.2,0.5 0.2,0.8 l 0,6.1 z m -1.9,-6 c 0,-0.1 0,-0.2 -0.1,-0.3 -0.1,-0.1 -0.2,-0.1 -0.3,-0.1 l -0.1,0 c -0.1,0 -0.2,0 -0.3,0.1 -0.1,0.1 -0.1,0.2 -0.1,0.3 l 0,5.9 c 0,0.1 0,0.2 0.1,0.3 0.1,0.1 0.2,0.1 0.3,0.1 l 0.1,0 c 0.1,0 0.2,0 0.3,-0.1 0.1,-0.1 0.1,-0.2 0.1,-0.3 l 0,-5.9 z"
         id="path49"
         inkscape:connector-curvature="0"
         style="fill:#000000;fill-opacity:1" /><path
         class="st1"
         d="m 283.3,328.7 c 0.3,0 0.6,0.1 0.8,0.2 0.3,0.1 0.5,0.3 0.7,0.5 0.2,0.2 0.3,0.4 0.4,0.7 0.1,0.3 0.2,0.5 0.2,0.8 l 0,5.9 c 0,0.3 -0.1,0.6 -0.2,0.8 -0.1,0.3 -0.3,0.5 -0.4,0.7 -0.2,0.2 -0.4,0.3 -0.7,0.5 -0.3,0.1 -0.5,0.2 -0.8,0.2 l -2.5,0 c -0.2,0 -0.2,-0.1 -0.2,-0.2 l 0,-9.8 c 0,-0.2 0.1,-0.2 0.2,-0.2 l 2.5,0 z m 0.2,2.2 c 0,-0.1 0,-0.2 -0.1,-0.3 -0.1,-0.1 -0.2,-0.1 -0.3,-0.1 l -0.5,0 0,6.5 0.5,0 c 0.1,0 0.2,0 0.3,-0.1 0.1,-0.1 0.1,-0.2 0.1,-0.3 l 0,-5.7 z"
         id="path51"
         inkscape:connector-curvature="0"
         style="fill:#000000;fill-opacity:1" /><path
         class="st1"
         d="m 292.1,329 0,7.9 c 0,0.3 -0.1,0.6 -0.2,0.8 -0.1,0.2 -0.3,0.5 -0.4,0.7 -0.2,0.2 -0.4,0.3 -0.7,0.5 -0.3,0.1 -0.5,0.2 -0.8,0.2 l -0.6,0 c -0.3,0 -0.6,-0.1 -0.8,-0.2 -0.3,-0.1 -0.5,-0.3 -0.7,-0.5 -0.2,-0.2 -0.3,-0.4 -0.4,-0.7 -0.1,-0.3 -0.2,-0.5 -0.2,-0.8 l 0,-7.9 c 0,-0.2 0.1,-0.2 0.2,-0.2 l 1.5,0 c 0.2,0 0.2,0.1 0.2,0.2 l 0,7.8 c 0,0.1 0,0.2 0.1,0.3 0.1,0.1 0.2,0.1 0.3,0.1 l 0.1,0 c 0.1,0 0.2,0 0.3,-0.1 0.1,-0.1 0.1,-0.2 0.1,-0.3 l 0,-7.8 c 0,-0.2 0.1,-0.2 0.2,-0.2 l 1.5,0 c 0.2,-0.1 0.3,0 0.3,0.2 z"
         id="path53"
         inkscape:connector-curvature="0"
         style="fill:#000000;fill-opacity:1" /><path
         class="st1"
         d="m 297.6,328.8 c 0.3,0.1 0.5,0.3 0.7,0.5 0.2,0.2 0.3,0.4 0.4,0.7 0.1,0.3 0.2,0.5 0.2,0.8 l 0,1 c 0,0.2 -0.1,0.3 -0.2,0.3 l -1.5,0.2 c -0.1,0 -0.2,0 -0.2,-0.2 l 0,-1.3 c 0,-0.1 0,-0.2 -0.1,-0.3 -0.1,-0.1 -0.2,-0.1 -0.3,-0.1 l -0.1,0 c -0.1,0 -0.2,0 -0.3,0.1 -0.1,0.1 -0.1,0.2 -0.1,0.3 l 0,5.9 c 0,0.1 0,0.2 0.1,0.3 0.1,0.1 0.2,0.1 0.3,0.1 l 0.1,0 c 0.1,0 0.2,0 0.3,-0.1 0.1,-0.1 0.1,-0.2 0.1,-0.3 l 0,-2 c 0,-0.2 0.1,-0.2 0.2,-0.2 l 1.5,0.2 c 0.1,0 0.2,0.1 0.2,0.3 l 0,1.8 c 0,0.3 -0.1,0.6 -0.2,0.8 -0.1,0.3 -0.3,0.5 -0.4,0.7 -0.2,0.2 -0.4,0.3 -0.7,0.5 -0.3,0.1 -0.5,0.2 -0.8,0.2 l -0.6,0 c -0.3,0 -0.6,-0.1 -0.8,-0.2 -0.3,-0.1 -0.5,-0.3 -0.7,-0.5 -0.2,-0.2 -0.3,-0.4 -0.4,-0.7 -0.1,-0.3 -0.2,-0.5 -0.2,-0.8 l 0,-6.1 c 0,-0.3 0.1,-0.6 0.2,-0.8 0.1,-0.3 0.3,-0.5 0.4,-0.7 0.2,-0.2 0.4,-0.3 0.7,-0.5 0.3,-0.1 0.5,-0.2 0.8,-0.2 l 0.6,0 c 0.3,0.1 0.5,0.2 0.8,0.3 z"
         id="path55"
         inkscape:connector-curvature="0"
         style="fill:#000000;fill-opacity:1" /><path
         class="st1"
         d="m 304.9,329 0,1.5 c 0,0.2 -0.1,0.2 -0.2,0.2 l -1.2,0 0,7.9 c 0,0.2 -0.1,0.2 -0.2,0.2 l -1.5,0 c -0.1,0 -0.1,0 -0.2,-0.1 0,0 -0.1,-0.1 -0.1,-0.2 l 0,-7.9 -1.1,0 c -0.2,0 -0.2,-0.1 -0.2,-0.2 l 0,-1.4 c 0,-0.2 0.1,-0.2 0.2,-0.2 l 4.2,0 c 0.2,-0.1 0.3,0 0.3,0.2 z"
         id="path57"
         inkscape:connector-curvature="0"
         style="fill:#000000;fill-opacity:1" /></g><g
       id="g59"
       style="fill:#000000;fill-opacity:1"><path
         class="st0"
         d="m 265.5,295.8 2.1,0 0,-4.6 c 0,-1 0.3,-1.4 0.7,-1.4 0.4,0 0.7,0.5 0.7,0.7 0,0.2 -0.4,-0.1 -0.4,1 l 0,8.5 c 0,0.2 -0.2,0.3 -0.4,0.3 -0.3,0 -0.7,-0.2 -0.7,-0.4 l 0,-3.1 -2.1,0 0,3.2 c 0,0.2 -0.2,0.3 -0.4,0.3 -0.3,0 -0.7,-0.2 -0.7,-0.4 l 0,-3.1 -1,0 c -0.3,0 -0.5,-0.4 -0.5,-0.7 0,-0.1 0.1,-0.3 0.2,-0.3 l 1.2,0 0,-4.4 c -1.7,0 -2.9,1.1 -2.9,3 0,1.1 0.5,1.9 0.7,1.9 0.1,0 0.1,-0.1 0.2,-0.1 0.1,0 0.1,0.1 0.1,0.2 0,0.6 -0.5,1.1 -0.9,0.8 -0.5,-0.3 -1.1,-1.3 -1.1,-2.7 0,-2.9 2.4,-4 4.4,-4 0.3,0 0.5,0.2 0.5,0.6 l 0,4.7 z"
         id="path61"
         inkscape:connector-curvature="0"
         style="fill:#000000;fill-opacity:1" /><path
         class="st0"
         d="m 274.6,297.9 c 0.1,-0.3 0.2,-0.4 0.3,-0.4 0.2,0 0.5,0.3 0.5,0.6 0,0 0,0 0,0.1 -0.2,0.9 -0.8,2.1 -1.9,2.1 -0.5,0 -0.8,-0.2 -1,-0.6 -0.3,0.3 -0.6,0.6 -1.2,0.6 -1.1,0 -1.6,-0.9 -1.6,-2 0,-2.3 1.6,-3.6 3.2,-3.6 0.4,0 0.6,0.2 0.6,0.6 0,0.2 0,0.3 -0.2,0.3 -0.1,0 -0.3,0 -0.4,0 -1,0 -2.2,0.9 -2.2,2.8 0,0.7 0.3,1.1 0.8,1.1 0.4,0 0.6,-0.3 0.8,-0.7 l 0,-2.1 c 0,-0.3 -0.1,-0.3 -0.1,-0.4 0,-0.1 0.2,-0.2 0.4,-0.2 0.4,0 0.7,0.3 0.7,0.6 l 0,2.2 c 0,0.3 0.1,0.6 0.5,0.6 0.5,-0.2 0.7,-1 0.8,-1.6 z"
         id="path63"
         inkscape:connector-curvature="0"
         style="fill:#000000;fill-opacity:1" /><path
         class="st0"
         d="m 274.7,295.4 c 0,-0.3 -0.1,-0.3 -0.1,-0.4 0,-0.1 0.2,-0.2 0.4,-0.2 0.4,0 0.7,0.3 0.7,0.6 l 0,0.6 c 0.4,-0.8 0.9,-1.3 1.5,-1.3 0.9,0 1.1,0.7 1.1,1.4 l 0,2.8 c 0,0.1 0,0.6 0.4,0.6 0.5,0 0.8,-0.9 0.9,-1.5 0.1,-0.3 0.2,-0.4 0.3,-0.4 0.2,0 0.5,0.3 0.5,0.6 0,0 0,0 0,0.1 -0.2,0.9 -0.8,2.1 -1.9,2.1 -0.7,0 -1.1,-0.6 -1.1,-1.3 l 0,-2.7 c 0,-0.4 0,-0.8 -0.3,-0.8 -0.4,0 -1.2,1.2 -1.3,2.2 l 0,2 c 0,0.3 0,0.6 -0.4,0.6 -0.3,0 -0.6,-0.1 -0.6,-0.6 l 0,-4.4 z"
         id="path65"
         inkscape:connector-curvature="0"
         style="fill:#000000;fill-opacity:1" /><path
         class="st0"
         d="m 279.3,298.1 c 0,-2.1 1.3,-3.3 2.7,-3.5 l 0,-3 c 0,-0.4 -0.1,-0.4 -0.1,-0.5 0,-0.1 0.2,-0.1 0.4,-0.1 0.4,0 0.7,0.3 0.7,0.6 l 0,7.2 c 0,0.3 0.1,0.6 0.5,0.6 0.5,0 0.8,-0.9 0.9,-1.5 0.1,-0.3 0.2,-0.4 0.3,-0.4 0.2,0 0.5,0.3 0.5,0.6 0,0 0,0 0,0.1 -0.2,0.9 -0.8,2.1 -1.9,2.1 -0.5,0 -0.8,-0.2 -1,-0.5 -0.3,0.3 -0.7,0.5 -1.2,0.5 -1.1,-0.1 -1.8,-0.8 -1.8,-2.2 z m 2.8,0.7 0,-3.3 c -0.9,0.2 -1.7,0.8 -1.7,2.5 0,1 0.4,1.4 0.9,1.4 0.3,-0.1 0.6,-0.3 0.8,-0.6 z"
         id="path67"
         inkscape:connector-curvature="0"
         style="fill:#000000;fill-opacity:1" /><path
         class="st0"
         d="m 290.6,300.2 c -0.7,0 -1.1,-0.6 -1.1,-1.3 l 0,-2.7 c 0,-0.4 0,-0.8 -0.3,-0.8 -0.4,0 -1.1,1.2 -1.2,2.2 l 0,2 c 0,0.3 0,0.6 -0.4,0.6 -0.3,0 -0.6,-0.1 -0.6,-0.6 l 0,-3.4 c 0,-0.4 0,-0.8 -0.3,-0.8 -0.4,0 -1.1,1.2 -1.2,2.2 l 0,2 c 0,0.3 0,0.6 -0.4,0.6 -0.3,0 -0.6,-0.1 -0.6,-0.6 l 0,-4.3 c 0,-0.3 -0.1,-0.3 -0.1,-0.4 0,-0.1 0.2,-0.2 0.4,-0.2 0.4,0 0.7,0.3 0.7,0.6 l 0,0.6 c 0.4,-0.7 0.8,-1.3 1.4,-1.3 0.8,0 1,0.7 1.1,1.3 0.3,-0.7 0.8,-1.3 1.4,-1.3 0.9,0 1.1,0.7 1.1,1.4 l 0,2.8 c 0,0.1 0,0.6 0.4,0.6 0.5,0 0.8,-0.9 0.9,-1.5 0.1,-0.3 0.2,-0.4 0.3,-0.4 0.2,0 0.5,0.3 0.5,0.6 0,0 0,0 0,0.1 -0.3,0.8 -0.8,2 -2,2 z"
         id="path69"
         inkscape:connector-curvature="0"
         style="fill:#000000;fill-opacity:1" /><path
         class="st0"
         d="m 296.5,297.9 c 0.1,-0.3 0.2,-0.4 0.3,-0.4 0.2,0 0.5,0.3 0.5,0.6 0,0 0,0 0,0.1 -0.2,0.9 -0.8,2.1 -1.9,2.1 -0.5,0 -0.8,-0.2 -1,-0.6 -0.3,0.3 -0.6,0.6 -1.2,0.6 -1.1,0 -1.6,-0.9 -1.6,-2 0,-2.3 1.6,-3.6 3.2,-3.6 0.4,0 0.6,0.2 0.6,0.6 0,0.2 0,0.3 -0.2,0.3 -0.1,0 -0.3,0 -0.4,0 -1,0 -2.2,0.9 -2.2,2.8 0,0.7 0.3,1.1 0.8,1.1 0.4,0 0.6,-0.3 0.8,-0.7 l 0,-2.1 c 0,-0.3 -0.1,-0.3 -0.1,-0.4 0,-0.1 0.2,-0.2 0.4,-0.2 0.4,0 0.7,0.3 0.7,0.6 l 0,2.2 c 0,0.3 0.1,0.6 0.5,0.6 0.5,-0.2 0.7,-1 0.8,-1.6 z"
         id="path71"
         inkscape:connector-curvature="0"
         style="fill:#000000;fill-opacity:1" /><path
         class="st0"
         d="m 296.4,298.1 c 0,-2.1 1.3,-3.3 2.7,-3.5 l 0,-3 c 0,-0.4 -0.1,-0.4 -0.1,-0.5 0,-0.1 0.2,-0.1 0.4,-0.1 0.4,0 0.7,0.3 0.7,0.6 l 0,7.2 c 0,0.3 0.1,0.6 0.5,0.6 0.5,0 0.8,-0.9 0.9,-1.5 0.1,-0.3 0.2,-0.4 0.3,-0.4 0.2,0 0.5,0.3 0.5,0.6 0,0 0,0 0,0.1 -0.2,0.9 -0.8,2.1 -1.9,2.1 -0.5,0 -0.8,-0.2 -1,-0.5 -0.3,0.3 -0.7,0.5 -1.2,0.5 -1.1,-0.1 -1.8,-0.8 -1.8,-2.2 z m 2.7,0.7 0,-3.3 c -0.9,0.2 -1.7,0.8 -1.7,2.5 0,1 0.4,1.4 0.9,1.4 0.4,-0.1 0.6,-0.3 0.8,-0.6 z"
         id="path73"
         inkscape:connector-curvature="0"
         style="fill:#000000;fill-opacity:1" /><path
         class="st0"
         d="m 302.6,298.5 c 0.2,0.5 0.6,0.8 1.3,0.8 1.1,0 1.5,-0.9 1.6,-1.7 0.1,-0.6 0.9,-0.3 0.8,0.1 -0.1,0.8 -0.6,2.5 -2.6,2.5 -1.2,0 -2.4,-1 -2.4,-2.7 0,-1.7 1,-3 2.1,-3 0.8,0 1.2,0.6 1.2,1.4 0,1 -0.7,2.2 -2,2.6 z m -0.1,-0.7 c 0.7,-0.3 1.1,-1 1.1,-1.8 0,-0.3 -0.1,-0.5 -0.3,-0.5 -0.7,0 -0.9,1.5 -0.8,2.1 0,0 0,0.1 0,0.2 z"
         id="path75"
         inkscape:connector-curvature="0"
         style="fill:#000000;fill-opacity:1" /></g><g
       id="g77"
       style="fill:#000000;fill-opacity:1"><path
         class="st1"
         d="m 245.3,254.5 0,7.9 c 0,0.1 -0.1,0.2 -0.2,0.2 l -1.3,0 c -0.1,0 -0.2,-0.1 -0.2,-0.2 l 0,-3.7 -0.9,3.3 c 0,0 0,0.1 -0.1,0.1 0,0 0,0 -0.1,-0.1 l -0.9,-3.3 0,3.7 c 0,0.1 -0.1,0.2 -0.2,0.2 l -1.3,0 c -0.1,0 -0.2,-0.1 -0.2,-0.2 l 0,-7.9 c 0,-0.1 0.1,-0.2 0.2,-0.2 l 1.1,0 c 0.1,0 0.1,0 0.1,0.1 0,0 0.1,0.1 0.1,0.1 l 1.1,4.3 1.1,-4.3 c 0,0 0,-0.1 0.1,-0.1 0,0 0.1,-0.1 0.1,-0.1 l 1.1,0 c 0.3,0 0.4,0.1 0.4,0.2 z"
         id="path79"
         inkscape:connector-curvature="0"
         style="fill:#000000;fill-opacity:1" /><path
         class="st1"
         d="m 251.3,262.4 c 0,0.1 0,0.2 -0.2,0.2 l -1.1,0 c -0.1,0 -0.2,-0.1 -0.2,-0.2 l -0.1,-1.4 -0.8,0 -0.1,1.4 c 0,0.1 -0.1,0.2 -0.2,0.2 l -1.2,0 c -0.1,0 -0.2,-0.1 -0.2,-0.2 l 1,-7.9 c 0,-0.1 0.1,-0.2 0.2,-0.2 l 1.8,0 c 0.1,0 0.2,0.1 0.2,0.2 l 0.9,7.9 z m -1.7,-2.9 -0.3,-3.1 -0.1,0 -0.3,3.1 0.7,0 z"
         id="path81"
         inkscape:connector-curvature="0"
         style="fill:#000000;fill-opacity:1" /><path
         class="st1"
         d="m 255.4,254.3 c 0.2,0 0.5,0 0.7,0.1 0.2,0.1 0.4,0.2 0.5,0.4 0.2,0.2 0.3,0.3 0.4,0.6 0.1,0.2 0.1,0.4 0.1,0.7 l 0,4.8 c 0,0.2 0,0.5 -0.1,0.7 -0.1,0.2 -0.2,0.4 -0.4,0.6 -0.2,0.2 -0.3,0.3 -0.5,0.4 -0.2,0.1 -0.4,0.1 -0.7,0.1 l -2,0 c -0.1,0 -0.2,-0.1 -0.2,-0.2 l 0,-7.9 c 0,-0.1 0.1,-0.2 0.2,-0.2 l 2,0 z m 0.2,1.8 c 0,-0.1 0,-0.2 -0.1,-0.2 -0.1,-0.1 -0.1,-0.1 -0.2,-0.1 l -0.4,0 0,5.3 0.4,0 c 0.1,0 0.2,0 0.2,-0.1 0.1,-0.1 0.1,-0.1 0.1,-0.2 l 0,-4.7 z"
         id="path83"
         inkscape:connector-curvature="0"
         style="fill:#000000;fill-opacity:1" /><path
         class="st1"
         d="m 262.5,261.2 0,1.2 c 0,0.1 -0.1,0.2 -0.2,0.2 l -2.9,0 c -0.1,0 -0.2,-0.1 -0.2,-0.2 l 0,-7.9 c 0,-0.1 0.1,-0.2 0.2,-0.2 l 2.9,0 c 0.1,0 0.2,0.1 0.2,0.2 l 0,1.2 c 0,0.1 -0.1,0.2 -0.2,0.2 l -1.5,0 0,1.6 1.3,0 c 0.1,0 0.2,0.1 0.2,0.2 l 0,1.2 c 0,0.1 -0.1,0.2 -0.2,0.2 l -1.3,0 0,1.9 1.5,0 c 0.1,0 0.2,0 0.2,0.2 z"
         id="path85"
         inkscape:connector-curvature="0"
         style="fill:#000000;fill-opacity:1" /></g><g
       id="g87"
       style="fill:#000000;fill-opacity:1"><path
         class="st1"
         d="m 307.6,254.5 0,6.4 c 0,0.2 0,0.5 -0.1,0.7 -0.1,0.2 -0.2,0.4 -0.4,0.6 -0.2,0.2 -0.3,0.3 -0.5,0.4 -0.2,0.1 -0.4,0.1 -0.7,0.1 l -0.5,0 c -0.2,0 -0.5,0 -0.7,-0.1 -0.2,-0.1 -0.4,-0.2 -0.5,-0.4 -0.2,-0.2 -0.3,-0.3 -0.4,-0.6 -0.1,-0.2 -0.1,-0.4 -0.1,-0.7 l 0,-6.4 c 0,-0.1 0.1,-0.2 0.2,-0.2 l 1.2,0 c 0.1,0 0.2,0.1 0.2,0.2 l 0,6.4 c 0,0.1 0,0.2 0.1,0.2 0.1,0.1 0.1,0.1 0.2,0.1 l 0.1,0 c 0.1,0 0.2,0 0.2,-0.1 0.1,-0.1 0.1,-0.1 0.1,-0.2 l 0,-6.4 c 0,-0.1 0.1,-0.2 0.2,-0.2 l 1.2,0 c 0.1,0 0.2,0.1 0.2,0.2 z"
         id="path89"
         inkscape:connector-curvature="0"
         style="fill:#000000;fill-opacity:1" /><path
         class="st1"
         d="m 314,254.4 c 0.2,0.1 0.4,0.2 0.5,0.4 0.2,0.2 0.3,0.3 0.4,0.6 0.1,0.2 0.1,0.4 0.1,0.7 l 0,0.5 c 0,0.1 -0.1,0.2 -0.2,0.2 l -1.2,0.3 c -0.1,0 -0.2,0 -0.2,-0.1 l 0,-1 c 0,-0.1 0,-0.2 -0.1,-0.2 -0.1,-0.1 -0.1,-0.1 -0.2,-0.1 l -0.1,0 c -0.1,0 -0.2,0 -0.2,0.1 -0.1,0.1 -0.1,0.1 -0.1,0.2 l 0,0.8 c 0,0.1 0,0.2 0.1,0.3 0,0.1 0.1,0.1 0.1,0.2 l 1.8,1.4 c 0.1,0.1 0.2,0.3 0.3,0.4 0,0.1 0.1,0.3 0.1,0.4 l 0,1.4 c 0,0.2 0,0.5 -0.1,0.7 -0.1,0.2 -0.2,0.4 -0.4,0.6 -0.2,0.2 -0.3,0.3 -0.5,0.4 -0.2,0.1 -0.4,0.1 -0.7,0.1 l -0.5,0 c -0.2,0 -0.5,0 -0.7,-0.1 -0.2,-0.1 -0.4,-0.2 -0.5,-0.4 -0.2,-0.2 -0.3,-0.3 -0.4,-0.6 -0.1,-0.2 -0.1,-0.4 -0.1,-0.7 l 0,-0.8 c 0,-0.1 0.1,-0.2 0.2,-0.2 l 1.2,-0.3 c 0.1,0 0.2,0 0.2,0.1 l 0,1.1 c 0,0.1 0,0.2 0.1,0.2 0.1,0.1 0.1,0.1 0.2,0.1 l 0.1,0 c 0.1,0 0.2,0 0.2,-0.1 0.1,-0.1 0.1,-0.1 0.1,-0.2 l 0,-0.8 c 0,-0.1 0,-0.2 -0.1,-0.3 0,-0.1 -0.1,-0.2 -0.2,-0.2 l -1.7,-1.4 c -0.1,-0.1 -0.2,-0.3 -0.3,-0.4 -0.1,-0.1 -0.1,-0.3 -0.1,-0.5 l 0,-1.2 c 0,-0.2 0,-0.5 0.1,-0.7 0.1,-0.2 0.2,-0.4 0.4,-0.6 0.2,-0.2 0.3,-0.3 0.5,-0.4 0.2,-0.1 0.4,-0.1 0.7,-0.1 l 0.5,0 c 0.3,0 0.5,0.1 0.7,0.2 z"
         id="path91"
         inkscape:connector-curvature="0"
         style="fill:#000000;fill-opacity:1" /><path
         class="st1"
         d="m 322.6,262.4 c 0,0.1 0,0.2 -0.2,0.2 l -1.2,0 c -0.1,0 -0.2,-0.1 -0.2,-0.2 l -0.1,-1.4 -0.8,0 -0.1,1.4 c 0,0.1 -0.1,0.2 -0.2,0.2 l -1.2,0 c -0.1,0 -0.2,-0.1 -0.2,-0.2 l 1,-7.9 c 0,-0.1 0.1,-0.2 0.2,-0.2 l 1.8,0 c 0.1,0 0.2,0.1 0.2,0.2 l 1,7.9 z m -1.8,-2.9 -0.3,-3.1 -0.1,0 -0.3,3.1 0.7,0 z"
         id="path93"
         inkscape:connector-curvature="0"
         style="fill:#000000;fill-opacity:1" /></g><g
       id="g95"
       style="fill:#000000;fill-opacity:1"><g
         id="g97"
         style="fill:#000000;fill-opacity:1"><path
           class="st1"
           d="m 273.9,262 c 0.8,1.4 1.7,2.2 2,2.4 0.7,0.5 1.4,1 2.3,1.4 1.7,0.8 2.9,1.1 3.7,1.2 0.1,0 1,0.1 1.6,0.1 0.9,0 1.5,-0.1 1.6,-0.1 0.8,-0.1 1.9,-0.4 3.7,-1.2 0.9,-0.4 1.6,-0.9 2.3,-1.4 0.3,-0.3 1.2,-1 2,-2.4 0.4,-0.6 0.6,-1.4 0.9,-2.5 0.2,-0.9 0.2,-1.8 0.1,-2.7 0,-0.9 -0.2,-1.7 -0.5,-2.5 -0.2,-0.5 -0.5,-1.2 -0.9,-2.2 -0.2,-0.4 -0.7,-1.4 -0.8,-1.6 -0.3,-0.6 -0.6,-0.7 -0.7,-0.7 -0.1,0 -0.5,0 -0.5,0.6 0,0.2 0,0.3 0.2,0.6 l 0.1,0.4 c 0.7,1.7 1.3,3.3 1.5,5.1 0,-0.1 -0.1,-0.1 -0.1,-0.2 -0.3,-0.3 -1,-1.1 -1.2,-1.3 -0.3,-0.3 -1.4,-1.3 -1.6,-1.4 -0.1,-0.1 -0.4,-0.3 -0.8,-0.3 -0.2,0 -0.5,0.1 -0.6,0.3 -0.2,0.3 0.1,0.6 0.3,0.7 0.1,0.1 0.4,0.3 0.6,0.6 0.4,0.4 1.3,1.6 1.9,2.4 l 0.2,0.3 c 0.4,0.5 0.7,1 0.9,1.6 0,0.2 -0.2,1 -0.8,1.9 -0.4,0.5 -0.8,1 -1.1,1.2 -0.1,-0.8 -0.5,-1.4 -1,-1.9 -0.9,-0.8 -1.7,-1.6 -2,-2.5 l 0,-0.1 c -0.1,-0.4 -0.3,-0.7 -0.2,-1.6 0,-0.3 0.1,-0.7 0.2,-1.1 0.1,-0.6 0.2,-0.9 -0.1,-1.1 -0.1,0 -0.1,0 -0.2,0 -0.5,0 -0.7,0.5 -0.8,0.7 -0.5,1.4 -1,3 -0.4,4.3 0.1,0.2 0.2,0.4 0.4,0.6 0.3,0.5 0.6,0.9 1,1.3 l 0.2,0.2 c 0.1,0.1 0.2,0.3 0.3,0.4 0.3,0.4 0.7,1.1 0.6,1.7 -0.1,0.5 -0.6,0.8 -1.2,1 -0.3,0.1 -1,0.3 -1.3,0.4 -0.3,0.1 -0.6,0.1 -1,0.1 -0.4,0 -1,0.1 -1,0.1 0,0 -0.6,0 -1,-0.1 -0.3,0 -0.7,-0.1 -1,-0.1 -0.3,-0.1 -1,-0.3 -1.3,-0.4 -0.6,-0.2 -1.1,-0.5 -1.2,-1 -0.1,-0.6 0.3,-1.3 0.6,-1.7 0.1,-0.2 0.2,-0.3 0.3,-0.4 l 0.2,-0.2 c 0.4,-0.5 0.7,-0.8 1,-1.3 0.1,-0.2 0.3,-0.4 0.4,-0.6 0.6,-1.3 0.1,-2.9 -0.4,-4.3 -0.1,-0.2 -0.3,-0.8 -0.8,-0.7 -0.1,0 -0.1,0 -0.2,0 -0.3,0.1 -0.3,0.5 -0.1,1.1 0.1,0.3 0.2,0.8 0.2,1.1 0,0.8 -0.1,1.2 -0.2,1.6 l 0,0.1 c -0.3,0.9 -1.1,1.7 -2,2.5 -0.5,0.5 -0.9,1.1 -1,1.9 -0.3,-0.3 -0.8,-0.7 -1.2,-1.2 -0.6,-0.8 -0.8,-1.6 -0.8,-1.9 0.2,-0.6 0.5,-1.1 0.9,-1.6 l 0.2,-0.3 c 0.6,-0.9 1.5,-2 1.9,-2.4 0.3,-0.3 0.5,-0.5 0.6,-0.6 0.2,-0.2 0.5,-0.4 0.3,-0.7 -0.1,-0.2 -0.3,-0.3 -0.6,-0.3 -0.3,0 -0.6,0.3 -0.8,0.3 -0.2,0.1 -1.3,1.1 -1.6,1.4 -0.2,0.1 -0.9,0.9 -1.2,1.3 0,0.1 -0.1,0.1 -0.1,0.2 0.2,-1.8 0.8,-3.4 1.5,-5.1 l 0.1,-0.4 c 0.1,-0.3 0.2,-0.4 0.2,-0.6 -0.1,-0.6 -0.5,-0.6 -0.5,-0.6 -0.2,0 -0.4,0.1 -0.7,0.7 -0.1,0.1 -0.6,1.2 -0.8,1.6 -0.4,1 -0.7,1.6 -0.9,2.2 -0.3,0.8 -0.4,1.6 -0.5,2.5 0,0.9 -0.1,1.8 0.1,2.7 -0.1,1.1 0.2,1.9 0.6,2.5 z"
           id="path99"
           inkscape:connector-curvature="0"
           style="fill:#000000;fill-opacity:1" /></g></g><path
       class="st0"
       d="m 291.8,350 c 0,0 -0.6,-0.5 -1.8,-1.3 -0.3,-0.2 -0.5,-0.3 -0.8,-0.5 -1.8,-1 -3.3,-1.4 -3.4,-1.4 0,0 -0.1,0 -0.1,0 -0.1,0 -0.2,0.1 -0.2,0.1 l -1.4,2.3 c 0,0.1 0,0.2 0,0.2 0,0.1 0.1,0.1 0.1,0.1 0,0 0,0 0,0 0.1,0 0.3,0.1 0.5,0.2 -0.8,0.9 -1.6,1.8 -2.2,2.7 -0.5,-0.7 -1.7,-2 -2.3,-2.7 0.2,-0.1 0.4,-0.2 0.5,-0.2 0,0 0,0 0,0 0.1,0 0.1,-0.1 0.1,-0.1 0,-0.1 0,-0.2 0,-0.2 l -1.4,-2.3 c 0,-0.1 -0.1,-0.1 -0.2,-0.1 0,0 -0.1,0 -0.1,0 0,0 -1.5,0.4 -3.4,1.4 -0.3,0.1 -0.6,0.3 -0.8,0.5 -1.2,0.7 -1.8,1.3 -1.8,1.3 -0.1,0.1 -0.1,0.1 -0.1,0.2 0,0 0.1,0.4 0.3,0.9 0.2,0.5 0.6,1.2 1.3,1.7 0.7,0.6 1.3,0.8 1.7,1 0.2,0.1 0.5,0.1 0.6,0.1 0.2,0 0.3,0 0.4,-0.1 0.1,0 0.1,-0.1 0.1,-0.1 0.1,-0.2 0,-0.3 -0.1,-0.4 -0.1,-0.2 -0.3,-0.5 0.2,-1.3 0.1,-0.2 0.4,-0.5 0.6,-0.8 0.8,0.7 2.2,2.2 2.9,3.1 -2.4,3.4 -3.2,5.7 -3.3,5.8 0,0.1 0,0.1 0,0.1 0,0 -0.2,0.1 -0.3,0.2 -0.1,0 -0.3,0.2 -0.3,0.4 l 0,0 c 0.1,0.7 0.2,0.9 0.4,1.1 0.2,0.1 0.6,0.2 1.1,0.1 0.2,0 0.4,-0.1 0.6,-0.1 0.5,-0.2 0.7,-0.5 0.9,-1 0.2,-0.5 2.9,-6.6 6.6,-9.7 0.3,0.3 0.5,0.5 0.6,0.8 0.5,0.8 0.3,1.1 0.2,1.3 -0.1,0.1 -0.2,0.2 -0.1,0.4 0,0 0.1,0.1 0.1,0.1 0.1,0 0.2,0.1 0.4,0.1 0.2,0 0.4,-0.1 0.6,-0.1 0.4,-0.1 1,-0.4 1.7,-1 0.7,-0.6 1.1,-1.3 1.3,-1.7 0.2,-0.5 0.3,-0.9 0.3,-0.9 0.1,-0.1 0,-0.2 0,-0.2 z m -4.3,10.5 c -0.1,0 -0.3,-0.1 -0.3,-0.2 0,0 0,0 0,-0.1 0,-0.1 -0.7,-1.8 -2.4,-4.5 -0.5,0.7 -1,1.5 -1.5,2.2 0.9,1.6 1.5,3 1.6,3.2 0.2,0.5 0.4,0.8 0.9,1 0.2,0.1 0.4,0.1 0.6,0.1 0.5,0 0.9,-0.1 1.1,-0.1 0.2,-0.1 0.3,-0.4 0.4,-1.1 l 0,0 c -0.1,-0.3 -0.3,-0.4 -0.4,-0.5 z"
       id="path101"
       inkscape:connector-curvature="0"
       style="fill:#000000;fill-opacity:1" /></g></svg>