<?xml version="1.0" encoding="UTF-8" standalone="no"?>
<!-- Generator: Adobe Illustrator 20.0.0, SVG Export Plug-In . SVG Version: 6.00 Build 0)  -->

<svg
   xmlns:dc="http://purl.org/dc/elements/1.1/"
   xmlns:cc="http://creativecommons.org/ns#"
   xmlns:rdf="http://www.w3.org/1999/02/22-rdf-syntax-ns#"
   xmlns:svg="http://www.w3.org/2000/svg"
   xmlns="http://www.w3.org/2000/svg"
   xmlns:sodipodi="http://sodipodi.sourceforge.net/DTD/sodipodi-0.dtd"
   xmlns:inkscape="http://www.inkscape.org/namespaces/inkscape"
   version="1.1"
   id="artwork"
   x="0px"
   y="0px"
   viewBox="0 0 160 99.999999"
   xml:space="preserve"
   inkscape:version="0.91 r13725"
   sodipodi:docname="brand-7.svg"
   width="160"
   height="100"><metadata
     id="metadata85"><rdf:RDF><cc:Work
         rdf:about=""><dc:format>image/svg+xml</dc:format><dc:type
           rdf:resource="http://purl.org/dc/dcmitype/StillImage" /><dc:title></dc:title></cc:Work></rdf:RDF></metadata><defs
     id="defs83" /><sodipodi:namedview
     pagecolor="#ffffff"
     bordercolor="#666666"
     borderopacity="1"
     objecttolerance="10"
     gridtolerance="10"
     guidetolerance="10"
     inkscape:pageopacity="0"
     inkscape:pageshadow="2"
     inkscape:window-width="1920"
     inkscape:window-height="1017"
     id="namedview81"
     showgrid="false"
     fit-margin-bottom="1"
     fit-margin-top="1"
     fit-margin-left="1"
     fit-margin-right="1"
     inkscape:zoom="6.5555555"
     inkscape:cx="80.480086"
     inkscape:cy="37.170853"
     inkscape:window-x="-8"
     inkscape:window-y="-8"
     inkscape:window-maximized="1"
     inkscape:current-layer="artwork" /><style
     type="text/css"
     id="style3">
	.st0{fill:#E1BD3F;}
	.st1{fill:#DFDFC6;}
</style><g
     id="g5"
     transform="matrix(0.8862539,0,0,0.8862539,-154.86624,-221.99132)"
     style="fill:#000000;fill-opacity:1"><g
       id="g7"
       style="fill:#000000;fill-opacity:1"><path
         class="st0"
         d="m 218.7,329.3 c 0.6,0.2 1.5,0.9 1.9,1.5 -2.3,4 -4.5,7.8 -7.5,7.8 -2.9,0 -4,-2.9 -3.8,-6 l 0.3,-4.3 -5.5,0 c -2.6,5.6 -5.8,10.3 -11.4,10.3 -8.5,0 -15,-8.7 -12.4,-17.3 2.4,-7.9 12.5,-8.5 17.7,-1 l -2.9,1.3 c -3.2,-4.8 -9.3,-4.7 -11.2,1.5 -1.7,5.6 1.6,11.9 7.9,11.8 10.4,-0.1 13.1,-28.5 22.8,-25.5 l -1.6,24.3 c -0.1,1.7 0.1,2.1 0.7,2.1 0.7,0 2.8,-2.6 4.8,-6.1 l 0.2,-0.4 z m -13.6,-3.1 4.7,0 0.9,-11.9 c -2.2,3.1 -3.8,7.6 -5.6,11.9 z"
         id="path9"
         inkscape:connector-curvature="0"
         style="fill:#000000;fill-opacity:1" /><path
         class="st0"
         d="m 238,329.3 c 0.6,0.2 1.5,0.9 1.9,1.5 -2.3,4 -5.2,7.8 -8.6,7.8 -2.1,0 -3.6,-1.1 -4.3,-2.8 -1.5,1.7 -3.3,2.8 -4.9,2.8 -3.3,0 -5.3,-2.9 -4.4,-6 l 3,-10.2 c 0.9,-3.1 3.5,-4.9 5.7,-4.9 1.7,0 3.3,1 4.3,2.2 l 3.1,-10.7 4.1,0 -7.2,24.7 c -0.5,1.7 0.2,2.3 1.1,2.3 1.8,0 3.9,-2.8 5.9,-6.3 l 0.3,-0.4 z m -16.4,4.3 c -0.5,1.7 0.2,2.3 1.1,2.3 1.7,0 3.7,-2 5.1,-6.2 l 1.6,-5.5 0,0 c 1,-3.8 -3.6,-4.8 -4.8,-0.9 l -3,10.3 z"
         id="path11"
         inkscape:connector-curvature="0"
         style="fill:#000000;fill-opacity:1" /><path
         class="st0"
         d="m 243.5,317.9 -1.7,14 c -0.5,4 -0.2,4 1.2,0.1 l 5.4,-14.2 3.7,0 -3.9,10.2 c -0.9,4.5 2.8,4 4.3,1.5 l 0.2,-0.3 c 0.6,0.2 1.5,0.9 1.9,1.5 -2.3,4.1 -6.2,3.5 -7.9,1.3 l -1.2,3.3 c -1.9,4.9 -8.7,4.2 -7.8,-2.8 l 1.8,-14.6 4,0 z"
         id="path13"
         inkscape:connector-curvature="0"
         style="fill:#000000;fill-opacity:1" /><path
         class="st0"
         d="m 256.5,330.2 -0.2,0.7 c -1,3.4 1,5 3.5,5 2.9,0 5.9,-2.8 7.9,-6.3 l 0.2,-0.3 c 0.6,0.2 1.5,0.9 1.9,1.5 -2.3,4 -5.9,7.8 -10.5,7.8 -4.8,0 -8.1,-4.1 -6.8,-8.6 l 2.3,-7.6 c 0.9,-3.1 3.1,-4.9 6.4,-4.9 3.3,0 6.2,2.9 5.1,6.8 l -0.3,1.1 c -1.8,5.4 -6.6,5.9 -9.5,4.8 z m 0.6,-2.1 c 1.7,0.6 4.3,0.6 5.4,-2.8 l 0.3,-1.1 c 1.3,-4.4 -3.1,-5.1 -4.3,-0.9 l -1.4,4.8 z"
         id="path15"
         inkscape:connector-curvature="0"
         style="fill:#000000;fill-opacity:1" /><path
         class="st0"
         d="m 287.1,329.3 c 0.6,0.2 1.5,0.9 1.9,1.5 -2.3,4 -5.2,7.8 -8.6,7.8 -3.3,0 -5.3,-2.9 -4.4,-6 l 2.8,-9.5 c 0.9,-3.1 -2.1,-4.2 -6.2,3.9 l -3.2,11.2 -4.1,0 5.9,-20.2 4.1,0 -0.8,2.8 c 1.5,-2.2 3,-3.2 4.8,-3.2 2.3,0 4.6,2.3 3.7,5.5 l -3,10.6 c -0.5,1.7 0.2,2.3 1.1,2.3 1.8,0 3.9,-2.8 5.9,-6.3 l 0.1,-0.4 z"
         id="path17"
         inkscape:connector-curvature="0"
         style="fill:#000000;fill-opacity:1" /><path
         class="st0"
         d="m 287.4,315.9 3.7,0 2,-6.9 4.1,0 -2,6.9 3.4,0 -0.6,2 -3.3,0 -4.5,15.8 c -0.5,1.7 0.2,2.3 1.1,2.3 1.8,0 3.9,-2.8 5.9,-6.3 l 0.2,-0.3 c 0.6,0.2 1.5,0.9 1.9,1.5 -2.3,4 -5.2,7.8 -8.6,7.8 -3.3,0 -5.3,-2.9 -4.4,-6 l 4.3,-14.7 -3.7,0 0.5,-2.1 z"
         id="path19"
         inkscape:connector-curvature="0"
         style="fill:#000000;fill-opacity:1" /><path
         class="st0"
         d="m 316.5,329.3 c 0.6,0.2 1.5,0.9 1.9,1.5 -2.3,4 -5.2,7.8 -8.6,7.8 -2.6,0 -4.4,-1.8 -4.6,-4 -1.4,1.9 -3.4,4 -5.6,4 -2.7,0 -4.4,-2.6 -3.3,-6.4 l 4.2,-14.3 4.1,0 -4.1,14.3 c -0.3,0.9 -0.9,2.5 0.3,2.9 0.9,0.4 2.8,-1.3 5.2,-4.2 l 3.8,-13.1 4.1,0 -4.5,15.8 c -0.5,1.7 0.2,2.3 1.1,2.3 1.8,0 3.9,-2.8 5.9,-6.3 l 0.1,-0.3 z"
         id="path21"
         inkscape:connector-curvature="0"
         style="fill:#000000;fill-opacity:1" /><path
         class="st0"
         d="m 324.4,324.8 c 0.2,-0.9 -0.2,-1.7 -0.9,-2.4 l -0.7,-0.7 c -2,4.6 -3,6.7 -4.3,9 -0.7,-0.4 -1.4,-0.9 -1.9,-1.5 1.8,-3.2 3.3,-6.8 4.4,-9.4 l -0.5,-0.5 c -2,-1.9 -2.4,-4.3 -0.7,-6.5 l 2.8,2.4 c -0.6,0.8 -0.4,1.7 0.4,2.4 l 3,2.8 c 1.8,1.7 2.8,3.2 2.1,5.7 l -2.1,7.4 c -0.5,1.7 0.2,2.3 1.1,2.3 1.8,0 3.9,-2.8 5.9,-6.3 l 0.2,-0.3 c 0.6,0.2 1.5,0.9 1.9,1.5 -2.3,4 -5.2,7.8 -8.6,7.8 -3.3,0 -5.3,-2.9 -4.4,-6 l 2.3,-7.7 z"
         id="path23"
         inkscape:connector-curvature="0"
         style="fill:#000000;fill-opacity:1" /><path
         class="st0"
         d="m 337,330.2 -0.2,0.7 c -1,3.4 1,5 3.5,5 2.9,0 5.9,-2.8 7.9,-6.3 l 0.2,-0.3 c 0.6,0.2 1.5,0.9 1.9,1.5 -2.3,4 -5.9,7.8 -10.5,7.8 -4.8,0 -8.1,-4.1 -6.8,-8.6 l 2.3,-7.6 c 0.9,-3.1 3.1,-4.9 6.4,-4.9 3.3,0 6.2,2.9 5.1,6.8 l -0.3,1.1 c -1.7,5.4 -6.6,5.9 -9.5,4.8 z m 0.6,-2.1 c 1.7,0.6 4.3,0.6 5.4,-2.8 l 0.3,-1.1 c 1.3,-4.4 -3.1,-5.1 -4.3,-0.9 l -1.4,4.8 z"
         id="path25"
         inkscape:connector-curvature="0"
         style="fill:#000000;fill-opacity:1" /></g><g
       id="g27"
       style="fill:#000000;fill-opacity:1"><path
         class="st1"
         d="m 237.1,282.4 c -0.2,1.1 -0.3,2.3 -0.5,3.4 -0.2,0.1 -0.5,0.2 -0.7,0.3 -0.9,-0.8 -1.7,-1.5 -2.6,-2.3 0.4,1.1 0.9,2.2 1.3,3.3 -0.4,0.2 -0.8,0.3 -1.2,0.5 -0.7,-1.7 -1.4,-3.5 -2.1,-5.2 0.6,-0.2 1.2,-0.5 1.7,-0.7 0.9,0.8 1.7,1.5 2.6,2.3 0.1,-1.1 0.3,-2.3 0.4,-3.4 0.6,-0.2 1.2,-0.4 1.8,-0.6 0.6,1.8 1.2,3.6 1.8,5.3 -0.4,0.1 -0.8,0.3 -1.2,0.4 -0.5,-1.1 -0.9,-2.2 -1.3,-3.3 z"
         id="path29"
         inkscape:connector-curvature="0"
         style="fill:#000000;fill-opacity:1" /><path
         class="st1"
         d="m 245.4,282.8 c -0.4,0.7 -1.1,1.1 -1.9,1.4 -0.8,0.2 -1.6,0.2 -2.3,-0.2 -0.7,-0.4 -1.2,-0.9 -1.5,-1.7 -0.3,-0.8 -0.2,-1.5 0.3,-2.2 0.4,-0.7 1.1,-1.2 2,-1.4 0.9,-0.2 1.7,-0.2 2.4,0.2 0.7,0.4 1.2,1 1.4,1.8 0.1,0.6 0,1.4 -0.4,2.1 z m -1,-1.9 c -0.1,-0.5 -0.4,-0.9 -0.8,-1.1 -0.4,-0.3 -0.9,-0.3 -1.4,-0.2 -0.5,0.1 -0.9,0.4 -1.1,0.9 -0.2,0.4 -0.3,0.9 -0.1,1.4 0.1,0.5 0.4,0.8 0.9,1.1 0.4,0.2 0.9,0.3 1.3,0.2 0.5,-0.1 0.8,-0.4 1.1,-0.8 0.2,-0.6 0.2,-1 0.1,-1.5 z"
         id="path31"
         inkscape:connector-curvature="0"
         style="fill:#000000;fill-opacity:1" /><path
         class="st1"
         d="m 248.6,281.3 c 0.3,0.2 0.6,0.3 0.9,0.2 0.4,-0.1 0.6,-0.3 0.8,-0.6 0.2,-0.3 0.2,-0.7 0.1,-1.1 -0.2,-1 -0.4,-2 -0.6,-3 0.4,-0.1 0.9,-0.2 1.3,-0.2 0.2,1 0.4,2.1 0.6,3.1 0.1,0.8 0,1.5 -0.4,2 -0.4,0.5 -0.9,0.8 -1.6,1 -0.7,0.1 -1.3,0.1 -1.9,-0.3 -0.6,-0.3 -0.9,-0.9 -1.1,-1.7 -0.2,-1 -0.5,-2 -0.7,-3.1 0.4,-0.1 0.9,-0.2 1.3,-0.3 0.2,1 0.4,2 0.7,3 0.2,0.5 0.4,0.8 0.6,1 z"
         id="path33"
         inkscape:connector-curvature="0"
         style="fill:#000000;fill-opacity:1" /><path
         class="st1"
         d="m 256.9,275.7 c 0.5,-0.1 0.9,-0.1 1.4,-0.2 0.2,1.9 0.4,3.7 0.6,5.6 -0.4,0 -0.8,0.1 -1.3,0.1 -1,-1.1 -2.1,-2.1 -3.2,-3.1 0.2,1.2 0.3,2.3 0.5,3.5 -0.4,0.1 -0.8,0.1 -1.3,0.2 -0.3,-1.8 -0.6,-3.7 -0.9,-5.5 0.4,-0.1 0.8,-0.1 1.3,-0.2 1.2,1 2.3,2.1 3.4,3.2 -0.3,-1.2 -0.4,-2.4 -0.5,-3.6 z"
         id="path35"
         inkscape:connector-curvature="0"
         style="fill:#000000;fill-opacity:1" /><path
         class="st1"
         d="m 262.3,276.3 c 0.1,1.5 0.2,3 0.3,4.5 -0.4,0 -0.9,0.1 -1.3,0.1 -0.1,-1.5 -0.2,-3 -0.3,-4.5 -0.6,0 -1.1,0.1 -1.7,0.1 0,-0.4 -0.1,-0.7 -0.1,-1.1 1.6,-0.1 3.2,-0.3 4.8,-0.3 0,0.4 0,0.7 0,1.1 -0.5,0 -1.1,0.1 -1.7,0.1 z"
         id="path37"
         inkscape:connector-curvature="0"
         style="fill:#000000;fill-opacity:1" /><path
         class="st1"
         d="m 268.8,280.7 c -0.2,-0.4 -0.4,-0.8 -0.5,-1.2 -0.8,0 -1.6,0 -2.4,0 -0.2,0.4 -0.3,0.8 -0.5,1.2 -0.5,0 -0.9,0 -1.4,0.1 0.7,-1.9 1.5,-3.8 2.4,-5.7 0.4,0 0.9,0 1.3,0 0.9,1.9 1.7,3.7 2.5,5.6 -0.4,0 -0.9,0 -1.4,0 z m -1.7,-4 c -0.2,0.5 -0.5,1.1 -0.7,1.6 0.5,0 1,0 1.5,0 -0.3,-0.5 -0.6,-1 -0.8,-1.6 z"
         id="path39"
         inkscape:connector-curvature="0"
         style="fill:#000000;fill-opacity:1" /><path
         class="st1"
         d="m 271,275.1 c 0.5,0 0.9,0 1.4,0 -0.1,1.9 -0.2,3.7 -0.2,5.6 -0.4,0 -0.9,0 -1.3,0 0,-1.9 0.1,-3.8 0.1,-5.6 z"
         id="path41"
         inkscape:connector-curvature="0"
         style="fill:#000000;fill-opacity:1" /><path
         class="st1"
         d="m 278.1,275.5 c 0.5,0 0.9,0.1 1.4,0.1 -0.2,1.9 -0.4,3.7 -0.7,5.6 -0.4,0 -0.8,-0.1 -1.3,-0.1 -0.8,-1.3 -1.6,-2.5 -2.5,-3.8 -0.1,1.2 -0.2,2.3 -0.3,3.5 -0.4,0 -0.9,-0.1 -1.3,-0.1 0.1,-1.9 0.2,-3.7 0.3,-5.6 0.4,0 0.8,0.1 1.3,0.1 0.9,1.3 1.8,2.6 2.6,3.9 0.3,-1.2 0.4,-2.4 0.5,-3.6 z"
         id="path43"
         inkscape:connector-curvature="0"
         style="fill:#000000;fill-opacity:1" /><path
         class="st1"
         d="m 285.2,281.1 c 0.6,0.1 1.2,0 1.7,-0.4 0.2,0.3 0.4,0.7 0.6,1 -0.8,0.6 -1.6,0.8 -2.5,0.6 -0.9,-0.2 -1.5,-0.6 -2,-1.2 -0.5,-0.6 -0.7,-1.4 -0.5,-2.2 0.1,-0.8 0.5,-1.5 1.2,-1.9 0.7,-0.5 1.5,-0.6 2.4,-0.4 1,0.2 1.7,0.7 2.3,1.5 -0.3,0.2 -0.7,0.5 -1,0.7 -0.3,-0.6 -0.8,-0.9 -1.4,-1 -0.5,-0.1 -1,0 -1.4,0.2 -0.4,0.2 -0.7,0.6 -0.7,1.1 -0.1,0.5 0,1 0.3,1.3 0.2,0.4 0.5,0.6 1,0.7 z"
         id="path45"
         inkscape:connector-curvature="0"
         style="fill:#000000;fill-opacity:1" /><path
         class="st1"
         d="m 288.3,282.9 c 0.4,-1.8 0.8,-3.7 1.2,-5.5 0.4,0.1 0.9,0.2 1.3,0.3 -0.4,1.5 -0.7,2.9 -1.1,4.4 0.8,0.2 1.6,0.4 2.4,0.6 -0.1,0.4 -0.2,0.7 -0.3,1.1 -1.1,-0.3 -2.3,-0.6 -3.5,-0.9 z"
         id="path47"
         inkscape:connector-curvature="0"
         style="fill:#000000;fill-opacity:1" /><path
         class="st1"
         d="m 294.6,283.1 c 0.1,0.3 0.4,0.5 0.7,0.6 0.4,0.1 0.7,0.1 1,-0.1 0.3,-0.2 0.5,-0.5 0.6,-0.9 0.3,-1 0.6,-2 1,-3 0.4,0.1 0.9,0.3 1.3,0.4 -0.3,1 -0.7,2 -1,3 -0.3,0.8 -0.7,1.3 -1.3,1.6 -0.6,0.3 -1.2,0.3 -1.9,0.1 -0.7,-0.2 -1.2,-0.6 -1.5,-1.1 -0.3,-0.6 -0.4,-1.2 -0.2,-2 0.3,-1 0.6,-2 0.8,-3 0.4,0.1 0.9,0.2 1.3,0.4 -0.3,1 -0.6,2 -0.9,3 0,0.3 0,0.6 0.1,1 z"
         id="path49"
         inkscape:connector-curvature="0"
         style="fill:#000000;fill-opacity:1" /><path
         class="st1"
         d="m 301.1,286.8 c -0.8,-0.3 -1.6,-0.6 -2.4,-0.9 0.6,-1.8 1.3,-3.5 1.9,-5.3 0.8,0.3 1.5,0.5 2.3,0.8 0.4,0.1 0.7,0.3 1,0.5 0.2,0.2 0.4,0.4 0.5,0.6 0.1,0.4 0.2,0.7 0,1.1 -0.2,0.4 -0.4,0.7 -0.8,0.7 -0.1,0 -0.2,0 -0.3,0 0,0 -0.1,0 -0.2,0 0.3,0.2 0.5,0.5 0.6,0.8 0.1,0.3 0.1,0.6 0,0.9 -0.1,0.4 -0.4,0.6 -0.8,0.8 -0.5,0.3 -1.1,0.3 -1.8,0 z m 0,-3.6 c 0.2,0.1 0.4,0.1 0.6,0.2 0.4,0.1 0.6,0.2 0.8,0.2 0.2,0 0.3,-0.1 0.4,-0.4 0.1,-0.2 0.1,-0.4 -0.1,-0.6 -0.1,-0.1 -0.4,-0.3 -0.8,-0.4 -0.2,-0.1 -0.4,-0.2 -0.6,-0.2 -0.1,0.5 -0.2,0.8 -0.3,1.2 z m -0.8,2.2 c 0.3,0.1 0.6,0.2 0.8,0.3 0.4,0.1 0.6,0.2 0.8,0.2 0.2,0 0.4,-0.1 0.5,-0.4 0.1,-0.2 0.1,-0.4 -0.1,-0.6 -0.2,-0.2 -0.4,-0.3 -0.9,-0.5 -0.2,-0.1 -0.5,-0.2 -0.7,-0.3 -0.1,0.4 -0.3,0.8 -0.4,1.3 z"
         id="path51"
         inkscape:connector-curvature="0"
         style="fill:#000000;fill-opacity:1" /></g><g
       id="g53"
       style="fill:#000000;fill-opacity:1"><path
         class="st1"
         d="m 287.8,297.2 1.8,0 0,4.3 -0.9,0 0,-3.5 -0.8,0 0,-0.8 z"
         id="path55"
         inkscape:connector-curvature="0"
         style="fill:#000000;fill-opacity:1" /><path
         class="st1"
         d="m 291.9,300.7 c 0.3,0 0.5,-0.1 0.6,-0.3 0.1,-0.2 0.2,-0.4 0.3,-0.7 -0.3,0.2 -0.6,0.3 -0.9,0.3 -0.4,0 -0.7,-0.1 -1,-0.4 -0.3,-0.3 -0.4,-0.6 -0.4,-1.1 0,-0.4 0.1,-0.8 0.4,-1.1 0.3,-0.3 0.7,-0.4 1.1,-0.4 0.3,0 0.6,0.1 0.8,0.2 0.2,0.1 0.4,0.3 0.5,0.5 0.2,0.4 0.4,0.9 0.4,1.5 0,0.4 0,0.7 -0.1,1 -0.1,0.3 -0.2,0.5 -0.4,0.7 -0.3,0.3 -0.8,0.5 -1.2,0.5 -0.2,0 -0.4,0 -0.6,-0.1 -0.2,-0.1 -0.3,-0.1 -0.4,-0.2 -0.1,-0.1 -0.2,-0.1 -0.3,-0.2 l 0.5,-0.7 c 0,0 0.1,0.1 0.1,0.1 0,0 0.1,0.1 0.3,0.2 0,0.2 0.1,0.2 0.3,0.2 z m 0.1,-1.5 c 0.2,0 0.4,-0.1 0.5,-0.2 0.1,-0.1 0.2,-0.3 0.2,-0.4 0,-0.2 -0.1,-0.3 -0.2,-0.5 -0.1,-0.1 -0.3,-0.2 -0.5,-0.2 -0.2,0 -0.3,0.1 -0.5,0.2 -0.1,0.1 -0.2,0.3 -0.2,0.5 0,0.2 0.1,0.3 0.2,0.5 0.1,0 0.3,0.1 0.5,0.1 z"
         id="path57"
         inkscape:connector-curvature="0"
         style="fill:#000000;fill-opacity:1" /><path
         class="st1"
         d="m 297.2,297.2 0,0.8 -1.7,0 0,0.7 c 0.1,0 0.3,-0.1 0.4,-0.1 0.4,0 0.8,0.1 1.1,0.4 0.3,0.3 0.5,0.6 0.5,1 0,0.4 -0.2,0.8 -0.5,1.1 -0.3,0.3 -0.7,0.4 -1.2,0.4 -0.6,0 -1.1,-0.2 -1.5,-0.7 l 0.5,-0.7 c 0,0 0.1,0.1 0.1,0.1 0.1,0.1 0.2,0.1 0.3,0.2 0.2,0.1 0.3,0.1 0.5,0.1 0.2,0 0.3,0 0.4,-0.1 0.1,-0.1 0.2,-0.2 0.2,-0.4 0,-0.2 -0.1,-0.3 -0.2,-0.5 -0.1,-0.1 -0.3,-0.2 -0.5,-0.2 -0.2,0 -0.5,0.1 -0.8,0.2 l -0.4,-0.4 0,-2.1 2.8,0 z"
         id="path59"
         inkscape:connector-curvature="0"
         style="fill:#000000;fill-opacity:1" /><path
         class="st1"
         d="m 299.7,299.7 0,-0.8 0.9,0 0,0.8 0.5,0 0,0.8 -0.5,0 0,1 -0.9,0 0,-1 -1.7,0 0,-0.7 1.5,-2.6 1.1,0 -1.5,2.5 0.6,0 z"
         id="path61"
         inkscape:connector-curvature="0"
         style="fill:#000000;fill-opacity:1" /></g><g
       id="g63"
       style="fill:#000000;fill-opacity:1"><path
         class="st1"
         d="m 234.2,298.1 c -0.1,0.1 -0.1,0.2 -0.1,0.3 0,0.1 0.1,0.2 0.2,0.3 0.1,0.1 0.4,0.2 0.8,0.3 0.4,0.1 0.7,0.3 1,0.5 0.2,0.2 0.3,0.5 0.3,0.9 0,0.4 -0.1,0.7 -0.4,0.9 -0.3,0.2 -0.7,0.4 -1.2,0.4 -0.7,0 -1.3,-0.3 -1.9,-0.8 l 0.6,-0.7 c 0.5,0.4 0.9,0.6 1.3,0.6 0.2,0 0.3,0 0.4,-0.1 0.1,-0.1 0.2,-0.2 0.2,-0.3 0,-0.1 -0.1,-0.2 -0.2,-0.3 -0.1,-0.1 -0.3,-0.2 -0.6,-0.2 -0.5,-0.1 -0.9,-0.3 -1.1,-0.5 -0.2,-0.2 -0.4,-0.5 -0.4,-0.9 0,-0.4 0.1,-0.7 0.4,-1 0.3,-0.2 0.7,-0.3 1.1,-0.3 0.3,0 0.6,0 0.9,0.1 0.3,0.1 0.5,0.2 0.8,0.4 l -0.5,0.7 c -0.4,-0.3 -0.8,-0.4 -1.2,-0.4 -0.2,-0.1 -0.3,0 -0.4,0.1 z"
         id="path65"
         inkscape:connector-curvature="0"
         style="fill:#000000;fill-opacity:1" /><path
         class="st1"
         d="m 237.1,297.2 1,0 0,4.3 -1,0 0,-4.3 z"
         id="path67"
         inkscape:connector-curvature="0"
         style="fill:#000000;fill-opacity:1" /><path
         class="st1"
         d="m 242.2,297.2 1,0 0,4.3 -1,0 -2.1,-2.7 0,2.7 -1,0 0,-4.3 0.9,0 2.1,2.8 0,-2.8 z"
         id="path69"
         inkscape:connector-curvature="0"
         style="fill:#000000;fill-opacity:1" /><path
         class="st1"
         d="m 246.2,300.7 c 0.5,0 0.9,-0.2 1.2,-0.6 l 0.6,0.6 c -0.5,0.6 -1.1,0.8 -1.7,0.8 -0.7,0 -1.2,-0.2 -1.7,-0.6 -0.4,-0.4 -0.6,-1 -0.6,-1.6 0,-0.6 0.2,-1.2 0.7,-1.6 0.4,-0.4 1,-0.6 1.6,-0.6 0.7,0 1.3,0.3 1.8,0.8 l -0.6,0.7 c -0.3,-0.4 -0.7,-0.6 -1.1,-0.6 -0.4,0 -0.7,0.1 -0.9,0.4 -0.3,0.2 -0.4,0.6 -0.4,1 0,0.4 0.1,0.7 0.4,1 0.1,0.2 0.4,0.3 0.7,0.3 z"
         id="path71"
         inkscape:connector-curvature="0"
         style="fill:#000000;fill-opacity:1" /><path
         class="st1"
         d="m 251.9,297.2 0,0.9 -2.2,0 0,0.9 1.9,0 0,0.8 -1.9,0 0,0.9 2.2,0 0,0.9 -3.2,0 0,-4.3 3.2,0 z"
         id="path73"
         inkscape:connector-curvature="0"
         style="fill:#000000;fill-opacity:1" /></g><g
       id="g75"
       style="fill:#000000;fill-opacity:1"><path
         class="st1"
         d="m 266.7,301.2 c -0.8,-1 -3.4,-4.2 -3.6,-4.4 -0.2,-0.3 -0.4,-0.3 -0.6,0 -0.2,0.3 -1.7,2.3 -2,2.7 -0.3,0.5 -0.5,0.5 -0.6,0.4 -0.1,0 -0.4,-0.1 -0.6,0.1 -0.2,0.3 -0.3,0.6 -0.9,1.3 -0.6,0.7 -1,1.2 -1.3,1.4 -0.2,0.1 -0.4,0.3 -0.5,0.5 0,0.1 -0.9,1.1 -1.5,1.9 l 14.8,0 c -0.5,-0.5 -2.4,-3 -3.2,-3.9 z m -4,2.2 c -1.6,-1.2 -1.3,-1.6 -0.7,-2 0.6,-0.4 1.4,-0.5 1.6,-1.5 0.2,-1 -0.6,-0.9 -0.8,-1.5 -0.2,-0.6 0.3,-1.1 0.3,-1.1 0.7,0.8 2.6,3.3 3.4,4.2 0.6,0.7 1.8,2.3 2.6,3.3 l -4.6,0 c -0.1,0 -0.2,-0.2 -1.8,-1.4 z"
         id="path77"
         inkscape:connector-curvature="0"
         style="fill:#000000;fill-opacity:1" /><path
         class="st1"
         d="m 276.5,296 c -0.3,-0.4 -0.4,-0.3 -0.7,-0.2 -0.3,0 -0.7,0 -1.1,-0.5 -0.4,-0.5 -3.2,-4 -3.6,-4.4 -0.4,-0.5 -0.7,-0.3 -0.8,0 -0.2,0.3 -0.7,1.2 -1,1.3 -0.3,0.1 -0.7,1.2 -0.8,1.5 -0.1,0.3 -0.4,0.6 -0.7,1.1 -0.3,0.4 -0.4,0.4 -0.7,0.3 -0.3,-0.1 -0.6,0.2 -0.8,0.8 -0.2,0.5 -1.5,2.1 -2,2.6 l 5.5,6.7 14.2,0 c -2.9,-3.4 -7.4,-9 -7.5,-9.2 z m -2.4,7.3 c -0.6,-1.2 -2.1,-2.6 -3.7,-4.3 -1.6,-1.7 0.3,-2.6 0.6,-3.2 0.2,-0.6 -0.3,-1.1 -0.6,-2 -0.3,-0.9 0.6,-2.2 0.6,-2.2 0.1,0.1 1.1,1.4 1.2,1.5 0.9,1.1 1.9,2.3 2.1,2.6 0.3,0.4 0.8,0.6 1.3,0.6 0.1,0 0.1,0 0.2,0 0.1,0 0.2,0 0.2,0 0,0 0,0 0,0 0,0 0,0.1 0.1,0.1 0,0.1 0.8,1 2.2,2.8 1.4,1.7 3.1,3.9 4.6,5.7 l -8.2,0 c 0,-0.1 0.1,-0.4 -0.6,-1.6 z"
         id="path79"
         inkscape:connector-curvature="0"
         style="fill:#000000;fill-opacity:1" /></g></g></svg>