<?xml version="1.0" encoding="UTF-8" standalone="no"?>
<!-- Generator: Adobe Illustrator 20.0.0, SVG Export Plug-In . SVG Version: 6.00 Build 0)  -->

<svg
   xmlns:osb="http://www.openswatchbook.org/uri/2009/osb"
   xmlns:dc="http://purl.org/dc/elements/1.1/"
   xmlns:cc="http://creativecommons.org/ns#"
   xmlns:rdf="http://www.w3.org/1999/02/22-rdf-syntax-ns#"
   xmlns:svg="http://www.w3.org/2000/svg"
   xmlns="http://www.w3.org/2000/svg"
   xmlns:sodipodi="http://sodipodi.sourceforge.net/DTD/sodipodi-0.dtd"
   xmlns:inkscape="http://www.inkscape.org/namespaces/inkscape"
   version="1.1"
   id="artwork"
   x="0px"
   y="0px"
   viewBox="0 0 160 100"
   xml:space="preserve"
   inkscape:version="0.91 r13725"
   sodipodi:docname="brand-1.svg"
   width="160"
   height="100"><metadata
     id="metadata131"><rdf:RDF><cc:Work
         rdf:about=""><dc:format>image/svg+xml</dc:format><dc:type
           rdf:resource="http://purl.org/dc/dcmitype/StillImage" /><dc:title></dc:title></cc:Work></rdf:RDF></metadata><defs
     id="defs129"><linearGradient
       id="linearGradient4210"
       osb:paint="solid"><stop
         style="stop-color:#000000;stop-opacity:1;"
         offset="0"
         id="stop4212" /></linearGradient></defs><sodipodi:namedview
     pagecolor="#ffffff"
     bordercolor="#666666"
     borderopacity="1"
     objecttolerance="10"
     gridtolerance="10"
     guidetolerance="10"
     inkscape:pageopacity="0"
     inkscape:pageshadow="2"
     inkscape:window-width="1920"
     inkscape:window-height="1017"
     id="namedview127"
     showgrid="false"
     fit-margin-top="1"
     fit-margin-bottom="1"
     fit-margin-right="1"
     fit-margin-left="1"
     inkscape:zoom="3.2777778"
     inkscape:cx="67.502402"
     inkscape:cy="6.9598815"
     inkscape:window-x="-8"
     inkscape:window-y="-8"
     inkscape:window-maximized="1"
     inkscape:current-layer="artwork" /><style
     type="text/css"
     id="style3">
	.st0{fill:#F0883C;}
	.st1{fill:#DFDFC6;}
</style><g
     id="g5"
     transform="matrix(1.3044208,0,0,1.3044208,-306.43466,-163.76755)"
     style="fill:#000000;fill-opacity:1"><g
       id="g7"
       style="fill:#000000;fill-opacity:1"><path
         class="st0"
         d="m 267.9,161.1 c 0,5.4 -0.1,10.8 -0.1,16.2 0,0.3 -0.1,0.4 -0.4,0.5 -0.9,0.2 -1.8,0.4 -2.7,0.6 -0.3,0.1 -0.4,0 -0.4,-0.3 0,-2.6 0,-5.3 0,-7.9 -0.6,2.4 -1.3,4.9 -1.9,7.5 0,0.1 -0.1,0.2 -0.1,0.2 -0.1,0 -0.1,0 -0.1,-0.1 -0.6,-2.3 -1.2,-4.6 -1.8,-7 0,2.8 0,5.5 0,8.3 0,0.3 -0.1,0.5 -0.4,0.5 -0.9,0.2 -1.8,0.5 -2.7,0.7 -0.3,0.1 -0.4,0 -0.4,-0.3 0,-6.2 0,-12.5 0,-18.7 0,-0.3 0.1,-0.5 0.4,-0.5 0.8,0 1.6,0 2.4,0 0.1,0 0.2,0 0.3,0.1 0.1,0.1 0.1,0.2 0.2,0.3 0.7,3.2 1.5,6.3 2.2,9.3 0.8,-3.2 1.5,-6.3 2.3,-9.4 0,-0.1 0.1,-0.2 0.2,-0.3 0.1,-0.1 0.2,-0.1 0.3,-0.1 0.8,0 1.6,0 2.4,0 0.2,0 0.3,0.1 0.3,0.4 z"
         id="path9"
         inkscape:connector-curvature="0"
         style="fill:#000000;fill-opacity:1" /><path
         class="st0"
         d="m 278.2,172.9 c 0,0.4 -0.1,0.9 -0.3,1.3 -0.2,0.4 -0.5,0.8 -0.8,1.1 -0.3,0.3 -0.7,0.6 -1.1,0.9 -0.4,0.2 -0.9,0.4 -1.4,0.5 -0.4,0.1 -0.7,0.1 -1.1,0.2 -0.5,0.1 -0.9,0.1 -1.4,0 -0.4,-0.1 -0.8,-0.3 -1.1,-0.5 -0.3,-0.3 -0.6,-0.6 -0.7,-1 -0.2,-0.4 -0.3,-0.8 -0.3,-1.3 0,-3.3 0.1,-6.7 0.1,-10 0,-0.5 0.1,-0.9 0.3,-1.4 0.2,-0.4 0.4,-0.8 0.8,-1.1 0.3,-0.3 0.7,-0.6 1.1,-0.7 0.4,-0.2 0.9,-0.3 1.4,-0.3 0.4,0 0.7,0 1.1,0 0.5,0 0.9,0.1 1.4,0.3 0.4,0.2 0.8,0.4 1.1,0.7 0.3,0.3 0.6,0.6 0.8,1 0.2,0.4 0.3,0.8 0.3,1.2 -0.1,3 -0.2,6.1 -0.2,9.1 z m -3.2,-9 c 0,-0.2 -0.1,-0.3 -0.2,-0.4 -0.1,-0.1 -0.3,-0.2 -0.5,-0.2 -0.1,0 -0.2,0 -0.2,0 -0.2,0 -0.3,0.1 -0.5,0.2 -0.1,0.1 -0.2,0.3 -0.2,0.5 0,3.1 -0.1,6.3 -0.1,9.4 0,0.2 0.1,0.3 0.2,0.4 0.1,0.1 0.3,0.1 0.5,0.1 0.1,0 0.2,0 0.2,0 0.2,0 0.3,-0.1 0.5,-0.2 0.1,-0.1 0.2,-0.3 0.2,-0.5 0,-3.1 0.1,-6.2 0.1,-9.3 z"
         id="path11"
         inkscape:connector-curvature="0"
         style="fill:#000000;fill-opacity:1" /><path
         class="st0"
         d="m 288.5,161 c 0,3.7 0,7.5 -0.1,11.2 0,0.4 -0.1,0.8 -0.3,1.2 -0.2,0.4 -0.4,0.7 -0.8,1 -0.3,0.3 -0.7,0.5 -1.1,0.7 -0.4,0.2 -0.9,0.3 -1.4,0.3 -0.4,0 -0.7,0.1 -1.1,0.1 -0.5,0 -1,0 -1.4,-0.1 -0.4,-0.1 -0.8,-0.3 -1.1,-0.6 -0.3,-0.3 -0.6,-0.6 -0.8,-0.9 -0.2,-0.4 -0.3,-0.8 -0.3,-1.2 0,-3.9 0.1,-7.8 0.1,-11.7 0,-0.2 0.1,-0.4 0.4,-0.4 0.8,0 1.7,0 2.5,0 0.3,0 0.4,0.1 0.4,0.3 0,3.8 -0.1,7.6 -0.1,11.4 0,0.2 0.1,0.3 0.2,0.4 0.1,0.1 0.3,0.2 0.5,0.1 0.1,0 0.2,0 0.2,0 0.2,0 0.3,-0.1 0.5,-0.2 0.1,-0.1 0.2,-0.3 0.2,-0.4 0,-3.8 0.1,-7.5 0.1,-11.3 0,-0.2 0.1,-0.3 0.4,-0.3 0.8,0 1.7,0 2.5,0 0.3,0.1 0.5,0.2 0.5,0.4 z"
         id="path13"
         inkscape:connector-curvature="0"
         style="fill:#000000;fill-opacity:1" /><path
         class="st0"
         d="m 299.7,161 c 0,4.5 0,9 0,13.5 0,0.2 -0.1,0.3 -0.4,0.3 -0.6,0 -1.2,0 -1.8,0 -0.1,0 -0.2,0 -0.3,-0.1 -0.1,-0.1 -0.2,-0.1 -0.2,-0.2 -1,-2.1 -2,-4.1 -3,-6.2 0,2 0,4.1 0,6.1 0,0.2 -0.1,0.3 -0.4,0.3 -0.8,0 -1.7,0 -2.5,0.1 -0.3,0 -0.4,-0.1 -0.4,-0.3 0,-4.5 0,-9.1 0.1,-13.6 0,-0.2 0.1,-0.3 0.4,-0.3 0.6,0 1.2,0 1.9,0 0.1,0 0.2,0 0.3,0.1 0.1,0.1 0.2,0.1 0.2,0.2 1,2.3 2,4.6 2.9,6.9 0,-2.3 0,-4.6 0,-6.8 0,-0.2 0.1,-0.3 0.4,-0.3 0.8,0 1.7,0 2.5,0 0.2,0 0.3,0.1 0.3,0.3 z"
         id="path15"
         inkscape:connector-curvature="0"
         style="fill:#000000;fill-opacity:1" /><path
         class="st0"
         d="m 309.8,161 c 0,0.7 0,1.5 0,2.2 0,0.2 -0.1,0.3 -0.4,0.3 -0.7,0 -1.3,0 -2,0 0,3.8 0.1,7.6 0.1,11.4 0,0.2 -0.1,0.3 -0.4,0.3 -0.8,-0.1 -1.7,-0.1 -2.5,-0.2 -0.1,0 -0.2,0 -0.3,-0.1 -0.1,-0.1 -0.1,-0.2 -0.1,-0.2 0,-3.7 0,-7.5 -0.1,-11.2 -0.7,0 -1.3,0 -2,0 -0.3,0 -0.4,-0.1 -0.4,-0.3 0,-0.7 0,-1.4 0,-2.1 0,-0.2 0.1,-0.3 0.4,-0.3 2.4,0 4.8,0 7.3,0 0.2,-0.1 0.4,0 0.4,0.2 z"
         id="path17"
         inkscape:connector-curvature="0"
         style="fill:#000000;fill-opacity:1" /><path
         class="st0"
         d="m 319.2,176.3 c 0,0.3 -0.1,0.4 -0.3,0.3 -0.9,-0.1 -1.7,-0.3 -2.6,-0.4 -0.2,0 -0.4,-0.2 -0.4,-0.4 -0.1,-0.9 -0.2,-1.7 -0.2,-2.6 -0.6,-0.1 -1.2,-0.1 -1.8,-0.2 -0.1,0.8 -0.1,1.6 -0.2,2.5 0,0.2 -0.2,0.3 -0.4,0.3 -0.9,-0.1 -1.7,-0.2 -2.6,-0.3 -0.3,0 -0.4,-0.2 -0.3,-0.4 0.7,-4.7 1.3,-9.4 2,-14.1 0,-0.2 0.2,-0.4 0.4,-0.4 1.2,0 2.5,0 3.7,0 0.3,0 0.4,0.1 0.5,0.4 0.7,5 1.5,10.1 2.2,15.3 z m -3.8,-6 c -0.2,-1.9 -0.4,-3.8 -0.6,-5.7 -0.1,0 -0.2,0 -0.2,0 -0.2,1.9 -0.3,3.7 -0.5,5.6 0.4,0.1 0.8,0.1 1.3,0.1 z"
         id="path19"
         inkscape:connector-curvature="0"
         style="fill:#000000;fill-opacity:1" /><path
         class="st0"
         d="m 324.3,177.2 c 0,0.3 -0.1,0.4 -0.4,0.3 -0.8,-0.2 -1.7,-0.3 -2.5,-0.5 -0.3,0 -0.4,-0.2 -0.4,-0.5 0,-5.2 -0.1,-10.4 -0.1,-15.5 0,-0.3 0.1,-0.4 0.4,-0.4 0.8,0 1.7,0 2.5,0 0.3,0 0.4,0.1 0.4,0.4 0.1,5.5 0.1,10.8 0.1,16.2 z"
         id="path21"
         inkscape:connector-curvature="0"
         style="fill:#000000;fill-opacity:1" /><path
         class="st0"
         d="m 335.8,161.2 c 0,6.2 0,12.5 0,18.7 0,0.3 -0.1,0.4 -0.4,0.3 -0.6,-0.2 -1.2,-0.3 -1.8,-0.5 -0.1,0 -0.2,-0.1 -0.3,-0.2 -0.1,-0.1 -0.2,-0.2 -0.2,-0.3 -1,-3 -2,-5.9 -3,-8.6 0,2.6 0,5.3 0,7.9 0,0.3 -0.1,0.4 -0.4,0.3 -0.8,-0.2 -1.7,-0.4 -2.5,-0.6 -0.3,-0.1 -0.4,-0.2 -0.4,-0.5 0,-5.5 -0.1,-11.1 -0.1,-16.6 0,-0.3 0.1,-0.4 0.4,-0.4 0.6,0 1.2,0 1.9,0 0.1,0 0.2,0 0.3,0.1 0.1,0.1 0.2,0.2 0.2,0.3 1,2.9 2,6 3,9.1 0,-3 0,-6 0,-9.1 0,-0.3 0.1,-0.4 0.4,-0.4 0.8,0 1.7,0 2.5,0 0.2,0 0.4,0.2 0.4,0.5 z"
         id="path23"
         inkscape:connector-curvature="0"
         style="fill:#000000;fill-opacity:1" /></g><g
       id="g25"
       style="fill:#000000;fill-opacity:1"><path
         class="st1"
         d="m 274.6,135.8 c 0.2,0 0.3,0 0.4,0 0.1,0 0.3,0.1 0.4,0.2 0.1,0.1 0.2,0.2 0.3,0.3 0,0.1 0.1,0.1 0.1,0.2 0,0.1 0,0.1 0,0.2 -0.2,0.2 -0.4,0.4 -0.7,0.6 -0.1,0.1 -0.1,0 -0.1,0 -0.1,-0.1 -0.1,-0.3 -0.2,-0.4 0,0 -0.1,-0.1 -0.1,-0.1 -0.1,0 -0.1,0 -0.2,0 0,0 0,0 -0.1,0 -0.1,0 -0.1,0.1 -0.1,0.1 0,0.1 0,0.1 0,0.2 0.4,0.9 0.9,1.7 1.3,2.6 0,0 0.1,0.1 0.1,0.1 0.1,0 0.1,0 0.2,0 0,0 0,0 0.1,0 0.1,0 0.1,-0.1 0.1,-0.1 0,-0.1 0,-0.1 0,-0.2 -0.1,-0.3 -0.3,-0.5 -0.4,-0.8 -0.1,0 -0.2,0.1 -0.2,0.1 -0.1,-0.3 -0.3,-0.6 -0.4,-0.8 0.4,-0.2 0.7,-0.4 1.1,-0.5 0.1,0 0.1,0 0.2,0.1 0.2,0.5 0.5,1.1 0.7,1.6 0.1,0.1 0.1,0.3 0.1,0.4 0,0.1 0,0.3 -0.1,0.4 -0.1,0.1 -0.1,0.2 -0.2,0.4 -0.1,0.1 -0.2,0.2 -0.4,0.3 -0.1,0 -0.2,0.1 -0.3,0.1 -0.1,0.1 -0.3,0.1 -0.4,0.1 -0.1,0 -0.3,0 -0.4,0 -0.1,0 -0.3,-0.1 -0.4,-0.2 -0.1,-0.1 -0.2,-0.2 -0.3,-0.3 -0.5,-0.9 -0.9,-1.8 -1.4,-2.7 -0.1,-0.1 -0.1,-0.3 -0.1,-0.4 0,-0.1 0,-0.3 0.1,-0.4 0.1,-0.1 0.1,-0.3 0.2,-0.4 0.1,-0.1 0.2,-0.2 0.4,-0.3 0.1,-0.1 0.2,-0.1 0.3,-0.2 0.1,-0.2 0.3,-0.2 0.4,-0.2 z"
         id="path27"
         inkscape:connector-curvature="0"
         style="fill:#000000;fill-opacity:1" /><path
         class="st1"
         d="m 279,134 c 0.4,1.2 0.9,2.4 1.3,3.6 0,0.1 0.1,0.3 0.1,0.4 0,0.1 0,0.3 -0.1,0.4 -0.1,0.1 -0.1,0.2 -0.2,0.3 -0.1,0.1 -0.2,0.2 -0.4,0.2 -0.1,0 -0.2,0.1 -0.3,0.1 -0.1,0.1 -0.3,0.1 -0.4,0.1 -0.1,0 -0.3,0 -0.4,-0.1 -0.1,0 -0.2,-0.1 -0.3,-0.2 -0.1,-0.1 -0.2,-0.2 -0.2,-0.3 -0.5,-1.2 -1,-2.4 -1.5,-3.6 0,-0.1 0,-0.1 0.1,-0.2 0.3,-0.1 0.5,-0.2 0.8,-0.3 0.1,0 0.1,0 0.2,0.1 0.5,1.2 1,2.4 1.4,3.6 0,0.1 0.1,0.1 0.1,0.1 0.1,0 0.1,0 0.2,0 0,0 0,0 0.1,0 0.1,0 0.1,-0.1 0.1,-0.1 0,-0.1 0,-0.1 0,-0.2 -0.5,-1.2 -0.9,-2.4 -1.4,-3.6 0,-0.1 0,-0.1 0.1,-0.2 0.3,-0.1 0.5,-0.2 0.8,-0.3 -0.2,0.1 -0.1,0.1 -0.1,0.2 z"
         id="path29"
         inkscape:connector-curvature="0"
         style="fill:#000000;fill-opacity:1" /><path
         class="st1"
         d="m 282.7,137.8 c 0,0.1 0,0.1 -0.1,0.1 -0.2,0.1 -0.5,0.2 -0.7,0.2 -0.1,0 -0.1,0 -0.2,-0.1 -0.5,-1.5 -1,-3 -1.5,-4.5 0,-0.1 0,-0.1 0.1,-0.2 0.3,-0.1 0.5,-0.2 0.8,-0.3 0.1,0 0.1,0 0.2,0.1 0.4,1.7 0.9,3.2 1.4,4.7 z"
         id="path31"
         inkscape:connector-curvature="0"
         style="fill:#000000;fill-opacity:1" /><path
         class="st1"
         d="m 284,132.3 c 0.2,0 0.3,-0.1 0.5,0 0.2,0 0.3,0.1 0.4,0.1 0.1,0.1 0.2,0.2 0.3,0.3 0.1,0.1 0.2,0.2 0.2,0.4 0.2,0.9 0.4,1.9 0.6,2.8 0,0.1 0,0.3 0,0.4 0,0.1 -0.1,0.3 -0.2,0.4 -0.1,0.1 -0.2,0.2 -0.3,0.3 -0.1,0.1 -0.2,0.1 -0.4,0.2 -0.4,0.1 -0.8,0.2 -1.3,0.3 -0.1,0 -0.1,0 -0.1,-0.1 -0.4,-1.5 -0.9,-3 -1.3,-4.6 0,-0.1 0,-0.1 0.1,-0.1 0.6,-0.1 1.1,-0.2 1.5,-0.4 z m 0.4,1.1 c 0,-0.1 0,-0.1 -0.1,-0.1 -0.1,0 -0.1,0 -0.2,0 -0.1,0 -0.2,0 -0.3,0.1 0.3,1 0.5,2.1 0.8,3.1 0.1,0 0.2,0 0.3,-0.1 0.1,0 0.1,0 0.1,-0.1 0,0 0,-0.1 0,-0.2 -0.2,-0.9 -0.4,-1.8 -0.6,-2.7 z"
         id="path33"
         inkscape:connector-curvature="0"
         style="fill:#000000;fill-opacity:1" /><path
         class="st1"
         d="m 289.3,135.5 c 0,0.2 0.1,0.5 0.1,0.7 0,0.1 0,0.1 -0.1,0.1 -0.6,0.1 -1.2,0.2 -1.8,0.3 -0.1,0 -0.1,0 -0.1,-0.1 -0.3,-1.6 -0.6,-3.1 -0.9,-4.7 0,-0.1 0,-0.1 0.1,-0.1 0.7,-0.1 1.4,-0.3 2,-0.4 0.1,0 0.1,0 0.1,0.1 0,0.2 0.1,0.5 0.1,0.7 0,0.1 0,0.1 -0.1,0.1 -0.4,0.1 -0.7,0.1 -1.1,0.2 0.1,0.3 0.1,0.6 0.2,0.9 0.3,-0.1 0.6,-0.1 0.9,-0.2 0.1,0 0.1,0 0.1,0.1 0,0.2 0.1,0.5 0.1,0.7 0,0.1 0,0.1 -0.1,0.1 -0.3,0 -0.6,0.1 -0.9,0.1 0.1,0.4 0.1,0.7 0.2,1.1 0.3,-0.1 0.7,-0.1 1,-0.2 0.2,0.4 0.2,0.4 0.2,0.5 z"
         id="path35"
         inkscape:connector-curvature="0"
         style="fill:#000000;fill-opacity:1" /><path
         class="st1"
         d="m 291.6,131 c 0.2,0 0.3,0 0.5,0 0.2,0 0.3,0.1 0.4,0.2 0.1,0.1 0.2,0.2 0.3,0.3 0.1,0.1 0.1,0.3 0.1,0.4 0.1,1 0.1,1.9 0.2,2.9 0,0.1 0,0.3 -0.1,0.4 0,0.1 -0.1,0.2 -0.2,0.3 -0.1,0.1 -0.2,0.2 -0.3,0.3 -0.1,0.1 -0.3,0.1 -0.4,0.1 -0.4,0 -0.9,0.1 -1.3,0.1 -0.1,0 -0.1,0 -0.1,-0.1 -0.2,-1.6 -0.4,-3.1 -0.6,-4.7 0,-0.1 0,-0.1 0.1,-0.1 0.4,0 0.9,0 1.4,-0.1 z m 0.1,1.1 c 0,-0.1 0,-0.1 -0.1,-0.1 0,0 -0.1,0 -0.2,0 -0.1,0 -0.2,0 -0.3,0 0.1,1.1 0.2,2.1 0.3,3.2 0.1,0 0.2,0 0.3,0 0.1,0 0.1,0 0.1,-0.1 0,0 0.1,-0.1 0,-0.1 0.1,-1 0,-2 -0.1,-2.9 z"
         id="path37"
         inkscape:connector-curvature="0"
         style="fill:#000000;fill-opacity:1" /><path
         class="st1"
         d="m 298.2,131 c 0,0.2 0,0.5 0,0.7 0,0.1 0,0.1 -0.1,0.1 -0.2,0 -0.4,0 -0.7,0 0,1.3 -0.1,2.6 -0.1,3.9 0,0.1 0,0.1 -0.1,0.1 -0.3,0 -0.5,0 -0.8,0 0,0 -0.1,0 -0.1,0 0,0 0,0 0,-0.1 0,-1.3 0,-2.6 0,-3.9 -0.2,0 -0.4,0 -0.7,0 -0.1,0 -0.1,0 -0.1,-0.1 0,-0.2 0,-0.5 0,-0.7 0,-0.1 0,-0.1 0.1,-0.1 0.8,0 1.6,0 2.5,0 0.1,-0.1 0.1,0 0.1,0.1 z"
         id="path39"
         inkscape:connector-curvature="0"
         style="fill:#000000;fill-opacity:1" /><path
         class="st1"
         d="m 301.5,135.1 c 0,0.1 -0.1,0.3 -0.1,0.4 -0.1,0.1 -0.2,0.2 -0.3,0.3 -0.1,0.1 -0.2,0.1 -0.4,0.2 -0.1,0 -0.3,0.1 -0.4,0 -0.1,0 -0.2,0 -0.3,0 -0.1,0 -0.3,-0.1 -0.4,-0.1 -0.1,-0.1 -0.2,-0.1 -0.3,-0.2 -0.1,-0.1 -0.2,-0.2 -0.2,-0.3 -0.1,-0.1 -0.1,-0.3 -0.1,-0.4 0.1,-1 0.1,-2 0.2,-3 0,-0.1 0,-0.3 0.1,-0.4 0.1,-0.1 0.2,-0.2 0.3,-0.3 0.1,-0.1 0.2,-0.2 0.4,-0.2 0.1,0 0.3,-0.1 0.5,0 0.1,0 0.2,0 0.4,0 0.2,0 0.3,0.1 0.5,0.1 0.1,0.1 0.3,0.2 0.4,0.3 0.1,0.1 0.2,0.2 0.2,0.4 0,0.1 0.1,0.3 0,0.4 -0.3,0.8 -0.4,1.8 -0.5,2.8 z m -0.8,-3.1 c 0,-0.1 0,-0.1 -0.1,-0.1 0,0 -0.1,-0.1 -0.2,-0.1 0,0 0,0 -0.1,0 -0.1,0 -0.1,0 -0.2,0 0,0 -0.1,0.1 -0.1,0.1 -0.1,1 -0.2,1.9 -0.2,2.9 0,0.1 0,0.1 0.1,0.1 0,0 0.1,0.1 0.1,0.1 0,0 0,0 0.1,0 0.1,0 0.1,0 0.2,0 0,0 0.1,-0.1 0.1,-0.1 0.2,-0.9 0.3,-1.9 0.3,-2.9 z"
         id="path41"
         inkscape:connector-curvature="0"
         style="fill:#000000;fill-opacity:1" /><path
         class="st1"
         d="m 305.8,131.8 c -0.2,1.3 -0.5,2.5 -0.7,3.8 0,0.1 -0.1,0.3 -0.2,0.4 -0.1,0.1 -0.2,0.2 -0.3,0.3 -0.1,0.1 -0.2,0.1 -0.4,0.2 -0.1,0 -0.3,0 -0.4,0 -0.1,0 -0.2,0 -0.3,-0.1 -0.1,0 -0.3,-0.1 -0.4,-0.1 -0.1,-0.1 -0.2,-0.2 -0.3,-0.3 -0.1,-0.1 -0.1,-0.2 -0.2,-0.4 0,-0.1 -0.1,-0.3 0,-0.4 0.2,-1.3 0.3,-2.6 0.5,-3.8 0,-0.1 0.1,-0.1 0.1,-0.1 0.3,0 0.6,0.1 0.8,0.1 0.1,0 0.1,0.1 0.1,0.1 -0.2,1.3 -0.4,2.5 -0.6,3.8 0,0.1 0,0.1 0,0.1 0,0 0.1,0.1 0.1,0.1 0,0 0,0 0.1,0 0.1,0 0.1,0 0.2,0 0,0 0.1,-0.1 0.1,-0.1 0.2,-1.3 0.4,-2.5 0.6,-3.8 0,-0.1 0.1,-0.1 0.2,-0.1 0.3,0 0.6,0.1 0.8,0.2 0.2,0 0.2,0.1 0.2,0.1 z"
         id="path43"
         inkscape:connector-curvature="0"
         style="fill:#000000;fill-opacity:1" /><path
         class="st1"
         d="m 307,136.9 c 0,0.1 -0.1,0.1 -0.2,0.1 -0.2,-0.1 -0.5,-0.1 -0.7,-0.2 -0.1,0 -0.1,-0.1 -0.1,-0.1 0.3,-1.5 0.7,-3.1 1,-4.6 0,-0.1 0.1,-0.1 0.2,-0.1 0.5,0.1 0.9,0.2 1.4,0.3 0.2,0 0.3,0.1 0.4,0.2 0.1,0.1 0.2,0.2 0.3,0.3 0.1,0.1 0.1,0.2 0.2,0.4 0,0.1 0,0.3 0,0.4 -0.1,0.3 -0.2,0.7 -0.3,1 -0.1,0.2 -0.2,0.4 -0.3,0.5 -0.2,0.1 -0.4,0.2 -0.6,0.2 0.1,0.7 0.2,1.3 0.3,2 0,0.1 0,0.1 -0.1,0.1 -0.3,-0.1 -0.5,-0.1 -0.8,-0.2 0,0 -0.1,0 -0.1,-0.1 0,0 0,-0.1 0,-0.1 -0.1,-0.5 -0.2,-1.1 -0.3,-1.6 -0.1,0.5 -0.2,1 -0.3,1.5 z m 0.6,-2.5 c 0.1,0 0.2,0 0.3,0.1 0.1,0 0.1,0 0.2,0 0.1,0 0.1,-0.1 0.1,-0.1 0.1,-0.3 0.2,-0.6 0.2,-0.9 0,-0.1 0,-0.1 0,-0.2 0,0 -0.1,-0.1 -0.1,-0.1 -0.1,0 -0.2,0 -0.3,-0.1 -0.2,0.4 -0.3,0.8 -0.4,1.3 z"
         id="path45"
         inkscape:connector-curvature="0"
         style="fill:#000000;fill-opacity:1" /><path
         class="st1"
         d="m 310.5,137.9 c 0,0.1 -0.1,0.1 -0.2,0.1 -0.2,-0.1 -0.5,-0.2 -0.7,-0.2 -0.1,0 -0.1,-0.1 -0.1,-0.1 0.5,-1.5 0.9,-3 1.4,-4.5 0,-0.1 0.1,-0.1 0.2,-0.1 0.3,0.1 0.5,0.2 0.8,0.3 0.1,0 0.1,0.1 0.1,0.2 -0.5,1.3 -1,2.8 -1.5,4.3 z"
         id="path47"
         inkscape:connector-curvature="0"
         style="fill:#000000;fill-opacity:1" /><path
         class="st1"
         d="m 316.2,135 c -0.6,1.5 -1.2,2.9 -1.9,4.4 0,0.1 -0.1,0.1 -0.2,0.1 -0.2,-0.1 -0.3,-0.1 -0.5,-0.2 0,0 -0.1,0 -0.1,-0.1 0,0 0,-0.1 0,-0.1 0,-0.8 0,-1.6 -0.1,-2.4 -0.3,0.7 -0.5,1.3 -0.8,2 0,0.1 -0.1,0.1 -0.2,0.1 -0.2,-0.1 -0.5,-0.2 -0.7,-0.3 -0.1,0 -0.1,-0.1 -0.1,-0.2 0.5,-1.5 1.1,-3 1.6,-4.5 0,-0.1 0.1,-0.1 0.2,-0.1 0.2,0.1 0.4,0.1 0.6,0.2 0,0 0.1,0 0.1,0.1 0,0 0,0.1 0,0.1 0,0.9 0,1.7 0,2.6 0.3,-0.7 0.6,-1.5 0.9,-2.2 0,-0.1 0.1,-0.1 0.2,-0.1 0.3,0.1 0.5,0.2 0.8,0.3 0.2,0.2 0.2,0.2 0.2,0.3 z"
         id="path49"
         inkscape:connector-curvature="0"
         style="fill:#000000;fill-opacity:1" /><path
         class="st1"
         d="m 319.2,136.3 c 0.1,0.1 0.2,0.2 0.2,0.4 0.1,0.1 0.1,0.3 0.1,0.4 0,0.1 0,0.3 -0.1,0.4 0,0.1 -0.1,0.1 -0.1,0.2 0,0.1 -0.1,0.1 -0.2,0.1 -0.3,-0.1 -0.6,-0.1 -0.9,-0.2 -0.1,0 -0.1,-0.1 -0.1,-0.1 0.1,-0.1 0.1,-0.3 0.2,-0.4 0,0 0,-0.1 0,-0.2 0,-0.1 -0.1,-0.1 -0.1,-0.1 0,0 0,0 -0.1,0 -0.1,0 -0.1,0 -0.2,0 -0.1,0 -0.1,0 -0.1,0.1 -0.4,0.9 -0.9,1.8 -1.3,2.6 0,0 0,0.1 0,0.2 0,0.1 0.1,0.1 0.1,0.1 0,0 0,0 0.1,0 0.1,0 0.1,0 0.2,0 0.1,0 0.1,0 0.1,-0.1 0.1,-0.3 0.3,-0.5 0.4,-0.8 -0.1,0 -0.2,-0.1 -0.2,-0.1 0.1,-0.3 0.3,-0.6 0.4,-0.8 0.4,0.2 0.7,0.4 1.1,0.6 0.1,0 0.1,0.1 0.1,0.2 -0.3,0.5 -0.6,1 -0.8,1.6 -0.1,0.1 -0.2,0.2 -0.3,0.3 -0.1,0.1 -0.2,0.1 -0.4,0.2 -0.1,0 -0.3,0.1 -0.4,0 -0.1,0 -0.3,-0.1 -0.4,-0.1 -0.1,0 -0.2,-0.1 -0.3,-0.1 -0.1,-0.1 -0.3,-0.2 -0.4,-0.3 -0.1,-0.1 -0.2,-0.2 -0.2,-0.4 0,-0.1 -0.1,-0.3 -0.1,-0.4 0,-0.1 0,-0.3 0.1,-0.4 0.4,-0.9 0.8,-1.8 1.3,-2.7 0.1,-0.1 0.1,-0.2 0.3,-0.3 0.1,-0.1 0.2,-0.2 0.4,-0.2 0.1,0 0.3,-0.1 0.4,0 0.2,0 0.3,0.1 0.5,0.1 0.1,0.1 0.2,0.1 0.3,0.2 0.2,-0.2 0.3,-0.1 0.4,0 z"
         id="path51"
         inkscape:connector-curvature="0"
         style="fill:#000000;fill-opacity:1" /></g><g
       id="g53"
       style="fill:#000000;fill-opacity:1"><path
         class="st1"
         d="m 257.5,148.4 c 0.1,0 0.2,0 0.2,0 0.1,0 0.1,0.1 0.2,0.1 0.1,0.1 0.1,0.1 0.1,0.2 0,0.1 0,0.1 0,0.2 l 0,0.6 c 0,0.1 0,0.2 0,0.2 0,0.1 -0.1,0.1 -0.1,0.2 -0.1,0.1 -0.1,0.1 -0.2,0.1 -0.1,0 -0.1,0 -0.2,0 l -0.2,0 0,0.9 c 0,0 0,0.1 -0.1,0.1 l -0.4,0 c 0,0 -0.1,0 -0.1,-0.1 l 0,-2.6 c 0,0 0,-0.1 0.1,-0.1 l 0.7,0 z m 0,0.6 c 0,-0.1 0,-0.1 0,0 -0.1,-0.1 -0.1,-0.1 -0.1,-0.1 l -0.1,0 0,0.8 0.1,0 c 0,0 0.1,0 0.1,0 0,0 0,0 0,-0.1 l 0,-0.6 z"
         id="path55"
         inkscape:connector-curvature="0"
         style="fill:#000000;fill-opacity:1" /><path
         class="st1"
         d="m 259,151 c 0,0.1 0,0.1 0,0 l -0.5,0.1 c 0,0 -0.1,0 -0.1,-0.1 l 0,-2.6 c 0,0 0,-0.1 0.1,-0.1 l 0.7,0 c 0.1,0 0.2,0 0.2,0 0.1,0 0.1,0.1 0.2,0.1 0.1,0.1 0.1,0.1 0.1,0.2 0,0.1 0,0.1 0,0.2 l 0,0.6 c 0,0.1 0,0.2 -0.1,0.3 -0.1,0.1 -0.1,0.2 -0.2,0.2 l 0.4,1 c 0,0 0,0.1 0,0.1 l -0.4,0 c 0,0 0,0 -0.1,0 0,0 0,0 0,0 l -0.3,-0.8 0,0.8 z m 0,-1.4 0.1,0 c 0,0 0.1,0 0.1,0 0,0 0,0 0,-0.1 l 0,-0.5 c 0,0 0,-0.1 0,-0.1 0,0 0,0 -0.1,0 l -0.1,0 0,0.7 z"
         id="path57"
         inkscape:connector-curvature="0"
         style="fill:#000000;fill-opacity:1" /><path
         class="st1"
         d="m 261.6,150.6 c 0,0.1 0,0.2 0,0.2 0,0.1 -0.1,0.1 -0.1,0.2 -0.1,0.1 -0.1,0.1 -0.2,0.1 -0.1,0 -0.1,0 -0.2,0 l -0.2,0 c -0.1,0 -0.2,0 -0.2,0 -0.1,0 -0.1,-0.1 -0.2,-0.1 -0.1,-0.1 -0.1,-0.1 -0.1,-0.2 0,-0.1 0,-0.1 0,-0.2 l 0,-1.6 c 0,-0.1 0,-0.2 0,-0.2 0,-0.1 0.1,-0.1 0.1,-0.2 0.1,-0.1 0.1,-0.1 0.2,-0.1 0.1,0 0.1,0 0.2,0 l 0.2,0 c 0.1,0 0.2,0 0.2,0 0.1,0 0.1,0.1 0.2,0.1 0.1,0.1 0.1,0.1 0.1,0.2 0,0.1 0,0.1 0,0.2 l 0,1.6 z m -0.6,-1.7 c 0,0 0,0 0,0 -0.1,-0.1 -0.1,-0.1 -0.1,-0.1 l 0,0 c 0,0 -0.1,0 -0.1,0 0,0 0,0 0,0.1 l 0,1.6 c 0,0 0,0.1 0,0.1 0,0 0,0 0.1,0 l 0,0 c 0,0 0.1,0 0.1,0 0,0 0,0 0,-0.1 l 0,-1.6 z"
         id="path59"
         inkscape:connector-curvature="0"
         style="fill:#000000;fill-opacity:1" /><path
         class="st1"
         d="m 263.2,148.4 0,0.4 c 0,0 0,0.1 -0.1,0.1 l -0.5,0 0,0.5 0.4,0 c 0,0 0.1,0 0.1,0.1 l 0,0.4 c 0,0 0,0.1 -0.1,0.1 l -0.4,0 0,1.1 c 0,0 0,0.1 -0.1,0.1 l -0.4,0 c 0,0 -0.1,0 -0.1,-0.1 l 0,-2.6 c 0,0 0,-0.1 0.1,-0.1 l 1.1,0 c -0.1,0 0,0 0,0 z"
         id="path61"
         inkscape:connector-curvature="0"
         style="fill:#000000;fill-opacity:1" /><path
         class="st1"
         d="m 264.7,150.6 0,0.4 c 0,0 0,0.1 -0.1,0.1 l -1,0 c 0,0 -0.1,0 -0.1,-0.1 l 0,-2.6 c 0,0 0,-0.1 0.1,-0.1 l 1,0 c 0,0 0.1,0 0.1,0.1 l 0,0.4 c 0,0 0,0.1 -0.1,0.1 l -0.5,0 0,0.5 0.4,0 c 0,0 0.1,0 0.1,0.1 l 0,0.4 c 0,0 0,0.1 -0.1,0.1 l -0.4,0 0,0.6 0.6,0 c 0,0 0,0 0,0 z"
         id="path63"
         inkscape:connector-curvature="0"
         style="fill:#000000;fill-opacity:1" /><path
         class="st1"
         d="m 266.1,148.4 c 0.1,0 0.1,0.1 0.2,0.1 0.1,0.1 0.1,0.1 0.1,0.2 0,0.1 0,0.1 0,0.2 l 0,0.2 c 0,0 0,0.1 -0.1,0.1 l -0.4,0.1 c 0,0 -0.1,0 -0.1,0 l 0,-0.3 c 0,0 0,-0.1 0,-0.1 0,0 0,0 -0.1,0 l 0,0 c 0,0 -0.1,0 -0.1,0 0,0 0,0 0,0.1 l 0,0.3 c 0,0 0,0.1 0,0.1 0,0 0,0 0,0.1 l 0.6,0.4 c 0,0 0.1,0.1 0.1,0.1 0,0 0,0.1 0,0.1 l 0,0.5 c 0,0.1 0,0.2 0,0.2 0,0.1 -0.1,0.1 -0.1,0.2 -0.1,0.1 -0.1,0.1 -0.2,0.1 -0.1,0 -0.1,0 -0.2,0 l -0.2,0 c -0.1,0 -0.2,0 -0.2,0 -0.1,0 -0.1,-0.1 -0.2,-0.1 -0.1,-0.1 -0.1,-0.1 -0.1,-0.2 0,-0.1 0,-0.1 0,-0.2 l 0,-0.3 c 0,0 0,-0.1 0.1,-0.1 l 0.4,-0.1 c 0,0 0.1,0 0.1,0 l 0,0.4 c 0,0 0,0.1 0,0.1 0,0 0,0 0.1,0 l 0,0 c 0,0 0.1,0 0.1,0 0,0 0,0 0,-0.1 l 0,-0.3 c 0,0 0,-0.1 0,-0.1 0,0 0,-0.1 -0.1,-0.1 l -0.6,-0.4 c 0,0 -0.1,-0.1 -0.1,-0.1 0,0 0,-0.1 0,-0.2 l 0,-0.4 c 0,-0.1 0,-0.2 0,-0.2 0,-0.1 0.1,-0.1 0.1,-0.2 0.1,-0.1 0.1,-0.1 0.2,-0.1 0.1,0 0.1,0 0.2,0 l 0.2,0 c 0.1,-0.1 0.2,0 0.3,0 z"
         id="path65"
         inkscape:connector-curvature="0"
         style="fill:#000000;fill-opacity:1" /><path
         class="st1"
         d="m 267.8,148.4 c 0.1,0 0.1,0.1 0.2,0.1 0.1,0.1 0.1,0.1 0.1,0.2 0,0.1 0,0.1 0,0.2 l 0,0.2 c 0,0 0,0.1 -0.1,0.1 l -0.4,0.1 c 0,0 -0.1,0 -0.1,0 l 0,-0.3 c 0,0 0,-0.1 0,-0.1 0,0 0,0 -0.1,0 l 0,0 c 0,0 -0.1,0 -0.1,0 0,0 0,0 0,0.1 l 0,0.3 c 0,0 0,0.1 0,0.1 0,0 0,0 0,0.1 l 0.6,0.4 c 0,0 0.1,0.1 0.1,0.1 0,0 0,0.1 0,0.1 l 0,0.5 c 0,0.1 0,0.2 0,0.2 0,0.1 -0.1,0.1 -0.1,0.2 -0.1,0.1 -0.1,0.1 -0.2,0.1 -0.1,0 -0.1,0 -0.2,0 l -0.2,0 c -0.1,0 -0.2,0 -0.2,0 -0.1,0 -0.1,-0.1 -0.2,-0.1 -0.1,-0.1 -0.1,-0.1 -0.1,-0.2 0,-0.1 0,-0.1 0,-0.2 l 0,-0.3 c 0,0 0,-0.1 0.1,-0.1 l 0.4,-0.1 c 0,0 0.1,0 0.1,0 l 0,0.4 c 0,0 0,0.1 0,0.1 0,0 0,0 0.1,0 l 0,0 c 0,0 0.1,0 0.1,0 0,0 0,0 0,-0.1 l 0,-0.3 c 0,0 0,-0.1 0,-0.1 0,0 0,-0.1 -0.1,-0.1 l -0.6,-0.4 c 0,0 -0.1,-0.1 -0.1,-0.1 0,0 0,-0.1 0,-0.2 l 0,-0.4 c 0,-0.1 0,-0.2 0,-0.2 0,-0.1 0.1,-0.1 0.1,-0.2 0.1,-0.1 0.1,-0.1 0.2,-0.1 0.1,0 0.1,0 0.2,0 l 0.2,0 c 0.1,-0.1 0.2,0 0.3,0 z"
         id="path67"
         inkscape:connector-curvature="0"
         style="fill:#000000;fill-opacity:1" /><path
         class="st1"
         d="m 269.1,151 c 0,0.1 0,0.1 0,0 l -0.5,0.1 c 0,0 -0.1,0 -0.1,-0.1 l 0,-2.6 c 0,0 0,-0.1 0.1,-0.1 l 0.4,0 c 0,0 0.1,0 0.1,0.1 l 0,2.6 z"
         id="path69"
         inkscape:connector-curvature="0"
         style="fill:#000000;fill-opacity:1" /><path
         class="st1"
         d="m 270.9,150.6 c 0,0.1 0,0.2 0,0.2 0,0.1 -0.1,0.1 -0.1,0.2 -0.1,0.1 -0.1,0.1 -0.2,0.1 -0.1,0 -0.1,0 -0.2,0 l -0.2,0 c -0.1,0 -0.2,0 -0.2,0 -0.1,0 -0.1,-0.1 -0.2,-0.1 -0.1,-0.1 -0.1,-0.1 -0.1,-0.2 0,-0.1 0,-0.1 0,-0.2 l 0,-1.6 c 0,-0.1 0,-0.2 0,-0.2 0,-0.1 0.1,-0.1 0.1,-0.2 0.1,-0.1 0.1,-0.1 0.2,-0.1 0.1,0 0.1,0 0.2,0 l 0.2,0 c 0.1,0 0.2,0 0.2,0 0.1,0 0.1,0.1 0.2,0.1 0.1,0.1 0.1,0.1 0.1,0.2 0,0.1 0,0.1 0,0.2 l 0,1.6 z m -0.5,-1.7 c 0,0 0,0 0,0 -0.1,-0.1 -0.1,-0.1 -0.1,-0.1 l 0,0 c 0,0 -0.1,0 -0.1,0 0,0 0,0 0,0.1 l 0,1.6 c 0,0 0,0.1 0,0.1 0,0 0,0 0.1,0 l 0,0 c 0,0 0.1,0 0.1,0 0,0 0,0 0,-0.1 l 0,-1.6 z"
         id="path71"
         inkscape:connector-curvature="0"
         style="fill:#000000;fill-opacity:1" /><path
         class="st1"
         d="m 272.8,148.4 0,2.6 c 0,0 0,0.1 -0.1,0.1 l -0.3,0 c 0,0 0,0 -0.1,0 0,0 0,0 0,0 l -0.5,-1.2 0,1.2 c 0,0 0,0.1 -0.1,0.1 l -0.4,0 c 0,0 -0.1,0 -0.1,-0.1 l 0,-2.6 c 0,0 0,-0.1 0.1,-0.1 l 0.3,0 c 0,0 0,0 0.1,0 0,0 0,0 0,0 l 0.5,1.3 0,-1.3 c 0,0 0,-0.1 0.1,-0.1 l 0.5,0.1 c 0,0 0,0 0,0 z"
         id="path73"
         inkscape:connector-curvature="0"
         style="fill:#000000;fill-opacity:1" /><path
         class="st1"
         d="m 274.7,151 c 0,0.1 0,0.1 0,0 l -0.5,0.1 c 0,0 -0.1,0 -0.1,-0.1 l 0,-0.4 -0.3,0 0,0.4 c 0,0 0,0.1 -0.1,0.1 l -0.4,0 c 0,0 -0.1,0 -0.1,-0.1 l 0.3,-2.6 c 0,0 0,-0.1 0.1,-0.1 l 0.6,0 c 0,0 0.1,0 0.1,0.1 l 0.4,2.6 z m -0.6,-0.9 -0.1,-1 0,0 -0.1,1 0.2,0 z"
         id="path75"
         inkscape:connector-curvature="0"
         style="fill:#000000;fill-opacity:1" /><path
         class="st1"
         d="m 276.3,150.6 0,0.4 c 0,0 0,0.1 -0.1,0.1 l -0.6,0 0,0 0,0 -0.4,0 c 0,0 -0.1,0 -0.1,-0.1 l 0,-2.6 c 0,0 0,-0.1 0.1,-0.1 l 0.4,0 c 0,0 0.1,0 0.1,0.1 l 0,2.1 0.6,0.1 c -0.1,0 0,0 0,0 z"
         id="path77"
         inkscape:connector-curvature="0"
         style="fill:#000000;fill-opacity:1" /></g><g
       id="g79"
       style="fill:#000000;fill-opacity:1"><path
         class="st1"
         d="m 319,150.6 0,0.4 c 0,0 0,0.1 -0.1,0.1 l -1,0 c 0,0 -0.1,0 -0.1,-0.1 l 0,-2.6 c 0,0 0,-0.1 0.1,-0.1 l 1,0 c 0,0 0.1,0 0.1,0.1 l 0,0.4 c 0,0 0,0.1 -0.1,0.1 l -0.5,0 0,0.5 0.4,0 c 0,0 0.1,0 0.1,0.1 l 0,0.4 c 0,0 0,0.1 -0.1,0.1 l -0.4,0 0,0.6 0.6,0 c 0,0 0,0 0,0 z"
         id="path81"
         inkscape:connector-curvature="0"
         style="fill:#000000;fill-opacity:1" /><path
         class="st1"
         d="m 320.8,151.1 -0.4,0 c 0,0 -0.1,0 -0.1,-0.1 l -0.2,-0.7 -0.2,0.7 c 0,0 0,0.1 -0.1,0.1 l -0.4,0 c 0,0 0,0 0,0 0,0 0,0 0,0 l 0.4,-1.3 -0.4,-1.3 c 0,0 0,0 0,0 0,0 0,0 0,0 l 0.4,0 c 0,0 0.1,0 0.1,0.1 l 0.2,0.7 0.2,-0.7 c 0,0 0,-0.1 0.1,-0.1 l 0.4,0 c 0,0 0,0 0,0 0,0 0,0 0,0 l -0.4,1.3 0.4,1.3 c 0,0 0,0 0,0 z"
         id="path83"
         inkscape:connector-curvature="0"
         style="fill:#000000;fill-opacity:1" /><path
         class="st1"
         d="m 322,148.4 c 0.1,0 0.2,0 0.2,0 0.1,0 0.1,0.1 0.2,0.1 0.1,0.1 0.1,0.1 0.1,0.2 0,0.1 0,0.1 0,0.2 l 0,0.6 c 0,0.1 0,0.2 0,0.2 0,0.1 -0.1,0.1 -0.1,0.2 -0.1,0.1 -0.1,0.1 -0.2,0.1 -0.1,0 -0.1,0 -0.2,0 l -0.2,0 0,0.9 c 0,0 0,0.1 -0.1,0.1 l -0.4,0 c 0,0 -0.1,0 -0.1,-0.1 l 0,-2.6 c 0,0 0,-0.1 0.1,-0.1 l 0.7,0 z m 0.1,0.6 c 0,-0.1 0,-0.1 0,0 -0.1,-0.1 -0.1,-0.1 -0.1,-0.1 l -0.1,0 0,0.8 0.1,0 c 0,0 0.1,0 0.1,0 0,0 0,0 0,-0.1 l 0,-0.6 z"
         id="path85"
         inkscape:connector-curvature="0"
         style="fill:#000000;fill-opacity:1" /><path
         class="st1"
         d="m 324.1,150.6 0,0.4 c 0,0 0,0.1 -0.1,0.1 l -1,0 c 0,0 -0.1,0 -0.1,-0.1 l 0,-2.6 c 0,0 0,-0.1 0.1,-0.1 l 1,0 c 0,0 0.1,0 0.1,0.1 l 0,0.4 c 0,0 0,0.1 -0.1,0.1 l -0.5,0 0,0.5 0.4,0 c 0,0 0.1,0 0.1,0.1 l 0,0.4 c 0,0 0,0.1 -0.1,0.1 l -0.4,0 0,0.6 0.6,0 c 0,0 0,0 0,0 z"
         id="path87"
         inkscape:connector-curvature="0"
         style="fill:#000000;fill-opacity:1" /><path
         class="st1"
         d="m 325.2,151 c 0,0.1 -0.1,0.1 0,0 l -0.5,0.1 c 0,0 -0.1,0 -0.1,-0.1 l 0,-2.6 c 0,0 0,-0.1 0.1,-0.1 l 0.7,0 c 0.1,0 0.2,0 0.2,0 0.1,0 0.1,0.1 0.2,0.1 0.1,0.1 0.1,0.1 0.1,0.2 0,0.1 0,0.1 0,0.2 l 0,0.6 c 0,0.1 0,0.2 -0.1,0.3 -0.1,0.1 -0.1,0.2 -0.2,0.2 l 0.4,1 c 0,0 0,0.1 0,0.1 l -0.4,0 c 0,0 0,0 -0.1,0 0,0 0,0 0,0 l -0.3,-0.8 0,0.8 z m 0,-1.4 0.1,0 c 0,0 0.1,0 0.1,0 0,0 0,0 0,-0.1 l 0,-0.5 c 0,0 0,-0.1 0,-0.1 0,0 0,0 -0.1,0 l -0.1,0 0,0.7 z"
         id="path89"
         inkscape:connector-curvature="0"
         style="fill:#000000;fill-opacity:1" /><path
         class="st1"
         d="m 327,151 c 0,0.1 0,0.1 0,0 l -0.5,0.1 c 0,0 -0.1,0 -0.1,-0.1 l 0,-2.6 c 0,0 0,-0.1 0.1,-0.1 l 0.4,0 c 0,0 0.1,0 0.1,0.1 l 0,2.6 z"
         id="path91"
         inkscape:connector-curvature="0"
         style="fill:#000000;fill-opacity:1" /><path
         class="st1"
         d="m 328.6,150.6 0,0.4 c 0,0 0,0.1 -0.1,0.1 l -1,0 c 0,0 -0.1,0 -0.1,-0.1 l 0,-2.6 c 0,0 0,-0.1 0.1,-0.1 l 1,0 c 0,0 0.1,0 0.1,0.1 l 0,0.4 c 0,0 0,0.1 -0.1,0.1 l -0.5,0 0,0.5 0.4,0 c 0,0 0.1,0 0.1,0.1 l 0,0.4 c 0,0 0,0.1 -0.1,0.1 l -0.4,0 0,0.6 0.6,0 c 0,0 0,0 0,0 z"
         id="path93"
         inkscape:connector-curvature="0"
         style="fill:#000000;fill-opacity:1" /><path
         class="st1"
         d="m 330.5,148.4 0,2.6 c 0,0 0,0.1 -0.1,0.1 l -0.3,0 c 0,0 0,0 -0.1,0 0,0 0,0 0,0 l -0.5,-1.2 0,1.2 c 0,0 0,0.1 -0.1,0.1 l -0.4,0 c 0,0 -0.1,0 -0.1,-0.1 l 0,-2.6 c 0,0 0,-0.1 0.1,-0.1 l 0.3,0 c 0,0 0,0 0.1,0 0,0 0,0 0,0 l 0.5,1.3 0,-1.3 c 0,0 0,-0.1 0.1,-0.1 l 0.5,0.1 c 0,0 0,0 0,0 z"
         id="path95"
         inkscape:connector-curvature="0"
         style="fill:#000000;fill-opacity:1" /><path
         class="st1"
         d="m 332,148.4 c 0.1,0 0.1,0.1 0.2,0.1 0.1,0.1 0.1,0.1 0.1,0.2 0,0.1 0,0.1 0,0.2 l 0,0.3 c 0,0 0,0.1 -0.1,0.1 l -0.4,0.1 c 0,0 -0.1,0 -0.1,0 l 0,-0.3 c 0,0 0,-0.1 0,-0.1 0,0 0,0 -0.1,0 l 0,0 c 0,0 -0.1,0 -0.1,0 0,0 0,0 0,0.1 l 0,1.6 c 0,0 0,0.1 0,0.1 0,0 0,0 0.1,0 l 0,0 c 0,0 0.1,0 0.1,0 0,0 0,0 0,-0.1 l 0,-0.7 c 0,0 0,-0.1 0.1,0 l 0.4,0.1 c 0,0 0.1,0 0.1,0.1 l 0,0.5 c 0,0.1 0,0.2 0,0.2 0,0.1 -0.1,0.1 -0.1,0.2 -0.1,0.1 -0.1,0.1 -0.2,0.1 -0.1,0 -0.1,0 -0.2,0 l -0.2,0 c -0.1,0 -0.2,0 -0.2,0 -0.1,0 -0.1,-0.1 -0.2,-0.1 -0.1,-0.1 -0.1,-0.1 -0.1,-0.2 0,-0.1 0,-0.1 0,-0.2 l 0,-1.6 c 0,-0.1 0,-0.2 0,-0.2 0,-0.1 0.1,-0.1 0.1,-0.2 0.1,-0.1 0.1,-0.1 0.2,-0.1 0.1,0 0.1,0 0.2,0 l 0.2,0 c 0,-0.3 0.1,-0.2 0.2,-0.2 z"
         id="path97"
         inkscape:connector-curvature="0"
         style="fill:#000000;fill-opacity:1" /><path
         class="st1"
         d="m 333.9,150.6 0,0.4 c 0,0 0,0.1 -0.1,0.1 l -1,0 c 0,0 -0.1,0 -0.1,-0.1 l 0,-2.6 c 0,0 0,-0.1 0.1,-0.1 l 1,0 c 0,0 0.1,0 0.1,0.1 l 0,0.4 c 0,0 0,0.1 -0.1,0.1 l -0.5,0 0,0.5 0.4,0 c 0,0 0.1,0 0.1,0.1 l 0,0.4 c 0,0 0,0.1 -0.1,0.1 l -0.4,0 0,0.6 0.6,0 c 0,0 0,0 0,0 z"
         id="path99"
         inkscape:connector-curvature="0"
         style="fill:#000000;fill-opacity:1" /><path
         class="st1"
         d="m 335.1,148.4 c 0.1,0 0.2,0 0.2,0 0.1,0 0.1,0.1 0.2,0.1 0.1,0.1 0.1,0.1 0.1,0.2 0,0.1 0,0.1 0,0.2 l 0,1.6 c 0,0.1 0,0.2 0,0.2 0,0.1 -0.1,0.1 -0.1,0.2 -0.1,0.1 -0.1,0.1 -0.2,0.1 -0.1,0 -0.1,0 -0.2,0 l -0.7,0 c 0,0 -0.1,0 -0.1,-0.1 l 0,-2.6 c 0,0 0,-0.1 0.1,-0.1 l 0.7,0 z m 0.1,0.6 c 0,-0.1 0,-0.1 0,0 -0.1,-0.1 -0.1,-0.1 -0.1,-0.1 l -0.1,0 0,1.8 0.1,0 c 0,0 0.1,0 0.1,0 0,0 0,0 0,-0.1 l 0,-1.6 z"
         id="path101"
         inkscape:connector-curvature="0"
         style="fill:#000000;fill-opacity:1" /></g><g
       id="g103"
       style="fill:#000000;fill-opacity:1"><path
         class="st1"
         d="m 282.8,188.1 c 0,0 -0.1,0 -0.1,0 -0.4,0 -0.7,-0.1 -1,-0.2 -2.2,0.5 -3.2,2.7 -3.2,4.6 0,1.7 0.9,3.2 2.6,3.2 2,0 2.9,-2 2.9,-3.6 0,-1.1 -0.4,-1.9 -1.2,-1.9 -0.8,0 -1.3,0.9 -1.3,1.8 0,0.4 0.1,0.8 0.3,1.2 l -0.7,0.4 c -0.2,-0.4 -0.3,-0.9 -0.3,-1.3 0,-1.2 0.7,-2.4 2,-2.4 1.3,0 1.9,1.1 1.9,2.4 0,1.8 -1.2,4 -3.7,4 -2.2,0 -3.3,-1.7 -3.3,-3.6 0,-2 1.2,-4.2 3.6,-4.8 -0.3,-0.2 -0.5,-0.5 -0.6,-0.8 -0.3,0 -0.7,0.1 -1,0.1 -2.8,0 -3.9,-1.4 -3.9,-2.6 0,-1.1 0.8,-2 2,-2 0.9,0 1.6,0.4 2,1.2 -0.2,0.1 -0.4,0.3 -0.6,0.4 -0.3,-0.6 -0.8,-1 -1.4,-1 -0.9,0 -1.4,0.7 -1.4,1.4 0,1 0.9,2.2 3.3,2.2 0.3,0 0.6,0 0.9,-0.1 -0.1,-0.4 -0.2,-0.9 -0.2,-1.4 0,-1.8 0.9,-3.6 2.6,-3.6 1,0 1.6,0.7 1.6,1.8 0,1.3 -1,3 -3.2,3.5 0.1,0.4 0.3,0.7 0.6,0.8 0.2,0 0.5,-0.1 0.7,-0.1 0.1,0 0.1,0 0.1,0 l 0,0.4 z m -1.7,-3.2 c 0,0.5 0.1,0.9 0.2,1.3 1.9,-0.5 2.6,-2.1 2.6,-3.2 0,-0.7 -0.3,-1.3 -0.9,-1.3 -1.2,0 -1.9,1.6 -1.9,3.2 z"
         id="path105"
         inkscape:connector-curvature="0"
         style="fill:#000000;fill-opacity:1" /><path
         class="st1"
         d="m 287.2,186.9 c 0.7,0 0.8,1 0.8,2.2 0.4,-1.1 0.8,-2.2 1.5,-2.2 0.2,0 0.3,0.1 0.4,0.2 -0.1,0.2 -0.2,0.4 -0.2,0.6 -0.1,-0.1 -0.2,-0.1 -0.3,-0.1 -0.5,0 -1,1.2 -1.4,2.3 -0.1,0.9 -0.1,1.2 -0.1,1.6 0,0.7 0.1,1.1 0.4,1.1 0.5,0 1,-1 1.7,-2.7 0.1,0 0.3,0.1 0.3,0.1 l -0.2,0.4 c -0.7,1.8 -1.3,2.7 -2,2.7 -0.6,0 -0.7,-0.7 -0.7,-1.7 0,-0.1 0,-0.2 0,-0.3 -0.5,1.1 -0.9,1.9 -1.6,1.9 -0.4,0 -0.6,-0.3 -0.6,-0.8 0,-0.4 0.2,-0.9 0.4,-1.4 l 0.5,0.2 c -0.2,0.3 -0.4,0.8 -0.4,1.1 0,0.2 0.1,0.4 0.3,0.4 0.4,0 0.9,-1 1.4,-2.2 0,-0.6 0.1,-1.2 0.1,-1.7 0,-0.7 -0.1,-1.2 -0.4,-1.2 -0.3,0 -0.7,0.6 -1.4,2.5 0,0 -0.2,0 -0.2,-0.1 0.6,-1.9 1.1,-2.9 1.7,-2.9 z"
         id="path107"
         inkscape:connector-curvature="0"
         style="fill:#000000;fill-opacity:1" /><path
         class="st1"
         d="m 291,187 -0.2,1.4 c 0.4,-0.9 0.8,-1.5 1.3,-1.5 0.7,0 0.9,0.7 0.9,1.7 0,1.4 -0.6,3.3 -1.4,4.1 1,-0.3 1.9,-1.4 2.5,-2.9 0.1,0 0.2,0.1 0.2,0.1 l -0.2,0.4 c -0.6,1.6 -1.8,2.7 -3,2.7 -0.6,0 -0.9,-0.3 -1,-0.8 -0.2,1.6 -0.5,3.1 -0.8,4.7 l -0.6,0 c 0.2,-1.9 0.5,-3 0.5,-3 0.4,-2.5 1,-6 1,-7 l 0.8,0 z m -0.7,4.4 c 0,0.5 0.1,1.1 0.5,1.1 0.8,0 1.5,-2.5 1.5,-3.9 0,-0.6 -0.2,-1.1 -0.5,-1.1 -0.5,0 -1,1 -1.4,2.5 0,0.4 -0.1,0.9 -0.1,1.4 z"
         id="path109"
         inkscape:connector-curvature="0"
         style="fill:#000000;fill-opacity:1" /><path
         class="st1"
         d="m 297.5,189.8 c 0.1,0 0.2,0.1 0.2,0.1 -0.4,1.2 -1.2,3.1 -2.4,3.1 -1,0 -1.4,-1 -1.4,-2.1 0,-1.8 0.9,-4 2.1,-4 0.5,0 0.7,0.3 0.7,0.8 0,1 -1.2,2.2 -2.1,2.4 0,0.3 -0.1,0.5 -0.1,0.8 0,0.9 0.2,1.6 0.9,1.6 0.9,-0.1 1.6,-1.5 2.1,-2.7 z m -2.8,-0.1 c 1.1,-0.5 1.6,-1.4 1.6,-2.1 0,-0.3 -0.1,-0.5 -0.3,-0.5 -0.5,0.1 -1.1,1.4 -1.3,2.6 z"
         id="path111"
         inkscape:connector-curvature="0"
         style="fill:#000000;fill-opacity:1" /><path
         class="st1"
         d="m 301,182.6 0.6,0 c -0.2,2 -1.5,8 -1.5,9 0,0.5 0.1,0.6 0.2,0.6 0.4,0 0.8,-1 1.4,-2.5 0.1,0 0.2,0.1 0.2,0.1 -0.8,2.1 -1.4,3.1 -2,3.1 -0.4,0 -0.6,-0.4 -0.6,-1.2 0,-0.2 0,-0.5 0.1,-0.9 -0.4,1.2 -0.9,2.1 -1.6,2.1 -0.5,0 -0.8,-0.7 -0.8,-1.6 0,-1.8 0.9,-4.6 2.1,-4.6 0.5,0 0.7,0.4 0.8,0.9 0.5,-1.5 0.9,-3.7 1.1,-5 z m -3.1,8.9 c 0,0.6 0.1,0.9 0.4,0.9 0.6,0 1.6,-2.6 1.6,-4 0,-0.6 -0.2,-1.1 -0.5,-1.1 -0.8,0.1 -1.5,2.8 -1.5,4.2 z"
         id="path113"
         inkscape:connector-curvature="0"
         style="fill:#000000;fill-opacity:1" /><path
         class="st1"
         d="m 303,187 c -0.4,2 -0.8,3.9 -0.8,5 0,0.4 0.1,0.5 0.2,0.5 0.4,0 0.9,-1 1.5,-2.7 0.1,0 0.2,0.1 0.2,0.1 -0.7,1.8 -1.1,3.1 -1.9,3.1 -0.5,0 -0.7,-0.6 -0.7,-1.4 0,-1.3 0.5,-3.4 0.8,-4.7 l 0.7,0 z m -0.5,-1.4 c 0,-0.3 0.2,-0.6 0.5,-0.6 0.3,0 0.4,0.2 0.4,0.4 0,0.3 -0.2,0.6 -0.5,0.6 -0.3,0 -0.4,-0.2 -0.4,-0.4 z"
         id="path115"
         inkscape:connector-curvature="0"
         style="fill:#000000;fill-opacity:1" /><path
         class="st1"
         d="m 304.3,187 c 0.5,-2.7 0.9,-3.1 1.4,-3.1 0.4,0 0.5,0.3 0.5,0.9 0,0.5 -0.2,1.3 -0.5,2.2 l 0.5,0 -0.1,0.4 -0.5,0 c -0.3,0.7 -0.6,1.5 -1,2.2 -0.1,0.7 -0.1,1.3 -0.1,1.8 0,0.8 0.1,1.1 0.4,1.1 0.4,0 0.9,-1 1.6,-2.7 0.1,0 0.2,0.1 0.2,0.1 l 0,0 c -0.8,2.1 -1.3,3.1 -2,3.1 -0.6,0 -0.8,-0.8 -0.8,-2.1 0,-0.9 0.2,-2.1 0.4,-3.5 0,0 0,-0.1 0,-0.1 l -0.5,0 0.1,-0.4 0.4,0 z m 0.9,0.4 -0.3,0 -0.2,1.3 0.5,-1.3 z m 0.5,-3 c -0.2,0 -0.5,0.9 -0.7,2.6 l 0.4,0 c 0.3,-0.8 0.5,-1.6 0.5,-2.2 0,-0.3 0,-0.4 -0.2,-0.4 z"
         id="path117"
         inkscape:connector-curvature="0"
         style="fill:#000000;fill-opacity:1" /><path
         class="st1"
         d="m 307.6,187 c -0.4,2 -0.8,3.9 -0.8,5 0,0.4 0.1,0.5 0.2,0.5 0.4,0 0.9,-1 1.5,-2.7 0.1,0 0.2,0.1 0.2,0.1 -0.7,1.8 -1.1,3.1 -1.9,3.1 -0.5,0 -0.7,-0.6 -0.7,-1.4 0,-1.3 0.5,-3.4 0.8,-4.7 l 0.7,0 z m -0.5,-1.4 c 0,-0.3 0.2,-0.6 0.5,-0.6 0.3,0 0.4,0.2 0.4,0.4 0,0.3 -0.2,0.6 -0.5,0.6 -0.3,0 -0.4,-0.2 -0.4,-0.4 z"
         id="path119"
         inkscape:connector-curvature="0"
         style="fill:#000000;fill-opacity:1" /><path
         class="st1"
         d="m 312.8,189.9 c -0.3,0.9 -0.8,1.4 -1.4,1.6 -0.4,0.9 -1.1,1.5 -1.7,1.5 -1.5,0 -1.5,-2.2 -0.9,-4.4 l 0.4,0.1 c 0.2,-1 0.7,-1.8 1.6,-1.8 1.4,0 1.4,2.4 0.8,4.3 0.4,-0.2 0.7,-0.6 1,-1.4 0.1,0 0.3,0 0.2,0.1 z m -2.1,1.7 c -1.1,-0.1 -1.5,-1.1 -1.6,-2.1 -0.2,1.1 -0.4,3.2 0.6,3.2 0.4,0 0.8,-0.5 1,-1.1 z m 0.2,-0.4 c 0.7,-1.7 0.8,-4 -0.1,-4 -1.4,0 -2,4 0.1,4 z"
         id="path121"
         inkscape:connector-curvature="0"
         style="fill:#000000;fill-opacity:1" /><path
         class="st1"
         d="m 312,193 c 0,-0.2 0.2,-1.1 0.4,-2 0.2,-1.4 0.5,-3 0.6,-4 l 0.7,0 -0.3,1.8 c 0.5,-1 0.9,-1.9 1.7,-1.9 0.4,0 0.7,0.3 0.7,0.8 0,1.1 -0.9,3.1 -0.9,4.2 0,0.4 0.1,0.5 0.3,0.5 0.4,0 0.9,-1.2 1.5,-2.7 0.1,0 0.2,0.1 0.2,0.1 l -0.1,0.4 c -0.5,1.4 -1.1,2.7 -1.9,2.7 -0.4,0 -0.7,-0.3 -0.7,-0.9 0,-1.2 0.9,-3.4 0.9,-4.2 0,-0.3 -0.1,-0.5 -0.3,-0.5 -0.4,0 -1.2,1.2 -1.7,2.9 l -0.5,2.6 -0.6,0 z"
         id="path123"
         inkscape:connector-curvature="0"
         style="fill:#000000;fill-opacity:1" /></g><path
       class="st1"
       d="m 305.7,146.2 c 0,0 -0.2,-0.4 -0.5,-0.7 -0.3,-0.2 -0.4,-0.3 -0.5,-0.3 -0.1,-0.1 -0.3,-0.4 -0.4,-0.5 -0.1,-0.1 -0.3,-0.1 -0.3,-0.1 -0.1,0 -0.3,-0.1 -0.3,-0.3 0,0 -0.1,-0.2 -0.2,-0.2 -0.1,-0.1 -0.1,-0.1 -0.1,-0.1 -0.1,0 -0.4,-0.1 -0.5,-0.1 l -0.7,-0.4 c -0.1,-0.1 -0.3,-0.2 -0.4,-0.3 l 0,0 c -0.1,-0.1 -0.2,-0.2 -0.3,-0.1 -0.1,0.1 -0.2,0.1 -0.3,0 -0.1,0 -0.3,0 -0.4,0.1 l -2,2.6 c -0.1,0.1 -0.2,0.1 -0.4,0 l -0.1,-0.1 c -0.1,-0.1 -0.3,-0.1 -0.4,0 l -2.7,3.5 c -0.1,0.1 -0.2,0.1 -0.3,0 l -0.3,-0.3 c -0.1,-0.1 -0.2,-0.2 -0.3,-0.2 -0.1,0 -0.2,-0.1 -0.2,-0.2 0,-0.1 -0.1,-0.2 -0.2,-0.2 -0.1,0 -0.2,0 -0.3,0.1 -0.1,0 -0.2,0 -0.4,-0.1 l -1.5,-1.3 c -0.1,-0.1 -0.3,-0.1 -0.4,0 l -0.1,0 c -0.1,0.1 -0.3,0.1 -0.4,0 l -1.1,-1 c -0.1,-0.1 -0.3,-0.1 -0.4,0 l -8.9,8.4 32.7,0 -7.4,-8.2 z m -13.7,4 c -0.1,0.1 -0.3,0.1 -0.4,0 -0.2,-0.1 -0.3,0.1 -0.3,0.1 l 0.6,1 -0.2,0.2 c 0,0 -0.6,-0.4 -0.7,-0.5 -0.1,-0.1 -0.7,-0.5 -0.8,-0.5 0,0 -0.2,0.1 -0.4,0.3 -0.2,0.1 -0.6,0.1 -0.7,0 -0.1,0 -0.3,-0.2 -0.6,-0.2 -0.2,0 -0.5,0.4 -0.5,0.4 0,0 -0.1,-0.1 -0.1,-0.1 0,0 -0.3,0.2 -0.4,0.1 -0.1,0 -0.2,-0.3 -0.2,-0.3 l -1.9,1.6 -0.2,-0.2 -0.9,0.9 -0.5,-0.4 5.9,-5.6 0.7,0.6 c 0.2,0.2 0.5,0.3 0.8,0.3 0.1,0 0.1,0 0.2,0 0.1,0.4 0.2,1 0.3,1.2 -0.1,0.2 0.3,1 0.3,1.1 z m 11.3,-1.1 c -0.1,0 -0.1,-0.2 -0.3,-0.3 -0.2,-0.1 -0.3,0 -0.4,0 -0.1,0 -0.3,-0.2 -0.4,-0.3 -0.2,-0.1 -0.7,0.2 -1,0.3 -0.3,0.1 -0.4,-0.1 -0.5,-0.1 -0.1,0 -0.3,0 -0.5,0.1 -0.2,0.1 -0.5,0.4 -0.4,0.7 0.1,0.3 0,0.3 -0.2,0.2 -0.2,0 -0.4,0 -0.7,0.1 -0.3,0.1 -0.3,0 -0.5,-0.1 -0.2,-0.1 -0.6,0.2 -0.7,0.3 -0.2,0.1 -0.3,0.2 -0.4,0 -0.2,-0.1 -0.5,0.1 -0.6,0.3 -0.1,0.2 -0.5,0.3 -0.5,0.3 l -0.2,-0.2 c 0,0 0.1,-0.2 0.1,-0.4 0,-0.1 -0.1,-0.3 -0.1,-0.4 l 2.4,-3 c 0.1,0 0.2,0 0.3,0 0.3,0 0.6,-0.2 0.9,-0.4 l 1.8,-2.3 c 0.1,0.2 0.2,0.6 0.2,0.5 0,0 -0.3,0 -0.2,0.2 0.1,0.2 0.4,0.2 0.5,0.3 0.1,0.1 0.3,0.5 0.4,0.7 0.1,0.3 0.2,0 0.3,0.2 0.1,0.1 -0.1,0.5 -0.1,0.5 l 0.1,0 1,2.5 c -0.1,0.2 -0.2,0.3 -0.3,0.3 z"
       id="path125"
       inkscape:connector-curvature="0"
       style="fill:#000000;fill-opacity:1" /></g></svg>