<?xml version="1.0" encoding="UTF-8" standalone="no"?>
<!-- Generator: Adobe Illustrator 20.0.0, SVG Export Plug-In . SVG Version: 6.00 Build 0)  -->

<svg
   xmlns:dc="http://purl.org/dc/elements/1.1/"
   xmlns:cc="http://creativecommons.org/ns#"
   xmlns:rdf="http://www.w3.org/1999/02/22-rdf-syntax-ns#"
   xmlns:svg="http://www.w3.org/2000/svg"
   xmlns="http://www.w3.org/2000/svg"
   xmlns:sodipodi="http://sodipodi.sourceforge.net/DTD/sodipodi-0.dtd"
   xmlns:inkscape="http://www.inkscape.org/namespaces/inkscape"
   version="1.1"
   id="artwork"
   x="0px"
   y="0px"
   viewBox="0 0 110.8 121.1"
   xml:space="preserve"
   inkscape:version="0.91 r13725"
   sodipodi:docname="brand-4.svg"
   width="110.8"
   height="121.1"><metadata
     id="metadata135"><rdf:RDF><cc:Work
         rdf:about=""><dc:format>image/svg+xml</dc:format><dc:type
           rdf:resource="http://purl.org/dc/dcmitype/StillImage" /><dc:title></dc:title></cc:Work></rdf:RDF></metadata><defs
     id="defs133" /><sodipodi:namedview
     pagecolor="#ffffff"
     bordercolor="#666666"
     borderopacity="1"
     objecttolerance="10"
     gridtolerance="10"
     guidetolerance="10"
     inkscape:pageopacity="0"
     inkscape:pageshadow="2"
     inkscape:window-width="1920"
     inkscape:window-height="1017"
     id="namedview131"
     showgrid="false"
     fit-margin-bottom="1"
     fit-margin-top="1"
     fit-margin-left="1"
     fit-margin-right="1"
     inkscape:zoom="4.6354778"
     inkscape:cx="176.03082"
     inkscape:cy="44.290582"
     inkscape:window-x="-8"
     inkscape:window-y="-8"
     inkscape:window-maximized="1"
     inkscape:current-layer="artwork" /><style
     type="text/css"
     id="style3">
	.st0{fill:#E1BD3F;}
	.st1{fill:#DFDFC6;}
</style><g
     id="g5"
     transform="translate(-194.8,-209.4)"><path
       class="st0"
       d="m 229.7,263.5 c -0.6,-0.8 -1,-1.4 -2,-1.4 l -5.6,0 c -1.1,0 0,1.4 0.6,2.1 l 0,0 c -0.3,0 -0.5,0 -0.5,0.3 l 0,0.7 c 0,0.3 0.2,0.3 0.6,0.3 l 0,0 c -0.6,0.7 -1.6,2.1 -0.6,2.1 l 5.6,0 c 1,0 1.4,-0.6 2,-1.4 0.2,-0.3 0.8,-0.7 1.4,-0.7 l 6.7,0 0,-1.3 -6.7,0 c -0.7,0 -1.3,-0.4 -1.5,-0.7 z m -2.2,-0.7 0.3,0 c 0.1,0 0.3,0.1 0.3,0.2 l 0.9,1.1 c 0.1,0.1 0,0.2 -0.1,0.2 l -0.3,0 c -0.1,0 -0.3,-0.1 -0.3,-0.2 l -0.8,-1.1 c -0.1,-0.2 -0.1,-0.2 0,-0.2 z m -1.5,0 0.3,0 c 0.1,0 0.3,0.1 0.3,0.2 l 0.9,1.1 c 0.1,0.1 0,0.2 -0.1,0.2 l -0.3,0 c -0.1,0 -0.3,-0.1 -0.3,-0.2 l -0.9,-1.1 c 0,-0.2 0,-0.2 0.1,-0.2 z m -1.5,0 0.3,0 c 0.1,0 0.3,0.1 0.3,0.2 l 0.9,1.1 c 0.1,0.1 0,0.2 -0.1,0.2 l -0.3,0 c -0.1,0 -0.3,-0.1 -0.3,-0.2 l -0.8,-1.1 c -0.1,-0.2 -0.1,-0.2 0,-0.2 z m -1.4,0 0.3,0 c 0.1,0 0.3,0.1 0.3,0.2 l 0.8,1.1 c 0.1,0.1 0,0.2 -0.1,0.2 l -0.3,0 c -0.1,0 -0.3,-0.1 -0.3,-0.2 L 223,263 c -0.1,-0.2 0,-0.2 0.1,-0.2 z m 0.2,4.1 -0.3,0 c -0.1,0 -0.1,-0.1 -0.1,-0.2 l 0.8,-1.1 c 0.1,-0.1 0.2,-0.2 0.3,-0.2 l 0.3,0 c 0.1,0 0.1,0.1 0.1,0.2 l -0.9,1.1 c 0.1,0.1 -0.1,0.2 -0.2,0.2 z m 1.5,0 -0.3,0 c -0.1,0 -0.1,-0.1 -0.1,-0.2 l 0.8,-1.1 c 0.1,-0.1 0.2,-0.2 0.3,-0.2 l 0.3,0 c 0.1,0 0.1,0.1 0.1,0.2 l -0.9,1.1 c 0.1,0.2 -0.1,0.2 -0.2,0.2 z m 1.5,0 -0.3,0 c -0.1,0 -0.1,-0.1 -0.1,-0.2 l 0.9,-1.1 c 0.1,-0.1 0.2,-0.2 0.3,-0.2 l 0.3,0 c 0.1,0 0.1,0.1 0.1,0.2 l -0.8,1.1 c -0.1,0.2 -0.3,0.2 -0.4,0.2 z m 2.7,-1.2 -0.9,1.1 c -0.1,0.1 -0.2,0.2 -0.3,0.2 l -0.3,0 c -0.1,0 -0.1,-0.1 -0.1,-0.2 l 0.8,-1.1 c 0.1,-0.1 0.2,-0.2 0.3,-0.2 l 0.3,0 c 0.2,0 0.2,0.1 0.2,0.2 z m 47.9,-2.2 c -3,-0.9 -3.1,-1.2 -4,-0.9 -0.6,0.2 -0.8,1.1 -0.8,1.1 0,0 -0.3,-0.3 -0.9,-0.1 -0.2,0 -0.3,0.3 -0.4,0.5 l -5.8,0 0,1.3 5.8,0 c 0,0.2 0.1,0.5 0.4,0.5 0.6,0.1 0.9,-0.1 0.9,-0.1 0,0 0.2,0.9 0.8,1.1 0.9,0.3 1,0 4,-0.9 2.9,-0.9 3.4,-1 3.4,-1.3 0,-0.1 -0.6,-0.3 -3.4,-1.2 z"
       id="path7"
       inkscape:connector-curvature="0"
       style="fill:#e1bd3f" /><g
       id="g9"><path
         class="st1"
         d="m 246.3,249.9 0,29.3 c 0,0.4 -0.2,0.6 -0.6,0.6 l -3.8,0 c -0.4,0 -0.6,-0.2 -0.6,-0.6 l 0,-21.9 c -0.4,0.3 -0.8,0.6 -1.4,0.9 -0.5,0.3 -1.1,0.5 -1.5,0.6 -0.2,0.1 -0.4,0 -0.5,-0.1 -0.1,-0.1 -0.2,-0.2 -0.2,-0.4 l 0,-3.3 c 0,-0.1 0,-0.3 0.1,-0.4 0.1,-0.1 0.2,-0.2 0.4,-0.2 0.6,-0.3 1.2,-0.6 1.8,-1.1 0.5,-0.4 0.9,-0.9 1.3,-1.5 0.4,-0.6 0.7,-1.3 0.8,-2.2 0.1,-0.2 0.2,-0.3 0.5,-0.3 l 3.1,0 c 0.4,0.1 0.6,0.3 0.6,0.6 z"
         id="path11"
         inkscape:connector-curvature="0"
         style="fill:#dfdfc6" /><path
         class="st1"
         d="m 258.9,260.4 c 1,0.3 1.7,0.8 2.2,1.6 0.5,0.8 0.7,1.7 0.7,2.7 l 0,9.9 c 0,0.8 -0.1,1.5 -0.4,2.1 -0.3,0.7 -0.7,1.2 -1.1,1.7 -0.5,0.5 -1,0.9 -1.7,1.2 -0.6,0.3 -1.3,0.4 -2.1,0.4 l -1.5,0 c -0.7,0 -1.4,-0.1 -2.1,-0.4 -0.6,-0.3 -1.2,-0.7 -1.7,-1.2 -0.5,-0.5 -0.9,-1.1 -1.1,-1.7 -0.3,-0.7 -0.4,-1.4 -0.4,-2.1 l 0,-1.8 c 0,-0.4 0.2,-0.7 0.5,-0.8 l 3.8,-1 c 0.4,-0.1 0.5,0 0.5,0.4 l 0,3 c 0,0.3 0.1,0.5 0.3,0.7 0.2,0.2 0.4,0.3 0.7,0.3 l 0.3,0 c 0.3,0 0.5,-0.1 0.7,-0.3 0.2,-0.2 0.3,-0.4 0.3,-0.7 l 0,-8.6 c 0,-0.5 -0.1,-0.8 -0.3,-1 -0.1,-0.1 -0.1,-0.1 -0.3,-0.2 -0.1,-0.1 -0.3,-0.1 -0.5,-0.1 l -0.3,0 c -0.2,0 -0.4,0.1 -0.5,0.2 -0.1,0.1 -0.2,0.2 -0.3,0.2 -0.2,0.2 -0.3,0.5 -0.3,0.9 l 0,1.2 c 0,0.1 0,0.3 -0.1,0.3 -0.1,0.1 -0.2,0.1 -0.3,0 l -4,-1.1 c -0.3,-0.1 -0.5,-0.3 -0.5,-0.6 l 0,-15.8 c 0,-0.4 0.2,-0.6 0.6,-0.6 l 2.5,0 7.7,0 c 0.4,0 0.6,0.2 0.6,0.6 l 0,3.7 c 0,0.4 -0.2,0.6 -0.6,0.6 l -5.8,0 0,6.6 c 0.8,-0.4 1.8,-0.6 2.7,-0.6 0.8,0.1 1.3,0.2 1.8,0.3 z"
         id="path13"
         inkscape:connector-curvature="0"
         style="fill:#dfdfc6" /></g><path
       class="st1"
       d="m 304.6,264.8 c 0,-30 -24.4,-54.4 -54.4,-54.4 -30,0 -54.4,24.4 -54.4,54.4 0,24.6 16.5,46.2 40.2,52.5 l 0,12.2 14.2,-5.8 14.2,5.8 0,-12.2 c 23.8,-6.4 40.2,-27.9 40.2,-52.5 z m -54.3,35.9 c -19.8,0 -35.9,-16.1 -35.9,-35.9 0,-19.8 16.1,-35.9 35.9,-35.9 19.8,0 35.9,16.1 35.9,35.9 0,19.8 -16.1,35.9 -35.9,35.9 z m -0.1,21.2 -12.6,5.2 0,-27.1 c 3.9,1.4 8.2,2.2 12.6,2.2 4.4,0 8.7,-0.8 12.6,-2.2 l 0,27.1 -12.6,-5.2 z m 14.2,-6.3 0,-16.2 c 13.7,-5.6 23.3,-19 23.3,-34.7 0,-20.7 -16.8,-37.5 -37.5,-37.5 -20.7,0 -37.5,16.8 -37.5,37.5 0,15.7 9.7,29.1 23.3,34.7 l 0,16.2 c -22.8,-6.3 -38.7,-27.2 -38.7,-50.9 0,-29.1 23.7,-52.8 52.8,-52.8 29.1,0 52.8,23.7 52.8,52.8 0.2,23.9 -15.6,44.6 -38.5,50.9 z"
       id="path15"
       inkscape:connector-curvature="0"
       style="fill:#dfdfc6" /><polygon
       class="st0"
       points="246.8,317.5 248.1,313.5 244.7,311 248.9,311 250.2,307 251.6,311 255.8,311 252.4,313.5 253.7,317.5 250.2,315 "
       id="polygon17"
       style="fill:#e1bd3f" /><g
       id="g19"><path
         class="st0"
         d="m 224.7,301.1 -2.2,1.6 -0.8,-0.6 1,-2.6 -2.3,1.6 -0.9,-0.6 4,-2.8 0.6,0.4 -1.1,3.2 2.7,-2 0.6,0.4 -1.5,4.6 -0.9,-0.6 0.8,-2.6 z"
         id="path21"
         inkscape:connector-curvature="0"
         style="fill:#e1bd3f" /><path
         class="st0"
         d="m 218.3,299.4 -0.7,-0.7 3.2,-3.4 0.7,0.7 -3.2,3.4 z"
         id="path23"
         inkscape:connector-curvature="0"
         style="fill:#e1bd3f" /><path
         class="st0"
         d="m 219.6,294.2 -3.4,3.1 -0.7,-0.7 2.7,-2.5 -1.3,-1.4 0.7,-0.6 2,2.1 z"
         id="path25"
         inkscape:connector-curvature="0"
         style="fill:#e1bd3f" /><path
         class="st0"
         d="m 211.6,290.6 c 0.1,-0.6 0.4,-1.1 1,-1.5 0.6,-0.4 1.2,-0.6 1.7,-0.5 0.6,0.1 1.1,0.5 1.6,1.2 l 0.9,1.2 -3.7,2.7 -0.9,-1.3 c -0.5,-0.6 -0.7,-1.2 -0.6,-1.8 z m 2.7,-1 c -0.3,-0.1 -0.7,0 -1.1,0.3 -0.4,0.3 -0.6,0.6 -0.6,0.9 -0.1,0.3 0.1,0.7 0.4,1.1 l 0.3,0.5 2.3,-1.6 -0.4,-0.5 c -0.3,-0.4 -0.6,-0.6 -0.9,-0.7 z"
         id="path27"
         inkscape:connector-curvature="0"
         style="fill:#e1bd3f" /><path
         class="st0"
         d="m 208.2,286 0.8,-0.4 1.1,2 0.8,-0.5 -1,-1.8 0.8,-0.4 1,1.8 0.8,-0.5 -1.1,-2 0.8,-0.4 1.6,2.9 -4,2.2 -1.6,-2.9 z"
         id="path29"
         inkscape:connector-curvature="0"
         style="fill:#e1bd3f" /><path
         class="st0"
         d="m 207.4,280.2 c 0.7,-0.3 1.2,-0.2 1.6,0.2 l 1.1,-1.7 0.5,1.1 -1,1.5 0.3,0.6 1.4,-0.6 0.4,0.9 -4.3,1.7 -0.6,-1.6 c -0.3,-0.6 -0.3,-1.1 -0.2,-1.5 0,-0.1 0.3,-0.4 0.8,-0.6 z m 0.9,1 c -0.2,-0.1 -0.3,-0.1 -0.6,0 -0.2,0.1 -0.4,0.2 -0.4,0.4 0,0.2 0,0.4 0.1,0.7 l 0.3,0.7 1.3,-0.5 -0.3,-0.7 c -0.1,-0.4 -0.2,-0.6 -0.4,-0.6 z"
         id="path31"
         inkscape:connector-curvature="0"
         style="fill:#e1bd3f" /><path
         class="st0"
         d="m 204.5,275.8 -0.3,-1 4.5,-1.2 0.3,1 -2.2,2.8 2.8,-0.7 0.3,1 -4.5,1.2 -0.2,-0.9 2.3,-2.9 -3,0.7 z"
         id="path33"
         inkscape:connector-curvature="0"
         style="fill:#e1bd3f" /><path
         class="st0"
         d="m 203.4,269.5 0.9,-0.1 0.3,2.2 0.9,-0.1 -0.3,-2 0.9,-0.1 0.3,2 0.9,-0.1 -0.3,-2.3 0.9,-0.1 0.4,3.3 -4.6,0.6 -0.3,-3.3 z"
         id="path35"
         inkscape:connector-curvature="0"
         style="fill:#e1bd3f" /><path
         class="st0"
         d="m 204.1,266.5 c 0.1,0.1 0.2,0.1 0.3,0.1 0.1,0 0.2,-0.1 0.3,-0.2 0.1,-0.1 0.2,-0.4 0.3,-0.8 0.1,-0.4 0.2,-0.8 0.5,-1 0.2,-0.2 0.5,-0.4 0.9,-0.4 0.4,0 0.8,0.1 1,0.4 0.3,0.3 0.4,0.7 0.4,1.2 0,0.7 -0.2,1.4 -0.8,1.9 l -0.8,-0.6 c 0.4,-0.5 0.6,-0.9 0.6,-1.4 0,-0.2 0,-0.3 -0.1,-0.4 -0.1,-0.1 -0.2,-0.2 -0.3,-0.1 -0.1,0 -0.2,0.1 -0.3,0.2 -0.1,0.1 -0.2,0.3 -0.2,0.7 -0.1,0.5 -0.3,0.9 -0.5,1.2 -0.2,0.2 -0.5,0.4 -1,0.4 -0.4,0 -0.8,-0.1 -1,-0.4 -0.2,-0.3 -0.4,-0.7 -0.4,-1.1 0,-0.3 0,-0.6 0.1,-0.9 0.1,-0.3 0.2,-0.6 0.4,-0.8 l 0.8,0.5 c -0.3,0.4 -0.4,0.8 -0.4,1.2 0.1,0 0.1,0.2 0.2,0.3 z"
         id="path37"
         inkscape:connector-curvature="0"
         style="fill:#e1bd3f" /><path
         class="st0"
         d="m 204.2,261.5 c 0.1,0.1 0.2,0.2 0.3,0.2 0.1,0 0.2,0 0.3,-0.1 0.1,-0.1 0.2,-0.4 0.3,-0.8 0.1,-0.4 0.3,-0.7 0.6,-0.9 0.2,-0.2 0.6,-0.3 1,-0.3 0.4,0 0.7,0.2 1,0.5 0.2,0.3 0.3,0.7 0.3,1.2 -0.1,0.7 -0.4,1.3 -1,1.8 l -0.7,-0.7 c 0.5,-0.4 0.7,-0.9 0.8,-1.3 0,-0.2 0,-0.3 -0.1,-0.4 -0.1,-0.1 -0.2,-0.2 -0.3,-0.2 -0.1,0 -0.3,0 -0.3,0.1 -0.1,0.1 -0.2,0.3 -0.3,0.6 -0.2,0.5 -0.4,0.9 -0.6,1.1 -0.2,0.2 -0.6,0.3 -1,0.3 -0.4,0 -0.8,-0.2 -1,-0.5 -0.2,-0.3 -0.3,-0.7 -0.3,-1.2 0,-0.3 0.1,-0.6 0.2,-0.9 0.1,-0.3 0.3,-0.5 0.5,-0.7 l 0.7,0.6 c -0.3,0.4 -0.5,0.8 -0.5,1.2 0,0.1 0,0.3 0.1,0.4 z"
         id="path39"
         inkscape:connector-curvature="0"
         style="fill:#e1bd3f" /><path
         class="st0"
         d="m 210.1,250.8 -1.1,0.1 -0.6,1.8 0.8,0.7 -0.3,1 -3.8,-3.2 0.3,-0.9 5,-0.5 -0.3,1 z m -3.5,0.3 1.1,0.9 0.3,-1.1 -1.4,0.2 z"
         id="path41"
         inkscape:connector-curvature="0"
         style="fill:#e1bd3f" /><path
         class="st0"
         d="m 208.6,244 c 0.5,-0.2 1.1,-0.2 1.8,0.1 0.7,0.3 1.1,0.7 1.3,1.3 0.2,0.6 0.1,1.2 -0.2,2 l -0.6,1.4 -4.2,-1.9 0.7,-1.4 c 0.2,-0.8 0.7,-1.3 1.2,-1.5 z m 2.2,1.8 c -0.1,-0.3 -0.4,-0.6 -0.8,-0.8 -0.4,-0.2 -0.8,-0.2 -1.1,-0.1 -0.3,0.1 -0.6,0.4 -0.8,0.9 l -0.2,0.5 2.5,1.2 0.3,-0.6 c 0.2,-0.4 0.2,-0.7 0.1,-1.1 z"
         id="path43"
         inkscape:connector-curvature="0"
         style="fill:#e1bd3f" /><path
         class="st0"
         d="m 212.6,241.7 -1.9,-2.5 0.6,-0.9 3,3.9 -0.4,0.7 -4.9,-0.9 0.6,-0.9 3,0.6 z"
         id="path45"
         inkscape:connector-curvature="0"
         style="fill:#e1bd3f" /><path
         class="st0"
         d="m 214.1,234.5 0.7,0.6 -1.4,1.8 0.7,0.6 1.2,-1.6 0.7,0.5 -1.2,1.6 0.8,0.6 1.4,-1.8 0.7,0.6 -2,2.6 -3.6,-2.8 2,-2.7 z"
         id="path47"
         inkscape:connector-curvature="0"
         style="fill:#e1bd3f" /><path
         class="st0"
         d="m 217.7,230.8 0.7,-0.7 3.3,3.3 -0.7,0.7 -3.6,-0.5 2,2 -0.7,0.7 -3.3,-3.3 0.7,-0.7 3.7,0.5 -2.1,-2 z"
         id="path49"
         inkscape:connector-curvature="0"
         style="fill:#e1bd3f" /><path
         class="st0"
         d="m 222,228.2 2.3,2.9 -0.8,0.6 -2.3,-2.9 -1,0.8 -0.6,-0.7 2.8,-2.2 0.6,0.7 -1,0.8 z"
         id="path51"
         inkscape:connector-curvature="0"
         style="fill:#e1bd3f" /><path
         class="st0"
         d="m 226.7,228 c 0.3,0.1 0.5,0.1 0.7,-0.1 0.2,-0.1 0.4,-0.4 0.4,-0.6 0,-0.3 -0.1,-0.6 -0.3,-0.9 l -1.3,-2.2 0.8,-0.5 1.4,2.2 c 0.4,0.6 0.5,1.1 0.4,1.6 -0.1,0.5 -0.4,0.9 -0.9,1.2 -0.5,0.3 -1,0.4 -1.5,0.3 -0.5,-0.1 -0.9,-0.5 -1.3,-1 l -1.4,-2.2 0.8,-0.5 1.3,2.2 c 0.5,0.2 0.7,0.4 0.9,0.5 z"
         id="path53"
         inkscape:connector-curvature="0"
         style="fill:#e1bd3f" /><path
         class="st0"
         d="m 232.9,222.6 c 0.3,0.7 0.3,1.2 -0.2,1.7 l 1.7,1 -1.1,0.5 -1.5,-0.9 -0.6,0.3 0.6,1.3 -0.9,0.4 -1.9,-4.2 1.5,-0.7 c 0.6,-0.3 1.1,-0.4 1.5,-0.3 0.4,0.1 0.7,0.4 0.9,0.9 z m -0.8,1 c 0.1,-0.2 0,-0.3 -0.1,-0.6 -0.1,-0.2 -0.2,-0.4 -0.4,-0.4 -0.2,0 -0.4,0 -0.7,0.2 l -0.7,0.3 0.6,1.2 0.7,-0.3 c 0.3,-0.1 0.5,-0.3 0.6,-0.4 z"
         id="path55"
         inkscape:connector-curvature="0"
         style="fill:#e1bd3f" /><path
         class="st0"
         d="m 237.3,219.5 0.3,0.9 -2.1,0.7 0.3,0.9 1.9,-0.6 0.3,0.8 -1.9,0.6 0.3,0.9 2.2,-0.7 0.3,0.9 -3.1,1 -1.4,-4.4 2.9,-1 z"
         id="path57"
         inkscape:connector-curvature="0"
         style="fill:#e1bd3f" /><path
         class="st0"
         d="m 248.4,219.4 -1,2.6 -0.6,0 -1.4,-2.4 0.2,2.9 -1,0.1 -0.3,-4.6 1.3,-0.1 1.3,2.4 1,-2.6 1.3,-0.1 0.3,4.6 -1,0.1 -0.1,-2.9 z"
         id="path59"
         inkscape:connector-curvature="0"
         style="fill:#e1bd3f" /><path
         class="st0"
         d="m 254.9,221.9 c -0.5,0.4 -1.1,0.6 -1.7,0.6 -0.7,0 -1.2,-0.3 -1.6,-0.8 -0.4,-0.5 -0.6,-1.1 -0.6,-1.7 0,-0.7 0.3,-1.2 0.8,-1.6 0.5,-0.4 1.1,-0.6 1.7,-0.6 0.7,0 1.2,0.3 1.6,0.8 0.4,0.5 0.6,1.1 0.6,1.7 0,0.6 -0.3,1.2 -0.8,1.6 z m -0.2,-1.7 c 0,-0.4 -0.1,-0.8 -0.3,-1.1 -0.2,-0.3 -0.5,-0.5 -0.9,-0.5 -0.4,0 -0.7,0.1 -1,0.4 -0.3,0.3 -0.4,0.6 -0.5,1 0,0.4 0.1,0.8 0.3,1.1 0.2,0.3 0.5,0.5 0.9,0.5 0.4,0 0.7,-0.1 1,-0.4 0.3,-0.3 0.5,-0.6 0.5,-1 z"
         id="path61"
         inkscape:connector-curvature="0"
         style="fill:#e1bd3f" /><path
         class="st0"
         d="m 258.3,221.8 c 0.1,0.2 0.3,0.4 0.6,0.4 0.3,0.1 0.5,0 0.7,-0.2 0.2,-0.2 0.3,-0.4 0.4,-0.8 l 0.5,-2.5 1,0.2 -0.5,2.5 c -0.1,0.7 -0.4,1.1 -0.8,1.4 -0.4,0.3 -0.9,0.4 -1.5,0.3 -0.5,-0.1 -1,-0.4 -1.2,-0.8 -0.3,-0.4 -0.4,-1 -0.2,-1.6 l 0.5,-2.5 1,0.2 -0.5,2.5 c -0.2,0.4 -0.1,0.7 0,0.9 z"
         id="path63"
         inkscape:connector-curvature="0"
         style="fill:#e1bd3f" /><path
         class="st0"
         d="m 266.5,220.6 0.9,0.3 -1.5,4.4 -0.9,-0.3 -1.1,-3.4 -0.9,2.7 -0.9,-0.3 1.5,-4.4 0.9,0.3 1.1,3.5 0.9,-2.8 z"
         id="path65"
         inkscape:connector-curvature="0"
         style="fill:#e1bd3f" /><path
         class="st0"
         d="m 270.8,223.4 -1.6,3.4 -0.9,-0.4 1.6,-3.4 -1.1,-0.6 0.4,-0.8 3.2,1.5 -0.4,0.8 -1.2,-0.5 z"
         id="path67"
         inkscape:connector-curvature="0"
         style="fill:#e1bd3f" /><path
         class="st0"
         d="m 273.8,229.4 0.2,-1.1 -1.6,-1 -0.9,0.6 -0.9,-0.6 4.1,-2.9 0.8,0.5 -0.8,4.9 -0.9,-0.4 z m 0.6,-3.5 -1.2,0.8 1,0.6 0.2,-1.4 z"
         id="path69"
         inkscape:connector-curvature="0"
         style="fill:#e1bd3f" /><path
         class="st0"
         d="m 278.3,226.9 0.8,0.6 -2.8,3.7 -0.8,-0.6 2.8,-3.7 z"
         id="path71"
         inkscape:connector-curvature="0"
         style="fill:#e1bd3f" /><path
         class="st0"
         d="m 283,231 0.7,0.7 -3.1,3.4 -0.7,-0.7 0.4,-3.6 -2,2.1 -0.7,-0.7 3.1,-3.4 0.7,0.6 -0.4,3.7 2,-2.1 z"
         id="path73"
         inkscape:connector-curvature="0"
         style="fill:#e1bd3f" /><path
         class="st0"
         d="m 290.2,239.8 -0.8,0.5 -1.2,-1.8 -0.8,0.5 1.1,1.7 -0.7,0.5 -1.1,-1.7 -0.8,0.5 1.3,1.9 -0.8,0.5 -1.8,-2.7 3.8,-2.6 1.8,2.7 z"
         id="path75"
         inkscape:connector-curvature="0"
         style="fill:#e1bd3f" /><path
         class="st0"
         d="m 292.4,243.7 0.6,1.1 -2.6,-0.2 -1.4,2.4 -0.6,-1.1 0.9,-1.5 -1.8,-0.1 -0.6,-1.1 2.8,0.2 1.3,-2.3 0.6,1.1 -0.8,1.4 1.6,0.1 z"
         id="path77"
         inkscape:connector-curvature="0"
         style="fill:#e1bd3f" /><path
         class="st0"
         d="m 294.4,249.5 c -0.1,0.4 -0.5,0.7 -1,0.9 -0.5,0.2 -1,0.2 -1.3,0 -0.4,-0.2 -0.7,-0.6 -0.9,-1.2 l -0.2,-0.6 -1.2,0.5 -0.4,-0.9 4.3,-1.6 0.6,1.5 c 0.2,0.5 0.2,1 0.1,1.4 z m -2,-0.1 c 0.2,0.1 0.4,0 0.6,0 0.2,-0.1 0.4,-0.2 0.4,-0.4 0,-0.2 0,-0.4 -0.1,-0.7 l -0.2,-0.5 -1.4,0.6 0.2,0.6 c 0.2,0.2 0.3,0.4 0.5,0.4 z"
         id="path79"
         inkscape:connector-curvature="0"
         style="fill:#e1bd3f" /><path
         class="st0"
         d="m 296.3,254.6 -0.9,0.2 -0.6,-2.2 -0.9,0.2 0.5,1.9 -0.9,0.2 -0.5,-1.9 -0.9,0.2 0.6,2.2 -0.9,0.2 -0.8,-3.2 4.5,-1.1 0.8,3.3 z"
         id="path81"
         inkscape:connector-curvature="0"
         style="fill:#e1bd3f" /><path
         class="st0"
         d="m 296.5,260 c -0.3,0.5 -0.9,0.8 -1.6,0.9 -0.7,0.1 -1.3,0 -1.8,-0.4 -0.5,-0.4 -0.8,-1 -0.9,-1.8 l -0.2,-1.5 4.6,-0.6 0.2,1.6 c 0.2,0.7 0,1.4 -0.3,1.8 z m -2.8,-0.3 c 0.3,0.2 0.6,0.3 1.1,0.2 0.4,-0.1 0.8,-0.2 1,-0.5 0.2,-0.3 0.3,-0.7 0.2,-1.2 l -0.1,-0.6 -2.8,0.4 0.1,0.6 c 0.1,0.5 0.2,0.9 0.5,1.1 z"
         id="path83"
         inkscape:connector-curvature="0"
         style="fill:#e1bd3f" /><path
         class="st0"
         d="m 297.3,262.4 0,1 -4.6,0.2 0,-1 4.6,-0.2 z"
         id="path85"
         inkscape:connector-curvature="0"
         style="fill:#e1bd3f" /><path
         class="st0"
         d="m 296.4,267.3 -3.7,-0.2 0,-1 3.7,0.2 0.1,-1.3 0.9,0 -0.2,3.5 -0.9,0 0.1,-1.2 z"
         id="path87"
         inkscape:connector-curvature="0"
         style="fill:#e1bd3f" /><path
         class="st0"
         d="m 297,270.3 -0.1,1 -4.6,-0.6 0.1,-1 4.6,0.6 z"
         id="path89"
         inkscape:connector-curvature="0"
         style="fill:#e1bd3f" /><path
         class="st0"
         d="m 291.9,276.1 c -0.3,-0.5 -0.4,-1.1 -0.3,-1.8 0.1,-0.6 0.5,-1.1 1,-1.5 0.5,-0.3 1.1,-0.4 1.8,-0.3 0.7,0.2 1.2,0.5 1.5,1 0.3,0.5 0.4,1.1 0.3,1.8 -0.1,0.6 -0.5,1.1 -1,1.5 -0.5,0.3 -1.1,0.4 -1.8,0.3 -0.7,-0.1 -1.2,-0.4 -1.5,-1 z m 1.7,0.1 c 0.4,0.1 0.8,0 1.1,-0.1 0.3,-0.2 0.6,-0.5 0.6,-0.8 0.1,-0.4 0,-0.7 -0.2,-1 -0.2,-0.3 -0.5,-0.5 -0.9,-0.6 -0.4,-0.1 -0.8,0 -1.1,0.1 -0.3,0.2 -0.5,0.5 -0.6,0.8 -0.1,0.4 0,0.7 0.2,1 0.2,0.3 0.5,0.5 0.9,0.6 z"
         id="path91"
         inkscape:connector-curvature="0"
         style="fill:#e1bd3f" /><path
         class="st0"
         d="m 293.9,282.4 -0.4,0.9 -4.3,-1.6 0.4,-0.9 3.5,-1 -2.7,-1 0.4,-0.9 4.3,1.6 -0.3,0.9 -3.6,1 2.7,1 z"
         id="path93"
         inkscape:connector-curvature="0"
         style="fill:#e1bd3f" /><path
         class="st0"
         d="m 286,289.4 c -0.3,0.4 -0.3,0.8 -0.2,1.3 l -0.9,0.1 c -0.2,-0.8 -0.1,-1.4 0.3,-2 0.4,-0.6 0.9,-0.9 1.5,-1 0.6,-0.1 1.2,0 1.8,0.4 0.6,0.4 0.9,0.9 1,1.5 0.1,0.6 0,1.2 -0.4,1.8 -0.4,0.6 -1,1 -1.8,1 l -0.2,-0.9 c 0.5,0 0.9,-0.2 1.2,-0.6 0.2,-0.3 0.3,-0.6 0.2,-1 -0.1,-0.4 -0.3,-0.7 -0.6,-0.9 -0.4,-0.2 -0.7,-0.3 -1.1,-0.3 -0.4,0.1 -0.6,0.3 -0.8,0.6 z"
         id="path95"
         inkscape:connector-curvature="0"
         style="fill:#e1bd3f" /><path
         class="st0"
         d="m 283.3,291.4 3.5,3 -0.6,0.8 -2.8,-2.4 -1.2,1.4 -0.7,-0.6 1.8,-2.2 z"
         id="path97"
         inkscape:connector-curvature="0"
         style="fill:#e1bd3f" /><path
         class="st0"
         d="m 280.6,296.1 c -0.3,0 -0.5,0 -0.7,0.2 -0.2,0.2 -0.3,0.4 -0.3,0.7 0,0.3 0.2,0.5 0.4,0.8 l 1.7,1.9 -0.7,0.7 -1.8,-1.9 c -0.5,-0.5 -0.7,-1 -0.7,-1.5 0,-0.5 0.2,-1 0.6,-1.3 0.4,-0.4 0.9,-0.6 1.4,-0.6 0.5,0 1,0.3 1.4,0.8 l 1.8,1.9 -0.7,0.7 -1.7,-1.9 c -0.2,-0.3 -0.4,-0.4 -0.7,-0.5 z"
         id="path99"
         inkscape:connector-curvature="0"
         style="fill:#e1bd3f" /><path
         class="st0"
         d="m 275.2,299.1 1.6,-1.2 2.7,3.7 -1.4,1 c -0.2,0.2 -0.5,0.3 -0.7,0.4 -0.2,0.1 -0.4,0.1 -0.6,0 -0.3,-0.1 -0.5,-0.2 -0.7,-0.5 -0.2,-0.3 -0.3,-0.6 -0.2,-0.8 0,-0.1 0,-0.2 0.1,-0.2 0,0 0,-0.1 0.1,-0.2 -0.3,0.1 -0.5,0.1 -0.8,0.1 -0.2,-0.1 -0.5,-0.2 -0.6,-0.4 -0.2,-0.3 -0.3,-0.6 -0.2,-0.9 -0.1,-0.2 0.2,-0.6 0.7,-1 z m 1.2,0.2 -0.6,0.4 c -0.2,0.2 -0.4,0.3 -0.5,0.5 -0.1,0.1 0,0.3 0.1,0.5 0.1,0.2 0.3,0.2 0.4,0.2 0.2,0 0.4,-0.2 0.6,-0.3 l 0.5,-0.3 -0.5,-1 z m 1.2,1.5 -0.4,0.3 c -0.2,0.2 -0.4,0.3 -0.4,0.4 -0.1,0.1 0,0.3 0.1,0.4 0.1,0.2 0.3,0.2 0.4,0.2 0.1,0 0.3,-0.1 0.6,-0.3 l 0.4,-0.3 -0.7,-0.7 z"
         id="path101"
         inkscape:connector-curvature="0"
         style="fill:#e1bd3f" /></g><g
       id="g103"><path
         class="st1"
         d="m 239.9,290.9 c 0.4,0.2 0.8,0.3 1.1,0.2 -0.7,-1.2 -0.5,-2.8 1,-2.8 0.4,0 0.8,0.2 1.1,0.4 l 0.8,-1.1 c -0.3,-1.5 -0.2,-2.5 0.7,-2.5 0.7,0 1.1,0.8 0.6,1.6 l -0.6,0.9 c 0.1,0.4 0.2,0.8 0.3,1.3 0.5,1.9 0.1,3.4 -1.5,3.4 -0.8,0 -1.5,-0.4 -2,-0.9 -0.5,0.1 -1.1,0.1 -1.6,-0.3 l 0.1,-0.2 z m 1.7,-0.1 c 0.1,-0.1 0.3,-0.2 0.4,-0.4 l 0.9,-1.3 c -0.2,-0.1 -0.5,-0.2 -0.7,-0.2 -1,0 -1.1,1.1 -0.6,1.9 z m 0.3,0.4 c 0.3,0.3 0.8,0.5 1.3,0.5 1.1,0 1.4,-1.2 1,-2.8 l -0.2,-0.6 -0.5,0.8 c 0.4,0.6 0.6,1.3 0.2,1.7 l -0.4,-0.3 c 0.2,-0.3 0.2,-0.7 0,-1 l -0.8,1.2 c -0.2,0.2 -0.4,0.4 -0.6,0.5 z m 2.5,-4.3 0.2,-0.3 c 0.4,-0.5 0.2,-0.8 0,-0.8 -0.2,0 -0.3,0.3 -0.2,1.1 z"
         id="path105"
         inkscape:connector-curvature="0"
         style="fill:#dfdfc6" /><path
         class="st1"
         d="m 246.5,290.1 0,0.1 c -0.2,0.6 0.2,1 0.6,1 0.5,0 1.1,-0.5 1.4,-1.2 l 0,-0.1 c 0.1,0 0.3,0.2 0.4,0.3 -0.4,0.8 -1.1,1.5 -1.9,1.5 -0.9,0 -1.5,-0.8 -1.3,-1.6 l 0.4,-1.4 c 0.2,-0.6 0.6,-0.9 1.2,-0.9 0.6,0 1.2,0.6 0.9,1.3 l -0.1,0.2 c -0.2,0.9 -1.1,1 -1.6,0.8 z m 0.1,-0.4 c 0.3,0.1 0.8,0.1 1,-0.5 l 0.1,-0.2 c 0.2,-0.8 -0.6,-1 -0.8,-0.2 l -0.3,0.9 z"
         id="path107"
         inkscape:connector-curvature="0"
         style="fill:#dfdfc6" /><path
         class="st1"
         d="m 250,289 c 0,-0.2 0,-0.3 -0.2,-0.5 l -0.1,-0.1 c -0.4,0.9 -0.5,1.3 -0.8,1.7 -0.1,-0.1 -0.3,-0.2 -0.4,-0.3 0.3,-0.6 0.6,-1.3 0.8,-1.8 l -0.1,-0.1 c -0.4,-0.4 -0.5,-0.8 -0.1,-1.2 l 0.5,0.5 c -0.1,0.2 -0.1,0.3 0.1,0.5 l 0.6,0.5 c 0.3,0.3 0.5,0.6 0.4,1.1 l -0.4,1.4 c -0.1,0.3 0,0.4 0.2,0.4 0.3,0 0.7,-0.5 1.1,-1.2 l 0,-0.1 c 0.1,0 0.3,0.2 0.4,0.3 -0.4,0.8 -0.9,1.5 -1.6,1.5 -0.6,0 -1,-0.5 -0.8,-1.1 L 250,289 Z"
         id="path109"
         inkscape:connector-curvature="0"
         style="fill:#dfdfc6" /><path
         class="st1"
         d="m 252.6,287.7 -0.3,2.7 c -0.1,0.8 0,0.8 0.2,0 l 1,-2.7 0.7,0 -0.7,1.9 c -0.2,0.9 0.5,0.8 0.8,0.3 l 0,-0.1 c 0.1,0 0.3,0.2 0.4,0.3 -0.4,0.8 -1.1,0.7 -1.5,0.2 L 253,291 c -0.3,0.9 -1.6,0.8 -1.4,-0.5 l 0.3,-2.8 0.7,0 z"
         id="path111"
         inkscape:connector-curvature="0"
         style="fill:#dfdfc6" /><path
         class="st1"
         d="m 256.1,289.9 c 0.1,0 0.3,0.2 0.4,0.3 -0.4,0.8 -0.9,1.5 -1.6,1.5 -0.6,0 -1,-0.5 -0.8,-1.1 l 0.8,-2.8 0.8,0 -0.8,3 c -0.1,0.3 0,0.4 0.2,0.4 0.3,0 0.6,-0.6 1,-1.3 l 0,0 z m -0.7,-3.5 c 0.2,0 0.5,0.2 0.6,0.5 0.1,0.3 -0.1,0.5 -0.3,0.5 -0.2,0 -0.5,-0.2 -0.6,-0.5 -0.1,-0.3 0,-0.5 0.3,-0.5 z"
         id="path113"
         inkscape:connector-curvature="0"
         style="fill:#dfdfc6" /><path
         class="st1"
         d="m 256.8,290.2 c -0.2,0.6 0.2,1 0.6,1 0.5,0 1.1,-0.5 1.4,-1.2 l 0,-0.1 c 0.1,0 0.3,0.2 0.4,0.3 -0.4,0.8 -1.1,1.5 -1.9,1.5 -0.9,0 -1.5,-0.8 -1.3,-1.6 l 0.4,-1.4 c 0.2,-0.6 0.6,-0.9 1.2,-0.9 0.6,0 1.2,0.6 0.9,1.3 l -0.1,0.2 -0.6,0 0.1,-0.2 c 0.2,-0.8 -0.6,-1 -0.8,-0.2 l -0.3,1.3 z"
         id="path115"
         inkscape:connector-curvature="0"
         style="fill:#dfdfc6" /><path
         class="st1"
         d="m 259.6,290.1 0,0.1 c -0.2,0.6 0.2,1 0.6,1 0.5,0 1.1,-0.5 1.4,-1.2 l 0,-0.1 c 0.1,0 0.3,0.2 0.4,0.3 -0.4,0.8 -1.1,1.5 -1.9,1.5 -0.9,0 -1.5,-0.8 -1.3,-1.6 l 0.4,-1.4 c 0.2,-0.6 0.6,-0.9 1.2,-0.9 0.6,0 1.2,0.6 0.9,1.3 l -0.1,0.2 c -0.1,0.9 -1,1 -1.6,0.8 z m 0.2,-0.4 c 0.3,0.1 0.8,0.1 1,-0.5 l 0.1,-0.2 c 0.2,-0.8 -0.6,-1 -0.8,-0.2 l -0.3,0.9 z"
         id="path117"
         inkscape:connector-curvature="0"
         style="fill:#dfdfc6" /></g><g
       id="g119"><path
         class="st1"
         d="m 245.4,239.9 1.1,-4.1 0.8,0 -1.6,5.7 c 0.5,-0.3 1,-0.8 1.4,-1.6 l 0,-0.1 c 0.1,0 0.3,0.2 0.4,0.3 -0.6,1.1 -1.2,1.7 -2,1.9 l -0.3,1.1 c -0.3,1 -1.5,0.9 -1.7,0.1 -0.2,-0.6 0.4,-1.1 1.3,-1.4 l 0.1,-0.5 c -1,0.8 -2.2,0.2 -1.7,-1.7 l 0.8,-3.1 c -0.9,0.5 -2.6,0.7 -2.3,1.7 0.1,0.4 0.6,0.6 0.6,0.6 l -0.2,0.5 c -0.4,-0.2 -1,-0.6 -1.1,-1.1 -0.5,-1.7 2,-1.6 3.2,-2.6 l 0.6,0.7 -1,3.7 c -0.2,1.5 1.1,1.5 1.6,-0.1 l 0,0 z m -0.9,3.2 0.2,-0.7 c -0.5,0.3 -0.7,0.5 -0.6,0.7 0,0.3 0.3,0.3 0.4,0 z"
         id="path121"
         inkscape:connector-curvature="0"
         style="fill:#dfdfc6" /><path
         class="st1"
         d="m 247.9,240.1 0,0.1 c -0.2,0.7 0.2,1 0.7,1 0.6,0 1.1,-0.6 1.5,-1.3 l 0,-0.1 c 0.1,0 0.3,0.2 0.4,0.3 -0.4,0.8 -1.1,1.6 -2,1.6 -0.9,0 -1.6,-0.8 -1.3,-1.7 l 0.4,-1.5 c 0.2,-0.6 0.6,-1 1.2,-1 0.6,0 1.2,0.6 1,1.4 l -0.1,0.2 c -0.4,1.1 -1.3,1.2 -1.8,1 z m 0.1,-0.4 c 0.3,0.1 0.8,0.1 1,-0.6 l 0.1,-0.2 c 0.2,-0.9 -0.6,-1 -0.8,-0.2 l -0.3,1 z"
         id="path123"
         inkscape:connector-curvature="0"
         style="fill:#dfdfc6" /><path
         class="st1"
         d="m 253.8,239.9 c 0.1,0 0.3,0.2 0.4,0.3 -0.4,0.8 -1,1.6 -1.6,1.6 -0.4,0 -0.7,-0.2 -0.8,-0.5 -0.3,0.3 -0.6,0.5 -0.9,0.5 -0.6,0 -1,-0.6 -0.9,-1.2 l 0.6,-2 c 0.2,-0.6 0.7,-1 1.1,-1 0.5,0 1,0.5 1.1,0.8 l 0.4,0 -0.6,2.4 c -0.1,0.3 0,0.5 0.2,0.5 0.1,-0.1 0.5,-0.6 1,-1.4 l 0,0 z m -3.2,0.9 c -0.1,0.3 0,0.5 0.2,0.5 0.3,0 0.7,-0.4 1,-1.2 l 0.3,-1.1 c 0.2,-0.8 -0.7,-1 -0.9,-0.2 l -0.6,2 z"
         id="path125"
         inkscape:connector-curvature="0"
         style="fill:#dfdfc6" /><path
         class="st1"
         d="m 255.3,239 c 0,-0.2 0,-0.3 -0.2,-0.5 l -0.1,-0.1 c -0.4,0.9 -0.6,1.3 -0.8,1.8 -0.1,-0.1 -0.3,-0.2 -0.4,-0.3 0.3,-0.6 0.6,-1.4 0.8,-1.9 l -0.1,-0.1 c -0.4,-0.4 -0.5,-0.9 -0.1,-1.3 l 0.5,0.5 c -0.1,0.2 -0.1,0.3 0.1,0.5 l 0.6,0.6 c 0.3,0.3 0.6,0.6 0.4,1.1 l -0.4,1.5 c -0.1,0.3 0,0.5 0.2,0.5 0.3,0 0.8,-0.6 1.1,-1.3 l 0,-0.1 c 0.1,0 0.3,0.2 0.4,0.3 -0.4,0.8 -1,1.6 -1.6,1.6 -0.6,0 -1,-0.6 -0.9,-1.2 l 0.5,-1.6 z"
         id="path127"
         inkscape:connector-curvature="0"
         style="fill:#dfdfc6" /><path
         class="st1"
         d="m 256.9,241.1 0.4,-0.3 c 0,0 0.2,0.3 0.5,0.3 0.7,0 0.2,-1.6 0.2,-2.4 -0.2,0.4 -0.4,1 -0.7,1.5 -0.1,-0.1 -0.3,-0.2 -0.4,-0.3 0.5,-0.9 0.9,-2 1.1,-2.5 l 0.7,0.3 c -0.2,1.1 0.2,2.3 0.2,3.1 0.3,-0.2 0.5,-0.5 0.7,-0.9 l 0,-0.1 c 0.1,0 0.3,0.2 0.4,0.3 -0.4,0.7 -1,1.4 -1.8,1.5 0,0 0,0 0,0 -0.1,0 -0.1,0 -0.2,0 -0.7,0.2 -1.1,-0.5 -1.1,-0.5 z"
         id="path129"
         inkscape:connector-curvature="0"
         style="fill:#dfdfc6" /></g></g></svg>