<?xml version="1.0" encoding="UTF-8" standalone="no"?>
<!-- Generator: Adobe Illustrator 20.0.0, SVG Export Plug-In . SVG Version: 6.00 Build 0)  -->

<svg
   xmlns:dc="http://purl.org/dc/elements/1.1/"
   xmlns:cc="http://creativecommons.org/ns#"
   xmlns:rdf="http://www.w3.org/1999/02/22-rdf-syntax-ns#"
   xmlns:svg="http://www.w3.org/2000/svg"
   xmlns="http://www.w3.org/2000/svg"
   xmlns:sodipodi="http://sodipodi.sourceforge.net/DTD/sodipodi-0.dtd"
   xmlns:inkscape="http://www.inkscape.org/namespaces/inkscape"
   version="1.1"
   id="artwork"
   x="0px"
   y="0px"
   viewBox="0 0 160 100"
   xml:space="preserve"
   inkscape:version="0.91 r13725"
   sodipodi:docname="brand-5.svg"
   width="160"
   height="100"><metadata
     id="metadata147"><rdf:RDF><cc:Work
         rdf:about=""><dc:format>image/svg+xml</dc:format><dc:type
           rdf:resource="http://purl.org/dc/dcmitype/StillImage" /><dc:title></dc:title></cc:Work></rdf:RDF></metadata><defs
     id="defs145" /><sodipodi:namedview
     pagecolor="#ffffff"
     bordercolor="#666666"
     borderopacity="1"
     objecttolerance="10"
     gridtolerance="10"
     guidetolerance="10"
     inkscape:pageopacity="0"
     inkscape:pageshadow="2"
     inkscape:window-width="1920"
     inkscape:window-height="1017"
     id="namedview143"
     showgrid="false"
     fit-margin-bottom="1"
     fit-margin-top="1"
     fit-margin-left="1"
     fit-margin-right="1"
     inkscape:zoom="3.2777778"
     inkscape:cx="84.400683"
     inkscape:cy="30.511864"
     inkscape:window-x="-8"
     inkscape:window-y="-8"
     inkscape:window-maximized="1"
     inkscape:current-layer="artwork" /><style
     type="text/css"
     id="style3">
	.st0{fill:#B0815A;}
	.st1{fill:#DFDFC6;}
	.st2{fill:#1E1817;}
</style><g
     id="g5"
     transform="matrix(0.83725615,0,0,0.83725615,-150.74885,-205.02822)"
     style="fill:#000000;fill-opacity:1"><polygon
       class="st0"
       points="285.3,337.2 275.5,343.4 265.7,337.2 275.5,330.9 "
       id="polygon7"
       style="fill:#000000;fill-opacity:1" /><g
       id="g9"
       style="fill:#000000;fill-opacity:1"><g
         id="g11"
         style="fill:#000000;fill-opacity:1"><g
           id="g13"
           style="fill:#000000;fill-opacity:1"><path
             class="st0"
             d="m 285.8,256.4 c 0,0 -0.6,-0.6 -2,-1.4 -0.3,-0.2 -0.6,-0.3 -0.9,-0.5 -2,-1.1 -3.6,-1.5 -3.7,-1.5 0,0 -0.1,0 -0.1,0 -0.1,0 -0.2,0.1 -0.2,0.1 l -1.5,2.5 c 0,0.1 -0.1,0.2 0,0.2 0,0.1 0.1,0.1 0.1,0.1 0,0 0,0 0.1,0 0.1,0 0.3,0.1 0.5,0.3 -5.7,6.4 -7.5,11.1 -7.5,11.3 0,0.1 0,0.1 0,0.1 0,0 -0.3,0.2 -0.3,0.2 -0.1,0.1 -0.3,0.2 -0.3,0.5 l 0,0 c 0.1,0.7 0.2,1 0.4,1.1 0.2,0.1 0.7,0.2 1.1,0.2 0.2,0 0.5,-0.1 0.6,-0.1 0.5,-0.2 0.7,-0.5 1,-1.1 0.2,-0.5 3.2,-7.2 7.2,-10.6 0.3,0.3 0.5,0.6 0.7,0.8 0.5,0.9 0.3,1.2 0.2,1.4 -0.1,0.1 -0.2,0.2 -0.1,0.4 0,0 0.1,0.1 0.1,0.1 0.1,0.1 0.2,0.1 0.4,0.1 0.2,0 0.5,-0.1 0.7,-0.1 0.4,-0.1 1.1,-0.4 1.8,-1.1 0.7,-0.6 1.2,-1.4 1.4,-1.9 0.2,-0.5 0.3,-1 0.3,-1 0.1,0.1 0.1,0 0,-0.1 z"
             id="path15"
             inkscape:connector-curvature="0"
             style="fill:#000000;fill-opacity:1" /></g></g><g
         id="g17"
         style="fill:#000000;fill-opacity:1"><path
           class="st0"
           d="m 273.8,256 c 0,0 0,0 0,0 0.1,-0.1 0.1,-0.1 0.2,-0.2 0,-0.1 0,-0.2 0,-0.2 l -1.5,-2.5 c -0.1,-0.1 -0.1,-0.1 -0.2,-0.1 0,0 -0.1,0 -0.1,0 0,0 -1.7,0.5 -3.7,1.5 -0.3,0.2 -0.6,0.3 -0.9,0.5 -1.4,0.8 -2,1.4 -2,1.4 -0.1,0.1 -0.1,0.2 -0.1,0.3 0,0 0.1,0.5 0.3,1 0.2,0.5 0.7,1.3 1.4,1.9 0.7,0.6 1.4,0.9 1.8,1.1 0.3,0.1 0.5,0.1 0.7,0.1 0.2,0 0.3,0 0.4,-0.1 0.1,0 0.1,-0.1 0.1,-0.1 0.1,-0.2 0,-0.3 -0.1,-0.4 -0.1,-0.2 -0.4,-0.5 0.2,-1.4 0.2,-0.3 0.4,-0.5 0.7,-0.8 0.9,0.7 1.7,1.6 2.5,2.6 0.5,-0.7 1,-1.4 1.5,-2.1 -0.6,-0.7 -1.2,-1.4 -1.8,-2.2 0.3,-0.2 0.5,-0.3 0.6,-0.3 z m 7.4,11.9 c -0.1,0 -0.3,-0.1 -0.3,-0.2 0,0 0,0 0,-0.1 0,-0.1 -0.8,-2.2 -2.9,-5.5 -0.6,0.8 -1.1,1.6 -1.6,2.4 1.2,2 1.9,3.7 2,4 0.2,0.6 0.4,0.9 1,1.1 0.2,0.1 0.4,0.1 0.6,0.1 0.5,0 1,-0.1 1.1,-0.2 0.2,-0.1 0.3,-0.4 0.4,-1.1 l 0,0 c 0,-0.3 -0.2,-0.4 -0.3,-0.5 z"
           id="path19"
           inkscape:connector-curvature="0"
           style="fill:#000000;fill-opacity:1" /></g></g><g
       id="g21"
       style="fill:#000000;fill-opacity:1"><path
         class="st0"
         d="m 226.6,310.3 2.5,-8.4 -4,0 -0.9,3.1 c -4.1,13.9 -20,5.3 -17.5,-3.3 0.9,-3.1 3.6,-3.3 3.6,-3.3 l 1,2 c 0,0 -1.7,0.5 -2.3,2.4 -1.8,6.1 9.7,11.9 12.9,1 l 2.8,-9.6 c -2.4,1.5 -6.9,1.6 -7.6,3.7 -0.7,2.3 1.9,3.2 1.9,3.2 l -0.5,1.8 c -1.9,-0.7 -4.6,-2.9 -3.7,-6 1.1,-3.9 7.3,-2.5 10.9,-6.3 l 2,2.4 -2.2,7.5 4,0 2,-6.7 c 1.6,-5.5 6.4,-3.5 7.5,-1.3 l -1.5,1 c -1.2,-1.8 -2.9,-1.5 -3.7,1.1 l -4.6,15.6 -2.6,0 z"
         id="path23"
         inkscape:connector-curvature="0"
         style="fill:#000000;fill-opacity:1" /><path
         class="st0"
         d="m 246.9,304.6 c 0.4,0.2 1,0.6 1.2,0.9 -1.5,2.6 -3.3,5 -5.5,5 -1.3,0 -2.4,-0.7 -2.8,-1.8 -1,1.1 -2.1,1.8 -3.2,1.8 -2.1,0 -3.4,-1.9 -2.8,-3.9 l 1.9,-6.6 c 0.6,-2 2.3,-3.1 3.7,-3.1 1.7,0 3.3,1.6 3.5,2.7 l 1.5,0 -2.2,7.7 c -0.3,1.1 0.1,1.5 0.7,1.5 1.2,0 2.5,-1.8 3.8,-4.1 l 0.2,-0.1 z m -10.6,2.8 c -0.3,1.1 0.1,1.5 0.7,1.5 1.1,0 2.3,-1.2 3.2,-3.8 l 1.1,-3.7 c 0.6,-2.5 -2.4,-3.1 -3.1,-0.6 l -1.9,6.6 z"
         id="path25"
         inkscape:connector-curvature="0"
         style="fill:#000000;fill-opacity:1" /><path
         class="st0"
         d="m 259.3,304.6 c 0.4,0.2 1,0.6 1.2,0.9 -1.5,2.6 -3.3,5 -5.5,5 -2.1,0 -3.4,-1.9 -2.8,-3.9 l 1.8,-6.1 c 0.6,-2 -1.4,-2.7 -4,2.5 l -2.1,7.2 -2.7,0 3.8,-13.1 2.6,0 -0.5,1.8 c 0.9,-1.4 2,-2 3.1,-2 1.5,0 3,1.5 2.4,3.6 l -2,6.9 c -0.3,1.1 0.1,1.5 0.7,1.5 1.2,0 2.5,-1.8 3.8,-4.1 l 0.2,-0.2 z"
         id="path27"
         inkscape:connector-curvature="0"
         style="fill:#000000;fill-opacity:1" /><path
         class="st0"
         d="m 271.8,304.6 c 0.4,0.2 1,0.6 1.2,0.9 -1.5,2.6 -3.3,5 -5.5,5 -1.3,0 -2.4,-0.7 -2.8,-1.8 -1,1.1 -2.1,1.8 -3.2,1.8 -2.1,0 -3.4,-1.9 -2.8,-3.9 l 1.9,-6.6 c 0.6,-2 2.3,-3.1 3.7,-3.1 1.1,0 2.1,0.7 2.8,1.4 l 2,-6.9 2.6,0 -4.7,15.9 c -0.3,1.1 0.1,1.5 0.7,1.5 1.2,0 2.5,-1.8 3.8,-4.1 l 0.3,-0.1 z m -10.6,2.8 c -0.3,1.1 0.1,1.5 0.7,1.5 1.1,0 2.4,-1.3 3.3,-4 l 1.1,-3.6 0,0 c 0.6,-2.5 -2.4,-3.1 -3.1,-0.6 l -2,6.7 z"
         id="path29"
         inkscape:connector-curvature="0"
         style="fill:#000000;fill-opacity:1" /><path
         class="st0"
         d="m 274.2,305.7 c -0.6,2.2 0.6,3.2 2.2,3.2 1.9,0 3.8,-1.8 5.1,-4.1 l 0.1,-0.2 c 0.4,0.2 1,0.6 1.2,0.9 -1.5,2.6 -3.8,5 -6.8,5 -3.1,0 -5.3,-2.7 -4.4,-5.6 l 1.5,-4.9 c 0.6,-2 2,-3.1 4.1,-3.1 2.2,0 4,1.9 3.3,4.4 l -0.2,0.7 -2.2,0 0.2,-0.7 c 0.8,-2.8 -2,-3.3 -2.8,-0.6 l -1.3,5 z"
         id="path31"
         inkscape:connector-curvature="0"
         style="fill:#000000;fill-opacity:1" /><path
         class="st0"
         d="m 286.7,301.7 c 0.2,-0.5 -0.1,-1.1 -0.6,-1.5 l -0.5,-0.4 c -1.3,3 -1.9,4.3 -2.8,5.8 -0.5,-0.3 -0.9,-0.6 -1.2,-0.9 1.2,-2.1 2.1,-4.4 2.8,-6.1 l -0.3,-0.3 c -1.3,-1.3 -1.6,-2.8 -0.4,-4.2 l 1.8,1.5 c -0.4,0.5 -0.2,1.1 0.3,1.6 l 2,1.8 c 1.2,1.1 1.8,2 1.4,3.7 l -1.4,4.8 c -0.3,1.1 0.1,1.5 0.7,1.5 1.2,0 2.5,-1.8 3.8,-4.1 l 0.1,-0.2 c 0.4,0.2 1,0.6 1.2,0.9 -1.5,2.6 -3.3,5 -5.5,5 -2.1,0 -3.4,-1.9 -2.8,-3.9 l 1.4,-5 z"
         id="path33"
         inkscape:connector-curvature="0"
         style="fill:#000000;fill-opacity:1" /><path
         class="st0"
         d="m 304.8,304.6 c 0.4,0.2 1,0.6 1.2,0.9 -1.5,2.6 -3.3,5 -5.5,5 -1.3,0 -2.4,-0.7 -2.8,-1.8 -1,1.1 -2.1,1.8 -3.2,1.8 -2.1,0 -3.4,-1.9 -2.8,-3.9 l 1.9,-6.6 c 0.6,-2 2.3,-3.1 3.7,-3.1 1.7,0 3.3,1.6 3.5,2.7 l 1.5,0 -2.2,7.7 c -0.3,1.1 0.1,1.5 0.7,1.5 1.2,0 2.5,-1.8 3.8,-4.1 l 0.2,-0.1 z m -10.5,2.8 c -0.3,1.1 0.1,1.5 0.7,1.5 1.1,0 2.3,-1.2 3.2,-3.8 l 1.1,-3.7 c 0.6,-2.5 -2.4,-3.1 -3.1,-0.6 l -1.9,6.6 z"
         id="path35"
         inkscape:connector-curvature="0"
         style="fill:#000000;fill-opacity:1" /><path
         class="st0"
         d="m 314.3,304.6 c 0.4,0.2 1,0.6 1.2,0.9 -2,3.6 -5.3,4.4 -7.9,4.5 0.5,0.8 0.7,1.8 0.4,2.7 l -1,3.6 c -1.4,5.1 -6.3,2.2 -5.2,-1.4 l 5.7,-19.5 c 1.8,-6.2 8,-4.4 6.4,1 l -2.2,7.6 c -0.7,2.4 -2.5,3.9 -4,4.9 2.1,-0.2 4.7,-1 6.5,-4.1 l 0.1,-0.2 z m -8.4,5.6 -0.2,0 -1.6,5.3 c -0.6,1.9 0.6,2.4 1.1,0.8 l 1.1,-4 c 0.3,-1.1 0.1,-1.9 -0.4,-2.1 z m 0.3,-2 c 1.8,-0.9 3,-3.2 3.6,-5.3 l 2.1,-7.3 c 0.6,-2.5 -1.2,-2.6 -2,0 l -3.7,12.6 z"
         id="path37"
         inkscape:connector-curvature="0"
         style="fill:#000000;fill-opacity:1" /><path
         class="st0"
         d="m 314.4,296 2.4,0 1.3,-4.4 2.6,0 -1.3,4.4 2.2,0 -0.4,1.3 -2.2,0 -2.9,10.2 c -0.3,1.1 0.1,1.5 0.7,1.5 1.2,0 2.5,-1.8 3.8,-4.1 l 0.1,-0.2 c 0.4,0.2 1,0.6 1.2,0.9 -1.5,2.6 -3.3,5 -5.5,5 -2.1,0 -3.4,-1.9 -2.8,-3.9 l 2.8,-9.5 -2.4,0 0.4,-1.2 z"
         id="path39"
         inkscape:connector-curvature="0"
         style="fill:#000000;fill-opacity:1" /><path
         class="st0"
         d="m 323.3,305.2 -0.1,0.5 c -0.6,2.2 0.6,3.2 2.2,3.2 1.9,0 3.8,-1.8 5.1,-4.1 l 0.1,-0.2 c 0.4,0.2 1,0.6 1.2,0.9 -1.5,2.6 -3.8,5 -6.8,5 -3.1,0 -5.3,-2.7 -4.4,-5.6 l 1.5,-4.9 c 0.6,-2 2,-3.1 4.1,-3.1 2.2,0 4,1.9 3.3,4.4 l -0.2,0.7 c -1,3.6 -4.1,3.9 -6,3.2 z m 0.4,-1.3 c 1.1,0.4 2.8,0.4 3.5,-1.8 l 0.2,-0.7 c 0.8,-2.8 -2,-3.3 -2.8,-0.6 l -0.9,3.1 z"
         id="path41"
         inkscape:connector-curvature="0"
         style="fill:#000000;fill-opacity:1" /><path
         class="st0"
         d="m 343.1,304.6 c 0.4,0.2 1,0.6 1.2,0.9 -1.5,2.6 -3.3,5 -5.5,5 -1.3,0 -2.4,-0.7 -2.8,-1.8 -1,1.1 -2.1,1.8 -3.2,1.8 -2.1,0 -3.4,-1.9 -2.8,-3.9 l 1.9,-6.6 c 0.6,-2 2.3,-3.1 3.7,-3.1 1.1,0 2.1,0.7 2.8,1.4 l 2,-6.9 2.6,0 -4.7,15.9 c -0.3,1.1 0.1,1.5 0.7,1.5 1.2,0 2.5,-1.8 3.8,-4.1 l 0.3,-0.1 z m -10.6,2.8 c -0.3,1.1 0.1,1.5 0.7,1.5 1.1,0 2.4,-1.3 3.3,-4 l 1.1,-3.6 0,0 c 0.6,-2.5 -2.4,-3.1 -3.1,-0.6 l -2,6.7 z"
         id="path43"
         inkscape:connector-curvature="0"
         style="fill:#000000;fill-opacity:1" /></g><g
       id="g45"
       style="fill:#000000;fill-opacity:1"><path
         class="st1"
         d="m 206,325.3 -4.6,0 c -3.5,0 -6.3,-2.8 -6.3,-6.3 l 0,-35.1 c 0,-3.5 2.8,-6.3 6.3,-6.3 l 103,0 c 0.5,0 0.8,0.4 0.8,0.8 0,0.5 -0.4,0.8 -0.8,0.8 l -103,0 c -2.6,0 -4.7,2.1 -4.7,4.7 l 0,35.1 c 0,2.6 2.1,4.7 4.7,4.7 l 4.6,0 c 0.5,0 0.8,0.4 0.8,0.8 0,0.4 -0.4,0.8 -0.8,0.8 z"
         id="path47"
         inkscape:connector-curvature="0"
         style="fill:#000000;fill-opacity:1" /></g><g
       id="g49"
       style="fill:#000000;fill-opacity:1"><path
         class="st1"
         d="m 349.8,325.3 -117,0 c -0.5,0 -0.8,-0.4 -0.8,-0.8 0,-0.4 0.4,-0.8 0.8,-0.8 l 117,0 c 2.6,0 4.7,-2.1 4.7,-4.7 l 0,-35.1 c 0,-2.6 -2.1,-4.7 -4.7,-4.7 l -22.1,0 c -0.5,0 -0.8,-0.4 -0.8,-0.8 0,-0.5 0.4,-0.8 0.8,-0.8 l 22.1,0 c 3.5,0 6.3,2.8 6.3,6.3 l 0,35.1 c 0.1,3.5 -2.8,6.3 -6.3,6.3 z"
         id="path51"
         inkscape:connector-curvature="0"
         style="fill:#000000;fill-opacity:1" /></g><g
       id="g53"
       style="fill:#000000;fill-opacity:1"><circle
         class="st1"
         cx="308.29999"
         cy="278.39999"
         r="0.80000001"
         id="circle55"
         style="fill:#000000;fill-opacity:1" /></g><g
       id="g57"
       style="fill:#000000;fill-opacity:1"><circle
         class="st1"
         cx="210.39999"
         cy="324.5"
         r="0.80000001"
         id="circle59"
         style="fill:#000000;fill-opacity:1" /></g><g
       id="g61"
       style="fill:#000000;fill-opacity:1"><path
         class="st1"
         d="m 322.6,279.2 -10.1,0 c -0.5,0 -0.8,-0.4 -0.8,-0.8 0,-0.5 0.4,-0.8 0.8,-0.8 l 10.1,0 c 0.5,0 0.8,0.4 0.8,0.8 0,0.4 -0.4,0.8 -0.8,0.8 z"
         id="path63"
         inkscape:connector-curvature="0"
         style="fill:#000000;fill-opacity:1" /></g><g
       id="g65"
       style="fill:#000000;fill-opacity:1"><path
         class="st1"
         d="m 227.7,325.3 -13.7,0 c -0.5,0 -0.8,-0.4 -0.8,-0.8 0,-0.4 0.4,-0.8 0.8,-0.8 l 13.7,0 c 0.5,0 0.8,0.4 0.8,0.8 0,0.4 -0.3,0.8 -0.8,0.8 z"
         id="path67"
         inkscape:connector-curvature="0"
         style="fill:#000000;fill-opacity:1" /></g><g
       id="g69"
       style="fill:#000000;fill-opacity:1"><path
         class="st1"
         d="m 260.4,338 -4,0 c -0.5,0 -0.8,-0.4 -0.8,-0.8 0,-0.5 0.4,-0.8 0.8,-0.8 l 4,0 c 0.5,0 0.8,0.4 0.8,0.8 0,0.5 -0.3,0.8 -0.8,0.8 z"
         id="path71"
         inkscape:connector-curvature="0"
         style="fill:#000000;fill-opacity:1" /></g><g
       id="g73"
       style="fill:#000000;fill-opacity:1"><path
         class="st1"
         d="m 294.6,338 -4,0 c -0.5,0 -0.8,-0.4 -0.8,-0.8 0,-0.5 0.4,-0.8 0.8,-0.8 l 4,0 c 0.5,0 0.8,0.4 0.8,0.8 0.1,0.5 -0.3,0.8 -0.8,0.8 z"
         id="path75"
         inkscape:connector-curvature="0"
         style="fill:#000000;fill-opacity:1" /></g><g
       id="g77"
       style="fill:#000000;fill-opacity:1"><path
         class="st1"
         d="m 293.1,263.2 c 0.4,0 0.7,-0.2 1,-0.5 l 0.5,0.5 c -0.4,0.5 -0.9,0.7 -1.5,0.7 -0.6,0 -1,-0.2 -1.4,-0.5 -0.4,-0.4 -0.5,-0.8 -0.5,-1.3 0,-0.5 0.2,-1 0.5,-1.3 0.4,-0.4 0.8,-0.5 1.3,-0.5 0.6,0 1.1,0.2 1.5,0.7 l -0.5,0.6 c -0.3,-0.3 -0.6,-0.5 -1,-0.5 -0.3,0 -0.6,0.1 -0.8,0.3 -0.2,0.2 -0.3,0.5 -0.3,0.8 0,0.3 0.1,0.6 0.3,0.8 0.3,0.1 0.6,0.2 0.9,0.2 z"
         id="path79"
         inkscape:connector-curvature="0"
         style="fill:#000000;fill-opacity:1" /><path
         class="st1"
         d="m 298.1,261.5 c 0,0.6 -0.2,1 -0.7,1.1 l 0.9,1.3 -1,0 -0.8,-1.2 -0.5,0 0,1.2 -0.8,0 0,-3.6 1.4,0 c 0.6,0 1,0.1 1.2,0.3 0.2,0.1 0.3,0.5 0.3,0.9 z m -0.9,0.4 c 0.1,-0.1 0.2,-0.2 0.2,-0.4 0,-0.2 -0.1,-0.3 -0.2,-0.4 -0.1,-0.1 -0.3,-0.1 -0.5,-0.1 l -0.7,0 0,1.1 0.6,0 c 0.3,-0.1 0.5,-0.1 0.6,-0.2 z"
         id="path81"
         inkscape:connector-curvature="0"
         style="fill:#000000;fill-opacity:1" /><path
         class="st1"
         d="m 301.5,263.9 -0.3,-0.8 -1.5,0 -0.3,0.8 -0.9,0 1.6,-3.6 0.8,0 1.6,3.6 -1,0 z m -1.1,-2.5 -0.5,1 0.9,0 -0.4,-1 z"
         id="path83"
         inkscape:connector-curvature="0"
         style="fill:#000000;fill-opacity:1" /><path
         class="st1"
         d="m 305.3,260.3 0,0.7 -1.7,0 0,0.8 1.6,0 0,0.7 -1.6,0 0,1.4 -0.8,0 0,-3.6 2.5,0 z"
         id="path85"
         inkscape:connector-curvature="0"
         style="fill:#000000;fill-opacity:1" /><path
         class="st1"
         d="m 307.5,261 0,2.9 -0.8,0 0,-2.9 -1,0 0,-0.7 2.9,0 0,0.7 -1.1,0 z"
         id="path87"
         inkscape:connector-curvature="0"
         style="fill:#000000;fill-opacity:1" /><path
         class="st1"
         d="m 311.7,260.3 0,0.7 -1.8,0 0,0.7 1.6,0 0,0.7 -1.6,0 0,0.7 1.9,0 0,0.7 -2.7,0 0,-3.6 2.6,0 z"
         id="path89"
         inkscape:connector-curvature="0"
         style="fill:#000000;fill-opacity:1" /><path
         class="st1"
         d="m 315.3,260.7 c 0.3,0.3 0.5,0.8 0.5,1.3 0,0.6 -0.2,1 -0.5,1.3 -0.3,0.3 -0.8,0.5 -1.5,0.5 l -1.2,0 0,-3.6 1.3,0 c 0.5,0.1 1,0.2 1.4,0.5 z m -0.6,2.2 c 0.2,-0.2 0.3,-0.5 0.3,-0.8 0,-0.4 -0.1,-0.6 -0.3,-0.8 -0.2,-0.2 -0.5,-0.3 -0.9,-0.3 l -0.5,0 0,2.2 0.5,0 c 0.4,0 0.7,-0.1 0.9,-0.3 z"
         id="path91"
         inkscape:connector-curvature="0"
         style="fill:#000000;fill-opacity:1" /></g><g
       id="g93"
       style="fill:#000000;fill-opacity:1"><path
         class="st1"
         d="m 239.8,346.4 c 0.8,-0.9 1.6,-1.9 2.4,-2.9 0.5,0.2 0.9,0.4 1.4,0.5 -0.1,1.2 -0.1,2.5 -0.2,3.7 0.8,-1 1.6,-1.9 2.4,-2.9 0.5,0.2 1,0.3 1.5,0.5 -1.4,1.7 -2.8,3.4 -4.2,5.1 -0.4,-0.1 -0.7,-0.3 -1.1,-0.4 0,-1.5 0.1,-3 0.2,-4.5 -1,1.2 -1.9,2.3 -2.9,3.4 -0.4,-0.1 -0.7,-0.3 -1.1,-0.4 0.1,-2.2 0.2,-4.4 0.3,-6.6 0.5,0.2 1,0.4 1.4,0.6 0,1.3 0,2.6 -0.1,3.9 z"
         id="path95"
         inkscape:connector-curvature="0"
         style="fill:#000000;fill-opacity:1" /><path
         class="st1"
         d="m 251.8,352.2 c -0.8,0.4 -1.7,0.5 -2.7,0.2 -1,-0.3 -1.7,-0.8 -2.2,-1.6 -0.5,-0.8 -0.6,-1.6 -0.3,-2.5 0.3,-0.9 0.8,-1.5 1.6,-1.9 0.8,-0.4 1.7,-0.4 2.6,-0.2 0.9,0.3 1.6,0.8 2.1,1.5 0.5,0.8 0.6,1.6 0.4,2.4 -0.1,1.1 -0.6,1.7 -1.5,2.1 z m 0.1,-2.3 c 0.1,-0.5 0.1,-1 -0.2,-1.5 -0.3,-0.5 -0.6,-0.8 -1.2,-0.9 -0.5,-0.1 -1,-0.1 -1.5,0.2 -0.5,0.3 -0.8,0.7 -1,1.2 -0.2,0.5 -0.1,1 0.1,1.5 0.3,0.5 0.7,0.8 1.2,1 0.5,0.2 1.1,0.1 1.5,-0.2 0.7,-0.4 1,-0.8 1.1,-1.3 z"
         id="path97"
         inkscape:connector-curvature="0"
         style="fill:#000000;fill-opacity:1" /><path
         class="st1"
         d="m 259.6,353.9 c -0.8,0.5 -1.7,0.6 -2.6,0.4 -1,-0.2 -1.8,-0.7 -2.3,-1.4 -0.5,-0.7 -0.7,-1.6 -0.5,-2.4 0.2,-0.9 0.7,-1.5 1.5,-2 0.8,-0.5 1.6,-0.6 2.5,-0.4 0.9,0.2 1.6,0.6 2.2,1.3 0.5,0.7 0.7,1.5 0.6,2.4 -0.2,0.9 -0.6,1.6 -1.4,2.1 z m -0.1,-2.3 c 0.1,-0.5 0,-1 -0.3,-1.5 -0.3,-0.4 -0.7,-0.7 -1.2,-0.8 -0.5,-0.1 -1,0 -1.5,0.3 -0.4,0.3 -0.7,0.7 -0.8,1.3 -0.1,0.5 0,1 0.3,1.5 0.3,0.5 0.7,0.7 1.3,0.9 0.5,0.1 1.1,0 1.5,-0.3 0.3,-0.5 0.6,-0.9 0.7,-1.4 z"
         id="path99"
         inkscape:connector-curvature="0"
         style="fill:#000000;fill-opacity:1" /><path
         class="st1"
         d="m 267.4,350.4 c 0.6,0.6 0.8,1.4 0.7,2.3 -0.1,1 -0.4,1.7 -1.1,2.2 -0.7,0.5 -1.7,0.7 -2.9,0.5 -0.8,-0.1 -1.5,-0.2 -2.3,-0.3 0.3,-2 0.6,-4.1 0.9,-6.1 0.7,0.1 1.5,0.2 2.2,0.3 1.1,0.1 1.9,0.5 2.5,1.1 z m -1.4,3.5 c 0.4,-0.3 0.6,-0.7 0.7,-1.3 0.1,-0.6 -0.1,-1.1 -0.4,-1.4 -0.3,-0.4 -0.8,-0.6 -1.6,-0.7 -0.3,0 -0.5,-0.1 -0.8,-0.1 -0.2,1.2 -0.3,2.5 -0.5,3.7 0.3,0 0.6,0.1 0.9,0.1 0.7,0.1 1.3,0 1.7,-0.3 z"
         id="path101"
         inkscape:connector-curvature="0"
         style="fill:#000000;fill-opacity:1" /><path
         class="st1"
         d="m 274.8,354.9 c 0.7,0 1.3,-0.3 1.8,-0.8 0.3,0.3 0.6,0.6 1,0.9 -0.7,0.8 -1.7,1.2 -2.7,1.2 -1,0 -1.9,-0.3 -2.5,-1 -0.6,-0.6 -0.9,-1.4 -0.9,-2.3 0,-0.9 0.4,-1.7 1.1,-2.3 0.7,-0.6 1.5,-0.9 2.4,-0.9 1,0 1.9,0.4 2.6,1.1 -0.3,0.3 -0.6,0.7 -0.9,1 -0.5,-0.5 -1,-0.8 -1.7,-0.8 -0.5,0 -1,0.2 -1.4,0.5 -0.4,0.3 -0.6,0.8 -0.6,1.4 0,0.6 0.2,1 0.5,1.4 0.3,0.4 0.8,0.6 1.3,0.6 z"
         id="path103"
         inkscape:connector-curvature="0"
         style="fill:#000000;fill-opacity:1" /><path
         class="st1"
         d="m 283.5,355.8 c -0.2,-0.4 -0.5,-0.9 -0.7,-1.3 -0.9,0.1 -1.9,0.1 -2.8,0.2 -0.2,0.5 -0.4,0.9 -0.6,1.4 -0.5,0 -1.1,0 -1.6,0 0.9,-2.1 1.8,-4.2 2.6,-6.3 0.5,0 0.9,0 1.4,-0.1 1,2 2.2,4 3.3,5.9 -0.5,0.1 -1,0.2 -1.6,0.2 z m -2.2,-4.2 c -0.2,0.6 -0.5,1.2 -0.7,1.8 0.5,0 1.1,-0.1 1.6,-0.1 -0.3,-0.5 -0.6,-1.1 -0.9,-1.7 z"
         id="path105"
         inkscape:connector-curvature="0"
         style="fill:#000000;fill-opacity:1" /><path
         class="st1"
         d="m 290.7,350.8 c 0.2,1 -0.1,1.7 -0.9,2.1 0.7,0.6 1.3,1.3 2,1.9 -0.6,0.1 -1.2,0.2 -1.8,0.3 -0.6,-0.6 -1.2,-1.2 -1.7,-1.7 -0.3,0 -0.7,0.1 -1,0.1 0.1,0.7 0.2,1.3 0.2,2 -0.5,0.1 -1,0.1 -1.5,0.2 -0.2,-2 -0.4,-4.1 -0.6,-6.1 0.8,-0.1 1.6,-0.2 2.4,-0.3 1,-0.1 1.7,-0.1 2.2,0.2 0.3,0.1 0.6,0.6 0.7,1.3 z m -1.6,1 c 0.2,-0.2 0.2,-0.4 0.2,-0.8 0,-0.3 -0.2,-0.5 -0.4,-0.6 -0.2,-0.1 -0.5,-0.1 -1,-0.1 -0.4,0 -0.7,0.1 -1.1,0.1 0.1,0.6 0.1,1.2 0.2,1.8 0.4,0 0.7,-0.1 1.1,-0.1 0.5,0 0.8,-0.1 1,-0.3 z"
         id="path107"
         inkscape:connector-curvature="0"
         style="fill:#000000;fill-opacity:1" /><path
         class="st1"
         d="m 294.8,352 c 0.3,-1.4 0.6,-2.8 0.8,-4.2 0.5,-0.1 1,-0.2 1.5,-0.3 -0.3,2.2 -0.8,4.4 -1.2,6.6 -0.4,0.1 -0.8,0.2 -1.3,0.3 -1.3,-1.8 -2.5,-3.7 -3.7,-5.6 0.5,-0.1 1,-0.2 1.5,-0.3 0.8,1.1 1.6,2.3 2.4,3.5 z"
         id="path109"
         inkscape:connector-curvature="0"
         style="fill:#000000;fill-opacity:1" /><path
         class="st1"
         d="m 297.8,347.2 c 0.5,-0.1 0.9,-0.2 1.4,-0.4 0.5,2 1.1,4 1.6,6 -0.5,0.1 -1,0.3 -1.5,0.4 -0.5,-2 -1,-4 -1.5,-6 z"
         id="path111"
         inkscape:connector-curvature="0"
         style="fill:#000000;fill-opacity:1" /><path
         class="st1"
         d="m 305,345.1 c 0.5,-0.2 0.9,-0.3 1.4,-0.5 0.7,1.9 1.4,3.9 2.1,5.8 -0.5,0.2 -1,0.3 -1.4,0.5 -1.4,-0.9 -2.9,-1.8 -4.2,-2.7 0.4,1.2 0.8,2.5 1.1,3.7 -0.5,0.1 -1,0.3 -1.5,0.4 -0.6,-2 -1.1,-4 -1.7,-5.9 0.4,-0.1 0.9,-0.2 1.3,-0.4 1.4,1 2.8,1.9 4.3,2.8 -0.6,-1.2 -1,-2.4 -1.4,-3.7 z"
         id="path113"
         inkscape:connector-curvature="0"
         style="fill:#000000;fill-opacity:1" /><path
         class="st1"
         d="m 312.9,345.3 c 0.5,-0.2 0.9,-0.4 1.4,-0.6 0.3,0.7 0.6,1.3 0.9,2 -0.3,0.9 -1.1,1.6 -2.2,2.1 -0.9,0.4 -1.8,0.4 -2.7,0.1 -0.9,-0.3 -1.4,-0.9 -1.7,-1.8 -0.3,-0.9 -0.3,-1.7 0.1,-2.5 0.4,-0.8 1,-1.4 1.9,-1.7 0.9,-0.4 1.7,-0.4 2.6,-0.2 -0.1,0.4 -0.2,0.8 -0.3,1.3 -0.4,-0.1 -0.7,-0.1 -0.9,-0.1 -0.3,0 -0.5,0.1 -0.8,0.2 -0.5,0.2 -0.9,0.6 -1.1,1 -0.2,0.5 -0.2,1 0,1.5 0.2,0.5 0.6,0.9 1,1.1 0.5,0.2 1,0.2 1.5,0 0.5,-0.2 0.9,-0.5 1.1,-0.8 -0.4,-0.5 -0.6,-1.1 -0.8,-1.6 z"
         id="path115"
         inkscape:connector-curvature="0"
         style="fill:#000000;fill-opacity:1" /></g><g
       id="g117"
       style="fill:#000000;fill-opacity:1"><path
         class="st1"
         d="m 237.5,263.9 0,-3.6 0.8,0 0,2.9 1.5,0 0,0.7 -2.3,0 z"
         id="path119"
         inkscape:connector-curvature="0"
         style="fill:#000000;fill-opacity:1" /><path
         class="st1"
         d="m 243.4,263.4 c -0.4,0.4 -0.8,0.5 -1.3,0.5 -0.5,0 -1,-0.2 -1.3,-0.5 -0.4,-0.4 -0.5,-0.8 -0.5,-1.3 0,-0.5 0.2,-1 0.5,-1.3 0.4,-0.4 0.8,-0.5 1.3,-0.5 0.5,0 1,0.2 1.3,0.5 0.4,0.4 0.5,0.8 0.5,1.3 0,0.5 -0.2,0.9 -0.5,1.3 z m -0.3,-1.3 c 0,-0.3 -0.1,-0.6 -0.3,-0.8 -0.2,-0.2 -0.5,-0.3 -0.8,-0.3 -0.3,0 -0.6,0.1 -0.8,0.3 -0.2,0.2 -0.3,0.5 -0.3,0.8 0,0.3 0.1,0.6 0.3,0.8 0.2,0.2 0.5,0.3 0.8,0.3 0.3,0 0.6,-0.1 0.8,-0.3 0.2,-0.2 0.3,-0.5 0.3,-0.8 z"
         id="path121"
         inkscape:connector-curvature="0"
         style="fill:#000000;fill-opacity:1" /><path
         class="st1"
         d="m 246.3,263.2 c 0.4,0 0.7,-0.2 1,-0.5 l 0.5,0.5 c -0.4,0.5 -0.9,0.7 -1.5,0.7 -0.6,0 -1,-0.2 -1.4,-0.5 -0.4,-0.4 -0.5,-0.8 -0.5,-1.3 0,-0.5 0.2,-1 0.6,-1.3 0.4,-0.4 0.8,-0.5 1.3,-0.5 0.6,0 1.1,0.2 1.5,0.7 l -0.5,0.6 c -0.3,-0.3 -0.6,-0.5 -1,-0.5 -0.3,0 -0.6,0.1 -0.8,0.3 -0.2,0.2 -0.3,0.5 -0.3,0.8 0,0.3 0.1,0.6 0.3,0.8 0.2,0.1 0.5,0.2 0.8,0.2 z"
         id="path123"
         inkscape:connector-curvature="0"
         style="fill:#000000;fill-opacity:1" /><path
         class="st1"
         d="m 250.9,263.9 -0.3,-0.8 -1.5,0 -0.3,0.8 -0.9,0 1.6,-3.6 0.8,0 1.6,3.6 -1,0 z m -1.1,-2.5 -0.5,1 0.9,0 -0.4,-1 z"
         id="path125"
         inkscape:connector-curvature="0"
         style="fill:#000000;fill-opacity:1" /><path
         class="st1"
         d="m 252.2,263.9 0,-3.6 0.8,0 0,2.9 1.5,0 0,0.7 -2.3,0 z"
         id="path127"
         inkscape:connector-curvature="0"
         style="fill:#000000;fill-opacity:1" /><path
         class="st1"
         d="m 255.1,263.9 0,-3.6 0.8,0 0,2.9 1.5,0 0,0.7 -2.3,0 z"
         id="path129"
         inkscape:connector-curvature="0"
         style="fill:#000000;fill-opacity:1" /><path
         class="st1"
         d="m 259.3,263.9 -0.8,0 0,-1.4 -1.3,-2.2 0.9,0 0.8,1.3 0.8,-1.3 0.9,0 -1.3,2.2 0,1.4 z"
         id="path131"
         inkscape:connector-curvature="0"
         style="fill:#000000;fill-opacity:1" /></g><g
       id="g133"
       style="fill:#000000;fill-opacity:1"><path
         class="st2"
         d="m 272.5,335 1.9,0 0,4.8 -1,0 0,-3.9 -0.9,0 0,-0.9 z"
         id="path135"
         inkscape:connector-curvature="0"
         style="fill:#000000;fill-opacity:1" /><path
         class="st2"
         d="m 278.5,335 0,0.9 -1.9,0 0,0.8 c 0.1,0 0.3,-0.1 0.5,-0.1 0.5,0 0.9,0.1 1.2,0.4 0.3,0.3 0.5,0.7 0.5,1.1 0,0.5 -0.2,0.9 -0.5,1.2 -0.3,0.3 -0.8,0.5 -1.3,0.5 -0.6,0 -1.2,-0.2 -1.6,-0.7 l 0.6,-0.8 c 0,0 0.1,0.1 0.2,0.2 0.1,0.1 0.2,0.1 0.4,0.2 0.2,0.1 0.4,0.1 0.5,0.1 0.1,0 0.3,-0.1 0.5,-0.2 0.1,-0.1 0.2,-0.3 0.2,-0.5 0,-0.2 -0.1,-0.4 -0.2,-0.5 -0.2,-0.1 -0.3,-0.2 -0.6,-0.2 -0.2,0 -0.5,0.1 -0.8,0.3 l -0.4,-0.5 0,-2.2 2.7,0 z"
         id="path137"
         inkscape:connector-curvature="0"
         style="fill:#000000;fill-opacity:1" /></g><g
       id="g139"
       style="fill:#000000;fill-opacity:1"><path
         class="st1"
         d="m 348.6,321.1 -37.4,0 c -0.2,0 -0.3,-0.1 -0.3,-0.3 0,-0.2 0.1,-0.3 0.3,-0.3 l 37.4,0 c 1.7,0 3,-1.4 3,-3 l 0,-32.5 c 0,-1.7 -1.4,-3 -3,-3 l -146,0 c -1.7,0 -3,1.4 -3,3 l 0,32.5 c 0,1.7 1.4,3 3,3 l 94.7,0 c 0.2,0 0.3,0.1 0.3,0.3 0,0.2 -0.1,0.3 -0.3,0.3 l -94.7,0 c -2,0 -3.6,-1.6 -3.6,-3.6 l 0,-32.5 c 0,-2 1.6,-3.6 3.6,-3.6 l 146,0 c 2,0 3.6,1.6 3.6,3.6 l 0,32.5 c 0,2 -1.6,3.6 -3.6,3.6 z"
         id="path141"
         inkscape:connector-curvature="0"
         style="fill:#000000;fill-opacity:1" /></g></g></svg>