<?xml version="1.0" encoding="UTF-8" standalone="no"?>
<!-- Generator: Adobe Illustrator 20.0.0, SVG Export Plug-In . SVG Version: 6.00 Build 0)  -->

<svg
   xmlns:dc="http://purl.org/dc/elements/1.1/"
   xmlns:cc="http://creativecommons.org/ns#"
   xmlns:rdf="http://www.w3.org/1999/02/22-rdf-syntax-ns#"
   xmlns:svg="http://www.w3.org/2000/svg"
   xmlns="http://www.w3.org/2000/svg"
   xmlns:sodipodi="http://sodipodi.sourceforge.net/DTD/sodipodi-0.dtd"
   xmlns:inkscape="http://www.inkscape.org/namespaces/inkscape"
   version="1.1"
   id="artwork"
   x="0px"
   y="0px"
   viewBox="0 0 160 100"
   xml:space="preserve"
   inkscape:version="0.91 r13725"
   sodipodi:docname="brand-3.svg"
   width="160"
   height="100"><metadata
     id="metadata125"><rdf:RDF><cc:Work
         rdf:about=""><dc:format>image/svg+xml</dc:format><dc:type
           rdf:resource="http://purl.org/dc/dcmitype/StillImage" /><dc:title></dc:title></cc:Work></rdf:RDF></metadata><defs
     id="defs123" /><sodipodi:namedview
     pagecolor="#ffffff"
     bordercolor="#666666"
     borderopacity="1"
     objecttolerance="10"
     gridtolerance="10"
     guidetolerance="10"
     inkscape:pageopacity="0"
     inkscape:pageshadow="2"
     inkscape:window-width="1920"
     inkscape:window-height="1017"
     id="namedview121"
     showgrid="false"
     fit-margin-top="1"
     fit-margin-left="1"
     fit-margin-bottom="1"
     fit-margin-right="1"
     inkscape:zoom="4.6354778"
     inkscape:cx="90.974821"
     inkscape:cy="31.454384"
     inkscape:window-x="-8"
     inkscape:window-y="-8"
     inkscape:window-maximized="1"
     inkscape:current-layer="artwork" /><style
     type="text/css"
     id="style3">
	.st0{fill:#E1BD3F;}
	.st1{fill:#DFDFC6;}
</style><g
     id="g5"
     transform="matrix(0.85939806,0,0,0.85939806,-175.28419,-197.46367)"
     style="fill:#000000;fill-opacity:1"><g
       id="g7"
       style="fill:#000000;fill-opacity:1"><path
         class="st0"
         d="m 231,272.9 c 0,8.2 -0.1,16.4 -0.1,24.7 0,0.4 -0.2,0.6 -0.6,0.7 -1.2,0.2 -2.4,0.4 -3.6,0.6 -0.4,0.1 -0.6,-0.1 -0.6,-0.5 0,-3.3 0,-6.7 0,-10 -0.9,0.1 -1.8,0.2 -2.6,0.3 0,3.4 0,6.8 0,10.2 0,0.4 -0.2,0.7 -0.6,0.7 -1.2,0.2 -2.4,0.4 -3.5,0.6 -0.4,0.1 -0.6,-0.1 -0.6,-0.5 0,-8.9 0,-17.7 0,-26.6 0,-0.4 0.2,-0.7 0.6,-0.7 1.2,0 2.4,0 3.6,0 0.4,0 0.6,0.2 0.6,0.6 0,3.4 0,6.9 0,10.3 0.9,-0.1 1.8,-0.1 2.6,-0.2 0,-3.4 0,-6.8 0,-10.2 0,-0.4 0.2,-0.6 0.6,-0.6 1.2,0 2.4,0 3.6,0 0.4,0 0.6,0.2 0.6,0.6 z"
         id="path9"
         inkscape:connector-curvature="0"
         style="fill:#000000;fill-opacity:1" /><path
         class="st0"
         d="m 246.1,295.5 c 0.1,0.4 -0.1,0.6 -0.5,0.6 -1.2,0.1 -2.4,0.3 -3.7,0.5 -0.3,0 -0.5,-0.1 -0.6,-0.5 -0.1,-1.3 -0.2,-2.6 -0.3,-3.9 -0.8,0.1 -1.7,0.2 -2.5,0.3 -0.1,1.4 -0.2,2.7 -0.3,4.1 -0.1,0.4 -0.3,0.6 -0.6,0.7 -1.2,0.2 -2.4,0.4 -3.6,0.5 -0.4,0.1 -0.5,-0.1 -0.5,-0.5 1,-8.2 2.1,-16.3 3.1,-24.3 0.1,-0.4 0.3,-0.6 0.6,-0.6 1.8,0 3.5,0 5.3,0 0.4,0 0.6,0.2 0.6,0.6 1.1,7.5 2.1,15.1 3,22.5 z m -5.3,-7.9 c -0.2,-3 -0.5,-6 -0.7,-9 -0.1,0 -0.2,0 -0.3,0 -0.3,3 -0.5,6.1 -0.8,9.1 0.5,0 1.2,0 1.8,-0.1 z"
         id="path11"
         inkscape:connector-curvature="0"
         style="fill:#000000;fill-opacity:1" /><path
         class="st0"
         d="m 261.8,272.8 c 0,7 -0.1,14.1 -0.1,21.1 0,0.3 -0.2,0.5 -0.6,0.6 -0.9,0.1 -1.7,0.1 -2.6,0.2 -0.2,0 -0.3,0 -0.5,-0.1 -0.1,-0.1 -0.2,-0.2 -0.3,-0.3 -1.4,-3.1 -2.8,-6.3 -4.2,-9.6 0,3.3 0,6.6 -0.1,9.9 0,0.4 -0.2,0.6 -0.6,0.6 -1.2,0.1 -2.4,0.3 -3.6,0.4 -0.4,0 -0.6,-0.1 -0.6,-0.5 0,-7.4 0.1,-14.9 0.1,-22.3 0,-0.4 0.2,-0.5 0.6,-0.5 0.9,0 1.8,0 2.7,0 0.2,0 0.3,0.1 0.5,0.2 0.1,0.1 0.2,0.2 0.3,0.3 1.4,3.7 2.7,7.4 4.1,10.9 0,-3.6 0,-7.3 0.1,-10.9 0,-0.4 0.2,-0.5 0.6,-0.5 1.2,0 2.4,0 3.6,0 0.4,0 0.6,0.1 0.6,0.5 z"
         id="path13"
         inkscape:connector-curvature="0"
         style="fill:#000000;fill-opacity:1" /><path
         class="st0"
         d="m 272,272.3 c 0.7,0 1.4,0.1 2,0.4 0.6,0.2 1.2,0.6 1.6,1 0.5,0.4 0.8,0.9 1.1,1.4 0.3,0.5 0.4,1.1 0.4,1.7 0,4.1 0,8.2 0,12.3 0,0.6 -0.1,1.2 -0.4,1.7 -0.3,0.6 -0.6,1 -1.1,1.5 -0.5,0.4 -1,0.8 -1.6,1 -0.6,0.3 -1.3,0.4 -2,0.5 -2,0.1 -4,0.3 -6,0.4 -0.4,0 -0.6,-0.1 -0.6,-0.5 0,-7 0.1,-13.9 0.1,-20.9 0,-0.3 0.2,-0.5 0.6,-0.5 1.8,0 3.9,0 5.9,0 z m 0.3,4.6 c 0,-0.2 -0.1,-0.4 -0.3,-0.6 -0.2,-0.2 -0.4,-0.2 -0.7,-0.2 -0.4,0 -0.9,0 -1.3,0 0,4.6 0,9.2 -0.1,13.9 0.4,0 0.9,0 1.3,-0.1 0.3,0 0.5,-0.1 0.7,-0.3 0.2,-0.2 0.3,-0.4 0.3,-0.6 0.1,-4 0.1,-8 0.1,-12.1 z"
         id="path15"
         inkscape:connector-curvature="0"
         style="fill:#000000;fill-opacity:1" /><path
         class="st0"
         d="m 288.4,272.4 c 0.6,0.2 1.2,0.5 1.6,0.9 0.4,0.4 0.8,0.9 1.1,1.4 0.3,0.5 0.4,1.1 0.4,1.7 0,0.7 0,1.4 0,2.1 0,0.3 -0.2,0.5 -0.5,0.6 -1.2,0.2 -2.4,0.3 -3.7,0.5 -0.3,0.1 -0.5,0 -0.5,-0.3 0,-0.9 0,-1.8 0,-2.7 0,-0.2 -0.1,-0.4 -0.3,-0.6 -0.2,-0.2 -0.4,-0.2 -0.7,-0.2 -0.1,0 -0.2,0 -0.3,0 -0.3,0 -0.5,0.1 -0.7,0.2 -0.2,0.2 -0.3,0.4 -0.3,0.6 0,4.1 0,8.2 0,12.3 0,0.2 0.1,0.4 0.3,0.6 0.2,0.2 0.4,0.2 0.7,0.2 0.1,0 0.2,0 0.3,0 0.3,0 0.5,-0.1 0.7,-0.3 0.2,-0.2 0.3,-0.4 0.3,-0.6 0,-1.4 0,-2.8 0,-4.2 0,-0.3 0.2,-0.4 0.5,-0.4 1.2,0.1 2.4,0.2 3.7,0.4 0.3,0.1 0.5,0.3 0.5,0.6 0,1.2 0,2.4 0,3.6 0,0.6 -0.1,1.2 -0.4,1.7 -0.3,0.5 -0.6,1 -1.1,1.4 -0.5,0.4 -1,0.7 -1.6,1 -0.6,0.2 -1.3,0.4 -2,0.4 -0.5,0 -1,0 -1.5,0 -0.7,0 -1.4,-0.1 -2,-0.3 -0.6,-0.2 -1.2,-0.5 -1.6,-0.9 -0.5,-0.4 -0.8,-0.8 -1.1,-1.4 -0.3,-0.5 -0.4,-1.1 -0.4,-1.7 0,-4.2 0,-8.5 0,-12.7 0,-0.6 0.1,-1.2 0.4,-1.7 0.3,-0.5 0.6,-1 1.1,-1.4 0.5,-0.4 1,-0.7 1.6,-0.9 0.6,-0.2 1.3,-0.3 2,-0.3 0.5,0 1,0 1.5,0 0.7,0 1.4,0.1 2,0.4 z"
         id="path17"
         inkscape:connector-curvature="0"
         style="fill:#000000;fill-opacity:1" /><path
         class="st0"
         d="m 299.2,292.5 c 0,0.3 -0.2,0.5 -0.6,0.5 -1.2,0 -2.4,0 -3.6,0 -0.4,0 -0.5,-0.2 -0.5,-0.5 0,-6.6 0,-13.2 0,-19.7 0,-0.3 0.2,-0.5 0.6,-0.5 2,0 4,0 6,0 0.7,0 1.4,0.1 2,0.3 0.6,0.2 1.2,0.5 1.6,0.9 0.5,0.4 0.8,0.9 1.1,1.4 0.3,0.5 0.4,1.1 0.4,1.7 0,1.4 0,2.8 0,4.3 0,0.9 -0.3,1.6 -0.9,2.3 -0.6,0.7 -1.3,1.2 -2.1,1.6 1.3,2.6 2.6,5.2 3.8,7.8 0.1,0.3 -0.1,0.5 -0.4,0.5 -1.2,0 -2.4,-0.1 -3.7,-0.1 -0.2,0 -0.3,0 -0.5,-0.1 -0.1,-0.1 -0.2,-0.2 -0.3,-0.3 -1,-2.1 -2,-4.3 -3,-6.4 0.1,2 0.1,4.1 0.1,6.3 z m 0,-11 c 0.4,0 0.9,0 1.3,0 0.3,0 0.5,-0.1 0.7,-0.2 0.2,-0.2 0.3,-0.4 0.3,-0.6 0,-1.3 0,-2.6 0,-3.9 0,-0.2 -0.1,-0.4 -0.3,-0.6 -0.2,-0.2 -0.4,-0.2 -0.7,-0.2 -0.4,0 -0.9,0 -1.3,0 0,1.8 0,3.6 0,5.5 z"
         id="path19"
         inkscape:connector-curvature="0"
         style="fill:#000000;fill-opacity:1" /><path
         class="st0"
         d="m 321.4,293.1 c 0.1,0.3 -0.1,0.5 -0.5,0.5 -1.2,-0.1 -2.4,-0.1 -3.7,-0.2 -0.4,0 -0.6,-0.2 -0.6,-0.5 -0.1,-1.2 -0.2,-2.3 -0.3,-3.5 -0.8,0 -1.7,-0.1 -2.5,-0.1 -0.1,1.1 -0.2,2.3 -0.3,3.4 -0.1,0.3 -0.3,0.5 -0.6,0.5 -1.2,0 -2.4,-0.1 -3.7,-0.1 -0.4,0 -0.5,-0.2 -0.5,-0.5 1,-6.6 2,-13.2 3,-19.9 0.1,-0.3 0.3,-0.5 0.6,-0.5 1.8,0 3.5,0 5.3,0 0.4,0 0.6,0.2 0.6,0.5 1.1,6.8 2.1,13.6 3.2,20.4 z m -5.4,-7.6 c -0.3,-2.6 -0.5,-5.2 -0.8,-7.8 -0.1,0 -0.2,0 -0.3,0 -0.2,2.6 -0.5,5.2 -0.7,7.7 0.5,0.1 1.1,0.1 1.8,0.1 z"
         id="path21"
         inkscape:connector-curvature="0"
         style="fill:#000000;fill-opacity:1" /><path
         class="st0"
         d="m 333.8,272.8 c 0,1.1 0,2.2 0,3.3 0,0.3 -0.2,0.5 -0.6,0.5 -1.5,0 -3.1,-0.1 -4.6,-0.1 0,1.4 0,2.8 0,4.2 1.3,0 2.7,0.1 4,0.1 0.4,0 0.6,0.2 0.6,0.5 0,1.1 0,2.2 0,3.3 0,0.3 -0.2,0.5 -0.6,0.5 -1.3,-0.1 -2.7,-0.1 -4,-0.2 0,2.9 0,5.8 0,8.7 0,0.3 -0.2,0.5 -0.6,0.5 -1.2,-0.1 -2.4,-0.2 -3.6,-0.3 -0.4,0 -0.6,-0.2 -0.6,-0.5 0,-6.8 -0.1,-13.7 -0.1,-20.5 0,-0.3 0.2,-0.5 0.6,-0.5 2.9,0 5.8,0 8.7,0 0.6,0 0.8,0.1 0.8,0.5 z"
         id="path23"
         inkscape:connector-curvature="0"
         style="fill:#000000;fill-opacity:1" /><path
         class="st0"
         d="m 347.5,272.8 c 0,1.2 0,2.3 0,3.5 0,0.4 -0.2,0.5 -0.6,0.5 -1,0 -1.9,0 -2.9,-0.1 0,6.1 0.1,12.1 0.1,18.2 0,0.4 -0.2,0.5 -0.6,0.5 -1.2,-0.1 -2.4,-0.3 -3.6,-0.4 -0.1,0 -0.3,-0.1 -0.4,-0.2 -0.1,-0.1 -0.2,-0.2 -0.2,-0.4 0,-5.9 -0.1,-11.9 -0.1,-17.8 -0.9,0 -1.9,0 -2.8,-0.1 -0.4,0 -0.6,-0.2 -0.6,-0.5 0,-1.1 0,-2.2 0,-3.3 0,-0.3 0.2,-0.5 0.6,-0.5 3.5,0 6.9,0 10.4,0 0.5,0.1 0.7,0.3 0.7,0.6 z"
         id="path25"
         inkscape:connector-curvature="0"
         style="fill:#000000;fill-opacity:1" /><path
         class="st0"
         d="m 360.2,293.3 c 0,1.3 0,2.5 0,3.8 0,0.4 -0.2,0.6 -0.6,0.5 -2.9,-0.4 -5.8,-0.8 -8.7,-1.2 -0.4,0 -0.6,-0.3 -0.6,-0.6 0,-7.6 -0.1,-15.3 -0.1,-22.9 0,-0.4 0.2,-0.6 0.6,-0.6 2.9,0 5.8,0 8.7,0 0.4,0 0.6,0.2 0.6,0.6 0,1.3 0,2.5 0,3.8 0,0.4 -0.2,0.6 -0.6,0.6 -1.5,0 -3.1,-0.1 -4.6,-0.1 0,1.6 0,3.1 0,4.7 1.3,0.1 2.7,0.1 4,0.2 0.4,0 0.6,0.2 0.6,0.6 0,1.3 0,2.5 0,3.8 0,0.4 -0.2,0.6 -0.6,0.5 -1.3,-0.1 -2.6,-0.2 -4,-0.3 0,1.9 0,3.7 0,5.5 1.5,0.2 3,0.3 4.6,0.5 0.6,0 0.7,0.3 0.7,0.6 z"
         id="path27"
         inkscape:connector-curvature="0"
         style="fill:#000000;fill-opacity:1" /><path
         class="st0"
         d="m 370.2,272.3 c 0.7,0 1.4,0.2 2,0.5 0.6,0.3 1.2,0.7 1.6,1.3 0.5,0.5 0.8,1.2 1.1,1.9 0.3,0.7 0.4,1.5 0.4,2.3 0,5.4 0,10.8 0,16.2 0,0.8 -0.1,1.5 -0.4,2.2 -0.3,0.7 -0.6,1.2 -1.1,1.7 -0.5,0.4 -1,0.8 -1.6,1 -0.6,0.2 -1.3,0.2 -2,0.1 -2,-0.4 -4,-0.7 -6,-1 -0.4,-0.1 -0.6,-0.3 -0.6,-0.7 0,-8.2 -0.1,-16.5 -0.1,-24.7 0,-0.4 0.2,-0.6 0.6,-0.6 2.1,-0.2 4.1,-0.2 6.1,-0.2 z m 0.3,5.9 c 0,-0.3 -0.1,-0.6 -0.3,-0.8 -0.2,-0.2 -0.4,-0.3 -0.7,-0.3 -0.4,0 -0.9,0 -1.3,0 0,5.7 0,11.4 0,17.2 0.4,0.1 0.9,0.1 1.3,0.2 0.3,0 0.5,0 0.7,-0.2 0.2,-0.2 0.3,-0.4 0.3,-0.7 0.1,-5.2 0.1,-10.3 0,-15.4 z"
         id="path29"
         inkscape:connector-curvature="0"
         style="fill:#000000;fill-opacity:1" /></g><g
       id="g31"
       style="fill:#000000;fill-opacity:1"><path
         class="st1"
         d="m 258.1,301.6 0,1.3 -3,0 0,1.4 2.8,0 0,1.3 -2.8,0 0,2.5 -1.4,0 0,-6.4 4.4,0 z"
         id="path33"
         inkscape:connector-curvature="0"
         style="fill:#000000;fill-opacity:1" /><path
         class="st1"
         d="m 260.2,301.6 1.4,0 0,6.4 -1.4,0 0,-6.4 z"
         id="path35"
         inkscape:connector-curvature="0"
         style="fill:#000000;fill-opacity:1" /><path
         class="st1"
         d="m 268.6,301.6 1.4,0 0,6.4 -1.4,0 -3.1,-4 0,4 -1.4,0 0,-6.4 1.3,0 3.1,4.1 0,-4.1 z"
         id="path37"
         inkscape:connector-curvature="0"
         style="fill:#000000;fill-opacity:1" /><path
         class="st1"
         d="m 277.2,301.6 0,1.3 -3.2,0 0,1.3 2.9,0 0,1.2 -2.9,0 0,1.3 3.3,0 0,1.3 -4.7,0 0,-6.4 4.6,0 z"
         id="path39"
         inkscape:connector-curvature="0"
         style="fill:#000000;fill-opacity:1" /><path
         class="st1"
         d="m 287.2,302.2 c 0.4,0.4 0.7,1 0.7,1.8 0,0.8 -0.2,1.4 -0.7,1.7 -0.5,0.4 -1.2,0.5 -2.1,0.5 l -0.9,0 0,1.8 -1.4,0 0,-6.4 2.3,0 c 1,0 1.7,0.2 2.1,0.6 z m -1,2.5 c 0.2,-0.2 0.3,-0.5 0.3,-0.8 0,-0.4 -0.1,-0.6 -0.3,-0.8 -0.2,-0.2 -0.6,-0.2 -1,-0.2 l -0.8,0 0,2.2 1,0 c 0.3,-0.1 0.6,-0.2 0.8,-0.4 z"
         id="path41"
         inkscape:connector-curvature="0"
         style="fill:#000000;fill-opacity:1" /><path
         class="st1"
         d="m 295.1,303.7 c 0,1 -0.4,1.7 -1.2,2 l 1.6,2.3 -1.8,0 -1.4,-2 -1,0 0,2 -1.4,0 0,-6.4 2.4,0 c 1,0 1.7,0.2 2.1,0.5 0.5,0.4 0.7,0.9 0.7,1.6 z m -1.7,0.8 c 0.2,-0.2 0.3,-0.4 0.3,-0.8 0,-0.3 -0.1,-0.6 -0.3,-0.7 -0.2,-0.1 -0.5,-0.2 -1,-0.2 l -1.1,0 0,1.9 1,0 c 0.6,0 0.9,0 1.1,-0.2 z"
         id="path43"
         inkscape:connector-curvature="0"
         style="fill:#000000;fill-opacity:1" /><path
         class="st1"
         d="m 302.8,307.1 c -0.6,0.6 -1.4,0.9 -2.4,0.9 -0.9,0 -1.7,-0.3 -2.4,-0.9 -0.6,-0.6 -1,-1.4 -1,-2.4 0,-0.9 0.3,-1.7 1,-2.4 0.6,-0.6 1.4,-0.9 2.4,-0.9 0.9,0 1.7,0.3 2.4,0.9 0.6,0.6 1,1.4 1,2.4 0,1 -0.3,1.8 -1,2.4 z m -0.4,-2.3 c 0,-0.6 -0.2,-1.1 -0.6,-1.5 -0.4,-0.4 -0.8,-0.6 -1.4,-0.6 -0.5,0 -1,0.2 -1.4,0.6 -0.4,0.4 -0.5,0.9 -0.5,1.5 0,0.6 0.2,1.1 0.5,1.5 0.4,0.4 0.8,0.6 1.4,0.6 0.5,0 1,-0.2 1.4,-0.6 0.4,-0.5 0.6,-0.9 0.6,-1.5 z"
         id="path45"
         inkscape:connector-curvature="0"
         style="fill:#000000;fill-opacity:1" /><path
         class="st1"
         d="m 310.8,302.5 c 0.6,0.6 0.9,1.3 0.9,2.3 0,1 -0.3,1.8 -0.9,2.4 -0.6,0.6 -1.5,0.9 -2.7,0.9 l -2.2,0 0,-6.4 2.3,0 c 1.2,-0.1 2,0.2 2.6,0.8 z m -1,3.8 c 0.4,-0.3 0.5,-0.8 0.5,-1.4 0,-0.6 -0.2,-1.1 -0.5,-1.5 -0.4,-0.3 -0.9,-0.5 -1.6,-0.5 l -0.8,0 0,3.9 0.9,0 c 0.6,0 1.1,-0.2 1.5,-0.5 z"
         id="path47"
         inkscape:connector-curvature="0"
         style="fill:#000000;fill-opacity:1" /><path
         class="st1"
         d="m 315.6,306.4 c 0.2,0.3 0.6,0.4 1,0.4 0.4,0 0.7,-0.1 1,-0.4 0.2,-0.3 0.4,-0.7 0.4,-1.2 l 0,-3.5 1.4,0 0,3.6 c 0,0.9 -0.3,1.6 -0.8,2.1 -0.5,0.5 -1.2,0.7 -2,0.7 -0.8,0 -1.5,-0.3 -2,-0.8 -0.5,-0.5 -0.8,-1.2 -0.8,-2.1 l 0,-3.6 1.4,0 0,3.5 c 0,0.6 0.2,1 0.4,1.3 z"
         id="path49"
         inkscape:connector-curvature="0"
         style="fill:#000000;fill-opacity:1" /><path
         class="st1"
         d="m 324.7,306.8 c 0.7,0 1.3,-0.3 1.7,-0.8 l 0.9,0.9 c -0.7,0.8 -1.6,1.2 -2.6,1.2 -1,0 -1.8,-0.3 -2.4,-0.9 -0.6,-0.6 -1,-1.4 -1,-2.4 0,-1 0.3,-1.7 1,-2.4 0.7,-0.6 1.4,-1 2.4,-1 1.1,0 1.9,0.4 2.6,1.2 l -0.9,1 c -0.5,-0.6 -1,-0.8 -1.7,-0.8 -0.5,0 -1,0.2 -1.4,0.5 -0.4,0.4 -0.6,0.8 -0.6,1.4 0,0.6 0.2,1.1 0.5,1.4 0.5,0.5 0.9,0.7 1.5,0.7 z"
         id="path51"
         inkscape:connector-curvature="0"
         style="fill:#000000;fill-opacity:1" /><path
         class="st1"
         d="m 332.1,302.9 0,5.2 -1.4,0 0,-5.2 -1.8,0 0,-1.2 5.1,0 0,1.2 -1.9,0 z"
         id="path53"
         inkscape:connector-curvature="0"
         style="fill:#000000;fill-opacity:1" /><path
         class="st1"
         d="m 337.3,302.9 c -0.1,0.1 -0.2,0.3 -0.2,0.4 0,0.2 0.1,0.3 0.3,0.4 0.2,0.1 0.6,0.2 1.2,0.4 0.6,0.1 1.1,0.4 1.4,0.7 0.3,0.3 0.5,0.7 0.5,1.3 0,0.6 -0.2,1 -0.6,1.4 -0.4,0.4 -1,0.5 -1.7,0.5 -1,0 -1.9,-0.4 -2.7,-1.1 l 0.9,-1 c 0.7,0.6 1.3,0.9 1.9,0.9 0.3,0 0.5,-0.1 0.6,-0.2 0.2,-0.1 0.2,-0.3 0.2,-0.5 0,-0.2 -0.1,-0.3 -0.2,-0.5 -0.2,-0.1 -0.5,-0.2 -0.9,-0.3 -0.7,-0.2 -1.3,-0.4 -1.6,-0.7 -0.3,-0.3 -0.5,-0.7 -0.5,-1.3 0,-0.6 0.2,-1.1 0.7,-1.4 0.4,-0.3 1,-0.5 1.6,-0.5 0.4,0 0.9,0.1 1.3,0.2 0.4,0.1 0.8,0.4 1.1,0.6 l -0.7,1 c -0.6,-0.4 -1.1,-0.6 -1.7,-0.6 -0.6,0.1 -0.8,0.2 -0.9,0.3 z"
         id="path55"
         inkscape:connector-curvature="0"
         style="fill:#000000;fill-opacity:1" /></g><g
       id="g57"
       style="fill:#000000;fill-opacity:1"><path
         class="st1"
         d="m 259.1,251.5 c -0.4,1.5 -0.8,4 -0.8,5.2 0,0.4 0.1,0.4 0.1,0.8 -0.6,0 -0.8,-0.3 -0.8,-1 0,-1.5 0.4,-3.1 0.9,-4.9 -0.9,1.1 -2.1,4 -2.5,5.1 -0.1,0 -0.1,0 -0.1,0 -0.3,0 -0.4,-0.4 -0.4,-1.1 0,-1 0.1,-2.9 0.1,-3.9 0,-0.2 0,-0.4 0,-0.5 -2,4.6 -2.5,6.3 -3.2,6.3 0.1,-0.3 1.4,-3.1 2.9,-6.4 0,-0.1 0.1,-0.2 0.1,-0.4 0,-0.1 -0.1,-0.2 -0.3,-0.2 -0.8,0 -1.1,0.9 -1.1,1.7 0,0.1 0,0.2 0,0.3 -0.3,0 -0.5,-0.4 -0.5,-0.8 0,-0.8 1,-1.5 1.8,-1.5 0.6,0 0.9,0.4 0.9,2.1 0,1.1 -0.2,2.6 -0.2,3.6 0.5,-1.9 2.2,-4.6 2.6,-5.2 0.2,-0.2 0.3,-0.4 0.5,-0.4 0.1,0 0.2,0 0.3,0.1 0.1,0.1 -0.1,0.5 -0.3,1.1 z"
         id="path59"
         inkscape:connector-curvature="0"
         style="fill:#000000;fill-opacity:1" /><path
         class="st1"
         d="m 262.3,255 c 0,0.2 -0.5,0.8 -0.5,1.3 0,0.2 0.1,0.4 0.3,0.4 0.3,0 0.9,-0.5 1.5,-1.4 l 0.1,0.1 c -0.4,1 -1.2,1.7 -1.8,1.7 -0.4,0 -0.7,-0.3 -0.7,-0.6 0,-0.1 0,-0.2 0,-0.3 -0.5,0.7 -0.9,1.1 -1.4,1.1 -0.4,0 -0.7,-0.2 -0.7,-0.8 0,-1.1 1.3,-2.8 2.5,-2.8 0.5,0 0.8,0.3 0.8,0.7 0,0.3 -0.2,0.4 -0.4,0.4 0,-0.1 0,-0.2 0,-0.3 0,-0.3 -0.1,-0.5 -0.5,-0.5 -0.9,0 -1.9,1.7 -1.9,2.6 0,0.2 0.1,0.4 0.2,0.4 0.6,0 1.5,-1.3 1.9,-2 0.4,-0.2 0.6,-0.2 0.6,0 z"
         id="path61"
         inkscape:connector-curvature="0"
         style="fill:#000000;fill-opacity:1" /><path
         class="st1"
         d="m 265.7,253.6 c -1,0 -1.9,1.7 -1.9,2.4 0,0.3 0.1,0.4 0.3,0.4 0.5,0 1.4,-1 2,-2.5 0.7,-1.8 1.5,-3.9 2,-3.9 0.1,0 0.2,0.1 0.2,0.2 0,0.6 -2.1,3.9 -2.1,5.7 0,0.3 0,0.5 0.2,0.5 0.4,0 1,-0.5 1.4,-1.4 l 0.1,0.1 c -0.4,0.9 -1.2,1.6 -1.8,1.6 -0.5,0 -0.6,-0.4 -0.6,-0.7 0,-0.2 0.1,-0.6 0.2,-1 -0.6,1 -1.3,1.7 -1.9,1.7 -0.3,0 -0.7,-0.2 -0.7,-0.8 0,-1 1.3,-2.8 2.5,-2.8 0.3,0 0.4,0.1 0.4,0.3 0,0 0,0.1 0,0.1 0,0.2 -0.1,0.1 -0.3,0.1 z"
         id="path63"
         inkscape:connector-curvature="0"
         style="fill:#000000;fill-opacity:1" /><path
         class="st1"
         d="m 268.2,255.7 c 0,0.1 0,0.2 0,0.3 0,0.4 0.2,0.8 0.7,0.8 0.8,0 1.6,-0.7 2.1,-1.6 l 0.1,0.1 c -0.5,1.1 -1.4,1.8 -2.4,1.8 -0.7,0 -1.1,-0.5 -1.1,-1.1 0,-1.1 1.2,-2.6 2.3,-2.6 0.3,0 0.6,0.1 0.6,0.6 0,0.9 -1.2,1.6 -2.3,1.7 z m 0.1,-0.2 c 0.7,-0.2 1.8,-0.9 1.8,-1.7 0,-0.1 0,-0.2 -0.2,-0.2 -0.6,0.1 -1.4,1.1 -1.6,1.9 z"
         id="path65"
         inkscape:connector-curvature="0"
         style="fill:#000000;fill-opacity:1" /><path
         class="st1"
         d="m 274.8,253.8 c 0,0.3 -1,1.4 -1,2.3 0,0.4 0.1,0.5 0.4,0.5 0.4,0 0.9,-0.4 1.4,-1.4 l 0.1,0.1 c -0.4,1.1 -1.1,1.6 -1.8,1.6 -0.5,0 -0.7,-0.3 -0.7,-0.8 0,-0.7 0.7,-2.6 1.3,-2.6 0.2,0.1 0.3,0.1 0.3,0.3 z m -0.1,-1.4 c 0,-0.3 0.4,-0.5 0.7,-0.5 0.2,0 0.3,0.1 0.3,0.3 0,0.2 -0.3,0.5 -0.6,0.5 -0.2,0 -0.4,-0.1 -0.4,-0.3 z"
         id="path67"
         inkscape:connector-curvature="0"
         style="fill:#000000;fill-opacity:1" /><path
         class="st1"
         d="m 275.9,254.4 c 0.1,-0.1 0.2,-0.2 0.4,-0.2 0.2,0 0.2,0.1 0.2,0.2 0,0.2 -0.1,0.7 -0.3,1.2 0.5,-0.7 1.2,-1.6 1.9,-1.6 0.5,0 0.7,0.4 0.7,0.8 0,0.6 -0.4,1 -0.4,1.4 0,0.3 0.1,0.3 0.3,0.3 0.5,0 0.9,-0.8 1.3,-1.4 l 0.1,0.1 c -0.4,0.9 -0.9,1.5 -1.6,1.5 -0.4,0 -0.6,-0.2 -0.6,-0.6 0,-0.4 0.3,-0.8 0.3,-1.3 0,-0.3 -0.2,-0.4 -0.4,-0.4 -0.8,0 -1.6,1.5 -2.1,2.3 -0.2,0 -0.4,-0.1 -0.5,-0.2 0,0 0.7,-1.3 0.7,-2.1 z"
         id="path69"
         inkscape:connector-curvature="0"
         style="fill:#000000;fill-opacity:1" /><path
         class="st1"
         d="m 284.4,253.9 c 0.3,0 0.7,0 1.2,-0.1 0.6,-1.7 1.7,-3.6 2.2,-3.6 0.2,0 0.3,0.3 0.3,0.6 0,0.9 -0.9,2.5 -2,3.2 -0.2,0.5 -0.4,1.6 -0.4,2.1 0,0.1 0,0.2 0,0.3 0.4,-1.3 1,-2.4 1.9,-2.4 0.5,0 0.7,0.4 0.7,0.8 0,0.6 -0.4,1.1 -0.4,1.5 0,0.2 0.1,0.3 0.3,0.3 0.4,0 1.1,-0.7 1.4,-1.5 l 0.1,0.1 c -0.4,0.9 -1.1,1.6 -1.8,1.6 -0.4,0 -0.6,-0.2 -0.6,-0.6 0,-0.4 0.3,-0.9 0.3,-1.4 0,-0.3 -0.2,-0.4 -0.3,-0.4 -0.9,0 -1.2,2.5 -1.8,2.5 -0.2,0 -0.4,-0.5 -0.4,-1 0,-0.1 0,-0.2 0,-0.4 -0.5,0.8 -1.2,1.4 -1.9,1.4 -0.5,0 -0.8,-0.3 -0.8,-0.9 0,-0.5 0.3,-1.5 0.6,-2.3 -0.1,0 -0.2,-0.1 -0.3,-0.1 l 0,-0.2 c 0.1,0 0.2,0.1 0.4,0.1 0.5,-1.3 1.2,-2.5 1.6,-2.5 0.1,0 0.2,0.1 0.2,0.2 0,0.3 -0.7,1.3 -1.2,2.4 0.2,0.3 0.4,0.3 0.7,0.3 z m 1.1,0.1 c -0.4,0.1 -0.8,0.1 -1.1,0.1 -0.3,0 -0.6,0 -0.9,-0.1 -0.3,0.7 -0.5,1.3 -0.5,2 0,0.5 0.1,0.7 0.5,0.7 0.6,0 1.3,-0.6 1.7,-1.6 0.1,-0.3 0.2,-0.6 0.3,-1.1 z m 0.8,-0.5 c 0.8,-0.7 1.6,-2.1 1.6,-2.6 0,-0.1 0,-0.1 0,-0.1 -0.3,0.1 -1.2,1.2 -1.6,2.7 z"
         id="path71"
         inkscape:connector-curvature="0"
         style="fill:#000000;fill-opacity:1" /><path
         class="st1"
         d="m 289.9,255.7 c 0,0.1 0,0.2 0,0.3 0,0.4 0.2,0.8 0.7,0.8 0.8,0 1.6,-0.7 2.1,-1.6 l 0.1,0.1 c -0.5,1.1 -1.4,1.8 -2.4,1.8 -0.7,0 -1.1,-0.5 -1.1,-1.1 0,-1.1 1.2,-2.6 2.3,-2.6 0.3,0 0.6,0.1 0.6,0.6 0,0.9 -1.2,1.6 -2.3,1.7 z m 0.1,-0.2 c 0.7,-0.2 1.8,-0.9 1.8,-1.7 0,-0.1 0,-0.2 -0.2,-0.2 -0.6,0.1 -1.4,1.1 -1.6,1.9 z"
         id="path73"
         inkscape:connector-curvature="0"
         style="fill:#000000;fill-opacity:1" /><path
         class="st1"
         d="m 299.9,257.6 c -0.5,0 -0.7,-0.4 -0.7,-1 0,-0.2 0,-0.5 0.1,-0.8 -0.5,1 -1.1,1.7 -2,1.7 -0.8,0 -1.2,-0.5 -1.2,-1.2 0,-1.2 1.1,-3.7 1.1,-5.1 0,-0.5 -0.2,-0.8 -0.5,-0.8 -0.7,0 -1,1 -1,1.6 0,0.2 0,0.3 0.1,0.4 -0.5,0 -0.6,-0.3 -0.6,-0.6 0,-0.8 0.8,-1.7 1.8,-1.7 0.7,0 0.9,0.4 0.9,1.1 0,1.3 -1.1,3.6 -1.1,4.9 0,0.6 0.2,1 0.8,1 1,0 1.7,-1.5 1.9,-2.5 0.4,-1.8 1.1,-4.5 1.6,-4.5 0.1,0 0.3,0.1 0.5,0.3 -0.3,0.2 -1.7,4.2 -1.7,5.9 0,0.8 0.2,1.1 0.7,1.1 -0.3,0.1 -0.5,0.2 -0.7,0.2 z"
         id="path75"
         inkscape:connector-curvature="0"
         style="fill:#000000;fill-opacity:1" /><path
         class="st1"
         d="m 301.4,254.4 c 0.1,-0.1 0.2,-0.2 0.4,-0.2 0.2,0 0.2,0.1 0.2,0.2 0,0.2 -0.1,0.7 -0.3,1.2 0.5,-0.7 1.2,-1.6 1.9,-1.6 0.5,0 0.7,0.4 0.7,0.8 0,0.6 -0.4,1 -0.4,1.4 0,0.3 0.1,0.3 0.3,0.3 0.5,0 0.9,-0.8 1.3,-1.4 l 0.1,0.1 c -0.4,0.9 -0.9,1.5 -1.6,1.5 -0.4,0 -0.6,-0.2 -0.6,-0.6 0,-0.4 0.3,-0.8 0.3,-1.3 0,-0.3 -0.2,-0.4 -0.4,-0.4 -0.8,0 -1.6,1.5 -2.1,2.3 -0.2,0 -0.4,-0.1 -0.5,-0.2 0.1,0 0.7,-1.3 0.7,-2.1 z"
         id="path77"
         inkscape:connector-curvature="0"
         style="fill:#000000;fill-opacity:1" /><path
         class="st1"
         d="m 306.9,253.8 c 0,0.3 -1,1.4 -1,2.3 0,0.4 0.1,0.5 0.5,0.5 0.4,0 0.9,-0.4 1.4,-1.4 l 0.1,0.1 c -0.4,1.1 -1.1,1.6 -1.8,1.6 -0.5,0 -0.7,-0.3 -0.7,-0.8 0,-0.7 0.7,-2.6 1.3,-2.6 0.1,0.1 0.2,0.1 0.2,0.3 z m -0.1,-1.4 c 0,-0.3 0.4,-0.5 0.7,-0.5 0.2,0 0.3,0.1 0.3,0.3 0,0.2 -0.3,0.5 -0.6,0.5 -0.2,0 -0.4,-0.1 -0.4,-0.3 z"
         id="path79"
         inkscape:connector-curvature="0"
         style="fill:#000000;fill-opacity:1" /><path
         class="st1"
         d="m 310.4,253.9 c -0.7,0.1 -1.2,0.1 -1.6,0.1 l -0.1,0 c -0.3,0.7 -0.5,1.3 -0.5,2 0,0.5 0.1,0.7 0.5,0.7 0.6,0 1.3,-0.6 1.7,-1.6 l 0.1,0.1 c -0.4,1 -1.3,1.8 -2.1,1.8 -0.5,0 -0.8,-0.3 -0.8,-0.9 0,-0.5 0.2,-1.4 0.5,-2.2 -0.1,0 -0.2,0 -0.3,-0.1 l 0,-0.2 c 0.1,0 0.2,0 0.4,0 0.5,-1.3 1.2,-2.6 1.6,-2.6 0.1,0 0.2,0.1 0.2,0.2 0,0.3 -0.7,1.3 -1.2,2.4 l 0.3,0 c 0.4,0 0.9,0 1.3,-0.1 l 0,0.4 z"
         id="path81"
         inkscape:connector-curvature="0"
         style="fill:#000000;fill-opacity:1" /><path
         class="st1"
         d="m 310.8,255.7 c 0,0.1 0,0.2 0,0.3 0,0.4 0.2,0.8 0.7,0.8 0.8,0 1.6,-0.7 2.1,-1.6 l 0.1,0.1 c -0.5,1.1 -1.4,1.8 -2.4,1.8 -0.7,0 -1.1,-0.5 -1.1,-1.1 0,-1.1 1.2,-2.6 2.3,-2.6 0.3,0 0.6,0.1 0.6,0.6 -0.1,0.9 -1.3,1.6 -2.3,1.7 z m 0,-0.2 c 0.7,-0.2 1.8,-0.9 1.8,-1.7 0,-0.1 0,-0.2 -0.2,-0.2 -0.5,0.1 -1.3,1.1 -1.6,1.9 z"
         id="path83"
         inkscape:connector-curvature="0"
         style="fill:#000000;fill-opacity:1" /><path
         class="st1"
         d="m 315.7,253.6 c -1,0 -1.9,1.7 -1.9,2.4 0,0.3 0.1,0.4 0.3,0.4 0.5,0 1.4,-1 2,-2.5 0.7,-1.8 1.5,-3.9 2,-3.9 0.1,0 0.2,0.1 0.2,0.2 0,0.6 -2.1,3.9 -2.1,5.7 0,0.3 0,0.5 0.2,0.5 0.4,0 1,-0.5 1.4,-1.4 l 0.1,0.1 c -0.4,0.9 -1.2,1.6 -1.8,1.6 -0.5,0 -0.6,-0.4 -0.6,-0.7 0,-0.2 0.1,-0.6 0.2,-1 -0.6,1 -1.3,1.7 -1.9,1.7 -0.3,0 -0.7,-0.2 -0.7,-0.8 0,-1 1.3,-2.8 2.5,-2.8 0.3,0 0.4,0.1 0.4,0.3 0,0 0,0.1 0,0.1 0,0.2 -0.1,0.1 -0.3,0.1 z"
         id="path85"
         inkscape:connector-curvature="0"
         style="fill:#000000;fill-opacity:1" /><path
         class="st1"
         d="m 324,250.1 c 0.7,0 1,0.4 1,0.9 0,0.7 -0.4,1.5 -0.7,2 -0.2,0 -0.3,-0.2 -0.3,-0.4 0,-0.5 0.5,-1.4 0.5,-1.9 0,-0.2 -0.1,-0.4 -0.5,-0.4 -1.2,0 -2,1.3 -2,2 0,1.4 2.7,1.3 2.7,3.2 0,1.3 -1.3,2 -2.4,2 -1,0 -1.9,-0.5 -1.9,-1.6 0,-1 0.7,-1.2 1.2,-1.2 -0.3,0.4 -0.5,0.8 -0.5,1.2 0,0.7 0.4,1.3 1.4,1.3 0.8,0 1.7,-0.5 1.7,-1.3 0,-1.6 -2.8,-1.6 -2.8,-3.3 0,-1.1 1,-2.5 2.6,-2.5 z"
         id="path87"
         inkscape:connector-curvature="0"
         style="fill:#000000;fill-opacity:1" /><path
         class="st1"
         d="m 328.2,253.9 c -0.7,0.1 -1.2,0.1 -1.6,0.1 l -0.1,0 c -0.3,0.7 -0.5,1.3 -0.5,2 0,0.5 0.1,0.7 0.5,0.7 0.6,0 1.3,-0.6 1.7,-1.6 l 0.1,0.1 c -0.4,1 -1.3,1.8 -2.1,1.8 -0.5,0 -0.8,-0.3 -0.8,-0.9 0,-0.5 0.2,-1.4 0.5,-2.2 -0.1,0 -0.2,0 -0.3,-0.1 l 0,-0.2 c 0.1,0 0.2,0 0.4,0 0.5,-1.3 1.2,-2.6 1.6,-2.6 0.1,0 0.2,0.1 0.2,0.2 0,0.3 -0.7,1.3 -1.2,2.4 l 0.3,0 c 0.4,0 0.9,0 1.3,-0.1 l 0,0.4 z"
         id="path89"
         inkscape:connector-curvature="0"
         style="fill:#000000;fill-opacity:1" /><path
         class="st1"
         d="m 331,255 c 0,0.2 -0.5,0.8 -0.5,1.3 0,0.2 0.1,0.4 0.3,0.4 0.3,0 0.9,-0.5 1.5,-1.4 l 0.1,0.1 c -0.4,1 -1.2,1.7 -1.8,1.7 -0.4,0 -0.7,-0.3 -0.7,-0.6 0,-0.1 0,-0.2 0,-0.3 -0.5,0.7 -0.9,1.1 -1.4,1.1 -0.4,0 -0.7,-0.2 -0.7,-0.8 0,-1.1 1.3,-2.8 2.5,-2.8 0.5,0 0.8,0.3 0.8,0.7 0,0.3 -0.2,0.4 -0.4,0.4 0,-0.1 0,-0.2 0,-0.3 0,-0.3 -0.1,-0.5 -0.5,-0.5 -0.9,0 -1.9,1.7 -1.9,2.6 0,0.2 0.1,0.4 0.2,0.4 0.6,0 1.5,-1.3 1.9,-2 0.3,-0.2 0.6,-0.2 0.6,0 z"
         id="path91"
         inkscape:connector-curvature="0"
         style="fill:#000000;fill-opacity:1" /><path
         class="st1"
         d="m 334.8,253.9 c -0.7,0.1 -1.2,0.1 -1.6,0.1 l -0.1,0 c -0.3,0.7 -0.5,1.3 -0.5,2 0,0.5 0.1,0.7 0.5,0.7 0.6,0 1.3,-0.6 1.7,-1.6 l 0.1,0.1 c -0.4,1 -1.3,1.8 -2.1,1.8 -0.5,0 -0.8,-0.3 -0.8,-0.9 0,-0.5 0.2,-1.4 0.5,-2.2 -0.1,0 -0.2,0 -0.3,-0.1 l 0,-0.2 c 0.1,0 0.2,0 0.4,0 0.5,-1.3 1.2,-2.6 1.6,-2.6 0.1,0 0.2,0.1 0.2,0.2 0,0.3 -0.7,1.3 -1.2,2.4 l 0.3,0 c 0.4,0 0.9,0 1.3,-0.1 l 0,0.4 z"
         id="path93"
         inkscape:connector-curvature="0"
         style="fill:#000000;fill-opacity:1" /><path
         class="st1"
         d="m 335.2,255.7 c 0,0.1 0,0.2 0,0.3 0,0.4 0.2,0.8 0.7,0.8 0.8,0 1.6,-0.7 2.1,-1.6 l 0.1,0.1 c -0.5,1.1 -1.4,1.8 -2.4,1.8 -0.7,0 -1.1,-0.5 -1.1,-1.1 0,-1.1 1.2,-2.6 2.3,-2.6 0.3,0 0.6,0.1 0.6,0.6 -0.1,0.9 -1.3,1.6 -2.3,1.7 z m 0,-0.2 c 0.7,-0.2 1.8,-0.9 1.8,-1.7 0,-0.1 0,-0.2 -0.2,-0.2 -0.5,0.1 -1.3,1.1 -1.6,1.9 z"
         id="path95"
         inkscape:connector-curvature="0"
         style="fill:#000000;fill-opacity:1" /><path
         class="st1"
         d="m 338.1,255.1 c 0.4,-0.4 0.7,-0.8 0.9,-1.3 l 0,-0.1 c 0,-0.4 0.2,-0.6 0.4,-0.6 0.1,0 0.1,0.1 0.1,0.1 0,0.1 -0.1,0.2 -0.1,0.4 0,0.6 0.5,1.4 0.5,2.2 0,0.2 0,0.3 -0.1,0.4 0.4,-0.1 0.8,-0.3 1.2,-1 l 0.1,0.1 c -0.2,0.7 -0.7,1 -1.3,1.1 -0.2,0.5 -0.7,0.8 -1.2,0.8 -0.9,0 -1.1,-0.7 -1.1,-1.2 0.1,-0.8 0.5,-0.8 0.6,-0.9 z m 1.2,1.3 c -0.5,-0.1 -0.9,-0.4 -1.1,-0.8 -0.1,0 -0.2,0.1 -0.2,0.3 0,0.4 0.3,0.9 0.8,0.9 0.1,0 0.4,0 0.5,-0.4 z m -0.2,-2.3 c -0.3,0.5 -0.6,0.9 -0.9,1.2 0.2,0.4 0.6,0.8 1.1,0.9 0,-0.1 0,-0.2 0,-0.4 0.1,-0.6 -0.1,-1.2 -0.2,-1.7 z"
         id="path97"
         inkscape:connector-curvature="0"
         style="fill:#000000;fill-opacity:1" /></g><g
       id="g99"
       style="fill:#000000;fill-opacity:1"><path
         class="st1"
         d="m 374.6,265.2 -155.1,0 c -0.4,0 -0.7,-0.3 -0.7,-0.7 0,-0.4 0.3,-0.7 0.7,-0.7 l 155.1,0 c 0.4,0 0.7,0.3 0.7,0.7 0,0.3 -0.3,0.7 -0.7,0.7 z"
         id="path101"
         inkscape:connector-curvature="0"
         style="fill:#000000;fill-opacity:1" /></g><g
       id="g103"
       style="fill:#000000;fill-opacity:1"><rect
         x="294.89999"
         y="315.5"
         class="st1"
         width="9"
         height="0.80000001"
         id="rect105"
         style="fill:#000000;fill-opacity:1" /><rect
         x="294.89999"
         y="317.10001"
         class="st1"
         width="9"
         height="0.80000001"
         id="rect107"
         style="fill:#000000;fill-opacity:1" /><rect
         x="294.89999"
         y="318.70001"
         class="st1"
         width="9"
         height="0.80000001"
         id="rect109"
         style="fill:#000000;fill-opacity:1" /><rect
         x="289.79999"
         y="320.29999"
         class="st1"
         width="14.1"
         height="0.80000001"
         id="rect111"
         style="fill:#000000;fill-opacity:1" /><rect
         x="289.79999"
         y="321.89999"
         class="st1"
         width="14.1"
         height="0.80000001"
         id="rect113"
         style="fill:#000000;fill-opacity:1" /><rect
         x="289.79999"
         y="323.5"
         class="st1"
         width="14.1"
         height="0.80000001"
         id="rect115"
         style="fill:#000000;fill-opacity:1" /><rect
         x="289.79999"
         y="325.10001"
         class="st1"
         width="14.1"
         height="0.80000001"
         id="rect117"
         style="fill:#000000;fill-opacity:1" /><rect
         x="289.79999"
         y="315.5"
         class="st1"
         width="4.3000002"
         height="4"
         id="rect119"
         style="fill:#000000;fill-opacity:1" /></g></g></svg>