<?xml version="1.0" encoding="UTF-8" standalone="no"?>
<!-- Generator: Adobe Illustrator 20.0.0, SVG Export Plug-In . SVG Version: 6.00 Build 0)  -->

<svg
   xmlns:dc="http://purl.org/dc/elements/1.1/"
   xmlns:cc="http://creativecommons.org/ns#"
   xmlns:rdf="http://www.w3.org/1999/02/22-rdf-syntax-ns#"
   xmlns:svg="http://www.w3.org/2000/svg"
   xmlns="http://www.w3.org/2000/svg"
   xmlns:sodipodi="http://sodipodi.sourceforge.net/DTD/sodipodi-0.dtd"
   xmlns:inkscape="http://www.inkscape.org/namespaces/inkscape"
   version="1.1"
   id="artwork"
   x="0px"
   y="0px"
   viewBox="0 0 160 100"
   xml:space="preserve"
   inkscape:version="0.91 r13725"
   sodipodi:docname="brand-6.svg"
   width="160"
   height="100"><metadata
     id="metadata137"><rdf:RDF><cc:Work
         rdf:about=""><dc:format>image/svg+xml</dc:format><dc:type
           rdf:resource="http://purl.org/dc/dcmitype/StillImage" /><dc:title></dc:title></cc:Work></rdf:RDF></metadata><defs
     id="defs135" /><sodipodi:namedview
     pagecolor="#ffffff"
     bordercolor="#666666"
     borderopacity="1"
     objecttolerance="10"
     gridtolerance="10"
     guidetolerance="10"
     inkscape:pageopacity="0"
     inkscape:pageshadow="2"
     inkscape:window-width="1920"
     inkscape:window-height="1017"
     id="namedview133"
     showgrid="false"
     fit-margin-bottom="1"
     fit-margin-top="1"
     fit-margin-right="1"
     fit-margin-left="1"
     inkscape:zoom="3.2777778"
     inkscape:cx="20.414765"
     inkscape:cy="-10.037269"
     inkscape:window-x="-8"
     inkscape:window-y="-8"
     inkscape:window-maximized="1"
     inkscape:current-layer="artwork" /><style
     type="text/css"
     id="style3">
	.st0{fill:#DFDFC6;}
	.st1{fill:#E1BD3F;}
</style><g
     id="g5"
     transform="matrix(0.86407115,0,0,0.86407115,-168.80929,-177.94197)"
     style="fill:#000000;fill-opacity:1"><g
       id="g7"
       style="fill:#000000;fill-opacity:1"><path
         class="st0"
         d="m 241.8,261.8 c -0.5,-0.3 -1.5,-0.8 -3,-0.8 -4.6,0 -7.9,3.8 -7.9,8.8 0,7.3 6.4,10.6 12.9,10.7 0.2,-13.5 6.8,-30.4 16.4,-30.4 4.3,0 6.4,3.5 6.4,8.1 0,8.7 -7.3,21.7 -20.5,23.4 0,7.3 1.5,13.5 6.7,14 -0.3,-1.5 -0.4,-3.4 -0.4,-4.5 0,-5.9 2.4,-11.8 6.8,-11.8 3,0 4.5,2.7 4.5,6 0,4.5 -2.9,10.3 -8.6,11.4 0.9,2.6 2.5,4.6 4.7,5.1 -0.2,0.6 -0.4,1.3 -0.7,1.8 -3,-0.6 -5,-3.4 -6,-6.8 -6.4,-0.3 -9.2,-6.4 -9.3,-15.1 -10.2,0 -15,-5.9 -15,-12.3 0,-6.1 4.3,-10.7 10,-10.7 1.9,0 3.3,0.5 4.1,0.9 l -1.1,2.2 z m 4.4,18.5 c 12.1,-1.8 18.3,-14.5 18.3,-22.4 0,-3.8 -1.4,-6.5 -4.2,-6.5 -7.6,0.1 -13.5,16.2 -14.1,28.9 z m 8,10.3 c 0,1.7 0.2,3.4 0.6,4.9 4.7,-1.1 7,-6.6 7,-10.6 0,-2.3 -0.8,-4.1 -2.5,-4.2 -3.3,0 -5.1,4.6 -5.1,9.9 z"
         id="path9"
         inkscape:connector-curvature="0"
         style="fill:#000000;fill-opacity:1" /><path
         class="st0"
         d="m 275.6,268.2 1.8,0 c -1,5.1 -1.9,9.9 -2.4,13.9 -0.1,0.8 -0.2,1.5 -0.2,2.1 0,1 0.2,1.5 0.5,1.5 0.9,0 2.6,-2.9 4.7,-8.5 0.2,0 0.7,0.3 0.7,0.4 -2.8,7.1 -4.3,9.8 -6,9.8 -1.2,0 -1.7,-1.5 -1.7,-4.3 l 0.2,-2 c -1.1,3.3 -2.7,6.3 -4.9,6.3 -1.7,0 -2.5,-1.9 -2.5,-4.8 0,-5.8 3,-14.6 6.6,-14.6 1.6,0 2.3,1.3 2.5,3.2 l 0.7,-3 z m -7.7,14.4 c 0,1.8 0.4,3 1.2,3 2.2,0 5.1,-8.5 5.1,-12.6 0,-2 -0.5,-3.3 -1.6,-3.3 -2.3,-0.1 -4.7,8.3 -4.7,12.9 z"
         id="path11"
         inkscape:connector-curvature="0"
         style="fill:#000000;fill-opacity:1" /><path
         class="st0"
         d="m 278,287.2 c 0,0 0.4,-3.3 1.4,-6.6 0.8,-4.5 1.7,-9.3 2.1,-12.5 l 2.1,0 c -0.1,0.8 -0.4,2.7 -0.9,4.9 1.3,-3 2.5,-5.3 4.5,-5.3 1.3,0 1.8,1.2 1.8,2.8 0,0.7 -0.1,1.7 -0.3,2.9 1.3,-3.2 2.7,-5.5 5,-5.5 1.1,0 2.1,0.8 2.1,2.7 0,3.5 -2.8,10.1 -2.8,13.5 0,1.1 0.4,1.5 1,1.5 1.4,0 3,-3.7 4.8,-8.5 0.2,0 0.7,0.4 0.7,0.5 l -0.4,1.2 c -1.6,4.3 -3.5,8.6 -5.9,8.6 -1.5,0 -2.3,-1.2 -2.3,-3.2 0,-4.3 2.8,-10.4 2.8,-13.1 0,-1 -0.3,-1.6 -0.9,-1.6 -1.3,0 -3.4,3.2 -4.7,9.1 -0.6,3.5 -1.3,7 -1.7,8.6 l -2.4,0 c 1,-4.6 2.9,-14.1 2.9,-15.9 0,-0.8 -0.1,-1.5 -0.7,-1.5 -1.3,0 -3.2,4 -4.5,9.3 l -1.5,8.2 -2.2,0 z"
         id="path13"
         inkscape:connector-curvature="0"
         style="fill:#000000;fill-opacity:1" /><path
         class="st0"
         d="m 301.8,268.2 -0.6,4.5 c 1.1,-2.8 2.6,-4.8 4.2,-4.8 2.1,0 3,2.3 3,5.4 0,4.4 -1.8,10.4 -4.4,12.9 3.2,-0.9 6,-4.3 7.8,-9.1 0.2,0 0.7,0.3 0.7,0.5 l -0.5,1.3 c -2,5.2 -5.8,8.6 -9.6,8.6 -1.9,0 -2.8,-0.9 -3.2,-2.6 -0.8,4.9 -1.6,9.8 -2.4,14.8 l -1.9,0 c 0.7,-6.1 1.7,-9.5 1.7,-9.5 1.3,-7.9 3,-19 3.3,-22 l 1.9,0 z m -2.1,13.9 c 0,1.7 0.3,3.4 1.7,3.4 2.6,0 4.8,-7.8 4.8,-12.5 0,-2 -0.5,-3.5 -1.5,-3.5 -1.5,0 -3.2,3.3 -4.3,7.9 -0.3,1.6 -0.7,3.3 -0.7,4.7 z"
         id="path15"
         inkscape:connector-curvature="0"
         style="fill:#000000;fill-opacity:1" /><path
         class="st0"
         d="m 310.1,291.9 c 0,-9.1 4.1,-29.5 6.2,-35.1 0.7,-1.8 1.8,-2.6 2.7,-2.6 1,0 1.8,0.9 1.8,2.5 0,6.6 -5.5,18.3 -7.2,21.3 -0.4,2.3 -0.7,4.4 -1,6.5 2.2,-0.5 5.1,-2.8 6.7,-7.2 0.2,0 0.7,0.3 0.7,0.5 -1.8,4.1 -4,6.8 -6.6,7.8 2,1.7 2.8,4 2.8,6.2 0,2.9 -1.4,5.3 -3.3,5.3 -1.4,-0.2 -2.8,-1.1 -2.8,-5.2 z m 4.8,0 c 0,-2 -0.7,-4.2 -2.6,-5.8 -0.2,2.3 -0.5,4.5 -0.5,6.1 0,2.1 0.4,3.4 1.2,3.4 1.1,0.1 1.9,-1.6 1.9,-3.7 z m 4.3,-36.2 c -1.1,0 -3.2,8.9 -5,18.9 1.7,-3.8 5.5,-13.4 5.5,-17.9 0,-0.6 -0.2,-1 -0.5,-1 z"
         id="path17"
         inkscape:connector-curvature="0"
         style="fill:#000000;fill-opacity:1" /><path
         class="st0"
         d="m 323.2,268.2 c -1.3,6.4 -2.6,12.3 -2.6,15.7 0,1.3 0.3,1.7 0.7,1.7 1.3,0 2.8,-3 4.7,-8.5 0.2,0 0.7,0.2 0.7,0.4 -2.1,5.8 -3.5,9.8 -6.1,9.8 -1.5,0 -2.1,-1.8 -2.1,-4.3 0,-4.2 1.5,-10.6 2.4,-14.9 l 2.3,0 z m -1.6,-4.4 c 0,-0.9 0.6,-2 1.7,-2 0.8,0 1.2,0.7 1.2,1.4 0,1 -0.6,2 -1.7,2 -0.8,0 -1.2,-0.7 -1.2,-1.4 z"
         id="path19"
         inkscape:connector-curvature="0"
         style="fill:#000000;fill-opacity:1" /><path
         class="st0"
         d="m 331,285.6 c 1.1,0 2.7,-3 4.7,-8.4 0.2,0 0.7,0.2 0.7,0.4 -2.1,5.8 -3.5,9.8 -6.1,9.8 -1.5,0 -2.1,-1 -2.1,-2.8 0,-2.8 1.9,-5.9 1.9,-8.5 0,-2 -0.8,-3.3 -1.4,-4.7 -0.5,2.2 -1.2,4.4 -1.8,6.1 0,0 -0.7,-0.1 -0.7,-0.4 0.7,-2.2 1.4,-4.8 1.8,-7.3 -0.3,-0.6 -0.4,-1.5 -0.4,-2.5 0,-1.5 0.3,-3.2 0.7,-4.9 l 1.9,0.5 c 0,2.2 -0.4,4 -0.7,5.8 l -0.2,0.8 c 1,1.6 2.9,3.4 2.9,6.2 0,3.1 -1.9,6.5 -1.9,8.6 -0.1,0.9 0.2,1.3 0.7,1.3 z"
         id="path21"
         inkscape:connector-curvature="0"
         style="fill:#000000;fill-opacity:1" /><path
         class="st0"
         d="m 346.4,277.2 c 0.2,0 0.7,0.3 0.7,0.4 -1.3,3.8 -3.7,9.9 -7.5,9.9 -3.1,0 -4.3,-3.1 -4.3,-6.8 0,-5.7 2.8,-12.8 6.7,-12.8 1.5,0 2.3,1.1 2.3,2.6 0,3.3 -3.7,7.1 -6.8,7.6 -0.1,0.8 -0.2,1.6 -0.2,2.4 0,2.8 0.8,5 2.8,5 2.7,0.1 4.9,-4.4 6.3,-8.3 z m -8.7,-0.2 c 3.4,-1.6 4.9,-4.5 4.9,-6.5 0,-1 -0.3,-1.5 -0.8,-1.5 -1.7,0 -3.4,4.2 -4.1,8 z"
         id="path23"
         inkscape:connector-curvature="0"
         style="fill:#000000;fill-opacity:1" /></g><g
       id="g25"
       style="fill:#000000;fill-opacity:1"><path
         class="st1"
         d="m 252.4,228.5 c 0.1,0 0.1,0 0,0 0.6,1.7 1.2,3.2 1.8,4.8 0.6,0.7 1.3,1.4 1.9,2.1 0.1,0.1 0.1,0.2 0,0.3 -0.3,0.3 -0.6,0.6 -1,0.9 -0.1,0.1 -0.2,0.1 -0.3,0 -0.7,-0.7 -1.3,-1.3 -2,-2 -1.5,-0.7 -3.1,-1.3 -4.6,-1.9 0,0 -0.1,0 -0.1,-0.1 0,-0.1 0,-0.1 0.1,-0.2 0.4,-0.4 0.8,-0.9 1.3,-1.3 0.1,-0.1 0.2,-0.1 0.3,-0.1 0.7,0.4 1.5,0.9 2.2,1.3 0,0 0,0 0,0 -0.4,-0.8 -0.8,-1.5 -1.2,-2.3 -0.1,-0.1 0,-0.2 0.1,-0.3 0.4,-0.4 0.9,-0.8 1.3,-1.2 0.1,0 0.2,0 0.2,0 z"
         id="path27"
         inkscape:connector-curvature="0"
         style="fill:#000000;fill-opacity:1" /><path
         class="st1"
         d="m 260.5,230 c 0.1,0.2 0.2,0.4 0.3,0.6 0,0.2 0,0.4 0,0.7 0,0.2 -0.1,0.4 -0.3,0.6 -0.1,0.2 -0.3,0.4 -0.5,0.5 -0.1,0.1 -0.3,0.2 -0.4,0.3 -0.2,0.2 -0.4,0.3 -0.6,0.3 -0.2,0.1 -0.5,0.1 -0.7,0.1 -0.2,0 -0.4,-0.1 -0.6,-0.1 -0.2,-0.1 -0.4,-0.2 -0.5,-0.4 -1,-1.2 -2,-2.4 -3.1,-3.6 -0.1,-0.2 -0.2,-0.4 -0.3,-0.6 0,-0.2 0,-0.5 0,-0.7 0.1,-0.2 0.1,-0.5 0.3,-0.7 0.1,-0.2 0.3,-0.4 0.6,-0.6 0.2,-0.1 0.3,-0.3 0.5,-0.4 0.2,-0.2 0.5,-0.3 0.7,-0.4 0.3,-0.1 0.5,-0.1 0.7,-0.1 0.2,0 0.5,0.1 0.7,0.2 0.2,0.1 0.4,0.2 0.5,0.4 0.9,1.3 1.8,2.6 2.7,3.9 z m -4.2,-2.7 c -0.1,-0.1 -0.1,-0.1 -0.2,-0.1 -0.1,0 -0.2,0 -0.3,0.1 0,0 -0.1,0.1 -0.1,0.1 -0.1,0.1 -0.1,0.1 -0.2,0.2 0,0.1 0,0.2 0,0.2 1,1.2 1.9,2.4 2.9,3.6 0.1,0.1 0.1,0.1 0.2,0.1 0.1,0 0.2,0 0.3,-0.1 0,0 0.1,0 0.1,-0.1 0.1,-0.1 0.1,-0.1 0.1,-0.2 0,-0.1 0,-0.2 -0.1,-0.2 -0.8,-1.2 -1.8,-2.4 -2.7,-3.6 z"
         id="path29"
         inkscape:connector-curvature="0"
         style="fill:#000000;fill-opacity:1" /><path
         class="st1"
         d="m 262.1,221.7 c 1,1.8 2,3.5 3.1,5.3 0.1,0.2 0.2,0.4 0.2,0.6 0,0.2 0,0.4 -0.1,0.6 -0.1,0.2 -0.2,0.4 -0.3,0.6 -0.1,0.2 -0.3,0.3 -0.5,0.5 -0.2,0.1 -0.3,0.2 -0.5,0.3 -0.2,0.1 -0.4,0.2 -0.7,0.3 -0.2,0 -0.5,0.1 -0.7,0 -0.2,0 -0.4,-0.1 -0.6,-0.2 -0.2,-0.1 -0.4,-0.3 -0.5,-0.4 -1.2,-1.7 -2.3,-3.3 -3.5,-5 -0.1,-0.1 0,-0.2 0.1,-0.3 0.4,-0.3 0.8,-0.6 1.2,-0.8 0.1,-0.1 0.2,-0.1 0.3,0 1.1,1.7 2.2,3.4 3.3,5.1 0,0.1 0.1,0.1 0.2,0.1 0.1,0 0.2,0 0.3,-0.1 0,0 0.1,0 0.1,-0.1 0.1,-0.1 0.1,-0.1 0.2,-0.2 0,-0.1 0,-0.2 0,-0.2 -1.1,-1.7 -2.1,-3.4 -3.2,-5.1 -0.1,-0.1 0,-0.2 0.1,-0.3 0.4,-0.3 0.8,-0.5 1.3,-0.8 0,0 0.1,0 0.2,0.1 z"
         id="path31"
         inkscape:connector-curvature="0"
         style="fill:#000000;fill-opacity:1" /><path
         class="st1"
         d="m 267.1,219.1 c 0.2,0.4 0.3,0.7 0.5,1.1 0.1,0.1 0,0.2 -0.1,0.3 -0.3,0.2 -0.7,0.3 -1,0.5 0.9,1.8 1.8,3.7 2.7,5.5 0.1,0.1 0,0.2 -0.1,0.3 -0.4,0.2 -0.8,0.4 -1.1,0.6 0,0 -0.1,0 -0.1,0 -0.1,0 -0.1,0 -0.1,-0.1 -1,-1.8 -1.9,-3.6 -2.9,-5.4 -0.3,0.2 -0.7,0.4 -1,0.5 -0.1,0.1 -0.2,0.1 -0.3,-0.1 -0.2,-0.3 -0.4,-0.7 -0.6,-1 -0.1,-0.1 0,-0.2 0.1,-0.3 1.2,-0.7 2.5,-1.3 3.7,-1.9 0.1,-0.1 0.2,-0.1 0.3,0 z"
         id="path33"
         inkscape:connector-curvature="0"
         style="fill:#000000;fill-opacity:1" /><path
         class="st1"
         d="m 272.5,216.9 c 0.8,2.4 1.6,4.7 2.5,7.1 0,0.1 0,0.2 -0.1,0.2 -0.4,0.1 -0.8,0.3 -1.2,0.4 -0.1,0 -0.2,0 -0.3,-0.1 -0.4,-0.9 -0.7,-1.8 -1.1,-2.8 -0.3,0.1 -0.6,0.2 -0.9,0.4 0.4,0.9 0.7,1.8 1.1,2.7 0,0.1 0,0.2 -0.1,0.2 -0.4,0.2 -0.8,0.3 -1.2,0.5 -0.1,0.1 -0.2,0 -0.3,-0.1 -1,-2.3 -2,-4.6 -3,-6.8 0,-0.1 0,-0.2 0.1,-0.3 0.4,-0.2 0.9,-0.4 1.3,-0.6 0.1,-0.1 0.2,0 0.3,0.1 0.4,0.9 0.7,1.8 1.1,2.8 0.3,-0.1 0.6,-0.2 0.9,-0.4 -0.4,-0.9 -0.7,-1.9 -1.1,-2.8 0,-0.1 0,-0.2 0.1,-0.3 0.4,-0.2 0.9,-0.3 1.3,-0.5 0.5,0.2 0.6,0.2 0.6,0.3 z"
         id="path35"
         inkscape:connector-curvature="0"
         style="fill:#000000;fill-opacity:1" /><path
         class="st1"
         d="m 281.8,220.7 c 0,0.2 0,0.4 0,0.7 -0.1,0.2 -0.1,0.4 -0.3,0.6 -0.1,0.2 -0.3,0.3 -0.5,0.5 -0.2,0.1 -0.4,0.2 -0.6,0.3 -0.2,0 -0.3,0.1 -0.5,0.1 -0.2,0.1 -0.5,0.1 -0.7,0 -0.2,0 -0.4,-0.1 -0.6,-0.2 -0.2,-0.1 -0.4,-0.2 -0.5,-0.4 -0.1,-0.2 -0.2,-0.4 -0.3,-0.6 -0.4,-1.5 -0.9,-3 -1.3,-4.6 -0.1,-0.2 -0.1,-0.4 0,-0.7 0,-0.2 0.1,-0.4 0.3,-0.6 0.1,-0.2 0.3,-0.4 0.5,-0.5 0.2,-0.1 0.5,-0.3 0.7,-0.3 0.2,0 0.4,-0.1 0.6,-0.1 0.3,-0.1 0.5,-0.1 0.8,0 0.3,0 0.5,0.1 0.7,0.2 0.2,0.1 0.4,0.3 0.5,0.4 0.1,0.2 0.2,0.4 0.3,0.6 0.3,1.5 0.6,3.1 0.9,4.6 z m -2.7,-4.2 c 0,-0.1 -0.1,-0.1 -0.2,-0.2 -0.1,0 -0.2,-0.1 -0.3,0 0,0 -0.1,0 -0.1,0 -0.1,0 -0.2,0.1 -0.2,0.2 -0.1,0.1 -0.1,0.2 -0.1,0.2 0.4,1.5 0.7,3 1.1,4.5 0,0.1 0.1,0.1 0.2,0.2 0.1,0 0.2,0.1 0.3,0 0,0 0.1,0 0.1,0 0.1,0 0.2,-0.1 0.2,-0.1 0.1,-0.1 0.1,-0.2 0,-0.2 -0.3,-1.6 -0.7,-3.1 -1,-4.6 z"
         id="path37"
         inkscape:connector-curvature="0"
         style="fill:#000000;fill-opacity:1" /><path
         class="st1"
         d="m 284.9,221.6 c 0,0.1 0,0.2 -0.2,0.2 -0.4,0.1 -0.8,0.1 -1.2,0.2 -0.1,0 -0.2,0 -0.2,-0.1 -0.4,-2.5 -0.9,-4.9 -1.3,-7.4 0,-0.1 0,-0.2 0.2,-0.2 0.8,-0.1 1.6,-0.3 2.4,-0.4 0.3,0 0.5,0 0.8,0 0.3,0.1 0.5,0.2 0.7,0.3 0.2,0.1 0.4,0.3 0.5,0.5 0.1,0.2 0.2,0.4 0.2,0.6 0.1,0.5 0.1,1.1 0.2,1.6 0,0.3 -0.1,0.6 -0.2,0.9 -0.2,0.3 -0.4,0.5 -0.7,0.7 0.6,0.9 1.1,1.8 1.7,2.8 0,0.1 0,0.2 -0.1,0.2 -0.4,0 -0.8,0.1 -1.3,0.1 -0.1,0 -0.1,0 -0.2,0 -0.1,0 -0.1,-0.1 -0.1,-0.1 -0.4,-0.8 -0.9,-1.5 -1.4,-2.3 0,0.8 0.1,1.6 0.2,2.4 z m -0.6,-4.2 c 0.2,0 0.3,0 0.5,-0.1 0.1,0 0.2,-0.1 0.2,-0.1 0.1,-0.1 0.1,-0.1 0.1,-0.2 -0.1,-0.5 -0.1,-1 -0.2,-1.5 0,-0.1 -0.1,-0.2 -0.1,-0.2 -0.1,-0.1 -0.2,-0.1 -0.3,-0.1 -0.2,0 -0.3,0 -0.5,0.1 0.1,0.8 0.2,1.5 0.3,2.1 z"
         id="path39"
         inkscape:connector-curvature="0"
         style="fill:#000000;fill-opacity:1" /><path
         class="st1"
         d="m 291.3,213.4 c 0.2,0.1 0.5,0.2 0.6,0.3 0.2,0.1 0.3,0.3 0.4,0.5 0.1,0.2 0.2,0.4 0.2,0.6 0,0.1 0,0.2 0,0.3 0,0.1 -0.1,0.2 -0.2,0.2 -0.5,0.1 -0.9,0.3 -1.4,0.5 -0.1,0 -0.2,0 -0.2,-0.1 0,-0.3 0,-0.5 0,-0.8 0,-0.1 0,-0.2 -0.1,-0.2 -0.1,-0.1 -0.2,-0.1 -0.3,-0.1 0,0 -0.1,0 -0.1,0 -0.1,0 -0.2,0 -0.3,0.1 -0.1,0.1 -0.1,0.1 -0.1,0.2 0.1,1.5 0.1,3.1 0.2,4.6 0,0.1 0,0.2 0.1,0.2 0.1,0.1 0.2,0.1 0.2,0.1 0,0 0.1,0 0.1,0 0.1,0 0.2,0 0.2,-0.1 0.1,-0.1 0.1,-0.1 0.1,-0.2 0,-0.5 0,-0.9 0,-1.4 -0.1,0 -0.3,0 -0.4,0 0,-0.5 0,-1 -0.1,-1.5 0.7,0 1.3,0 2,0 0.1,0 0.2,0.1 0.2,0.2 0,0.9 0,1.9 0,2.8 0,0.2 0,0.4 -0.1,0.6 -0.1,0.2 -0.2,0.4 -0.4,0.5 -0.2,0.1 -0.3,0.3 -0.6,0.4 -0.2,0.1 -0.4,0.1 -0.7,0.1 -0.2,0 -0.4,0 -0.5,0 -0.2,0 -0.5,0 -0.7,-0.1 -0.2,-0.1 -0.4,-0.2 -0.6,-0.3 -0.2,-0.1 -0.3,-0.3 -0.4,-0.5 -0.1,-0.2 -0.2,-0.4 -0.2,-0.6 -0.1,-1.6 -0.2,-3.1 -0.4,-4.7 0,-0.2 0,-0.4 0.1,-0.6 0.1,-0.2 0.2,-0.4 0.4,-0.5 0.2,-0.2 0.4,-0.3 0.6,-0.4 0.2,-0.1 0.5,-0.2 0.8,-0.2 0.2,0 0.4,0 0.6,0 0.5,0 0.8,0 1,0.1 z"
         id="path41"
         inkscape:connector-curvature="0"
         style="fill:#000000;fill-opacity:1" /><path
         class="st1"
         d="m 297.8,221.3 c 0,0.1 -0.1,0.2 -0.2,0.2 -0.4,0 -0.8,-0.1 -1.3,-0.1 -0.1,0 -0.2,-0.1 -0.2,-0.2 0,-0.4 0,-0.9 0,-1.3 -0.3,0 -0.6,0 -0.9,-0.1 -0.1,0.4 -0.1,0.8 -0.2,1.3 0,0.1 -0.1,0.2 -0.2,0.2 -0.4,0 -0.8,0 -1.3,0 -0.1,0 -0.2,-0.1 -0.2,-0.2 0.4,-2.5 0.8,-5 1.3,-7.4 0,-0.1 0.1,-0.2 0.3,-0.2 0.7,0 1.4,0.1 2.1,0.1 0.1,0 0.2,0.1 0.2,0.2 0.4,2.5 0.5,5 0.6,7.5 z m -1.7,-2.9 c 0,-1 -0.1,-1.9 -0.1,-2.9 0,0 -0.1,0 -0.1,0 -0.2,1 -0.3,1.9 -0.4,2.9 0.2,0 0.4,0 0.6,0 z"
         id="path43"
         inkscape:connector-curvature="0"
         style="fill:#000000;fill-opacity:1" /><path
         class="st1"
         d="m 304.8,214.8 c -0.5,2.4 -1,4.9 -1.5,7.3 0,0.1 -0.1,0.2 -0.2,0.1 -0.3,-0.1 -0.6,-0.1 -0.9,-0.2 -0.1,0 -0.1,0 -0.1,-0.1 0,0 -0.1,-0.1 -0.1,-0.1 -0.3,-1.2 -0.6,-2.4 -0.9,-3.6 -0.2,1.1 -0.3,2.2 -0.5,3.4 0,0.1 -0.1,0.2 -0.2,0.2 -0.4,-0.1 -0.8,-0.1 -1.2,-0.2 -0.1,0 -0.2,-0.1 -0.2,-0.2 0.3,-2.5 0.6,-4.9 0.9,-7.4 0,-0.1 0.1,-0.2 0.2,-0.2 0.3,0 0.7,0.1 1,0.1 0.1,0 0.1,0 0.2,0.1 0.1,0 0.1,0.1 0.1,0.1 0.4,1.3 0.7,2.7 1,4 0.2,-1.2 0.4,-2.5 0.7,-3.7 0,-0.1 0.1,-0.2 0.3,-0.1 0.5,0.1 0.9,0.2 1.4,0.3 -0.1,0 0,0.1 0,0.2 z"
         id="path45"
         inkscape:connector-curvature="0"
         style="fill:#000000;fill-opacity:1" /><path
         class="st1"
         d="m 306.2,222.8 c 0,0.1 -0.1,0.2 -0.2,0.1 -0.4,-0.1 -0.8,-0.2 -1.2,-0.3 -0.1,0 -0.2,-0.1 -0.1,-0.2 0.6,-2.4 1.1,-4.8 1.7,-7.3 0,-0.1 0.1,-0.2 0.3,-0.1 0.5,0.1 0.9,0.2 1.4,0.3 0.1,0 0.2,0.1 0.2,0.2 -0.8,2.5 -1.4,4.9 -2.1,7.3 z"
         id="path47"
         inkscape:connector-curvature="0"
         style="fill:#000000;fill-opacity:1" /><path
         class="st1"
         d="m 311.7,223.4 c -0.1,0.3 -0.3,0.7 -0.4,1 0,0.1 -0.1,0.1 -0.2,0.1 -1.2,-0.4 -2.3,-0.8 -3.5,-1.2 -0.1,0 -0.1,0 -0.1,-0.1 0,0 0,-0.1 0,-0.1 1.2,-1.8 2.5,-3.6 3.8,-5.3 -0.6,-0.2 -1.3,-0.4 -1.9,-0.6 -0.1,0 -0.2,-0.1 -0.2,-0.2 0.1,-0.4 0.2,-0.7 0.3,-1.1 0,-0.1 0.1,-0.2 0.3,-0.1 1.4,0.4 2.7,0.8 4,1.3 0.1,0 0.1,0.1 0.1,0.1 0,0 0,0.1 0,0.1 -1.4,1.7 -2.8,3.4 -4.1,5.1 0.6,0.2 1.2,0.4 1.8,0.6 0.1,0.2 0.1,0.3 0.1,0.4 z"
         id="path49"
         inkscape:connector-curvature="0"
         style="fill:#000000;fill-opacity:1" /><path
         class="st1"
         d="m 316.2,226.5 c 0,0.1 -0.1,0.1 -0.2,0.1 -0.4,-0.2 -0.8,-0.4 -1.2,-0.6 -0.1,-0.1 -0.2,-0.1 -0.1,-0.3 0.1,-0.4 0.3,-0.8 0.4,-1.2 -0.3,-0.1 -0.5,-0.2 -0.8,-0.4 -0.2,0.4 -0.4,0.8 -0.6,1.1 -0.1,0.1 -0.2,0.1 -0.3,0.1 -0.4,-0.2 -0.8,-0.3 -1.2,-0.5 -0.1,0 -0.2,-0.1 -0.1,-0.2 1.2,-2.2 2.5,-4.4 3.9,-6.5 0.1,-0.1 0.2,-0.1 0.3,-0.1 0.7,0.3 1.3,0.6 2,0.9 0.1,0.1 0.2,0.2 0.2,0.3 -0.8,2.5 -1.6,5 -2.3,7.3 z m -0.6,-3.3 c 0.3,-0.9 0.6,-1.8 0.9,-2.8 0,0 -0.1,0 -0.1,0 -0.5,0.8 -1,1.7 -1.4,2.5 0.1,0.1 0.4,0.2 0.6,0.3 z"
         id="path51"
         inkscape:connector-curvature="0"
         style="fill:#000000;fill-opacity:1" /><path
         class="st1"
         d="m 323.9,222.3 c -0.2,0.3 -0.4,0.7 -0.6,1 -0.1,0.1 -0.2,0.1 -0.3,0 -0.3,-0.2 -0.7,-0.4 -1,-0.6 -1,1.8 -2,3.5 -3.1,5.3 -0.1,0.1 -0.1,0.1 -0.3,0.1 -0.4,-0.2 -0.7,-0.4 -1.1,-0.6 0,0 -0.1,-0.1 -0.1,-0.1 0,-0.1 0,-0.1 0,-0.1 1,-1.8 1.9,-3.6 2.9,-5.4 -0.3,-0.2 -0.7,-0.3 -1,-0.5 -0.1,-0.1 -0.2,-0.2 -0.1,-0.3 0.2,-0.3 0.3,-0.7 0.5,-1 0.1,-0.1 0.2,-0.1 0.3,-0.1 1.2,0.6 2.5,1.3 3.7,2 0.3,0.1 0.3,0.2 0.2,0.3 z"
         id="path53"
         inkscape:connector-curvature="0"
         style="fill:#000000;fill-opacity:1" /><path
         class="st1"
         d="m 322.5,230.2 c -0.1,0.1 -0.2,0.1 -0.3,0 -0.4,-0.2 -0.7,-0.5 -1.1,-0.7 -0.1,-0.1 -0.1,-0.2 -0.1,-0.3 1.3,-2.1 2.7,-4.2 4,-6.3 0.1,-0.1 0.2,-0.1 0.3,0 0.4,0.3 0.8,0.5 1.2,0.8 0.1,0.1 0.2,0.2 0.1,0.3 -1.3,2.1 -2.7,4.2 -4.1,6.2 z"
         id="path55"
         inkscape:connector-curvature="0"
         style="fill:#000000;fill-opacity:1" /><path
         class="st1"
         d="m 327.8,232.5 c -0.1,0.2 -0.3,0.3 -0.5,0.4 -0.2,0.1 -0.4,0.1 -0.6,0.1 -0.2,0 -0.4,0 -0.7,-0.1 -0.2,-0.1 -0.4,-0.2 -0.6,-0.3 -0.1,-0.1 -0.3,-0.2 -0.4,-0.3 -0.2,-0.2 -0.4,-0.3 -0.5,-0.5 -0.1,-0.2 -0.2,-0.4 -0.3,-0.6 0,-0.2 -0.1,-0.4 0,-0.7 0,-0.2 0.1,-0.4 0.3,-0.6 0.9,-1.3 1.8,-2.6 2.8,-3.8 0.1,-0.2 0.3,-0.3 0.5,-0.4 0.2,-0.1 0.4,-0.2 0.7,-0.2 0.2,0 0.5,0 0.7,0.1 0.3,0.1 0.5,0.2 0.7,0.4 0.2,0.1 0.3,0.3 0.5,0.4 0.2,0.2 0.4,0.4 0.6,0.6 0.1,0.2 0.2,0.5 0.3,0.7 0.1,0.2 0.1,0.5 0,0.7 0,0.2 -0.1,0.4 -0.3,0.6 -1.2,1.1 -2.2,2.3 -3.2,3.5 z m 1.5,-4.7 c 0.1,-0.1 0.1,-0.1 0,-0.2 0,-0.1 -0.1,-0.2 -0.2,-0.2 0,0 -0.1,-0.1 -0.1,-0.1 -0.1,-0.1 -0.2,-0.1 -0.3,-0.1 -0.1,0 -0.2,0 -0.2,0.1 -0.9,1.2 -1.9,2.4 -2.8,3.6 -0.1,0.1 -0.1,0.1 -0.1,0.2 0,0.1 0.1,0.2 0.1,0.2 0,0 0.1,0 0.1,0.1 0.1,0.1 0.2,0.1 0.3,0.1 0.1,0 0.2,0 0.2,-0.1 1.1,-1.2 2,-2.4 3,-3.6 z"
         id="path57"
         inkscape:connector-curvature="0"
         style="fill:#000000;fill-opacity:1" /><path
         class="st1"
         d="m 336.7,232.7 c -1.8,1.7 -3.6,3.4 -5.4,5.1 -0.1,0.1 -0.2,0.1 -0.3,0 -0.2,-0.2 -0.4,-0.5 -0.7,-0.7 0,0 -0.1,-0.1 -0.1,-0.2 0,-0.1 0,-0.1 0,-0.2 0.4,-1.2 0.8,-2.4 1.2,-3.6 -0.8,0.8 -1.6,1.6 -2.3,2.5 -0.1,0.1 -0.2,0.1 -0.3,0 -0.3,-0.3 -0.6,-0.6 -1,-0.9 -0.1,-0.1 -0.1,-0.2 0,-0.3 1.7,-1.9 3.3,-3.7 5,-5.6 0.1,-0.1 0.2,-0.1 0.3,0 0.3,0.2 0.6,0.5 0.8,0.8 0.1,0 0.1,0.1 0.1,0.2 0,0.1 0,0.1 0,0.2 -0.4,1.3 -0.9,2.6 -1.4,3.9 0.9,-0.9 1.8,-1.8 2.7,-2.7 0.1,-0.1 0.2,-0.1 0.3,0 0.4,0.4 0.7,0.7 1.1,1.1 0.1,0.2 0.1,0.3 0,0.4 z"
         id="path59"
         inkscape:connector-curvature="0"
         style="fill:#000000;fill-opacity:1" /></g><g
       id="g61"
       style="fill:#000000;fill-opacity:1"><path
         class="st0"
         d="m 266.3,305.6 c 0.1,0.1 0.2,0.2 0.2,0.3 0.1,0.1 0.1,0.2 0.1,0.4 0,0.1 0,0.3 0,0.4 0,0.1 -0.1,0.2 -0.1,0.3 0,0.1 -0.1,0.1 -0.1,0.1 -0.2,0 -0.5,0 -0.7,0 -0.1,0 -0.1,0 -0.1,-0.1 0.1,-0.2 0.1,-0.3 0.2,-0.5 0,0 0,-0.1 0,-0.1 0,0 -0.1,-0.1 -0.1,-0.1 0,0 0,0 -0.1,0 0,0 -0.1,0 -0.1,0 0,0 -0.1,0.1 -0.1,0.1 0,0.1 -0.1,0.3 -0.1,0.4 0,0.1 0,0.1 0,0.1 0,0 0,0.1 0,0.1 0.2,0.3 0.5,0.7 0.7,1 0.1,0.1 0.1,0.2 0.1,0.3 0,0.1 0,0.2 0,0.3 -0.1,0.2 -0.2,0.5 -0.2,0.7 0,0.1 -0.1,0.2 -0.2,0.3 -0.1,0.1 -0.2,0.2 -0.3,0.2 -0.1,0.1 -0.2,0.1 -0.4,0.1 -0.1,0 -0.3,0 -0.4,0 -0.1,0 -0.2,-0.1 -0.3,-0.1 -0.1,0 -0.2,-0.1 -0.3,-0.2 -0.1,-0.1 -0.2,-0.2 -0.2,-0.3 -0.1,-0.1 -0.1,-0.2 -0.1,-0.4 0,-0.1 0,-0.3 0,-0.4 0,-0.1 0.1,-0.3 0.1,-0.4 0,-0.1 0.1,-0.1 0.1,-0.1 0.2,0 0.5,0 0.7,0.1 0.1,0 0.1,0 0.1,0.1 -0.1,0.2 -0.1,0.4 -0.2,0.6 0,0 0,0.1 0,0.1 0,0 0.1,0.1 0.1,0.1 0,0 0,0 0.1,0 0,0 0.1,0 0.1,0 0,0 0.1,-0.1 0.1,-0.1 0,-0.1 0.1,-0.3 0.1,-0.4 0,-0.1 0,-0.1 0,-0.2 0,-0.1 0,-0.1 0,-0.2 -0.2,-0.3 -0.5,-0.7 -0.7,-1 -0.1,-0.1 -0.1,-0.2 -0.1,-0.3 0,-0.1 0,-0.2 0,-0.3 0.1,-0.2 0.1,-0.4 0.2,-0.6 0,-0.1 0.1,-0.2 0.2,-0.3 0.1,-0.1 0.2,-0.2 0.3,-0.2 0.1,-0.1 0.2,-0.1 0.4,-0.1 0.1,0 0.3,0 0.4,0 0.1,0 0.2,0.1 0.3,0.1 0.1,0.1 0.2,0.1 0.3,0.2 z"
         id="path63"
         inkscape:connector-curvature="0"
         style="fill:#000000;fill-opacity:1" /><path
         class="st0"
         d="m 269.4,306.6 c -0.3,1.1 -0.6,2.3 -1,3.4 0,0.1 -0.1,0.2 -0.2,0.3 -0.1,0.1 -0.2,0.2 -0.3,0.2 -0.1,0.1 -0.2,0.1 -0.4,0.1 -0.1,0 -0.3,0 -0.4,0 -0.1,0 -0.2,-0.1 -0.3,-0.1 -0.1,0 -0.3,-0.1 -0.4,-0.2 -0.1,-0.1 -0.2,-0.2 -0.2,-0.3 -0.1,-0.1 -0.1,-0.2 -0.1,-0.4 0,-0.1 0,-0.3 0,-0.4 0.3,-1.1 0.7,-2.3 1,-3.4 0,-0.1 0.1,-0.1 0.1,-0.1 0.2,0.1 0.4,0.1 0.6,0.2 0.1,0 0.1,0.1 0.1,0.1 -0.3,1.1 -0.7,2.3 -1,3.4 0,0 0,0.1 0,0.1 0,0 0.1,0.1 0.1,0.1 0,0 0,0 0.1,0 0.1,0 0.1,0 0.1,0 0,0 0.1,-0.1 0.1,-0.1 0.3,-1.1 0.7,-2.3 1,-3.4 0,-0.1 0.1,-0.1 0.1,-0.1 0.2,0.1 0.4,0.1 0.6,0.2 0.4,0.3 0.5,0.4 0.4,0.4 z"
         id="path65"
         inkscape:connector-curvature="0"
         style="fill:#000000;fill-opacity:1" /><path
         class="st0"
         d="m 273,307.6 c -0.3,1.4 -0.7,2.8 -1,4.2 0,0.1 -0.1,0.1 -0.1,0.1 -0.2,-0.1 -0.5,-0.1 -0.7,-0.2 -0.1,0 -0.1,-0.1 -0.1,-0.1 0.2,-0.7 0.3,-1.3 0.5,-2 -0.3,0.5 -0.6,1.1 -0.9,1.6 0,0 0,0 0,0 0,0 0,0 0,0 0,-0.6 0,-1.3 -0.1,-1.9 -0.2,0.7 -0.3,1.3 -0.5,2 0,0.1 -0.1,0.1 -0.1,0.1 -0.2,-0.1 -0.5,-0.1 -0.7,-0.2 -0.1,0 -0.1,-0.1 -0.1,-0.1 0.4,-1.4 0.8,-2.8 1.1,-4.2 0,-0.1 0.1,-0.1 0.1,-0.1 0.2,0.1 0.4,0.1 0.6,0.2 0,0 0.1,0 0.1,0.1 0,0 0,0.1 0,0.1 0,0.8 0,1.6 0,2.4 0.4,-0.7 0.8,-1.4 1.2,-2.1 0,0 0,0 0.1,-0.1 0,0 0.1,0 0.1,0 0.2,0.1 0.4,0.1 0.6,0.1 -0.1,-0.1 -0.1,0 -0.1,0.1 z"
         id="path67"
         inkscape:connector-curvature="0"
         style="fill:#000000;fill-opacity:1" /><path
         class="st0"
         d="m 276.6,308.3 c -0.3,1.4 -0.5,2.9 -0.8,4.3 0,0.1 -0.1,0.1 -0.1,0.1 -0.2,0 -0.5,-0.1 -0.7,-0.1 -0.1,0 -0.1,-0.1 -0.1,-0.1 0.1,-0.7 0.3,-1.3 0.4,-2 -0.3,0.6 -0.6,1.1 -0.9,1.7 0,0 0,0 0,0 0,0 0,0 0,0 0,-0.6 -0.1,-1.3 -0.1,-1.9 -0.1,0.7 -0.3,1.3 -0.4,2 0,0.1 -0.1,0.1 -0.1,0.1 -0.2,-0.1 -0.5,-0.1 -0.7,-0.2 -0.1,0 -0.1,-0.1 -0.1,-0.1 0.3,-1.4 0.6,-2.8 1,-4.3 0,-0.1 0.1,-0.1 0.1,-0.1 0.2,0 0.4,0.1 0.6,0.1 0,0 0.1,0 0.1,0.1 0,0 0,0.1 0,0.1 0,0.8 0.1,1.6 0.1,2.4 0.4,-0.7 0.7,-1.5 1.1,-2.2 0,0 0,0 0.1,-0.1 0,0 0.1,0 0.1,0 0.2,0 0.4,0.1 0.6,0.1 -0.2,0 -0.2,0 -0.2,0.1 z"
         id="path69"
         inkscape:connector-curvature="0"
         style="fill:#000000;fill-opacity:1" /><path
         class="st0"
         d="m 278.6,312.4 c 0,0.2 -0.1,0.4 -0.1,0.7 0,0.1 -0.1,0.1 -0.1,0.1 -0.6,-0.1 -1.1,-0.2 -1.7,-0.3 -0.1,0 -0.1,-0.1 -0.1,-0.1 0.3,-1.4 0.5,-2.9 0.8,-4.3 0,-0.1 0.1,-0.1 0.1,-0.1 0.5,0.1 1.1,0.2 1.6,0.3 0.1,0 0.1,0.1 0.1,0.1 0,0.2 -0.1,0.4 -0.1,0.7 0,0.1 -0.1,0.1 -0.1,0.1 -0.3,0 -0.6,-0.1 -0.9,-0.1 0,0.3 -0.1,0.6 -0.1,0.9 0.3,0 0.5,0.1 0.8,0.1 0.1,0 0.1,0.1 0.1,0.1 0,0.2 -0.1,0.4 -0.1,0.7 0,0.1 -0.1,0.1 -0.1,0.1 -0.3,0 -0.5,-0.1 -0.8,-0.1 -0.1,0.3 -0.1,0.7 -0.2,1 0.3,0 0.6,0.1 0.9,0.1 -0.1,-0.1 0,-0.1 0,0 z"
         id="path71"
         inkscape:connector-curvature="0"
         style="fill:#000000;fill-opacity:1" /><path
         class="st0"
         d="m 280.1,313.3 c 0,0.1 -0.1,0.1 -0.1,0.1 -0.2,0 -0.5,-0.1 -0.7,-0.1 -0.1,0 -0.1,-0.1 -0.1,-0.1 0.2,-1.4 0.4,-2.9 0.6,-4.3 0,-0.1 0,-0.1 0.1,-0.1 0.4,0.1 0.7,0.1 1.1,0.2 0.1,0 0.2,0.1 0.4,0.1 0.1,0.1 0.2,0.1 0.3,0.2 0.1,0.1 0.1,0.2 0.2,0.3 0,0.1 0,0.2 0,0.4 0,0.3 -0.1,0.6 -0.1,0.9 0,0.2 -0.1,0.3 -0.2,0.5 -0.1,0.1 -0.3,0.2 -0.5,0.3 0.2,0.6 0.3,1.2 0.5,1.8 0,0.1 0,0.1 -0.1,0.1 -0.2,0 -0.5,-0.1 -0.7,-0.1 0,0 -0.1,0 -0.1,0 0,0 0,-0.1 0,-0.1 -0.1,-0.5 -0.3,-1 -0.4,-1.5 -0.1,0.5 -0.1,1 -0.2,1.4 z m 0.4,-2.4 c 0.1,0 0.2,0 0.2,0 0.1,0 0.1,0 0.1,0 0,0 0.1,-0.1 0.1,-0.1 0,-0.3 0.1,-0.6 0.1,-0.9 0,-0.1 0,-0.1 0,-0.1 0,0 -0.1,-0.1 -0.1,-0.1 -0.1,0 -0.2,0 -0.2,0 -0.1,0.4 -0.2,0.8 -0.2,1.2 z"
         id="path73"
         inkscape:connector-curvature="0"
         style="fill:#000000;fill-opacity:1" /><path
         class="st0"
         d="m 285.3,309.4 c 0.1,0.1 0.2,0.1 0.3,0.2 0.1,0.1 0.1,0.2 0.2,0.3 0,0.1 0.1,0.2 0,0.4 0,0.2 0,0.3 0,0.5 0,0.1 0,0.1 -0.1,0.1 -0.2,0 -0.5,0 -0.7,0 -0.1,0 -0.1,0 -0.1,-0.1 0,-0.2 0,-0.4 0.1,-0.6 0,-0.1 0,-0.1 0,-0.1 0,0 -0.1,-0.1 -0.1,-0.1 0,0 0,0 -0.1,0 0,0 -0.1,0 -0.1,0 0,0 -0.1,0.1 -0.1,0.1 -0.1,0.9 -0.2,1.8 -0.3,2.7 0,0.1 0,0.1 0,0.1 0,0 0.1,0.1 0.1,0.1 0,0 0,0 0.1,0 0.1,0 0.1,0 0.1,0 0,0 0.1,-0.1 0.1,-0.1 0,-0.3 0.1,-0.6 0.1,-0.9 0,-0.1 0,-0.1 0.1,-0.1 0.2,0.1 0.5,0.1 0.7,0.1 0.1,0 0.1,0.1 0.1,0.1 0,0.3 0,0.5 -0.1,0.8 0,0.1 0,0.3 -0.1,0.4 -0.1,0.1 -0.1,0.2 -0.2,0.3 -0.1,0.1 -0.2,0.1 -0.3,0.2 -0.1,0 -0.3,0.1 -0.4,0 -0.1,0 -0.2,0 -0.3,0 -0.1,0 -0.3,-0.1 -0.4,-0.1 -0.1,-0.1 -0.2,-0.1 -0.3,-0.2 -0.1,-0.1 -0.1,-0.2 -0.2,-0.3 0,-0.1 -0.1,-0.2 0,-0.4 0.1,-0.9 0.2,-1.8 0.3,-2.7 0,-0.1 0.1,-0.3 0.1,-0.4 0.1,-0.1 0.1,-0.2 0.2,-0.3 0.1,-0.1 0.2,-0.1 0.3,-0.2 0.1,0 0.2,-0.1 0.4,0 0.1,0 0.2,0 0.3,0 0.1,0.1 0.2,0.2 0.3,0.2 z"
         id="path75"
         inkscape:connector-curvature="0"
         style="fill:#000000;fill-opacity:1" /><path
         class="st0"
         d="m 288.5,314.1 c 0,0.1 0,0.1 -0.1,0.1 -0.2,0 -0.5,0 -0.7,0 -0.1,0 -0.1,0 -0.1,-0.1 0,-0.3 0,-0.5 0,-0.7 -0.2,0 -0.3,0 -0.5,0 0,0.2 -0.1,0.5 -0.1,0.7 0,0.1 -0.1,0.1 -0.1,0.1 -0.2,0 -0.5,0 -0.7,0 -0.1,0 -0.1,0 -0.1,-0.1 0.3,-1.4 0.6,-2.9 0.9,-4.3 0,-0.1 0.1,-0.1 0.1,-0.1 0.3,0 0.7,0 1,0.1 0.1,0 0.1,0 0.1,0.1 0,1.3 0.2,2.7 0.3,4.2 z m -1,-1.7 c 0,-0.6 0,-1.1 0,-1.7 0,0 0,0 -0.1,0 -0.1,0.6 -0.2,1.1 -0.2,1.7 0.1,0 0.2,0 0.3,0 z"
         id="path77"
         inkscape:connector-curvature="0"
         style="fill:#000000;fill-opacity:1" /><path
         class="st0"
         d="m 292.2,309.8 c 0,1.5 0,2.9 0,4.4 0,0.1 0,0.1 -0.1,0.1 -0.3,0 -0.5,0 -0.8,0 -0.1,0 -0.1,0 -0.1,-0.1 0,-0.7 0,-1.4 0,-2 -0.2,0.6 -0.4,1.2 -0.5,1.8 0,0 0,0 0,0 0,0 0,0 0,0 -0.2,-0.6 -0.3,-1.2 -0.5,-1.8 0,0.7 0,1.4 -0.1,2 0,0.1 0,0.1 -0.1,0.1 -0.3,0 -0.5,0 -0.8,0 -0.1,0 -0.1,0 -0.1,-0.1 0.1,-1.5 0.1,-2.9 0.2,-4.4 0,-0.1 0,-0.1 0.1,-0.1 0.2,0 0.4,0 0.6,0 0,0 0.1,0 0.1,0 0,0 0,0 0,0.1 0.2,0.8 0.4,1.6 0.5,2.4 0.2,-0.8 0.4,-1.6 0.6,-2.3 0,0 0,0 0,-0.1 0,0 0.1,0 0.1,0 0.2,0 0.4,0 0.6,0 0.3,-0.1 0.3,0 0.3,0 z"
         id="path79"
         inkscape:connector-curvature="0"
         style="fill:#000000;fill-opacity:1" /><path
         class="st0"
         d="m 294.2,309.7 c 0.1,0 0.3,0 0.4,0.1 0.1,0 0.2,0.1 0.3,0.2 0.1,0.1 0.2,0.2 0.2,0.3 0.1,0.1 0.1,0.2 0.1,0.4 0,0.3 0,0.7 0,1 0,0.1 0,0.3 -0.1,0.4 0,0.1 -0.1,0.2 -0.2,0.3 -0.1,0.1 -0.2,0.2 -0.3,0.2 -0.1,0.1 -0.2,0.1 -0.4,0.1 -0.1,0 -0.2,0 -0.4,0 0,0.5 0,1 0,1.5 0,0.1 0,0.1 -0.1,0.1 -0.2,0 -0.5,0 -0.7,0 -0.1,0 -0.1,0 -0.1,-0.1 0,-1.5 0,-2.9 0,-4.4 0,-0.1 0,-0.1 0.1,-0.1 0.4,0 0.8,0 1.2,0 z m 0.1,1 c 0,-0.1 0,-0.1 -0.1,-0.1 0,0 -0.1,-0.1 -0.1,-0.1 -0.1,0 -0.2,0 -0.2,0 0,0.4 0,0.9 0,1.3 0.1,0 0.2,0 0.2,0 0.1,0 0.1,0 0.1,-0.1 0,0 0.1,-0.1 0.1,-0.1 0,-0.3 0,-0.6 0,-0.9 z"
         id="path81"
         inkscape:connector-curvature="0"
         style="fill:#000000;fill-opacity:1" /><path
         class="st0"
         d="m 299.2,314 c 0,0.1 0,0.1 -0.1,0.1 -0.2,0 -0.5,0 -0.7,0 -0.1,0 -0.1,0 -0.1,-0.1 0,-0.2 -0.1,-0.5 -0.1,-0.7 -0.2,0 -0.3,0 -0.5,0 0,0.3 0,0.5 0,0.7 0,0.1 0,0.1 -0.1,0.1 -0.2,0 -0.5,0 -0.7,0 -0.1,0 -0.1,0 -0.1,-0.1 0.1,-1.5 0.3,-2.9 0.4,-4.4 0,-0.1 0,-0.1 0.1,-0.1 0.3,0 0.7,0 1,-0.1 0.1,0 0.1,0 0.1,0.1 0.2,1.6 0.5,3 0.8,4.5 z m -1.1,-1.6 c -0.1,-0.6 -0.2,-1.1 -0.2,-1.7 0,0 0,0 -0.1,0 0,0.6 0,1.1 0,1.7 0.1,0 0.2,0 0.3,0 z"
         id="path83"
         inkscape:connector-curvature="0"
         style="fill:#000000;fill-opacity:1" /><path
         class="st0"
         d="m 300.7,309.4 c 0.1,0 0.3,0 0.4,0 0.1,0 0.2,0.1 0.3,0.2 0.1,0.1 0.2,0.2 0.2,0.3 0.1,0.1 0.1,0.2 0.1,0.4 0.1,0.9 0.2,1.8 0.3,2.6 0,0.1 0,0.3 0,0.4 0,0.1 -0.1,0.2 -0.2,0.3 -0.1,0.1 -0.2,0.2 -0.3,0.2 -0.1,0.1 -0.2,0.1 -0.4,0.1 -0.4,0 -0.8,0.1 -1.2,0.1 -0.1,0 -0.1,0 -0.1,-0.1 -0.1,-1.4 -0.2,-2.9 -0.3,-4.3 0,-0.1 0,-0.1 0.1,-0.1 0.4,-0.1 0.7,-0.1 1.1,-0.1 z m 0.2,0.9 c 0,-0.1 0,-0.1 -0.1,-0.1 0,0 -0.1,0 -0.1,0 -0.1,0 -0.2,0 -0.2,0 0.1,1 0.2,2 0.3,2.9 0.1,0 0.2,0 0.2,0 0.1,0 0.1,0 0.1,-0.1 0,0 0,-0.1 0,-0.1 -0.1,-0.9 -0.1,-1.7 -0.2,-2.6 z"
         id="path85"
         inkscape:connector-curvature="0"
         style="fill:#000000;fill-opacity:1" /><path
         class="st0"
         d="m 304.7,309 c -0.1,1.5 -0.2,3 -0.3,4.4 0,0.1 0,0.1 -0.1,0.1 -0.2,0 -0.5,0.1 -0.7,0.1 -0.1,0 -0.1,0 -0.1,-0.1 -0.5,-1.4 -0.9,-2.8 -1.4,-4.2 0,-0.1 0,-0.1 0.1,-0.1 0.3,0 0.5,-0.1 0.8,-0.1 0.1,0 0.1,0 0.1,0.1 0.2,0.9 0.4,1.9 0.7,2.8 0,0 0,0 0,0 0,-1 0,-1.9 0,-2.9 0,-0.1 0,-0.1 0.1,-0.1 0.3,0 0.5,-0.1 0.8,-0.1 0,0 0,0 0,0.1 z"
         id="path87"
         inkscape:connector-curvature="0"
         style="fill:#000000;fill-opacity:1" /><path
         class="st0"
         d="m 307.7,312.3 c 0,0.2 0.1,0.4 0.1,0.7 0,0.1 0,0.1 -0.1,0.1 -0.6,0.1 -1.1,0.2 -1.7,0.3 -0.1,0 -0.1,0 -0.1,-0.1 -0.2,-1.4 -0.4,-2.9 -0.6,-4.3 0,-0.1 0,-0.1 0.1,-0.1 0.5,-0.1 1.1,-0.2 1.6,-0.3 0.1,0 0.1,0 0.1,0.1 0,0.2 0.1,0.4 0.1,0.7 0,0.1 0,0.1 -0.1,0.1 -0.3,0 -0.6,0.1 -0.9,0.1 0,0.3 0.1,0.6 0.1,0.9 0.3,0 0.5,-0.1 0.7,-0.1 0.1,0 0.1,0 0.1,0.1 0,0.2 0.1,0.4 0.1,0.7 0,0.1 0,0.1 -0.1,0.1 -0.3,0 -0.5,0.1 -0.8,0.1 0.1,0.3 0.1,0.7 0.2,1 0.3,0 0.6,-0.1 0.9,-0.1 0.2,-0.1 0.3,-0.1 0.3,0 z"
         id="path89"
         inkscape:connector-curvature="0"
         style="fill:#000000;fill-opacity:1" /><path
         class="st0"
         d="m 310.1,308.1 c 0.3,1.4 0.6,2.8 0.9,4.3 0,0.1 0,0.1 -0.1,0.1 -0.2,0 -0.3,0.1 -0.5,0.1 0,0 -0.1,0 -0.1,0 0,0 -0.1,0 -0.1,-0.1 -0.4,-0.6 -0.8,-1.2 -1.2,-1.8 0.1,0.6 0.2,1.3 0.4,1.9 0,0.1 0,0.1 -0.1,0.1 -0.2,0 -0.5,0.1 -0.7,0.1 -0.1,0 -0.1,0 -0.1,-0.1 -0.3,-1.4 -0.5,-2.9 -0.8,-4.3 0,-0.1 0,-0.1 0.1,-0.1 0.2,0 0.3,-0.1 0.5,-0.1 0,0 0.1,0 0.1,0 0,0 0.1,0 0.1,0.1 0.4,0.7 0.8,1.4 1.2,2 -0.1,-0.7 -0.3,-1.4 -0.4,-2.2 0,-0.1 0,-0.1 0.1,-0.1 0.2,0 0.4,-0.1 0.7,-0.1 -0.1,0.1 0,0.1 0,0.2 z"
         id="path91"
         inkscape:connector-curvature="0"
         style="fill:#000000;fill-opacity:1" /><path
         class="st0"
         d="m 312.8,307.5 c 0.1,0.2 0.1,0.4 0.2,0.7 0,0.1 0,0.1 -0.1,0.1 -0.2,0 -0.4,0.1 -0.5,0.1 0.3,1.2 0.5,2.3 0.8,3.5 0,0.1 0,0.1 -0.1,0.1 -0.2,0.1 -0.5,0.1 -0.7,0.2 0,0 -0.1,0 -0.1,0 0,0 0,0 -0.1,-0.1 -0.3,-1.2 -0.5,-2.3 -0.8,-3.5 -0.2,0 -0.3,0.1 -0.5,0.1 -0.1,0 -0.1,0 -0.1,-0.1 0,-0.2 -0.1,-0.4 -0.1,-0.7 0,-0.1 0,-0.1 0.1,-0.1 0.6,-0.1 1.3,-0.3 1.9,-0.4 0,0 0.1,0 0.1,0.1 z"
         id="path93"
         inkscape:connector-curvature="0"
         style="fill:#000000;fill-opacity:1" /><path
         class="st0"
         d="m 315.4,306.8 c 0.3,1.1 0.6,2.3 0.9,3.4 0,0.1 0,0.3 0,0.4 0,0.1 -0.1,0.2 -0.1,0.4 -0.1,0.1 -0.1,0.2 -0.3,0.3 -0.1,0.1 -0.2,0.1 -0.4,0.2 -0.1,0 -0.2,0.1 -0.3,0.1 -0.1,0 -0.3,0 -0.4,0 -0.1,0 -0.2,-0.1 -0.4,-0.1 -0.1,-0.1 -0.2,-0.1 -0.3,-0.2 -0.1,-0.1 -0.1,-0.2 -0.2,-0.3 -0.3,-1.2 -0.6,-2.3 -0.8,-3.5 0,-0.1 0,-0.1 0.1,-0.1 0.2,-0.1 0.4,-0.1 0.7,-0.2 0.1,0 0.1,0 0.1,0.1 0.3,1.1 0.6,2.3 0.9,3.4 0,0 0,0.1 0.1,0.1 0,0 0.1,0 0.1,0 0,0 0,0 0.1,0 0.1,0 0.1,0 0.1,-0.1 0,0 0,-0.1 0,-0.1 -0.3,-1.1 -0.6,-2.3 -0.9,-3.4 0,-0.1 0,-0.1 0.1,-0.1 0.2,-0.1 0.4,-0.1 0.7,-0.2 0.2,-0.2 0.2,-0.2 0.2,-0.1 z"
         id="path95"
         inkscape:connector-curvature="0"
         style="fill:#000000;fill-opacity:1" /><path
         class="st0"
         d="m 318.2,310.5 c 0,0.1 0,0.1 -0.1,0.1 -0.2,0.1 -0.5,0.1 -0.7,0.2 -0.1,0 -0.1,0 -0.1,-0.1 -0.4,-1.4 -0.8,-2.8 -1.2,-4.2 0,-0.1 0,-0.1 0.1,-0.1 0.4,-0.1 0.7,-0.2 1.1,-0.3 0.1,0 0.3,0 0.4,0 0.1,0 0.2,0.1 0.3,0.1 0.1,0.1 0.2,0.1 0.3,0.2 0.1,0.1 0.1,0.2 0.2,0.3 0.1,0.3 0.2,0.6 0.3,0.9 0.1,0.2 0,0.4 0,0.5 -0.1,0.2 -0.2,0.3 -0.3,0.5 0.4,0.5 0.8,0.9 1.2,1.4 0,0.1 0,0.1 0,0.1 -0.2,0.1 -0.5,0.1 -0.7,0.2 0,0 -0.1,0 -0.1,0 0,0 -0.1,0 -0.1,-0.1 -0.3,-0.4 -0.6,-0.8 -1,-1.2 0.1,0.6 0.2,1.1 0.4,1.5 z m -0.7,-2.3 c 0.1,0 0.2,0 0.2,-0.1 0,0 0.1,0 0.1,-0.1 0,0 0,-0.1 0,-0.1 -0.1,-0.3 -0.2,-0.5 -0.2,-0.8 0,0 0,-0.1 -0.1,-0.1 0,0 -0.1,0 -0.1,0 -0.1,0 -0.2,0 -0.2,0.1 0.1,0.3 0.2,0.7 0.3,1.1 z"
         id="path97"
         inkscape:connector-curvature="0"
         style="fill:#000000;fill-opacity:1" /><path
         class="st0"
         d="m 321.9,308.7 c 0.1,0.2 0.1,0.4 0.2,0.6 0,0.1 0,0.1 -0.1,0.1 -0.5,0.2 -1.1,0.4 -1.6,0.5 -0.1,0 -0.1,0 -0.1,-0.1 -0.4,-1.4 -0.9,-2.8 -1.3,-4.2 0,-0.1 0,-0.1 0.1,-0.1 0.5,-0.2 1,-0.3 1.6,-0.5 0.1,0 0.1,0 0.1,0.1 0.1,0.2 0.1,0.4 0.2,0.6 0,0.1 0,0.1 -0.1,0.1 -0.3,0.1 -0.6,0.2 -0.8,0.3 0.1,0.3 0.2,0.6 0.3,0.8 0.2,-0.1 0.5,-0.2 0.7,-0.2 0.1,0 0.1,0 0.1,0.1 0.1,0.2 0.1,0.4 0.2,0.6 0,0.1 0,0.1 -0.1,0.1 -0.2,0.1 -0.5,0.2 -0.7,0.2 0.1,0.3 0.2,0.7 0.3,1 0.3,-0.1 0.6,-0.2 0.9,-0.3 0,0.2 0,0.2 0.1,0.3 z"
         id="path99"
         inkscape:connector-curvature="0"
         style="fill:#000000;fill-opacity:1" /></g><g
       id="g101"
       style="fill:#000000;fill-opacity:1"><g
         id="g103"
         style="fill:#000000;fill-opacity:1"><g
           id="g105"
           style="fill:#000000;fill-opacity:1"><path
             class="st0"
             d="m 296.6,236.3 c -1.2,-1 -1.8,-1 -1.2,0.1 0.8,1.7 -0.9,3.1 -0.9,3.1 0,0 -1.6,-1 -0.7,-2.9 0.9,-1.9 2,-5.1 0.4,-6.9 -1.7,-1.8 -2.5,-1.4 -2.2,-1.2 0,0 1,1.1 0.9,2.3 -0.1,1.3 -2.6,3.3 -4.4,5.9 -1.8,2.6 -1.9,5 0.6,6.5 2.5,1.5 3.9,1.6 3.9,1.6 0,0 2.6,-0.7 4.4,-2.4 1.6,-1.8 0.4,-5 -0.8,-6.1 z m -6.7,4.4 c -1.5,-1.9 0.5,-3.7 1,-4.2 0.6,-0.6 0.6,-0.2 0,1.4 -0.6,1.7 0.9,2.8 1.9,3.7 1,0.9 -1.4,1 -2.9,-0.9 z"
             id="path107"
             inkscape:connector-curvature="0"
             style="fill:#000000;fill-opacity:1" /></g></g><g
         id="g109"
         style="fill:#000000;fill-opacity:1"><path
           class="st0"
           d="m 285.3,249.1 c 0.3,0.2 0.7,0.4 1.6,0.9 1.3,-0.7 2.9,-1.5 4.5,-2.4 -2.1,-1 -4,-1.8 -4.4,-2 -1.7,-0.8 -3.9,2.4 -1.7,3.5 z m 13.4,-3.7 c -1,0.5 -13.3,6.5 -14,6.9 -1.6,0.8 0.3,4.3 2.3,3.3 0.5,-0.2 10.6,-5.1 10.6,-5.1 1.8,-0.9 3.3,-1.5 3.8,-1.8 1.5,-0.8 -0.4,-4.3 -2.7,-3.3 z m 1.8,6.5 c -0.3,-0.1 -0.7,-0.4 -1.5,-0.7 l -4.6,2.2 c 2,0.9 3.5,1.6 4.2,1.9 2.2,0.9 3.3,-2.6 1.9,-3.4 z"
           id="path111"
           inkscape:connector-curvature="0"
           style="fill:#000000;fill-opacity:1" /></g></g><g
       id="g113"
       style="fill:#000000;fill-opacity:1"><path
         class="st1"
         d="m 269.6,243.7 c -0.1,0 -0.1,0 0,0 -0.1,0.1 -0.1,0.1 -0.1,0.1 -0.1,0.1 -0.1,0.2 -0.2,0.3 -0.1,0.1 -0.1,0.2 -0.1,0.3 0,0.1 -0.1,0.2 -0.1,0.3 l 1.1,0 c 0,0 0.1,0 0.1,0.1 l 0,0.7 c 0,0 0,0.1 -0.1,0.1 l -2,0 c 0,0 -0.1,0 -0.1,-0.1 0,-0.1 0,-0.2 0,-0.3 0,-0.1 0,-0.2 0,-0.3 0,-0.1 0,-0.2 0,-0.3 0,-0.1 0,-0.2 0.1,-0.3 0,-0.1 0.1,-0.2 0.1,-0.2 0,-0.1 0.1,-0.2 0.1,-0.2 0.1,-0.2 0.2,-0.4 0.4,-0.6 0.1,-0.2 0.2,-0.3 0.3,-0.5 0.1,-0.2 0.2,-0.3 0.3,-0.4 0,-0.1 0,-0.1 0,-0.2 0,-0.1 0,-0.1 0,-0.2 l 0,-0.9 c 0,-0.1 0,-0.1 -0.1,-0.1 0,0 -0.1,-0.1 -0.1,-0.1 l -0.1,0 c -0.1,0 -0.1,0 -0.1,0.1 0,0 -0.1,0.1 -0.1,0.1 l 0,0.5 c 0,0.1 0,0.1 -0.1,0.1 l -0.7,0.2 c -0.1,0 -0.1,0 -0.1,-0.1 l 0,-0.8 c 0,-0.1 0,-0.3 0.1,-0.4 0,-0.1 0.1,-0.2 0.2,-0.3 0.1,-0.1 0.2,-0.2 0.3,-0.2 0.1,-0.1 0.2,-0.1 0.4,-0.1 l 0.3,0 c 0.1,0 0.2,0 0.4,0.1 0.1,0.1 0.2,0.1 0.3,0.2 0.1,0.1 0.2,0.2 0.2,0.3 0,0.1 0.1,0.2 0.1,0.4 l 0,0.5 0,0.4 c 0,0.2 0,0.3 -0.1,0.5 0,0.1 -0.1,0.3 -0.2,0.4 -0.1,0.1 -0.2,0.2 -0.2,0.4 -0.1,0.2 -0.2,0.4 -0.2,0.5 z"
         id="path115"
         inkscape:connector-curvature="0"
         style="fill:#000000;fill-opacity:1" /><path
         class="st1"
         d="m 273.1,244.7 c 0,0.1 0,0.3 -0.1,0.4 0,0.1 -0.1,0.2 -0.2,0.3 -0.1,0.1 -0.2,0.2 -0.3,0.2 -0.1,0.1 -0.2,0.1 -0.4,0.1 l -0.3,0 c -0.1,0 -0.2,0 -0.4,-0.1 -0.1,-0.1 -0.2,-0.1 -0.3,-0.2 -0.1,-0.1 -0.2,-0.2 -0.2,-0.3 0,-0.1 -0.1,-0.2 -0.1,-0.4 l 0,-3.5 c 0,-0.1 0,-0.3 0.1,-0.4 0,-0.1 0.1,-0.2 0.2,-0.3 0.1,-0.1 0.2,-0.2 0.3,-0.2 0.1,-0.1 0.2,-0.1 0.4,-0.1 l 0.3,0 c 0.1,0 0.2,0 0.4,0.1 0.1,0.1 0.2,0.1 0.3,0.2 0.1,0.1 0.2,0.2 0.2,0.3 0,0.1 0.1,0.2 0.1,0.4 l 0,3.5 z m -0.9,-3.5 c 0,-0.1 0,-0.1 -0.1,-0.1 0,0 -0.1,-0.1 -0.1,-0.1 l 0,0 c -0.1,0 -0.1,0 -0.1,0.1 0,0 -0.1,0.1 -0.1,0.1 l 0,3.4 c 0,0.1 0,0.1 0.1,0.1 0,0 0.1,0.1 0.1,0.1 l 0.1,0 c 0,0 0.1,0 0.1,-0.1 0,0 0.1,-0.1 0.1,-0.1 l 0,-3.4 z"
         id="path117"
         inkscape:connector-curvature="0"
         style="fill:#000000;fill-opacity:1" /><path
         class="st1"
         d="m 275.2,240.4 0,5.1 c 0,0.1 0,0.1 -0.1,0.1 l -0.7,0 c -0.1,0 -0.1,0 -0.1,-0.1 l 0,-3.8 c -0.1,0.1 -0.1,0.1 -0.2,0.2 -0.1,0.1 -0.2,0.1 -0.3,0.1 0,0 -0.1,0 -0.1,0 0,0 0,0 0,-0.1 l 0,-0.6 c 0,0 0,0 0,-0.1 0,0 0,0 0.1,0 0.1,0 0.2,-0.1 0.3,-0.2 0.1,-0.1 0.2,-0.2 0.2,-0.3 0.1,-0.1 0.1,-0.2 0.1,-0.4 0,0 0,-0.1 0.1,-0.1 l 0.5,0 c 0.2,0.1 0.2,0.1 0.2,0.2 z"
         id="path119"
         inkscape:connector-curvature="0"
         style="fill:#000000;fill-opacity:1" /><path
         class="st1"
         d="m 277.6,242.2 c 0.2,0.1 0.3,0.1 0.4,0.3 0.1,0.1 0.1,0.3 0.1,0.5 l 0,1.7 c 0,0.1 0,0.3 -0.1,0.4 0,0.1 -0.1,0.2 -0.2,0.3 -0.1,0.1 -0.2,0.2 -0.3,0.2 -0.1,0.1 -0.2,0.1 -0.4,0.1 l -0.3,0 c -0.1,0 -0.2,0 -0.4,-0.1 -0.1,-0.1 -0.2,-0.1 -0.3,-0.2 -0.1,-0.1 -0.2,-0.2 -0.2,-0.3 0,-0.1 -0.1,-0.2 -0.1,-0.4 l 0,-0.3 c 0,-0.1 0,-0.1 0.1,-0.1 l 0.7,-0.2 c 0.1,0 0.1,0 0.1,0.1 l 0,0.5 c 0,0.1 0,0.1 0.1,0.1 0,0 0.1,0.1 0.1,0.1 l 0.1,0 c 0,0 0.1,0 0.1,-0.1 0,0 0.1,-0.1 0.1,-0.1 l 0,-1.5 c 0,-0.1 0,-0.1 0,-0.2 0,0 0,0 0,0 0,0 -0.1,0 -0.1,0 l -0.1,0 c 0,0 -0.1,0 -0.1,0 0,0 0,0 0,0 0,0 0,0.1 0,0.2 l 0,0.2 c 0,0 0,0 0,0.1 0,0 0,0 -0.1,0 l -0.7,-0.2 c -0.1,0 -0.1,-0.1 -0.1,-0.1 l 0,-2.8 c 0,-0.1 0,-0.1 0.1,-0.1 l 0.4,0 1.3,0 c 0.1,0 0.1,0 0.1,0.1 l 0,0.6 c 0,0.1 0,0.1 -0.1,0.1 l -1,0 0,1.2 c 0.1,-0.1 0.3,-0.1 0.5,-0.1 0.1,-0.1 0.2,0 0.3,0 z"
         id="path121"
         inkscape:connector-curvature="0"
         style="fill:#000000;fill-opacity:1" /></g><g
       id="g123"
       style="fill:#000000;fill-opacity:1"><path
         class="st1"
         d="m 308.9,243.7 c 0,0 0,0 0,0 -0.1,0.1 -0.1,0.1 -0.1,0.1 -0.1,0.1 -0.1,0.2 -0.2,0.3 0,0.1 -0.1,0.2 -0.1,0.3 0,0.1 -0.1,0.2 -0.1,0.3 l 1.1,0 c 0,0 0.1,0 0.1,0.1 l 0,0.7 c 0,0 0,0.1 -0.1,0.1 l -2,0 c 0,0 -0.1,0 -0.1,-0.1 0,-0.1 0,-0.2 0,-0.3 0,-0.1 0,-0.2 0,-0.3 0,-0.1 0,-0.2 0,-0.3 0,-0.1 0,-0.2 0.1,-0.3 0,-0.1 0,-0.2 0.1,-0.2 0,-0.1 0.1,-0.2 0.1,-0.2 0.1,-0.2 0.2,-0.4 0.4,-0.6 0.1,-0.2 0.2,-0.3 0.3,-0.5 0.1,-0.2 0.2,-0.3 0.3,-0.4 0,-0.1 0,-0.1 0,-0.2 0,-0.1 0,-0.1 0,-0.2 l 0,-0.9 c 0,-0.1 0,-0.1 -0.1,-0.1 0,0 -0.1,-0.1 -0.1,-0.1 l -0.1,0 c 0,0 -0.1,0 -0.1,0.1 0,0 -0.1,0.1 -0.1,0.1 l 0,0.5 c 0,0.1 0,0.1 -0.1,0.1 l -0.7,0.2 c -0.1,0 -0.1,0 -0.1,-0.1 l 0,-0.8 c 0,-0.1 0,-0.3 0.1,-0.4 0.1,-0.1 0.1,-0.2 0.2,-0.3 0.1,-0.1 0.2,-0.2 0.3,-0.2 0.1,-0.1 0.2,-0.1 0.4,-0.1 l 0.3,0 c 0.1,0 0.3,0 0.4,0.1 0.1,0.1 0.2,0.1 0.3,0.2 0.1,0.1 0.2,0.2 0.2,0.3 0,0.1 0.1,0.2 0.1,0.4 l 0,0.5 0,0.4 c 0,0.2 0,0.3 -0.1,0.5 0,0.1 -0.1,0.3 -0.2,0.4 -0.1,0.1 -0.2,0.2 -0.2,0.4 0,0.2 -0.1,0.4 -0.2,0.5 z"
         id="path125"
         inkscape:connector-curvature="0"
         style="fill:#000000;fill-opacity:1" /><path
         class="st1"
         d="m 312.4,244.7 c 0,0.1 0,0.3 -0.1,0.4 0,0.1 -0.1,0.2 -0.2,0.3 -0.1,0.1 -0.2,0.2 -0.3,0.2 -0.1,0.1 -0.2,0.1 -0.4,0.1 l -0.3,0 c -0.1,0 -0.2,0 -0.4,-0.1 -0.1,-0.1 -0.2,-0.1 -0.3,-0.2 -0.1,-0.1 -0.2,-0.2 -0.2,-0.3 0,-0.1 -0.1,-0.2 -0.1,-0.4 l 0,-3.5 c 0,-0.1 0,-0.3 0.1,-0.4 0.1,-0.1 0.1,-0.2 0.2,-0.3 0.1,-0.1 0.2,-0.2 0.3,-0.2 0.1,-0.1 0.2,-0.1 0.4,-0.1 l 0.3,0 c 0.1,0 0.3,0 0.4,0.1 0.1,0.1 0.2,0.1 0.3,0.2 0.1,0.1 0.2,0.2 0.2,0.3 0,0.1 0.1,0.2 0.1,0.4 l 0,3.5 z m -0.8,-3.5 c 0,-0.1 0,-0.1 -0.1,-0.1 0,0 -0.1,-0.1 -0.1,-0.1 l -0.1,0 c 0,0 -0.1,0 -0.1,0.1 0,0 -0.1,0.1 -0.1,0.1 l 0,3.4 c 0,0.1 0,0.1 0.1,0.1 0,0 0.1,0.1 0.1,0.1 l 0.1,0 c 0.1,0 0.1,0 0.1,-0.1 0,0 0.1,-0.1 0.1,-0.1 l 0,-3.4 z"
         id="path127"
         inkscape:connector-curvature="0"
         style="fill:#000000;fill-opacity:1" /><path
         class="st1"
         d="m 314.5,240.4 0,5.1 c 0,0.1 0,0.1 -0.1,0.1 l -0.7,0 c -0.1,0 -0.1,0 -0.1,-0.1 l 0,-3.8 c -0.1,0.1 -0.1,0.1 -0.2,0.2 -0.1,0.1 -0.2,0.1 -0.3,0.1 0,0 -0.1,0 -0.1,0 0,0 0,0 0,-0.1 l 0,-0.6 c 0,0 0,0 0,-0.1 0,0 0,0 0.1,0 0.1,0 0.2,-0.1 0.3,-0.2 0.1,-0.1 0.2,-0.2 0.2,-0.3 0.1,-0.1 0.1,-0.2 0.1,-0.4 0,0 0,-0.1 0.1,-0.1 l 0.5,0 c 0.2,0.1 0.2,0.1 0.2,0.2 z"
         id="path129"
         inkscape:connector-curvature="0"
         style="fill:#000000;fill-opacity:1" /><path
         class="st1"
         d="m 316.2,245.6 c -0.1,0 -0.2,0 -0.4,-0.1 -0.1,-0.1 -0.2,-0.1 -0.3,-0.2 -0.1,-0.1 -0.2,-0.2 -0.2,-0.3 0,-0.1 -0.1,-0.2 -0.1,-0.4 l 0,-3.5 c 0,-0.1 0,-0.3 0.1,-0.4 0.1,-0.1 0.1,-0.2 0.2,-0.3 0.1,-0.1 0.2,-0.2 0.3,-0.2 0.1,-0.1 0.2,-0.1 0.4,-0.1 l 0.3,0 c 0.1,0 0.3,0 0.4,0.1 0.1,0.1 0.2,0.1 0.3,0.2 0.1,0.1 0.2,0.2 0.2,0.3 0,0.1 0.1,0.2 0.1,0.4 l 0,0.3 c 0,0.1 0,0.1 -0.1,0.1 l -0.7,0.2 c -0.1,0 -0.1,0 -0.1,-0.1 l 0,-0.5 c 0,-0.1 0,-0.1 -0.1,-0.1 0,0 -0.1,-0.1 -0.1,-0.1 l -0.1,0 c 0,0 -0.1,0 -0.1,0.1 0,0 -0.1,0.1 -0.1,0.1 l 0,1.1 c 0.1,-0.1 0.3,-0.1 0.5,-0.1 0.1,0 0.2,0 0.3,0 0.3,0.1 0.5,0.4 0.5,0.7 l 0,1.7 c 0,0.1 0,0.3 -0.1,0.4 0,0.1 -0.1,0.2 -0.2,0.3 -0.1,0.1 -0.2,0.2 -0.3,0.2 -0.1,0.1 -0.2,0.1 -0.4,0.1 l -0.2,0 z m 0,-1 c 0,0.1 0,0.1 0.1,0.1 0,0 0.1,0.1 0.1,0.1 l 0.1,0 c 0.1,0 0.1,0 0.1,-0.1 0,0 0.1,-0.1 0.1,-0.1 l 0,-1.4 c 0,-0.1 0,-0.1 0,-0.2 0,0 0,0 0,0 0,0 -0.1,0 -0.1,0 l -0.1,0 c 0,0 -0.1,0 -0.1,0 0,0 0,0 0,0 0,0 0,0.1 0,0.2 l 0,1.4 z"
         id="path131"
         inkscape:connector-curvature="0"
         style="fill:#000000;fill-opacity:1" /></g></g></svg>